<svg width="363" height="256" viewBox="0 0 363 256" fill="none" xmlns="http://www.w3.org/2000/svg">
<path d="M0.933326 232.794C5.58541 241.118 12.5921 248.885 20.8875 255.278H330.105C346.986 239.654 358.338 218.15 361.674 195.389C365.097 172.116 360.109 147.7 347.85 127.616C342.35 118.633 335.342 110.397 326.464 104.706C319.089 99.9664 310.781 97.1878 302.369 94.6131C299.414 93.7065 296.445 92.8278 293.505 91.9064C288.15 90.2251 282.856 88.3811 277.853 85.9238C261.761 78.0091 249.765 64.5518 237.741 50.9904C234.814 47.7131 231.889 44.4078 228.89 41.1891C224.048 35.9518 219.03 30.9211 213.604 26.3998C193.344 9.56245 167.07 0.346456 140.725 0.0104563C117.553 -0.29621 94.4401 6.15444 74.4125 17.8278C71.6625 19.4224 68.9855 21.1197 66.3672 22.9037C64.5973 24.1184 62.8421 25.3611 61.1453 26.6784C54.4167 31.7824 48.2135 37.5918 43.0052 44.2171C34.6677 54.8238 29.1093 67.3451 25.7 80.6278C24.7787 84.1384 24.0323 87.7091 23.4177 91.3064C20.5219 108.057 20.5948 125.465 22.3797 141.38C23.8864 154.824 25.1885 169.554 18.2104 181.785C13.324 190.357 3.85885 195.492 -0.514594 204.326C-1.02657 205.38 -1.46511 206.433 -1.84533 207.516C-4.69845 215.84 -3.3672 225.1 0.933326 232.794" fill="#B9E8EA"/>
<path d="M189.077 87.8558C187.373 87.3718 185.61 87.5064 183.973 88.1518C182.464 88.7424 180.414 90.0251 178.837 88.9678C178.149 88.5078 177.789 87.6998 177.466 86.9651C177.152 86.2558 176.853 85.5451 176.386 84.9118C175.524 83.7398 174.324 82.8731 172.972 82.3424C170.245 81.2718 167.014 81.7518 164.961 83.9158C162.88 86.1118 162.196 89.5398 163.388 92.3184C158.962 91.2398 153.941 90.3571 150.088 93.4024C149.184 94.1184 148.45 95.0318 147.984 96.0891C147.886 96.3011 147.997 96.5731 148.26 96.5691C149.838 96.5544 152.377 96.5318 155.472 96.4944C157.181 96.4771 159.058 96.4571 161.038 96.4358C162.205 96.4211 163.406 96.4064 164.629 96.3931C177.941 96.2371 193.709 96.0371 193.709 96.0371C193.838 96.0371 193.926 95.9691 193.972 95.8811C194.125 96.0798 194.53 96.0158 194.554 95.6878L194.558 95.5064C194.701 92.0504 192.421 88.8118 189.077 87.8558" fill="white"/>
<path d="M164.629 96.3931C163.872 93.7865 164.614 90.7958 166.488 88.8158C167.842 87.3878 169.712 86.6931 171.609 86.6931C172.589 86.6931 173.576 86.8785 174.504 87.2425C175.856 87.7731 177.056 88.6411 177.92 89.8131C178.385 90.4411 178.685 91.1518 178.998 91.8665C179.321 92.5998 179.681 93.4078 180.368 93.8691C180.802 94.1598 181.27 94.2731 181.754 94.2731C183.032 94.2731 184.41 93.4798 185.505 93.0478C186.477 92.6664 187.493 92.4651 188.513 92.4651C189.213 92.4651 189.916 92.5598 190.609 92.7571C192.229 93.2185 193.594 94.2118 194.558 95.5065L194.554 95.6878C194.54 95.8918 194.377 95.9931 194.22 95.9931C194.124 95.9931 194.03 95.9558 193.972 95.8811C193.926 95.9691 193.838 96.0371 193.709 96.0371C193.709 96.0371 177.941 96.2371 164.629 96.3931" fill="#F2FBFA"/>
<path d="M316.216 145.272C313.938 144.624 311.58 144.802 309.386 145.668C307.368 146.457 304.626 148.174 302.514 146.761C301.593 146.142 301.113 145.062 300.681 144.08C300.26 143.129 299.86 142.178 299.236 141.332C298.081 139.764 296.474 138.602 294.666 137.893C291.017 136.461 286.694 137.102 283.946 139.998C281.161 142.938 280.248 147.526 281.841 151.244C275.918 149.798 269.2 148.618 264.044 152.694C262.833 153.652 261.853 154.874 261.228 156.289C261.098 156.572 261.248 156.937 261.598 156.93C263.71 156.912 267.106 156.881 271.25 156.832C273.534 156.806 276.048 156.782 278.697 156.752C280.26 156.733 281.865 156.714 283.501 156.696C301.316 156.485 322.417 156.22 322.417 156.22C322.589 156.22 322.706 156.128 322.768 156.01C322.972 156.276 323.516 156.189 323.546 155.75L323.552 155.51C323.744 150.885 320.694 146.55 316.216 145.272" fill="white"/>
<path d="M283.501 156.696C282.488 153.208 283.482 149.206 285.989 146.557C287.802 144.645 290.304 143.716 292.844 143.716C294.153 143.716 295.474 143.964 296.716 144.45C298.526 145.161 300.132 146.322 301.285 147.89C301.909 148.73 302.31 149.681 302.73 150.638C303.162 151.62 303.644 152.701 304.565 153.317C305.145 153.706 305.772 153.858 306.42 153.858C308.128 153.858 309.973 152.797 311.437 152.218C312.737 151.709 314.097 151.44 315.464 151.44C316.4 151.44 317.34 151.566 318.266 151.83C320.434 152.448 322.261 153.774 323.552 155.51L323.546 155.75C323.528 156.024 323.309 156.161 323.098 156.161C322.97 156.161 322.845 156.11 322.768 156.01C322.706 156.128 322.589 156.22 322.417 156.22C322.417 156.22 301.316 156.485 283.501 156.696" fill="#F2FBFA"/>
<path d="M231.505 64.9131L193.208 64.8504L158.849 64.7997L149.814 64.7864L76.0244 64.6717H74.712C74.5202 57.3211 76.151 49.9317 79.515 42.9491C80.4453 41.0131 81.5401 39.0637 83.4645 37.5091C85.3744 35.9557 88.2552 34.8344 91.1973 35.0251C100.217 35.6237 101.415 46.4664 110.41 47.2051C114.92 47.5877 118.894 44.9491 120.717 42.0704C122.552 39.2037 122.959 35.9931 124.616 33.0757C126.272 30.1464 129.838 27.3437 134.386 27.3437C139.877 27.3437 143.61 31.4064 144.273 35.1651C144.922 38.9237 143.649 42.7584 144.502 46.4917C145.357 50.2371 149.612 54.1491 155.077 53.7397C160.937 53.2944 163.613 48.5677 168.021 45.8677C174.658 41.8157 186.609 43.2931 190.788 48.6824C193.208 51.7917 193.718 56.0851 198.342 57.5877C203.172 59.1424 208.42 56.4037 213.618 55.5757C221.924 54.2637 231.085 59.0398 231.505 64.9131" fill="white"/>
<path d="M149.814 64.7864L76.0244 64.6717C76.8265 61.3851 77.9984 58.1491 79.5151 55.0024C80.4453 53.0651 81.5402 51.1157 83.4646 49.5611C85.2235 48.1304 87.8063 47.0664 90.5021 47.0664C90.7333 47.0664 90.9651 47.073 91.1973 47.0904C100.217 47.677 101.415 58.5184 110.41 59.257C110.704 59.2824 110.996 59.2944 111.285 59.2944C115.43 59.2944 119.013 56.8144 120.717 54.1237C122.552 51.257 122.959 48.0451 124.616 45.1277C126.272 42.2117 129.839 39.3957 134.386 39.3957C139.877 39.3957 143.61 43.4584 144.273 47.217C144.922 50.9757 143.649 54.8104 144.502 58.557C145.05 60.9637 147.026 63.449 149.814 64.7864" fill="#F2FBFA"/>
<path d="M193.208 64.8505L158.849 64.7998C162.338 63.1811 164.684 59.9705 168.021 57.9331C170.602 56.3518 173.988 55.6092 177.406 55.6092C182.778 55.6092 188.234 57.4425 190.788 60.7358C191.769 61.9958 192.444 63.4611 193.208 64.8505Z" fill="#F2FBFA"/>
<path d="M45.9385 254.966C40.7901 252.652 35.5244 250.26 31.4932 246.308C27.462 242.356 24.8511 236.461 26.3188 231.009C27.7859 225.558 34.3396 221.576 39.4073 224.062C34.2025 218.794 31.1063 211.5 30.9307 204.097C30.8292 199.814 31.8411 195.212 35.0021 192.32C38.164 189.428 43.8697 189.182 46.376 192.657C42.2057 185.569 39.3525 176.805 42.4552 169.189C45.5593 161.573 56.8489 157.52 62.3645 163.621C58.4688 152.434 67.6364 139.536 79.2432 137.166C90.8489 134.796 102.986 141.158 110.124 150.61C109.614 142.142 120.574 136.768 128.596 139.529C136.618 142.29 141.773 149.974 145.862 157.408C143.025 149.801 140.141 141.86 140.961 133.782C141.778 125.705 147.51 117.504 155.59 116.724C161.801 116.124 167.768 120.056 171.256 125.228C174.746 130.4 176.197 136.65 177.361 142.78C177.057 137.116 176.825 131.116 179.534 126.134C182.246 121.152 189.054 117.948 193.79 121.07C196.08 122.578 197.397 125.182 198.284 127.777C200.401 133.965 200.614 140.789 198.889 147.098C200.036 139.59 202.854 132.342 207.08 126.033C209.658 122.178 213.558 118.333 218.166 118.861C222.13 119.316 224.985 122.876 226.79 126.433C231.529 135.782 232.066 147.168 228.224 156.921C227.916 153.072 230.877 149.566 234.401 147.989C237.924 146.413 241.91 146.345 245.77 146.304C249.138 146.268 252.868 146.365 255.332 148.662C257.385 150.577 258.016 153.56 258.241 156.36C258.877 164.252 257.104 172.321 253.218 179.22C257.212 173.181 262.509 166.434 269.742 166.72C276.674 166.993 281.696 174.19 282.088 181.117C282.481 188.044 279.49 194.661 276.568 200.953C279.217 195.709 283.188 190.937 288.486 188.401C293.788 185.865 300.526 185.917 305.216 189.456C309.906 192.996 311.69 200.269 308.35 205.104C311.066 197.906 322.897 197.565 326.886 204.141C330.876 210.718 326.532 220.293 319.238 222.734C324.216 217.265 333.902 217.798 339.014 223.144C344.125 228.488 344.618 237.288 341.081 243.782C337.545 250.277 330.609 254.492 323.345 255.882L45.9385 254.966" fill="#5BC69A"/>
<path d="M308.849 255.834L66.8484 255.036L66.738 254.945C62.462 251.27 56.8812 244.682 59.1806 238.56C59.2505 238.374 59.327 238.194 59.4098 238.022C60.4734 237.329 61.3374 236.305 62.0849 235.184C63.6541 234.274 65.5792 233.89 67.4401 233.868C67.841 233.864 68.2396 233.441 68.0833 233.024C67.4672 231.38 66.7688 229.762 66.0276 228.157C70.9161 219.213 75.8046 210.269 80.6926 201.325L75.8926 200.11C76.2249 199.585 76.574 199.062 76.8968 198.534L68.3292 196.206L68.4869 196.01L62.9541 193.521C62.9338 193.542 62.9134 193.564 62.8932 193.585C61.4864 195.069 60.0401 196.524 58.5781 197.962C57.903 198.628 57.2244 199.289 56.5437 199.949C56.6306 195.457 57.4781 190.445 60.7208 187.156C62.9812 184.862 66.1057 183.768 69.2505 183.768C71.262 183.768 73.2817 184.216 75.0885 185.085C80.3682 187.624 84.0468 192.609 87.7614 196.954C87.8906 197.105 88.0442 197.168 88.1964 197.168C88.641 197.168 89.0692 196.626 88.8082 196.146C85.7317 190.488 83.862 182.584 86.1416 176.338C87.2978 173.17 89.8197 171.032 93.1328 170.393C93.9 170.245 94.6604 170.176 95.4125 170.176C99.2416 170.176 102.854 171.956 106.024 174.1C110.562 177.168 114.675 181.213 117.741 185.76C117.882 185.969 118.101 186.062 118.317 186.062C118.717 186.062 119.106 185.74 118.958 185.245C118.061 182.232 117.346 179.132 117.043 175.997C116.784 173.34 116.591 170.029 118.092 167.669C118.963 166.301 120.29 165.833 121.711 165.833C123.052 165.833 124.477 166.25 125.681 166.718C130.309 168.52 133.898 172.097 136.549 176.218C139.45 180.729 141.348 185.798 142.889 190.909C142.986 191.232 143.253 191.381 143.52 191.381C143.852 191.381 144.185 191.15 144.198 190.732C144.546 179.977 138.553 164.793 150.018 157.746C152.708 156.093 155.92 154.86 159.052 154.86C161.145 154.86 163.202 155.41 165.042 156.757C168.974 159.634 170.929 164.714 172.165 169.245C173.636 174.636 174.266 180.285 174.276 185.865C174.277 186.294 174.61 186.509 174.944 186.509C175.277 186.509 175.61 186.294 175.609 185.865C175.605 182.318 175.506 178.774 175.713 175.229C175.946 171.238 176.414 166.977 178.198 163.341C179.776 160.122 182.406 158.201 185.914 158.201C186.181 158.201 186.452 158.212 186.728 158.234C191.238 158.6 193.576 162.449 194.669 166.444C195.921 171.021 195.953 175.845 195.953 180.557C195.969 180.985 196.304 181.2 196.634 181.2C196.962 181.2 197.286 180.986 197.286 180.557C197.286 180.094 197.285 179.629 197.282 179.166C197.364 176.185 198.032 173.208 198.945 170.388C200.11 166.786 201.796 163.162 204.345 160.322C206.242 158.209 208.756 156.57 211.588 156.57C212.06 156.57 212.541 156.617 213.029 156.713C217.558 157.608 221.137 161.401 222.325 165.754C223.745 170.952 222.752 176.657 221.194 181.706C221.04 182.205 221.422 182.516 221.82 182.516C222.085 182.516 222.358 182.376 222.478 182.061C224.094 177.834 228.804 173.797 233.569 173.797C234.084 173.797 234.598 173.844 235.109 173.942C237.893 174.48 239.566 176.766 240.216 179.406C241.106 183.021 239.88 186.926 238.397 190.213C236.744 193.88 234.517 197.318 231.982 200.436L231.986 200.438L231.878 200.57C231.541 201.024 232.034 201.585 232.501 201.585C232.656 201.585 232.808 201.524 232.925 201.378L233.029 201.242C235.934 197.326 241.068 195.81 245.878 195.81C246.841 195.81 247.792 195.872 248.708 195.986C254.864 196.754 262.093 200.742 261.569 207.925C261.23 212.554 257.821 216.494 254.986 219.901C254.614 220.346 254.938 221.061 255.444 221.061C255.553 221.061 255.673 221.026 255.796 220.948C260.962 217.613 266.468 214.448 272.469 212.908C274.137 212.48 276.002 212.214 277.869 212.214C282.392 212.214 286.918 213.776 288.656 218.376C289.966 221.844 288.633 225.553 286.397 228.306C286.001 228.794 286.337 229.436 286.869 229.436C286.974 229.436 287.089 229.41 287.205 229.353C289.66 228.158 292.277 227.537 294.906 227.537C296.924 227.537 298.948 227.902 300.912 228.657C305.2 230.306 308.842 233.577 311.294 237.426C313.51 240.904 314.406 244.961 313.13 248.95C312.297 251.553 310.718 253.838 308.849 255.834" fill="#18AD74"/>
<path d="M75.8927 200.111C76.2249 199.585 76.574 199.062 76.8968 198.534L68.3292 196.207L68.4869 196.011L62.9541 193.521C54.1468 202.817 43.8645 210.929 37.0661 221.781C36.5 222.686 35.9505 223.628 35.7156 224.67C35.4801 225.713 35.6 226.885 36.2683 227.72C36.9855 228.617 38.2224 228.976 39.3683 228.889C42.1588 228.682 44.2312 226.318 45.9801 224.133C49.6989 219.486 53.4177 214.84 57.1375 210.192C51.9896 216.702 47.0833 223.353 43.6104 230.861C43.1131 231.937 42.6416 233.049 42.5287 234.229C42.4151 235.409 42.7109 236.681 43.5609 237.506C44.4776 238.393 45.8875 238.614 47.1364 238.36C50.1765 237.74 52.1276 234.85 53.7448 232.202C54.2104 231.44 54.7109 230.685 55.1964 229.926C54.8588 230.665 54.5359 231.412 54.2312 232.168C53.8292 233.157 53.4525 234.18 53.4021 235.248C53.3516 236.314 53.6729 237.449 54.4765 238.154C55.3396 238.913 56.6192 239.05 57.7328 238.766C60.4448 238.077 62.0749 235.389 63.4167 232.933C69.1755 222.398 74.9349 211.861 80.6927 201.325L75.8927 200.111Z" fill="#F57C63"/>
<path d="M56.3151 200.172C56.3911 200.097 56.4677 200.024 56.5437 199.949V199.95C56.4677 200.024 56.3916 200.098 56.3151 200.172Z" fill="#18151F"/>
<path d="M56.5437 199.95V199.949C57.2244 199.289 57.903 198.628 58.5781 197.962C57.9025 198.628 57.2249 199.289 56.5437 199.95V199.95ZM62.8932 193.585C62.9134 193.564 62.9338 193.542 62.9541 193.521C62.9338 193.544 62.914 193.564 62.8932 193.585Z" fill="#090F11"/>
<path d="M77.3021 207.529C74.8801 207.416 72.4645 207.145 70.0792 206.704C67.1077 206.153 63.9047 205.476 61.2421 203.997C59.4088 202.981 57.8812 201.552 56.3151 200.172C56.3916 200.098 56.4677 200.024 56.5437 199.95C57.2249 199.289 57.9025 198.628 58.5781 197.962C60.0411 196.524 61.4859 195.069 62.8932 193.585C62.914 193.564 62.9339 193.544 62.9541 193.521L68.4869 196.01L68.3292 196.206L76.8968 198.534C76.574 199.062 76.2249 199.585 75.8927 200.11L80.6927 201.325C79.5625 203.393 78.4323 205.462 77.3021 207.529" fill="#420C17"/>
<path d="M273.669 128.08C269.286 125.081 263.502 124.621 258.572 125.045H258.412C251.101 125.72 244.484 129.961 240.598 136.489L208.877 189.873C189.217 195.053 116.669 203.593 116.324 202.397L116.26 202.273C112.717 201.078 110.899 197.158 110.105 193.504C109.311 189.849 109.085 185.93 107.066 182.782C106.79 182.353 106.467 181.929 106.015 181.69C104.486 180.886 102.827 182.638 102.295 184.282C101.114 187.929 101.958 191.949 103.476 195.468C103.784 196.181 104.126 196.94 103.981 197.701C103.685 199.274 101.69 199.737 100.095 199.864C86.6583 200.932 73.2224 201.998 59.7859 203.065C58.0688 203.201 56.238 203.381 54.8927 204.456C54.4188 204.834 54.0011 205.384 54.0573 205.988C54.1 206.453 54.4135 206.848 54.7615 207.158C56.5323 208.741 59.1703 208.726 61.5443 208.622C65.462 208.452 69.3812 208.28 73.2995 208.108C72.4594 209.626 72.5801 211.624 73.5973 213.028C74.614 214.432 76.4749 215.17 78.1781 214.848C76.8197 216.26 76.5896 218.622 77.6468 220.27C78.7057 221.92 80.9489 222.694 82.7979 222.05C82.1208 223.57 82.9645 225.429 84.3073 226.412C85.6495 227.396 87.3588 227.7 89.0104 227.913C96.1025 228.83 103.346 228.57 110.354 227.144C113.608 226.482 119.461 223.372 119.461 223.372C119.461 223.372 135.83 224.465 143.305 225.108C154.305 226.048 165.197 226.296 176.144 226.048C186.433 225.834 196.76 225.232 207.228 224.326L207.421 224.292C217.428 223.369 226.637 218.012 233.182 210.062L238.505 203.658L276.542 157.654C279.434 154.16 281.386 149.83 281.794 145.324C281.882 144.526 281.917 143.71 281.882 142.876C281.741 137.98 279.896 132.321 273.669 128.08" fill="#D26258"/>
<path d="M100.802 220.125C99.7016 219.041 97.8692 218.826 96.4135 218.661C95.7041 218.581 94.9932 218.553 94.2807 218.542C94.4464 218.494 94.6131 218.454 94.7787 218.405C95.6224 218.154 96.5192 217.926 97.2787 217.465C97.9896 217.036 98.5521 216.37 98.712 215.541C98.8692 214.729 98.6989 213.872 98.2771 213.162C97.8093 212.378 97.0801 211.857 96.2552 211.544C97.3197 210.994 98.1416 210.173 98.2484 208.842C98.341 207.678 97.5323 206.677 96.5104 206.221C95.2563 205.66 93.8672 205.862 92.5443 205.989L83.8145 206.826C80.5021 207.144 77.1901 207.461 73.8776 207.778C73.5697 207.808 73.3057 208.02 73.3057 208.35C73.3057 208.637 73.5688 208.953 73.8776 208.924C79.2953 208.404 84.7131 207.885 90.1312 207.366C91.4489 207.238 92.7735 207.066 94.0964 207C95.0833 206.95 96.3369 207.046 96.9125 207.988C97.4411 208.854 96.8109 209.873 96.0573 210.358C95.4021 210.782 94.6276 211.008 93.85 211.184C93.8125 211.185 86.0521 212.408 83.8369 212.626C83.5297 212.657 83.2651 212.868 83.2651 213.2C83.2651 213.485 83.5287 213.802 83.8369 213.772C84.8083 213.676 85.7771 213.568 86.7468 213.461C86.7849 213.472 93.8577 212.558 93.9188 212.344L93.9959 212.324C95.0781 212.293 96.1651 212.513 96.9437 213.296C97.3995 213.754 97.6531 214.398 97.626 215.044C97.5973 215.716 97.1729 216.209 96.6104 216.529C95.9167 216.926 95.1025 217.116 94.3411 217.34C93.4135 217.613 92.4812 217.87 91.5453 218.109C89.4489 218.644 87.3317 219.092 85.1973 219.454C84.8927 219.506 84.7224 219.882 84.7979 220.158C84.8864 220.482 85.1964 220.61 85.5021 220.558C86.9464 220.313 88.3812 220.014 89.8093 219.689C89.8995 219.77 90.0203 219.825 90.1833 219.816C91.7859 219.722 93.3943 219.629 95 219.698C95.7807 219.733 96.5593 219.802 97.3281 219.94C97.9907 220.06 98.6973 220.189 99.3083 220.484C99.7536 220.698 100.258 221.025 100.334 221.558C100.42 222.152 99.9577 222.684 99.5541 223.053C98.5911 223.937 97.2891 224.5 96.0287 224.797C94.5688 225.141 93.0411 225.101 91.6 224.685C90.8907 224.481 90.5885 225.586 91.2953 225.79C94.2849 226.652 97.7276 226.036 100.149 224.049C100.738 223.566 101.291 222.908 101.439 222.141C101.583 221.394 101.342 220.657 100.802 220.125" fill="#411C39"/>
<path d="M118.844 208.461C113.958 208.865 109.282 210.859 105.583 214.072C104.552 214.968 103.608 215.96 102.76 217.03C102.569 217.273 102.523 217.604 102.76 217.841C102.959 218.04 103.378 218.084 103.57 217.841C106.454 214.195 110.486 211.532 114.97 210.298C116.238 209.949 117.534 209.715 118.844 209.607C119.574 209.547 119.58 208.401 118.844 208.461" fill="#411C39"/>
<path d="M134.646 197.962L143.305 225.108C154.305 226.048 165.197 226.296 176.144 226.048C186.433 225.834 196.76 225.232 207.228 224.326L207.421 224.292C217.428 223.369 226.637 218.012 233.182 210.062L238.505 203.658L276.542 157.654C279.434 154.16 281.386 149.83 281.794 145.324C281.882 144.526 281.917 143.71 281.882 142.876C281.741 137.98 279.896 132.321 273.669 128.08C269.286 125.081 263.502 124.621 258.57 125.045H258.412C251.101 125.72 244.484 129.961 240.598 136.489L208.877 189.873C188.138 191.31 168.16 192.481 148.006 195.586C143.572 196.277 139.118 197.058 134.646 197.962" fill="#F9B13E"/>
<path d="M273.669 128.08C269.286 125.081 263.502 124.621 258.572 125.045H258.412C251.101 125.72 244.484 129.961 240.598 136.489L208.877 189.873C188.138 191.31 168.16 192.481 148.006 195.586C145.448 195.985 142.881 196.425 140.31 196.889C143.125 200.169 146.284 203.148 149.658 205.844C160.03 214.129 171.997 219.83 183.789 225.82C191.552 225.517 199.349 225.008 207.228 224.326L207.421 224.292C217.428 223.369 226.637 218.012 233.182 210.062L238.505 203.658L276.542 157.654C279.434 154.16 281.386 149.83 281.794 145.324C281.882 144.526 281.917 143.71 281.882 142.876C281.741 137.98 279.896 132.321 273.669 128.08" fill="#411C39"/>
<path d="M264.088 92.7278L272.921 110.152C269.172 121.512 256.313 124.721 252.452 125.44C251.75 125.577 251.338 125.618 251.338 125.618C251.098 125.133 250.86 124.66 250.604 124.173C245.534 114.238 239.752 105.36 239.752 105.36L237.706 106.208L229.668 109.521C223.274 111.108 220.864 105.021 220.297 103.209C220.144 102.7 219.977 102.208 219.781 101.704L215.305 94.4237L213.029 93.3931C209.265 91.1584 209.926 89.3371 209.926 89.3371L214.738 78.7944C207.625 59.8464 217.412 51.4998 217.412 51.4998C251.198 21.6144 269.96 54.0211 269.96 54.0211C283.557 79.0771 264.088 92.7278 264.088 92.7278" fill="#D26258"/>
<path d="M243.762 91.4278L243.912 91.3811C248.16 89.4358 250.865 86.9278 251.95 83.9278C253.136 80.6518 251.908 78.0265 251.854 77.9158C251.693 77.5798 251.293 77.4331 250.953 77.5998C250.618 77.7611 250.474 78.1625 250.636 78.4985C250.645 78.5211 251.673 80.7585 250.67 83.4958C249.705 86.1318 247.242 88.3705 243.348 90.1518C243.009 90.3078 242.86 90.7065 243.014 91.0478C243.148 91.3385 243.461 91.4891 243.762 91.4278" fill="#411C39"/>
<path d="M241.322 89.1665L241.373 89.1544C241.733 89.0531 241.941 88.6798 241.841 88.3211C240.916 85.0544 244.73 83.5571 244.893 83.4945C245.242 83.3611 245.416 82.9718 245.284 82.6238C245.149 82.2731 244.752 82.0971 244.412 82.2331C242.634 82.9118 239.534 85.1344 240.538 88.6878C240.637 89.0304 240.978 89.2358 241.322 89.1665" fill="#411C39"/>
<path d="M250.054 123.097L254.705 134.397C259.853 126.645 263.144 120.042 265.713 110.298C260.058 114.212 254.508 118.349 250.054 123.097Z" fill="#D26258"/>
<path d="M250.604 124.173C245.534 114.238 239.752 105.36 239.752 105.36L237.706 106.208L240.192 105.048C245.388 102.638 251.477 105.752 252.526 111.397C253.274 115.478 253.177 120.164 250.604 124.173" fill="#411C39"/>
<path d="M219.965 95.3371C222.772 94.8945 225.304 93.0331 226.478 90.4278C226.63 90.0971 226.969 89.8811 227.337 90.0078C227.657 90.1185 227.909 90.5318 227.757 90.8665C226.386 93.8998 223.536 96.1411 220.232 96.6611C219.376 96.7958 219.104 95.4718 219.965 95.3371Z" fill="#411C39"/>
<path d="M223.825 73.7917L223.836 73.7824L224.044 73.6944C222.612 71.3064 219.91 69.7784 217.128 69.8971C216.688 69.9171 216.23 69.9798 215.852 70.2278C215.473 70.4771 215.2 70.9571 215.308 71.3917C215.429 71.8744 215.938 72.1131 216.409 72.2291C217.38 72.4678 218.404 72.4344 219.413 72.4278C220.421 72.4224 221.45 72.4491 222.386 72.7971C222.937 73.0011 223.438 73.3491 223.825 73.7917Z" fill="#411C39"/>
<path d="M220.74 79.0918C220.922 80.5825 220.269 81.9478 219.278 82.1451C218.289 82.3425 217.336 81.2945 217.152 79.8051C216.969 78.3158 217.622 76.9491 218.612 76.7518C219.602 76.5558 220.554 77.6025 220.74 79.0918Z" fill="#411C39"/>
<path d="M199.388 54.2398C201.705 55.3105 204.518 54.1878 206.289 52.3798L206.437 52.1971C205.245 52.0105 204.072 51.7025 202.949 51.2531C205.472 47.1998 209.146 43.8731 213.43 41.7665C212.242 42.0731 211.002 42.1798 209.777 42.0811C211.946 41.9824 213.802 40.4798 215.193 38.8131C216.584 37.1451 217.701 35.2318 219.324 33.7891C222.505 30.9611 227.042 30.4011 231.277 29.9678C229.25 29.6758 227.285 28.9731 225.53 27.9171C228.082 28.8758 230.921 28.5624 233.609 28.1038C236.298 27.6464 239.034 27.0558 241.725 27.5011C244.344 27.9331 246.94 29.6305 247.612 32.1771C249.578 29.7798 253.164 29.0331 256.254 29.6545C259.618 30.3118 262.561 32.2238 265.514 33.9558C268.468 35.6851 271.673 37.3051 275.101 37.2638C273.597 37.9611 271.889 38.2251 270.242 37.9985C273.201 38.8678 275.881 40.7905 277.5 43.4118C279.082 45.9985 279.608 49.0758 279.933 52.0718C280.264 55.0825 280.414 58.1411 281.389 61.0091C282.349 63.8798 284.286 66.5798 287.11 67.6625C284.213 67.2505 281.418 66.1158 279.036 64.4091C279.106 65.9465 279.076 67.4971 278.989 69.0625C279.14 70.1785 279.332 71.2838 279.582 72.3878C280.482 76.3131 282.126 80.1291 284.894 83.0504C282.85 81.9518 280.806 80.8518 278.764 79.7531C279.866 80.9398 280.09 82.7185 279.929 84.3331C279.753 85.9518 279.237 87.5131 279.076 89.1278C278.728 92.5425 280.078 96.0945 282.61 98.4131C279.941 97.9118 277.536 96.1825 276.233 93.8025C276.73 97.0491 274.35 100.457 271.166 101.19C271.234 102.61 271.125 104.033 270.828 105.417C267.422 102.606 265.174 98.5225 264.402 94.1918C264.001 92.8011 263.749 91.3571 263.669 89.8958C262.445 92.1358 261.893 94.7291 262.097 97.2691C258.893 93.3811 257.054 88.3878 256.997 83.3465C256.072 86.7078 252.561 89.1585 249.085 88.8571C250.748 87.1971 252.265 85.2798 252.902 83.0038C253.526 80.7318 253.11 78.0705 251.389 76.4558C248.862 74.1051 244.504 74.9891 242.073 77.4331C239.645 79.8905 238.676 83.4118 237.948 86.7945C234.705 84.3691 232.537 80.5304 232.152 76.4824C232.276 78.2731 231.14 80.0731 229.48 80.7398C230.77 78.2451 229.886 75.1011 228.169 72.8918C226.437 70.6851 224.016 69.1691 221.782 67.4678C219.552 65.7798 217.382 63.7665 216.532 61.0878C215.657 63.0265 215.67 65.3505 216.598 67.2665C214.868 67.5065 213.052 66.6438 212.162 65.1465C211.41 69.9291 212.198 74.9358 214.378 79.2611C208.304 74.2291 205.436 65.6105 207.313 57.9331C204.286 58.0905 201.22 56.6558 199.388 54.2398" fill="#411C39"/>
<path d="M295.929 180.656C294.472 189.246 292.768 197.821 290.992 206.368C290.228 210.077 289.448 213.801 288.638 217.497C287.109 224.614 286.286 239.152 286.604 255.276H215.954C216.054 245.084 216.098 237.274 216.054 235.094C216.04 234.358 216.026 233.622 215.997 232.857C215.982 232.178 215.969 231.5 215.954 230.808C215.94 230.33 215.94 229.84 215.925 229.349C215.912 228.584 215.881 227.805 215.866 227.04C215.853 226.404 215.838 225.769 215.824 225.149V225.134C215.796 224.225 215.781 223.329 215.752 222.449C215.752 222.189 215.737 221.944 215.737 221.684C215.65 218.45 215.58 215.418 215.506 212.964C213.63 205.126 213.716 196.853 215.044 188.61C215.117 188.12 215.202 187.614 215.305 187.124C215.318 186.993 215.333 186.878 215.361 186.764C216.198 182.114 217.426 177.494 218.914 172.99C222.03 163.405 226.305 154.397 230.448 146.876C230.708 146.414 230.953 145.952 231.213 145.505C231.689 144.653 232.165 143.83 232.628 143.021L232.729 142.862C232.902 142.545 233.089 142.242 233.262 141.938L233.393 141.722C234.417 140.018 235.4 138.417 236.353 136.93C239.917 131.344 242.805 127.546 243.902 126.349C245.042 125.106 246.313 123.952 247.656 122.884C249.316 121.512 251.105 120.27 252.91 119.13C254.065 118.394 255.234 117.686 256.389 117.022C257.905 116.142 259.45 115.305 261.024 114.51C264.618 112.662 268.342 111.045 272.11 109.746C272.701 109.516 273.308 109.313 273.916 109.125C273.916 109.125 275.128 111.017 276.845 113.326C278.938 116.185 281.161 118.813 283.312 121.497C283.428 121.642 283.544 121.786 283.658 121.916C285.866 124.673 287.974 127.504 289.75 130.737C293.114 136.829 296.045 143.253 297.504 150.168C299.653 160.316 297.677 170.436 295.929 180.656" fill="#F9B13E"/>
<path d="M249.949 144.036C256.349 142.317 262.525 139.285 268.302 136.08C273.624 133.128 278.561 129.649 283.618 126.284C284.361 125.789 285.114 125.294 285.869 124.797C282.977 120.89 279.777 117.326 276.849 113.326C275.132 111.018 273.91 109.128 273.91 109.128C267.877 111.056 261.922 113.824 256.388 117.029C251.998 119.568 247.398 122.564 243.906 126.344C242.798 127.546 239.916 131.345 236.348 136.937C234.512 139.81 232.494 143.164 230.45 146.874C236.97 146.036 243.582 145.746 249.949 144.036" fill="#411C39"/>
<path d="M278.697 156.752C278.684 157.012 288.068 170.953 288.074 171.212C288.286 180.041 279.553 192.642 271.006 202.814C259.749 216.213 251.241 231.694 245.942 248.374L244.364 253.342C244.262 253.992 244.162 254.626 244.089 255.276H215.954C216.054 245.084 216.098 237.274 216.054 235.094C216.04 234.358 216.026 233.622 215.997 232.857C215.982 232.178 215.969 231.5 215.954 230.808C215.94 230.33 215.94 229.84 215.925 229.349C215.912 228.584 215.881 227.805 215.866 227.04C215.853 226.404 215.838 225.769 215.824 225.149V225.134C215.788 223.97 215.774 222.83 215.724 221.714L215.737 221.684C217.541 220.168 219.332 218.624 221.093 217.064C227.589 211.29 233.624 205.04 239.773 198.904C243.845 194.833 274.64 160.822 278.697 156.752" fill="#411C39"/>
<path d="M241.193 122.322C252.917 117.982 264.106 112.261 274.781 105.222C279.081 109.626 282.586 114.801 285.084 120.425C275.965 125.652 268.256 133.212 258.761 137.722C250.321 141.734 240.662 143.141 231.428 141.702C233.842 134.862 237.132 128.332 241.193 122.322" fill="#F9B13E"/>
<path d="M117.699 150.961L118.34 150.017C122.386 144.065 127.196 138.672 132.616 133.936C147.614 120.828 161.296 107.405 171.66 93.1891C172.684 91.7838 174.928 92.3998 175.046 94.1345C175.318 98.0785 173.588 105.67 163.666 119.352L177.209 112.34C178.146 111.854 179.253 112.554 179.226 113.61C179.13 117.292 175.9 125.832 153.905 139.608L168.07 136.057C168.73 135.892 169.346 136.429 169.288 137.106C169.05 139.854 166.324 146.118 147.158 148.802L154.79 149.892C156.289 150.105 156.964 151.918 155.936 153.032C153.992 155.136 149.582 157.6 139.624 157.129L145.686 158.748C147.234 159.161 147.489 161.288 146.058 162.012C144.293 162.904 141.613 163.473 137.792 162.446L138.132 162.765C139.098 163.67 138.661 165.29 137.368 165.577C134.016 166.322 127.952 166.706 120.785 162.766L117.699 150.961" fill="#F03954"/>
<path d="M136.72 165.709C137.57 155.365 135.678 144.754 130.753 135.616C126.091 139.934 121.917 144.756 118.34 150.017L117.699 150.96L120.785 162.766C127.511 166.465 133.265 166.353 136.72 165.709" fill="#411C39"/>
<path d="M121.255 102.48C114.467 101.198 107.196 103.709 102.242 108.536C101.908 108.865 101.569 109.209 101.203 109.526C100.701 109.988 100.152 110.381 99.5022 110.564C96.9282 111.349 94.5911 108.666 93.823 106.097C92.575 108.754 93.2891 112.178 95.4916 114.122C91.9631 114.161 88.5938 111.457 87.8812 108.008C86.4099 111.005 87.4219 114.997 90.1407 116.938C88.3787 116.505 86.3979 117.068 85.1355 118.373C86.7162 118.753 88.2344 119.408 89.587 120.312C87.5886 120.973 85.9662 122.66 85.3864 124.685C87.5063 123.524 90.1339 123.336 92.4115 124.169C92.3588 124.6 92.3083 125.029 92.2588 125.461C90.8943 137.39 86.8516 148.858 80.4386 159.012C74.6678 168.149 68.2911 178.494 65.6599 183.652C65.1407 184.696 60.087 196.026 60.823 196.334C63.8875 197.618 66.975 198.878 70.1859 199.777C73.0531 200.585 75.75 200.996 78.7615 201.08C81.7276 201.166 84.699 201.008 87.6531 200.626C94.0495 199.796 100.318 197.862 106.004 194.861C111.207 192.117 115.935 188.473 119.947 184.178C124.023 179.786 126.824 174.75 128.519 168.988C130.297 162.917 130.664 156.433 129.437 150.218C129.065 148.34 128.557 146.517 127.935 144.726C127.935 144.726 125.422 137.429 131.782 126.244C131.965 125.921 132.037 125.564 132.162 125.232C134.09 120.113 135.661 115.785 135.661 115.785C134.05 109.066 128.039 103.776 121.255 102.48" fill="#F03954"/>
<path d="M70.6635 174.834C73.5495 174.416 76.4083 173.854 79.2093 173.034C84.4708 171.492 89.3145 169.002 93.3906 165.308C96.8568 162.165 100.049 158.349 101.269 153.738C102.545 148.912 101.461 143.798 98.6858 139.694C96.6172 136.634 93.8317 134.174 91.3031 131.496C89.4219 141.246 85.7604 150.585 80.4385 159.012C77.1 164.296 73.5645 169.98 70.6635 174.834" fill="#411C39"/>
<path d="M111.725 138.273C107.954 135.53 106.046 130.968 106.201 126.36C106.339 122.196 108.341 117.906 112.575 116.598C117.837 114.974 123.04 117.937 125.563 122.553C126.726 124.68 127.226 127.07 127.478 129.466C127.721 131.778 127.804 134.429 126.765 136.576C126.515 137.093 127.104 137.432 127.539 137.264C127.096 138.36 126.702 139.305 126.369 140.058C121.558 141.809 115.917 141.322 111.725 138.273" fill="white"/>
<path d="M120.424 125.292C117.126 134.222 114.289 133.808 111.707 122.165C111.707 122.165 109.535 134.34 116.068 134.934C116.068 134.934 120.677 135.548 120.424 125.292" fill="#411C39"/>
<path d="M101.209 109.525C101.825 109.59 102.442 109.569 103.054 109.498C104.832 109.297 106.554 108.712 108.333 108.493C109.689 108.324 111.068 108.365 112.422 108.498C114.229 108.678 116.048 109.026 117.678 109.825C120.428 111.178 122.413 113.7 123.992 116.322C125.57 118.944 126.852 121.753 128.709 124.188C129.263 124.912 129.886 125.618 130.716 125.985C131.065 126.136 131.424 126.221 131.788 126.245C133.876 120.69 135.658 115.79 135.658 115.79C134.054 109.069 128.041 103.77 121.255 102.481C114.469 101.193 107.195 103.706 102.247 108.536C101.906 108.864 101.574 109.212 101.209 109.525" fill="#F57C63"/>
<path d="M126.972 138.985C127.144 138.966 127.323 138.933 127.495 138.914C133.456 138.121 139.461 137.824 145.42 138.028C145.66 138.042 145.932 138.041 146.117 137.886C146.317 137.713 146.354 137.437 146.366 137.197C146.48 135.33 146.598 133.476 146.518 131.612C146.222 124.48 142.892 117.681 137.444 113.05L137.289 112.918C136.337 112.146 135.33 111.426 134.153 110.97L133.102 111.1C130.372 112.852 128.537 115.688 127.578 118.646C126.604 121.6 126.43 124.685 126.403 127.726C126.364 131.498 126.556 135.264 126.972 138.985" fill="#411C39"/>
<path d="M134.16 110.974L133.684 111.032H133.669L133.105 111.104C130.377 112.85 128.544 115.68 127.577 118.64C127.273 119.564 127.057 120.501 126.884 121.44C126.696 122.537 126.58 123.634 126.509 124.745C126.436 125.741 126.422 126.737 126.407 127.72C126.379 130.708 126.479 133.681 126.74 136.641C126.754 136.77 126.768 136.916 126.782 137.045C126.827 137.608 126.884 138.157 126.941 138.72L126.97 138.98C127.1 138.965 127.245 138.95 127.374 138.922H127.389L127.49 138.908L127.548 138.806L127.591 138.705L127.605 138.677C127.707 138.504 127.793 138.316 127.852 138.128C128.342 136.713 128.703 135.226 129.049 133.768C129.323 132.6 129.583 131.416 129.799 130.23C130.074 128.788 130.305 127.329 130.493 125.872C130.55 125.453 130.608 125.049 130.65 124.63C130.954 121.93 131.113 119.058 132.426 116.604C133.02 115.464 133.928 114.438 135.012 113.76H135.026C135.718 113.313 136.484 113.009 137.293 112.922C136.34 112.144 135.329 111.421 134.16 110.974" fill="#F9B13E"/>
<path d="M128.519 168.988C126.824 174.75 124.023 179.786 119.947 184.178C115.935 188.473 111.207 192.117 106.004 194.861C100.318 197.862 94.0495 199.796 87.6531 200.626C88.264 200.184 88.8631 199.742 89.462 199.301C92.5235 197.018 95.5453 194.68 98.2755 192.036C105.713 184.836 110.866 175.322 112.847 165.165C113.695 160.788 113.993 156.228 115.764 152.132C117.534 148.038 121.277 144.36 125.747 144.396C126.496 144.398 127.23 144.52 127.935 144.726C128.557 146.517 129.065 148.34 129.437 150.218C130.664 156.433 130.297 162.917 128.519 168.988" fill="#B9E8EA"/>
<path d="M98.3411 198.25L98.3437 198.242L98.3411 198.248V198.25Z" fill="#F9B13E"/>
<path d="M101.501 194.321C100.346 194.138 99.1312 194.301 98.0307 194.682C97.1495 194.988 96.3083 195.606 96.0088 196.472C95.6172 196.818 95.3249 197.258 95.1807 197.769C95.0167 198.354 95.1468 199.033 95.5453 199.496C96.0244 200.05 96.7197 200.318 97.4401 200.101C97.7604 200.005 97.9229 199.69 97.9437 199.38L97.9489 199.373L97.9631 199.305L97.9505 199.332L97.9631 199.304L97.9661 199.292V199.298L97.9801 199.265L98.0192 199.192L98.112 199.072C98.2911 198.858 98.5052 198.678 98.6849 198.466C98.85 198.27 98.988 198.048 99.0885 197.813C99.3135 197.788 99.5359 197.745 99.75 197.67C99.9125 197.916 100.024 198.2 100.054 198.522C100.163 199.665 99.2943 200.613 98.2005 200.696C97.7891 200.777 97.4505 201.07 97.4828 201.525C97.514 201.944 97.8943 202.273 98.3135 202.242C100.367 201.833 102.937 202.193 104.346 200.268C104.545 199.996 104.691 199.697 104.791 199.386C104.924 199.289 105.036 199.153 105.083 198.948C105.608 196.656 103.652 194.66 101.501 194.321" fill="#F9B13E"/>
<path d="M90.8854 199.76L90.8874 199.752L90.8854 199.757V199.76Z" fill="#F9B13E"/>
<path d="M97.4098 198.33C96.8354 197.026 95.4896 196.061 94.0453 195.828C92.8854 195.644 91.6817 195.814 90.574 196.186C89.6964 196.497 88.8525 197.121 88.553 197.985C88.1582 198.329 87.8744 198.77 87.7249 199.285C87.5573 199.858 87.6885 200.54 88.0844 201.001L92.3828 200.525C92.3828 200.525 92.2806 200.004 92.5634 199.877L92.5984 200.028C92.5984 200.028 91.8396 202.118 90.7468 202.21C90.3301 202.288 89.9896 202.581 90.0234 203.036C90.053 203.454 90.441 203.788 90.8604 203.757C92.9114 203.338 95.4864 203.7 96.8916 201.784C97.0937 201.512 97.2344 201.209 97.341 200.897C97.474 200.793 97.5801 200.657 97.6234 200.454C97.8021 199.693 97.7025 198.974 97.4098 198.33" fill="#F9B13E"/>
<path d="M105.13 149.98L103.635 148.246C100.881 145.054 97.8057 142.146 94.4098 139.649C89.4645 136.013 85.4063 131.501 83.4125 124.95C80.2301 114.489 74.7312 104.88 66.9333 97.2132L42.0765 72.7731C40.9568 71.6718 39.0781 72.3011 38.8145 73.8491C37.5635 81.1971 43.7468 91.9452 53.9115 104.513L53.7615 104.682C50.9828 102.576 41.2396 95.5652 33.5495 94.6798C32.0932 94.5118 31.0063 96.0011 31.5792 97.3491C33.3355 101.486 37.9896 109.9 49.2407 118.869C49.3421 118.95 49.2588 119.113 49.1364 119.066C47.0495 118.284 40.6635 116.137 34.6 116.67C33.1416 116.8 32.3604 118.472 33.1937 119.674C36.0593 123.812 43.6869 132.113 61.1104 137.43C61.2364 137.469 61.2188 137.654 61.0855 137.653C58.362 137.632 49.4525 137.764 45.0323 140.257C43.8787 140.906 43.7188 142.512 44.7197 143.378C47.0391 145.388 53.1052 148.673 68.7806 150.826C68.9134 150.845 68.9203 151.036 68.7875 151.052C66.25 151.373 59.1104 152.58 55.3484 156.294C53.9749 157.652 54.3959 159.109 56.2755 159.544C60.0869 160.425 67.8073 161.59 78.5479 160.169C78.6744 160.153 78.7355 160.321 78.6224 160.38C77.0453 161.197 72.8995 163.625 71.0287 167.432C70.4307 168.648 71.226 170.093 72.5765 170.21C76.4453 170.55 84.376 170.288 91.0183 163.92L91.1937 164.062L88.3197 168.542L88.4464 168.714C90.1989 168.216 99.4541 165.372 102.379 160.209L102.38 160.205C102.407 160.14 104.446 155.302 105.157 150.072L105.13 149.98" fill="#F03954"/>
<path d="M288.074 171.212L231.87 218.87C224.058 225.474 212.901 227.04 203.07 222.89C193.368 218.79 182.518 212.566 171.862 205.593C160.749 198.352 149.834 190.344 140.537 183.154C125.131 171.237 114.153 161.633 114.153 161.633C96.6224 162.221 84.0792 149.733 84.0792 149.733C55.0063 154.266 62.3249 148.312 62.3249 148.312L83.2468 142.293C73.9177 140.444 65.6885 142.744 61.2172 144.508C59.4177 145.222 57.3708 144.004 57.1615 142.11C57.0375 141.046 57.5609 140.016 58.4855 139.478L64.7109 135.925L65.2328 135.622L65.4541 135.257L67.2344 132.433L68.0271 131.157L68.2208 130.886C69.9021 128.342 72.7328 126.733 75.9281 126.533L89.8125 125.573C92.3355 125.394 94.8437 126.116 96.9464 127.569L117.49 142.009L154.614 162.601L168.413 170.25L209.148 192.821L261.92 143.793C267.722 138.366 276.65 137.368 283.988 141.334C288.428 143.724 291.477 147.437 293.018 151.584C295.557 158.281 294.058 166.126 288.074 171.212" fill="#D26258"/>
<path d="M91.9672 136.965C88.7077 135.517 85.7276 133.376 82.2396 132.478C78.5593 131.532 74.7161 132.064 71.1355 133.168C69.0557 133.809 67.0359 134.624 65.0219 135.441C64.3385 135.718 64.8355 136.75 65.5167 136.473C68.9489 135.08 72.4307 133.672 76.1407 133.245C77.9281 133.04 79.777 133.07 81.5358 133.478C83.2161 133.869 84.8005 134.577 86.3301 135.358C88.0792 136.252 89.7787 137.244 91.5749 138.041C92.25 138.341 92.6375 137.264 91.9672 136.965" fill="#411C39"/>
<path d="M95.2838 135.782C93.3448 134.418 91.3874 133.054 89.2797 131.906C87.5021 130.92 85.5948 130.113 83.6208 129.666C81.5713 129.193 79.4828 129.214 77.4046 129.564C75.3473 129.913 73.3073 130.513 71.3041 131.117C69.9306 131.524 68.574 131.968 67.2344 132.433L68.027 131.157L68.2208 130.886C69.401 130.504 70.5801 130.14 71.7562 129.794C73.8552 129.18 75.9541 128.565 78.1208 128.3C80.2858 128.036 82.4202 128.17 84.5202 128.724C88.7604 129.814 92.401 132.37 95.9349 134.84C96.5505 135.273 95.8994 136.216 95.2838 135.782" fill="#411C39"/>
<path d="M140.529 183.144C149.829 190.345 160.754 198.354 171.86 205.598C182.526 212.564 193.374 218.8 203.078 222.897C212.893 227.037 224.061 225.473 231.869 218.861L289.666 171.682C295.658 166.596 297.888 157.906 295.353 151.196C293.805 147.046 289.209 141.728 284.78 139.328C277.44 135.365 266.964 136.725 261.144 142.134L209.149 192.818L168.418 170.248L154.622 162.596L140.529 183.144" fill="#F9B13E"/>
<path d="M9.07031 255.942H350.297V254.609H9.07031V255.942Z" fill="#411C39"/>
</svg>
