<svg width="379" height="259" viewBox="0 0 379 259" fill="none" xmlns="http://www.w3.org/2000/svg">
<path d="M358.438 233.723C353.786 242.047 346.78 249.814 338.485 256.206H29.2667C12.385 240.583 1.03386 219.078 -2.30208 196.317C-5.72447 173.044 -0.73594 148.628 11.5219 128.544C17.0235 119.562 24.0298 111.325 32.9099 105.634C40.2823 100.896 48.5907 98.1158 57.0026 95.5411C59.9583 94.6344 62.9271 93.7571 65.8672 92.8358C71.2208 91.1531 76.5167 89.3091 81.5192 86.8518C97.612 78.9385 109.606 65.4798 121.631 51.9185C124.557 48.6425 127.483 45.3371 130.481 42.1185C135.324 36.8811 140.341 31.8491 145.768 27.3291C166.029 10.4918 192.301 1.2758 218.648 0.938463C241.82 0.630463 264.932 7.08245 284.96 18.7558C287.709 20.3518 290.386 22.0478 293.005 23.8331C294.774 25.0465 296.529 26.2904 298.228 27.6064C304.957 32.7118 311.158 38.5185 316.366 45.1465C324.704 55.7518 330.264 68.2744 333.672 81.5571C334.593 85.0664 335.34 88.6358 335.954 92.2358C338.85 108.985 338.777 126.393 336.993 142.309C335.486 155.752 334.184 170.484 341.162 182.713C346.048 191.285 355.513 196.42 359.886 205.256C360.398 206.309 360.837 207.361 361.217 208.445C364.07 216.768 362.74 226.028 358.438 233.723" fill="#F9B13E"/>
<path d="M7.39789 284.274H8.73122V168.809H7.39789V284.274Z" fill="#F2EBE6"/>
<path d="M33.941 284.274H35.2744V168.809H33.941V284.274Z" fill="#F2EBE6"/>
<path d="M60.4855 284.274H61.8188V168.809H60.4855V284.274Z" fill="#F2EBE6"/>
<path d="M87.0287 284.274H88.362V168.809H87.0287V284.274Z" fill="#F2EBE6"/>
<path d="M113.573 284.274H114.906V168.809H113.573V284.274Z" fill="#F2EBE6"/>
<path d="M140.117 284.274H141.45V168.809H140.117V284.274Z" fill="#F2EBE6"/>
<path d="M166.66 284.274H167.993V168.809H166.66V284.274Z" fill="#F2EBE6"/>
<path d="M193.204 284.274H194.537V168.809H193.204V284.274Z" fill="#F2EBE6"/>
<path d="M219.748 284.274H221.081V168.809H219.748V284.274Z" fill="#F2EBE6"/>
<path d="M246.292 284.274H247.625V168.809H246.292V284.274Z" fill="#F2EBE6"/>
<path d="M272.836 284.274H274.169V168.809H272.836V284.274Z" fill="#F2EBE6"/>
<path d="M299.378 284.274H300.712V168.809H299.378V284.274Z" fill="#F2EBE6"/>
<path d="M325.922 284.274H327.256V168.809H325.922V284.274Z" fill="#F2EBE6"/>
<path d="M352.466 284.274H353.8V168.809H352.466V284.274Z" fill="#F2EBE6"/>
<path d="M-26 181.965H378.792V164.745H-26V181.965Z" fill="white"/>
<path d="M335.954 91.5691H246.553V19.4225H284.96V18.0891H245.22V92.9025H335.954V91.5691Z" fill="white"/>
<path d="M333.005 81.5571V82.7184H258.578V28.2731H298.228V26.9397H257.245V84.0518H334.338V81.5571H333.005Z" fill="white"/>
<path d="M129.815 42.1185V130.276H57.6688V95.5411H56.3354V131.609H131.148V42.1185H129.815Z" fill="white"/>
<path d="M120.965 51.9184V118.25H66.5339V92.8358H65.2006V119.584H122.298V51.9184H120.965Z" fill="white"/>
<path d="M145.293 148.183L144.56 151.383L144.466 151.796L141.8 163.504L141.706 163.916L139.72 172.611L139.626 173.023L136.972 184.664L136.88 185.076L134.893 193.809L134.8 194.209L132.173 205.771L132.08 206.171L130.066 214.969L129.972 215.383L127.373 226.809L127.28 227.224L125.252 236.104L125.16 236.504L124.786 238.157C124.186 240.771 122.733 243.011 120.746 244.583C118.76 246.157 116.252 247.089 113.573 247.089C108.667 247.089 104.306 243.969 102.707 239.33L102.267 238.036C102.173 237.771 102.079 237.516 102 237.249C101.946 237.117 101.906 236.983 101.866 236.849C100.799 233.689 99.8265 230.504 98.9464 227.29C98.8927 227.157 98.8656 227.023 98.8396 226.876C97.8797 223.423 97.0401 219.929 96.3057 216.423C96.2797 216.29 96.2521 216.171 96.226 216.036C95.5593 212.796 94.9864 209.542 94.5063 206.277C94.4801 206.142 94.4661 206.011 94.4525 205.876C93.9464 202.462 93.5464 199.023 93.2521 195.571C93.2521 195.437 93.2396 195.302 93.226 195.171C93.0661 193.224 92.9464 191.277 92.8525 189.316C92.7859 187.983 92.7328 186.664 92.7068 185.356C92.6921 185.224 92.6921 185.089 92.6921 184.957C92.5855 181.437 92.5464 178.036 92.6 174.73V174.33C92.6531 170.944 92.7859 167.677 93.0255 164.516C93.0255 164.397 93.0401 164.262 93.0531 164.129C93.3057 160.571 93.6797 157.142 94.1729 153.89C94.1859 153.756 94.2131 153.624 94.226 153.504C94.7459 150.089 95.3995 146.862 96.1859 143.824C96.2131 143.689 96.2521 143.557 96.2927 143.423C96.9464 140.904 97.7068 138.516 98.5464 136.249C98.6 136.117 98.6531 135.983 98.7068 135.849C100.04 132.369 101.613 129.209 103.427 126.383C103.506 126.249 103.585 126.129 103.68 125.997C106.667 121.437 110.306 117.784 114.653 115.089C114.893 114.944 115.133 114.796 115.373 114.664C118.519 112.824 122.013 111.49 125.88 110.664L127.653 114.089L127.853 114.476L133.56 125.516L133.76 125.89L138.066 134.224L138.28 134.624L142.413 142.611L142.6 142.983L145.293 148.183" fill="#F03954"/>
<path d="M266.532 226.117C266.532 226.249 266.52 226.383 266.506 226.516C266.266 229.45 265.865 232.356 265.213 235.183C265.186 235.316 265.16 235.45 265.12 235.583C264.773 237.076 264.36 238.557 263.853 240.011L263.4 241.302C261.8 245.929 250.693 240.716 245.8 240.716C243.106 240.716 240.613 239.795 238.626 238.209C236.653 236.624 234.865 240.771 234.266 238.157L234.04 237.157L233.946 236.756L233.653 235.49L232.213 229.183L231.813 227.462L231.733 227.049L230.093 219.876L229.293 216.397L229.198 215.997L227.04 206.516L226.946 206.117L224.546 195.595L224.453 195.195L222.252 185.516L222.16 185.117L219.786 174.73L219.706 174.344L218.638 169.677L217.44 164.45L217.36 164.049L215.026 153.824L214.933 153.423L213.733 148.171L215.36 145.049L216.133 143.542L216.333 143.157L219.918 136.224L220.12 135.837L225.08 126.262L225.28 125.876L230.733 115.356L230.946 114.944L232.773 111.409C234.213 111.542 235.693 111.649 237.198 111.756C237.693 111.916 238.186 112.089 238.666 112.277C240.36 112.916 241.972 113.689 243.506 114.582C243.72 114.689 243.933 114.824 244.146 114.969C248.493 117.596 252.146 121.196 255.16 125.702C255.252 125.837 255.333 125.969 255.413 126.104C257.08 128.636 258.532 131.462 259.8 134.542C259.853 134.677 259.906 134.809 259.96 134.944C260.972 137.45 261.865 140.142 262.613 142.997C262.666 143.129 262.693 143.262 262.72 143.397C263.44 146.076 264.04 148.89 264.532 151.862C264.56 151.997 264.585 152.129 264.6 152.262C265.198 155.849 265.638 159.636 265.933 163.636C265.96 163.771 265.96 163.904 265.972 164.036C266.173 166.783 266.32 169.636 266.386 172.571C266.386 172.702 266.4 172.837 266.386 172.969C266.48 176.664 266.466 180.49 266.36 184.45C266.36 184.583 266.346 184.716 266.346 184.849C266.305 186.316 266.24 187.809 266.173 189.316C266.106 190.677 266.08 192.049 266.08 193.437C266.066 193.571 266.066 193.689 266.066 193.824V193.837C266.053 197.595 266.213 201.423 266.386 205.277V205.29C266.386 205.423 266.4 205.542 266.413 205.677C266.532 208.516 266.666 211.369 266.733 214.224C266.746 214.356 266.746 214.49 266.746 214.624C266.84 218.49 266.813 222.33 266.532 226.117" fill="#F03954"/>
<path d="M262.72 143.397C250.972 144.117 239.186 144.316 227.426 143.997C223.666 143.904 219.893 143.742 216.133 143.542L216.333 143.157C221.893 143.45 227.453 143.636 233.013 143.702C242.893 143.837 252.76 143.596 262.613 142.997C262.666 143.129 262.693 143.262 262.72 143.397" fill="white"/>
<path d="M264.6 152.262C261.4 152.504 258.198 152.73 254.986 152.916C247.773 153.356 240.546 153.664 233.32 153.809C227.226 153.944 221.12 153.957 215.026 153.824L214.933 153.423C215.52 153.45 216.106 153.45 216.693 153.462C222.106 153.542 227.506 153.516 232.933 153.409H232.946C242.133 153.237 251.305 152.796 260.48 152.171C261.826 152.076 263.186 151.983 264.532 151.862C264.56 151.997 264.585 152.129 264.6 152.262Z" fill="white"/>
<path d="M265.972 164.036C257.506 164.611 249.013 164.929 240.52 164.969C236.146 164.997 231.786 164.957 227.426 164.837C224.093 164.742 220.786 164.624 217.453 164.45H217.44L217.36 164.049C222.573 164.316 227.8 164.49 233.013 164.557C235.453 164.583 237.893 164.596 240.333 164.571C248.88 164.529 257.413 164.224 265.933 163.636C265.96 163.771 265.96 163.904 265.972 164.036" fill="white"/>
<path d="M266.386 172.571C266.386 172.702 266.4 172.837 266.386 172.969C262.585 173.262 258.786 173.529 254.986 173.756C251.36 173.983 247.72 174.171 244.08 174.316C235.986 174.649 227.893 174.809 219.786 174.73L219.706 174.344C227.786 174.409 235.88 174.249 243.96 173.916C249.466 173.689 254.972 173.383 260.48 173.011C262.453 172.876 264.413 172.73 266.386 172.571" fill="white"/>
<path d="M244.146 114.969C239.68 115.157 235.198 115.29 230.733 115.356L230.946 114.944C235.133 114.89 239.32 114.77 243.506 114.582C243.72 114.689 243.933 114.824 244.146 114.969" fill="white"/>
<path d="M255.413 126.104C254.532 126.142 253.653 126.183 252.773 126.209C244.32 126.516 235.865 126.557 227.426 126.344C226.638 126.316 225.865 126.302 225.08 126.262L225.28 125.876C227.853 125.957 230.44 126.011 233.013 126.049C239.706 126.129 246.386 126.049 253.066 125.795C253.76 125.771 254.466 125.742 255.16 125.702C255.252 125.837 255.333 125.969 255.413 126.104" fill="white"/>
<path d="M259.96 134.944C258.293 135.049 256.638 135.157 254.986 135.262C249.252 135.611 243.52 135.862 237.773 136.036C235.76 136.089 233.746 136.142 231.733 136.171C227.8 136.237 223.853 136.262 219.918 136.224L220.12 135.837C223.305 135.862 226.493 135.849 229.68 135.796C233.066 135.771 236.466 135.677 239.865 135.571C246.52 135.356 253.16 134.997 259.8 134.542C259.853 134.677 259.906 134.809 259.96 134.944" fill="white"/>
<path d="M266.36 184.45C266.36 184.583 266.346 184.716 266.346 184.849C259.638 185.316 252.906 185.611 246.173 185.73C239.918 185.876 233.666 185.849 227.426 185.689C225.706 185.636 223.972 185.583 222.252 185.516L222.16 185.117C225.773 185.249 229.4 185.356 233.013 185.397C237.386 185.45 241.76 185.437 246.133 185.344C252.893 185.209 259.626 184.916 266.36 184.45" fill="white"/>
<path d="M266.08 193.437C266.066 193.571 266.066 193.689 266.066 193.824V193.837C262.373 194.129 258.68 194.383 254.986 194.611C252.106 194.784 249.213 194.929 246.32 195.064C239.066 195.397 231.813 195.583 224.546 195.596L224.453 195.196H224.466C231.76 195.183 239.053 194.983 246.346 194.664C251.053 194.45 255.773 194.171 260.48 193.849C262.346 193.716 264.213 193.583 266.08 193.437" fill="white"/>
<path d="M266.413 205.677C259.226 206.183 252.026 206.49 244.826 206.596C239.026 206.702 233.226 206.677 227.426 206.529C227.293 206.529 227.173 206.516 227.04 206.516L226.946 206.117C228.972 206.171 230.986 206.209 233.013 206.237C236.972 206.29 240.933 206.277 244.893 206.196C252.066 206.089 259.226 205.784 266.386 205.29C266.386 205.423 266.4 205.542 266.413 205.677" fill="white"/>
<path d="M266.746 214.624C262.826 214.929 258.906 215.209 254.986 215.45C250.76 215.702 246.532 215.916 242.305 216.064C237.972 216.237 233.638 216.344 229.293 216.397L229.198 215.997C233.613 215.944 238.026 215.837 242.44 215.664C248.466 215.437 254.48 215.104 260.48 214.689C262.56 214.542 264.653 214.397 266.733 214.224C266.746 214.356 266.746 214.49 266.746 214.624" fill="white"/>
<path d="M266.532 226.117C266.532 226.249 266.52 226.383 266.506 226.516C256.946 227.183 247.36 227.516 237.786 227.504C235.8 227.504 233.826 227.49 231.826 227.462H231.813L231.733 227.049C232.16 227.064 232.585 227.076 233.013 227.076C234.666 227.104 236.32 227.104 237.972 227.104C247.506 227.117 257.04 226.783 266.532 226.117" fill="white"/>
<path d="M265.213 235.183C265.186 235.316 265.16 235.45 265.12 235.583C261.746 235.849 258.36 236.076 254.986 236.29C248.013 236.716 241.026 237.011 234.04 237.157L233.946 236.756C242.8 236.571 251.653 236.142 260.48 235.529C262.053 235.423 263.638 235.302 265.213 235.183" fill="white"/>
<path d="M245.596 194.657C244.164 201.606 244.661 208.783 242.44 215.664C242.4 215.795 242.36 215.929 242.305 216.064C241.305 219.195 240.12 222.262 238.813 225.249C238.546 225.862 238.266 226.49 237.972 227.104C237.918 227.237 237.853 227.369 237.786 227.504C236.52 230.209 235.133 232.89 233.653 235.49L232.213 229.183L231.813 227.462L231.72 227.049L230.093 219.876L229.293 216.397L229.198 215.997L227.04 206.516L226.946 206.117L224.546 195.595L224.453 195.195L222.252 185.516L222.16 185.117L219.786 174.73L219.706 174.344L218.638 169.677L217.44 164.45L217.36 164.049L215.026 153.824L214.933 153.423L213.733 148.171L215.36 145.049C219.893 145.716 224.28 146.969 228.293 149.542C230.04 150.664 231.573 151.957 232.946 153.409C233.08 153.542 233.213 153.677 233.32 153.809C235.053 155.677 236.532 157.771 237.865 160.011C238.746 161.49 238.853 122.649 238.906 122.784C245.849 132.877 247.988 183.044 245.596 194.657" fill="#411C39"/>
<path d="M142.6 142.983C128.88 144.036 115.107 144.369 101.359 143.997C99.6391 143.957 97.9063 143.89 96.1859 143.824C96.2131 143.689 96.2521 143.557 96.2927 143.423C99.8396 143.571 103.399 143.664 106.946 143.702C118.786 143.862 130.613 143.49 142.413 142.611L142.6 142.983" fill="white"/>
<path d="M144.56 151.383L144.466 151.796C139.293 152.224 134.106 152.611 128.919 152.916C117.359 153.611 105.76 153.983 94.1729 153.89C94.1858 153.756 94.213 153.624 94.226 153.504C107.626 153.583 121.04 153.089 134.413 152.171C137.8 151.929 141.173 151.677 144.56 151.383Z" fill="white"/>
<path d="M141.8 163.504L141.706 163.916C128.293 164.89 114.813 165.195 101.359 164.837C98.5855 164.771 95.7995 164.664 93.0255 164.516C93.0255 164.397 93.0401 164.262 93.0531 164.129C97.6797 164.356 102.32 164.504 106.946 164.557C118.573 164.702 130.198 164.344 141.8 163.504Z" fill="white"/>
<path d="M139.72 172.611L139.626 173.023C136.053 173.302 132.493 173.542 128.919 173.756C116.84 174.49 104.72 174.862 92.6 174.73V174.33C106.546 174.476 120.493 173.969 134.413 173.011C136.186 172.89 137.946 172.756 139.72 172.611Z" fill="white"/>
<path d="M127.853 114.476C123.453 114.73 119.053 114.944 114.653 115.089C114.893 114.944 115.133 114.796 115.373 114.664C119.466 114.529 123.559 114.33 127.653 114.089L127.853 114.476Z" fill="white"/>
<path d="M133.76 125.89C131.413 126.023 129.053 126.129 126.707 126.209C118.946 126.49 111.186 126.542 103.427 126.383C103.506 126.249 103.585 126.129 103.68 125.997C104.773 126.011 105.853 126.036 106.946 126.049C113.639 126.129 120.32 126.049 127 125.796C129.186 125.716 131.373 125.624 133.56 125.516L133.76 125.89Z" fill="white"/>
<path d="M138.28 134.624C135.16 134.862 132.04 135.076 128.919 135.262C123.186 135.611 117.453 135.862 111.707 136.036C109.692 136.089 107.68 136.142 105.667 136.171C103.293 136.209 100.919 136.237 98.5464 136.249C98.6 136.117 98.6531 135.983 98.7068 135.849C100.346 135.837 101.986 135.824 103.613 135.796C107 135.771 110.399 135.677 113.799 135.571C120.68 135.344 127.546 134.969 134.413 134.504C135.626 134.423 136.853 134.33 138.066 134.224L138.28 134.624Z" fill="white"/>
<path d="M136.972 184.664L136.88 185.076C125.053 185.796 113.186 185.997 101.359 185.689C98.4801 185.611 95.5855 185.504 92.7068 185.356C92.6921 185.224 92.6921 185.089 92.6921 184.957C97.4401 185.195 102.199 185.33 106.946 185.397C116.959 185.516 126.986 185.277 136.972 184.664" fill="white"/>
<path d="M134.893 193.809L134.8 194.209C132.84 194.356 130.88 194.49 128.919 194.611C117.053 195.316 105.147 195.689 93.2521 195.571C93.2521 195.437 93.2396 195.302 93.226 195.171C106.959 195.302 120.707 194.796 134.413 193.849L134.893 193.809Z" fill="white"/>
<path d="M132.173 205.771L132.08 206.171C121.853 206.677 111.6 206.795 101.359 206.529C99.0792 206.462 96.7858 206.383 94.5062 206.277C94.4801 206.142 94.4661 206.011 94.4525 205.876C98.613 206.064 102.786 206.183 106.946 206.237C115.359 206.344 123.773 206.183 132.173 205.771" fill="white"/>
<path d="M130.066 214.969L129.972 215.383C129.626 215.409 129.267 215.423 128.919 215.45C118.066 216.089 107.186 216.462 96.3057 216.423C96.2797 216.29 96.2521 216.171 96.226 216.036C107.506 216.064 118.799 215.677 130.066 214.969Z" fill="white"/>
<path d="M127.373 226.809L127.28 227.224C118.639 227.542 110 227.596 101.359 227.369C100.559 227.344 99.7459 227.33 98.9464 227.29C98.8927 227.157 98.8656 227.023 98.8396 226.876C101.546 226.983 104.24 227.036 106.946 227.076C113.76 227.157 120.573 227.076 127.373 226.809Z" fill="white"/>
<path d="M125.252 236.104L125.16 236.504C117.453 236.929 109.733 237.183 102 237.249C101.946 237.117 101.906 236.983 101.866 236.849C109.667 236.784 117.453 236.516 125.252 236.104Z" fill="white"/>
<path d="M141.582 141.008L141.338 141.264C137.594 144.985 128.439 117.834 124.827 121.689C121.279 125.477 114.284 184.599 112.871 194.832C112.22 199.544 111.976 204.302 111.857 209.056C111.769 212.535 111.86 216.018 112.152 219.488C112.763 226.736 114.221 234.133 117.47 240.692C118.228 242.225 119.098 243.692 120.073 245.071C122.393 243.48 124.119 241.052 124.781 238.152L145.293 148.177L141.582 141.008" fill="#411C39"/>
<path d="M238.929 160.709C238.801 162.552 238.646 164.385 238.466 166.2C237.622 174.709 235.442 182.974 234.4 191.397C234.373 191.529 234.358 191.664 234.346 191.797C233.853 195.689 233.44 199.529 233.133 203.302C233.106 203.45 233.093 203.583 233.093 203.716C232.84 206.664 232.638 209.557 232.506 212.423C232.493 212.571 232.48 212.702 232.48 212.837C232.293 216.716 232.186 220.516 232.173 224.262V224.664C232.173 226.183 232.186 227.689 232.213 229.183C232.24 230.557 232.28 231.929 232.32 233.289C232.32 233.423 232.333 233.557 232.346 233.689C232.48 237.529 232.706 241.302 233.04 245.011C233.04 245.142 233.053 245.262 233.08 245.397C233.32 248.289 233.64 251.142 234.013 253.957C234.026 254.076 234.04 254.209 234.066 254.344C234.198 255.33 234.333 256.316 234.48 257.302H122.413C122.519 256.689 122.613 256.076 122.707 255.45C122.733 255.316 122.76 255.183 122.773 255.049C123.373 251.344 123.88 247.623 124.32 243.89C124.333 243.756 124.346 243.623 124.359 243.49C124.692 240.636 124.972 237.771 125.213 234.902C125.213 234.771 125.227 234.636 125.24 234.504C125.546 230.771 125.76 227.036 125.906 223.277C125.906 223.142 125.919 223.011 125.919 222.876C126.025 219.969 126.079 217.064 126.094 214.142V213.756C126.094 209.997 126.025 206.224 125.866 202.437C125.866 202.302 125.866 202.157 125.853 202.023C125.733 199.104 125.559 196.171 125.333 193.224C125.333 193.104 125.333 192.969 125.306 192.837C124.036 186.493 123.535 179.561 122.674 173.106C121.148 161.647 122.042 150.865 123.119 139.49L123.16 139.104L123.679 133.677L123.72 133.29L124.786 122.076L124.827 121.689L125.653 113.076L125.679 112.689L125.88 110.664C128.346 110.649 130.865 110.476 133.4 110.17C140.986 109.302 148.666 107.302 155.493 104.784L155.865 104.636C156.16 104.529 156.453 104.422 156.746 104.302C160.146 103.01 163.32 101.569 166.146 100.104C167.213 99.5424 168.226 98.9824 169.186 98.4224H192.066C195.373 100.849 199.146 102.969 203.453 104.784C203.733 104.902 204.025 105.022 204.32 105.129C204.638 105.262 204.973 105.397 205.305 105.529C212 108.117 219.986 109.969 229.573 111.064C230.56 111.182 231.573 111.29 232.585 111.397L232.773 111.409C233.413 111.462 234.053 111.517 234.706 111.57C235.532 111.636 236.36 111.702 237.198 111.756C237.693 111.916 238.186 112.089 238.666 112.277L238.893 122.369L238.906 122.784L239.106 131.542V131.944L239.293 139.983L239.305 140.383C239.528 146.981 239.404 153.905 238.929 160.709" fill="#F03954"/>
<path d="M239.305 140.383C232.28 141.344 225.24 142.129 218.173 142.716C203.32 143.969 188.386 144.397 173.493 143.997C158.72 143.611 143.96 142.409 129.306 140.397C127.24 140.117 125.186 139.809 123.119 139.49L123.16 139.104C127.066 139.702 130.986 140.249 134.906 140.73C149.56 142.529 164.32 143.516 179.08 143.702C193.853 143.904 208.626 143.277 223.32 141.862C228.653 141.344 233.986 140.73 239.293 139.983L239.305 140.383" fill="white"/>
<path d="M239.506 149.157V149.557C226.72 150.969 213.906 152.142 201.053 152.916C186.48 153.796 171.853 154.157 157.252 153.742C145.48 153.409 133.706 152.583 122.013 151.142L122.053 150.742C135.56 152.409 149.146 153.262 162.76 153.462C177.36 153.677 191.972 153.171 206.546 152.171C217.546 151.409 228.532 150.369 239.506 149.157Z" fill="white"/>
<path d="M239.773 160.771V161.011L239.733 161.183C232.573 162.171 225.373 162.957 218.173 163.571C203.32 164.809 188.386 165.237 173.493 164.837C158.72 164.45 143.96 163.249 129.306 161.237C126.585 160.862 123.866 160.462 121.16 160.023L121.199 159.636C125.76 160.369 130.333 161.011 134.906 161.571C149.56 163.369 164.32 164.369 179.08 164.557C193.853 164.742 208.626 164.117 223.32 162.702C228.826 162.171 234.305 161.529 239.773 160.771" fill="white"/>
<path d="M237.853 170.183C237.813 170.316 237.786 170.45 237.773 170.583C225.56 171.916 213.32 173.023 201.053 173.756C186.48 174.636 171.853 174.997 157.252 174.583C145.8 174.262 134.346 173.476 122.959 172.104C122.946 171.969 122.919 171.837 122.906 171.702C136.133 173.302 149.44 174.104 162.76 174.302C177.36 174.529 191.972 174.011 206.546 173.011C217 172.29 227.44 171.316 237.853 170.183Z" fill="white"/>
<path d="M204.32 105.129C199.56 105.369 194.786 105.529 190.026 105.582C184.506 105.677 179 105.636 173.493 105.49C171.213 105.437 168.946 105.356 166.666 105.249H166.653C163.053 105.104 159.453 104.89 155.865 104.636C156.16 104.529 156.453 104.422 156.746 104.302C160.013 104.529 163.293 104.716 166.56 104.849C170.733 105.036 174.906 105.157 179.08 105.209C182.76 105.249 186.426 105.249 190.106 105.196C194.56 105.129 199.013 104.997 203.453 104.784C203.733 104.904 204.026 105.022 204.32 105.129" fill="white"/>
<path d="M234.706 111.57C224.573 112.636 214.44 113.542 204.28 114.196C203.198 114.277 202.133 114.344 201.053 114.409C186.48 115.29 171.853 115.649 157.252 115.237C157.093 115.237 156.918 115.224 156.76 115.224C146.373 114.916 135.986 114.224 125.653 113.076L125.68 112.689C135.972 113.837 146.305 114.516 156.653 114.824C158.68 114.876 160.72 114.929 162.76 114.957C176.638 115.17 190.52 114.716 204.373 113.796C205.093 113.756 205.826 113.716 206.546 113.664C215.24 113.064 223.918 112.29 232.585 111.397L232.773 111.409C233.413 111.462 234.053 111.516 234.706 111.57" fill="white"/>
<path d="M238.906 122.784C232.013 123.73 225.106 124.49 218.173 125.064C211.746 125.595 205.293 125.983 198.84 126.209C190.386 126.516 181.933 126.557 173.493 126.344C169.56 126.237 165.613 126.076 161.68 125.849C150.853 125.249 140.053 124.209 129.306 122.73C127.799 122.516 126.293 122.302 124.786 122.076L124.827 121.689C128.186 122.196 131.546 122.649 134.906 123.064C143.706 124.142 152.532 124.929 161.386 125.437C167.28 125.771 173.186 125.969 179.08 126.049C185.773 126.129 192.453 126.049 199.133 125.795C207.213 125.516 215.28 124.983 223.32 124.196C228.52 123.689 233.72 123.089 238.893 122.369L238.906 122.784Z" fill="white"/>
<path d="M239.106 131.542V131.944C226.453 133.33 213.773 134.49 201.053 135.262C195.32 135.611 189.585 135.862 183.84 136.036C181.826 136.089 179.813 136.142 177.8 136.171C170.946 136.29 164.093 136.277 157.252 136.076C146.04 135.756 134.826 134.997 123.68 133.677L123.72 133.29C136.68 134.824 149.706 135.596 162.76 135.796C167.093 135.862 171.413 135.862 175.746 135.796C179.133 135.771 182.532 135.677 185.933 135.571C192.813 135.344 199.68 134.969 206.546 134.504C217.413 133.742 228.266 132.73 239.106 131.542" fill="white"/>
<path d="M235.72 182.142C235.693 182.277 235.68 182.423 235.653 182.557C229.84 183.302 224.013 183.916 218.173 184.409C203.32 185.649 188.386 186.076 173.493 185.689C158.72 185.29 143.96 184.089 129.306 182.076C127.6 181.837 125.906 181.595 124.199 181.344C124.186 181.209 124.173 181.076 124.147 180.929C127.733 181.476 131.32 181.969 134.906 182.409C149.56 184.209 164.32 185.209 179.08 185.397C193.853 185.583 208.626 184.957 223.32 183.542C227.466 183.142 231.6 182.677 235.72 182.142" fill="white"/>
<path d="M234.4 191.397C234.373 191.529 234.358 191.664 234.346 191.797C223.266 192.969 212.173 193.929 201.053 194.611C186.48 195.476 171.853 195.837 157.252 195.423C146.585 195.129 135.933 194.423 125.333 193.224C125.333 193.104 125.333 192.969 125.306 192.837C137.746 194.237 150.24 194.957 162.76 195.142C177.358 195.369 191.973 194.849 206.546 193.85C215.84 193.209 225.133 192.369 234.4 191.397" fill="white"/>
<path d="M233.133 203.302C233.106 203.45 233.093 203.583 233.093 203.716C228.133 204.316 223.16 204.837 218.173 205.249C203.32 206.49 188.386 206.916 173.493 206.529C158.72 206.13 143.96 204.929 129.306 202.929C128.16 202.771 127.013 202.611 125.866 202.437C125.866 202.302 125.866 202.157 125.853 202.023C128.866 202.476 131.88 202.876 134.906 203.249C149.56 205.049 164.32 206.049 179.08 206.236C193.853 206.423 208.626 205.809 223.32 204.383C226.6 204.064 229.865 203.702 233.133 203.302" fill="white"/>
<path d="M232.506 212.423C232.493 212.571 232.48 212.702 232.48 212.837C222.026 213.916 211.546 214.809 201.053 215.45C186.48 216.316 171.853 216.677 157.252 216.262C146.84 215.969 136.44 215.29 126.094 214.142V213.756C138.266 215.104 150.506 215.796 162.76 215.983C177.36 216.209 191.972 215.689 206.546 214.689C215.213 214.089 223.865 213.33 232.506 212.423" fill="white"/>
<path d="M232.173 224.262V224.664C227.52 225.224 222.853 225.702 218.173 226.089C203.32 227.33 188.386 227.756 173.493 227.369C158.72 226.983 143.96 225.771 129.306 223.771C128.173 223.611 127.04 223.45 125.906 223.277C125.906 223.142 125.919 223.011 125.919 222.876C128.906 223.316 131.906 223.716 134.906 224.089C149.56 225.904 164.32 226.89 179.08 227.076C193.853 227.262 208.626 226.649 223.32 225.224C226.28 224.944 229.226 224.624 232.173 224.262" fill="white"/>
<path d="M232.346 233.689C221.933 234.756 211.506 235.649 201.053 236.29C186.48 237.171 171.853 237.516 157.252 237.117C146.546 236.809 135.853 236.104 125.213 234.904C125.213 234.771 125.226 234.636 125.24 234.504C137.693 235.916 150.226 236.636 162.76 236.824C177.36 237.049 191.972 236.542 206.546 235.529C215.146 234.944 223.746 234.171 232.32 233.29C232.32 233.423 232.333 233.557 232.346 233.689Z" fill="white"/>
<path d="M233.08 245.397C228.12 246.011 223.146 246.516 218.173 246.929C203.32 248.183 188.386 248.611 173.493 248.209C158.72 247.824 143.96 246.624 129.306 244.611C127.639 244.383 125.986 244.142 124.32 243.89C124.333 243.756 124.346 243.624 124.359 243.49C127.866 244.023 131.386 244.504 134.906 244.929C149.56 246.742 164.32 247.73 179.08 247.916C193.853 248.104 208.626 247.49 223.32 246.064C226.56 245.742 229.813 245.397 233.04 245.011C233.04 245.142 233.053 245.262 233.08 245.397Z" fill="white"/>
<path d="M234.066 254.344C223.08 255.504 212.08 256.476 201.053 257.129C200.053 257.196 199.053 257.249 198.04 257.302C184.466 258.049 170.853 258.33 157.252 257.957C152.506 257.824 147.76 257.611 143.013 257.302C136.226 256.876 129.453 256.262 122.707 255.45C122.733 255.316 122.76 255.183 122.773 255.049C132.04 256.171 141.36 256.904 150.68 257.302C154.706 257.49 158.733 257.611 162.76 257.677C171.68 257.809 180.613 257.664 189.532 257.302C195.213 257.076 200.88 256.756 206.546 256.369C215.72 255.742 224.865 254.916 234.013 253.957C234.026 254.076 234.04 254.209 234.066 254.344" fill="white"/>
<path d="M205.305 105.529C205.305 108.397 204.986 111.17 204.373 113.796C204.36 113.929 204.32 114.064 204.28 114.196C203.266 118.542 201.48 122.49 199.133 125.796C199.04 125.944 198.933 126.076 198.84 126.209C195.466 130.809 191 134.142 185.933 135.571C185.252 135.771 184.56 135.929 183.84 136.036C182.72 136.237 181.56 136.344 180.386 136.344C179.506 136.344 178.653 136.29 177.8 136.171C177.106 136.089 176.426 135.969 175.746 135.796C170.186 134.504 165.28 130.916 161.68 125.849C161.585 125.716 161.493 125.571 161.386 125.437C159.36 122.462 157.773 119.01 156.76 115.224C156.72 115.089 156.68 114.957 156.653 114.824C155.893 111.876 155.48 108.73 155.48 105.462C155.48 105.237 155.48 105.022 155.493 104.784L155.865 104.636C156.16 104.529 156.453 104.422 156.746 104.302C160.146 103.01 163.32 101.57 166.146 100.104C167.213 99.5425 168.226 98.9825 169.186 98.4225H192.066C195.373 100.849 199.146 102.969 203.453 104.784C203.733 104.904 204.026 105.022 204.32 105.129C204.638 105.262 204.972 105.397 205.305 105.529" fill="white"/>
<path d="M238.041 50.6118C237.02 53.5531 234.52 55.8677 231.617 56.9931C229.502 57.8237 227.206 58.0331 225.028 58.6678C222.854 59.2864 220.648 60.4491 219.626 62.4704C217.956 65.7571 220.016 69.8064 219.178 73.4064C218.586 75.9917 216.49 78.0597 214.077 79.1784C211.664 80.2944 208.938 80.5851 206.284 80.6411C202.453 80.7397 198.468 80.3304 195.193 78.3504C191.738 76.2531 189.16 72.4744 185.189 71.7064C179.75 70.6437 175.204 75.6718 170.02 77.6158C164.408 79.7291 157.549 77.8371 153.804 73.1518C152.161 71.0771 150.805 68.3318 148.204 67.7851C146.52 67.4278 144.808 68.1518 143.081 68.2291C140.441 68.3424 137.816 66.7984 136.526 64.4771C135.25 62.1597 135.294 59.1958 136.553 56.8638C138.02 54.1251 141.002 52.1824 141.581 49.1264C142.453 44.6557 137.756 40.9798 137.172 36.4624C136.622 32.0811 140.12 28.1318 144.05 26.1144C146.012 25.1104 148.109 24.4237 150.217 23.7557C152.668 22.9797 153.973 20.4518 153.482 17.9278L153.474 17.8838C152.79 14.0918 155.029 10.3091 157.898 7.75176C165.66 0.853092 177.745 0.693084 187.184 4.97708C189.906 6.21175 192.518 7.78508 195.392 8.57308C201.169 10.1611 207.634 8.54243 213.113 10.9704C215.528 12.0544 217.557 13.8411 219.494 15.6437C221.581 17.5571 223.709 19.6758 224.353 22.4304C225.046 25.4624 223.772 28.7077 224.522 31.7277C225.26 34.6904 227.804 36.8611 230.461 38.3131C232.492 39.4078 234.7 40.2571 236.3 41.8998C238.449 44.1478 239.048 47.6651 238.041 50.6118" fill="#411C39"/>
<path d="M166.133 101.421C166.072 106.341 168.82 110.958 173.194 113.268C174.361 113.849 175.565 114.293 176.749 114.493C183.754 115.738 190.601 110.3 190.261 102.57V102.37L190.221 102.089L190.201 101.548L189.941 98.0344L189.714 84.2424C189.636 83.2984 180.008 82.8758 180.008 82.8758L174.689 79.4811L166.68 74.3598L166.318 74.1598L166.458 76.3278L166.274 92.9504L166.173 96.9251L166.133 101.421" fill="#F57C63"/>
<path d="M171.838 77.9958C171.516 89.0158 179.161 99.1558 190.261 102.57V102.37L190.221 102.089L190.201 101.548L189.941 98.0344L189.714 84.2424C189.636 83.2984 189.093 82.4358 188.23 81.9944L180.008 82.8758L174.689 79.4811L171.838 77.9958" fill="#411C39"/>
<path d="M213.778 50.4878C215.448 44.6771 213.521 37.1504 211.825 32.2891C210.63 28.8638 208.914 25.6278 206.556 22.8718C192.544 6.49977 173.33 14.9918 173.33 14.9918C160.39 17.7118 160.553 38.8251 160.553 38.8251C160.412 39.9758 160.29 41.0811 160.18 42.1664C159.441 41.9358 158.682 41.8184 157.912 41.9264C154.054 42.4651 151.546 47.3331 152.31 52.7998C153.021 57.8811 156.309 61.6384 159.866 61.7198C161.128 71.1131 165.794 79.8238 173.361 85.6384C173.812 85.9851 174.258 86.3104 174.698 86.6158C175.91 87.4531 177.301 88.0998 178.789 88.5944C190.036 92.3344 202.272 86.3091 207.004 75.4424C210.322 67.8158 212.441 59.4064 213.778 50.4878" fill="#F57C63"/>
<path d="M162.084 16.6718C165.677 13.3105 170.584 11.7598 175.401 10.7651C182.949 9.20779 190.852 8.78246 198.324 10.6665C205.797 12.5505 212.818 16.9171 216.921 23.4411C219.944 28.2438 221.269 34.0158 221.11 39.6891C220.953 45.3624 219.361 50.9411 216.925 56.0665L216.93 55.9985C216.473 57.1131 215.966 58.2064 215.352 59.2424C214.901 60.0011 214.337 60.7931 213.484 61.0158C211.877 61.4358 210.558 59.5718 210.393 57.9198C210.076 54.7611 211.882 51.8198 212.606 48.7291C213.002 47.0345 213.073 45.2651 212.81 43.5451C212.493 41.4611 211.642 39.3931 210.077 37.9825C208.509 36.5731 206.148 35.9505 204.21 36.7811C202.325 37.5905 201.209 39.5078 199.733 40.9331C198.256 42.3585 195.697 43.2438 194.264 41.7758C193.265 40.7518 193.354 39.0958 193.729 37.7158C194.102 36.3358 194.7 34.9451 194.492 33.5291C194.246 31.8611 192.872 30.5158 191.296 29.9158C189.72 29.3158 187.972 29.3544 186.301 29.5891C182.136 30.1758 177.76 32.3651 176.416 36.3505C175.604 38.7558 175.926 41.6651 174.213 43.5358C173.28 44.5571 171.854 45.0998 171.132 46.2771C169.933 48.2278 171.218 50.6691 171.924 52.8451C172.402 54.3105 172.604 55.8651 172.52 57.4051C172.477 58.1531 172.361 58.9211 171.969 59.5598C171.348 60.5704 170.157 61.0758 169.008 61.3731C167.616 61.7331 166.114 61.8745 164.76 61.3945C163.408 60.9131 162.246 59.6944 162.174 58.2598C162.097 56.7158 163.205 55.4051 163.888 54.0185C165.364 51.0198 164.742 47.1211 162.406 44.7305C161.217 43.5131 159.664 42.6851 158.537 41.4078C156.897 39.5464 156.362 36.9624 156.174 34.4891C155.68 28.0344 157.357 21.0931 162.084 16.6718" fill="#411C39"/>
<path d="M200.085 67.6385C199.656 62.9785 198.872 58.3238 198.264 53.6825C198.122 52.5958 196.414 52.7171 196.557 53.8131L198.034 65.0971C198.22 66.5025 199.108 69.0745 197.401 69.7851C195.84 70.4345 193.797 70.0118 192.286 69.4278C191.266 69.0318 190.496 70.5638 191.524 70.9598C194.646 72.1691 200.533 72.5145 200.085 67.6385Z" fill="#411C39"/>
<path d="M192.285 76.9011C191.71 77.8491 191.022 78.6011 190.238 79.1851C185.428 82.8705 177.804 79.1731 177.333 73.0945C177.212 71.6931 177.496 70.1398 178.292 68.5305C179.002 67.1065 180.889 66.7971 182.021 67.8811C184.842 70.5531 187.849 72.3545 191.008 73.4571C192.422 73.9425 193.046 75.6118 192.285 76.9011" fill="#411C39"/>
<path d="M190.238 79.1851C185.428 82.8705 177.804 79.1731 177.333 73.0945C178.944 72.5118 180.881 72.3385 182.846 72.6958C186.874 73.4318 189.886 76.1625 190.238 79.1851Z" fill="#F798BD"/>
<path d="M185.834 80.6544C181.773 80.6544 177.674 77.4997 177.333 73.0944C178.378 72.7157 179.561 72.5104 180.8 72.5104C181.47 72.5104 182.157 72.5704 182.846 72.6957C186.874 73.4317 189.886 76.1624 190.238 79.1851C188.914 80.1997 187.377 80.6544 185.834 80.6544Z" fill="#FABDD7"/>
<path d="M182.601 54.2891C182.422 56.0131 183.234 57.5278 184.416 57.6745C185.593 57.8211 186.694 56.5425 186.87 54.8185C187.049 53.0945 186.238 51.5771 185.058 51.4305C183.878 51.2851 182.778 52.5638 182.601 54.2891Z" fill="#411C39"/>
<path d="M201.732 57.3411C201.554 59.0651 202.365 60.5798 203.545 60.7278C204.725 60.8731 205.825 59.5958 206.002 57.8705C206.181 56.1465 205.368 54.6291 204.189 54.4824C203.01 54.3371 201.91 55.6158 201.732 57.3411Z" fill="#411C39"/>
<path d="M178.893 48.1038L178.88 48.0917L178.63 48.0091C180.262 45.1531 183.422 43.1824 186.725 43.0971C187.246 43.0824 187.79 43.1197 188.245 43.3731C188.698 43.6277 189.034 44.1584 188.918 44.6664C188.789 45.2304 188.193 45.5451 187.638 45.7158C186.493 46.0664 185.281 46.1104 184.084 46.1838C182.889 46.2584 181.67 46.3718 180.57 46.8478C179.924 47.1264 179.34 47.5651 178.893 48.1038" fill="#411C39"/>
<path d="M203.434 45.3251C203.878 45.1557 204.316 45.1971 204.72 45.2811C207.398 45.8344 209.232 48.2491 209.4 51.2557C209.264 50.8371 209.09 50.4424 208.817 50.1291L208.764 50.0837C208.617 49.8771 208.45 49.6864 208.26 49.5291C207.561 48.9477 206.644 48.6797 205.733 48.4491C204.82 48.2184 203.885 48.0131 203.108 47.5358C202.733 47.3064 202.372 46.9384 202.465 46.4077C202.546 45.9304 202.99 45.4957 203.434 45.3251" fill="#411C39"/>
<path d="M168.905 205.978C167.132 205.912 165.36 205.832 163.588 205.741C160.904 204.935 158.481 203.133 156.854 200.7C156.52 200.2 156.981 199.724 157.453 199.724C157.656 199.724 157.861 199.813 158.005 200.026C159.133 201.714 160.718 203.112 162.556 203.974C161.87 201.702 161.91 199.232 162.696 196.99C162.796 196.705 163.045 196.501 163.338 196.501C163.396 196.501 163.456 196.509 163.516 196.525C163.846 196.616 164.1 197.005 163.981 197.345C163.253 199.42 163.21 201.648 163.869 203.747C163.964 204.042 163.852 204.274 163.664 204.414C164.225 204.6 164.798 204.749 165.392 204.826C165.67 204.862 165.953 204.878 166.236 204.889C165.996 202.544 166.101 200.183 166.542 197.864C166.598 197.566 166.908 197.377 167.198 197.377C167.254 197.377 167.309 197.385 167.362 197.4C167.729 197.5 167.896 197.865 167.828 198.218C167.413 200.402 167.341 202.633 167.564 204.844C169.484 204.641 171.35 203.861 172.746 202.521C174.641 200.706 175.593 198.112 175.941 195.55C176.365 195.545 176.79 195.538 177.216 195.532C176.732 199.441 175.233 203.108 171.469 205.053C170.632 205.485 169.772 205.79 168.905 205.978V205.978ZM175.989 195.152C176.338 192.03 175.952 188.877 175.75 185.742C176.185 185.75 176.62 185.759 177.054 185.766C177.116 186.747 177.197 187.725 177.27 188.698C177.424 190.736 177.49 192.964 177.261 195.132C176.837 195.138 176.414 195.145 175.989 195.152ZM177.03 185.365C176.596 185.357 176.161 185.349 175.726 185.34C175.55 182.347 175.581 179.372 176.617 176.459C176.73 176.14 177.001 176.001 177.268 176.001C177.676 176.001 178.077 176.323 177.902 176.812C176.917 179.583 176.868 182.474 177.03 185.365" fill="#F03954"/>
<path d="M177.054 185.766C176.62 185.759 176.185 185.75 175.75 185.742C175.742 185.608 175.734 185.473 175.726 185.34C176.161 185.349 176.596 185.357 177.03 185.365C177.038 185.499 177.046 185.633 177.054 185.766Z" fill="white"/>
<path d="M175.941 195.55C175.956 195.435 175.97 195.317 175.984 195.201C175.986 195.185 175.988 195.168 175.989 195.152C176.414 195.145 176.837 195.138 177.261 195.132C177.246 195.265 177.232 195.399 177.216 195.532C176.79 195.538 176.365 195.545 175.941 195.55" fill="white"/>
<path d="M166.728 206.211C165.662 206.211 164.606 206.048 163.588 205.741C165.36 205.832 167.132 205.912 168.905 205.978C168.181 206.136 167.453 206.211 166.728 206.211" fill="white"/>
<path d="M217.132 156.959C214.912 150.608 208.192 146.849 201.74 146.454C199.52 146.318 197.22 146.689 195.372 148C193.67 149.205 192.468 150.989 191.608 152.864C189.672 157.084 189.192 161.948 190.222 166.471C190.714 168.629 191.541 170.762 192.902 172.525C195.137 175.421 198.998 176.571 202.448 175.338C206.637 173.842 207.904 169.89 208.304 165.828C208.393 164.911 208.352 163.833 208.828 163.013C209.441 161.956 210.704 162.261 211.572 162.801C212.457 163.352 213.225 164.172 214.306 164.314C215.282 164.442 216.241 163.944 216.856 163.206C218.288 161.49 217.806 158.892 217.132 156.959" fill="white"/>
<path d="M204.294 154.284C203.038 152.749 201.658 151.325 200.392 149.797C199.61 148.856 198.634 147.597 197.45 146.96C196.718 147.205 196.017 147.542 195.372 147.999C193.67 149.205 192.468 150.989 191.608 152.864C189.672 157.084 189.192 161.948 190.222 166.471C190.714 168.629 191.541 170.762 192.902 172.525C195.137 175.421 198.998 176.571 202.448 175.338C206.637 173.842 207.904 169.89 208.304 165.828C208.393 164.911 208.352 163.833 208.828 163.013C208.969 162.769 209.146 162.605 209.344 162.493C207.977 159.572 206.337 156.78 204.294 154.284" fill="#411C39"/>
<path d="M138.132 186.559C141.53 190.348 147.504 190.201 151.184 187.184C151.998 188.169 153.498 188.49 154.766 188.205C157.65 187.557 159.834 184.557 160.866 182.102C161.985 179.441 162.208 176.473 161.404 173.706C160.234 169.687 156.864 166.64 152.828 165.268C151.696 163.989 150.25 163.059 148.293 163.077C146.573 163.096 145.149 164.177 144.62 165.55C144.15 165.374 143.638 165.276 143.093 165.289C141.222 165.329 139.832 166.653 138.94 168.092C137.677 170.13 136.665 173.396 137.74 175.649C136.865 176.35 136.374 177.506 136.098 178.511C135.341 181.272 136.19 184.396 138.132 186.559Z" fill="white"/>
<path d="M161.404 173.706C160.234 169.687 156.864 166.64 152.828 165.268C152.069 164.409 151.164 163.717 150.062 163.353C148.892 165.077 148.192 167.228 147.676 169.114C146.193 174.535 145.609 180.344 145.496 185.947C145.472 187.086 145.48 188.241 145.51 189.4C147.568 189.256 149.59 188.49 151.184 187.184C151.998 188.169 153.498 188.49 154.766 188.205C157.65 187.557 159.834 184.557 160.866 182.102C161.985 179.441 162.208 176.473 161.404 173.706" fill="#411C39"/>
<path d="M199.526 152.832C198.726 151.725 197.9 150.659 197.046 149.63C198.082 149.296 199.118 148.952 200.13 148.56L200.329 148.613L200.556 148.381C200.99 148.206 201.42 148.021 201.845 147.824C201.8 148.041 201.754 148.259 201.709 148.474L201.894 148.636C202.954 148.054 203.853 147.233 204.557 146.261C204.744 146.128 204.929 145.997 205.11 145.856C205.113 146.438 205.061 147.02 204.904 147.583L205.116 147.725C206.024 146.745 206.708 145.586 207.138 144.335C207.11 144.732 207.081 145.128 207.05 145.525L207.269 145.633C207.625 145.225 207.941 144.785 208.21 144.314C209.314 142.377 210.104 135.805 208.121 133.645C207.701 132.778 207.205 131.944 206.66 131.165C205.006 128.792 202.94 126.725 201.353 124.31C199.073 120.832 197.78 116.618 194.698 113.818C191.752 111.125 187.633 110.165 183.686 109.524C180.032 108.924 176.246 108.765 172.74 109.924C161.886 113.524 161.153 124.737 160.166 125.659C159.18 126.577 157.805 127.165 156.886 128.112C154.713 130.325 154.5 134.845 155.273 137.63C155.313 137.818 155.365 137.992 155.433 138.165C156.34 140.938 158.353 143.338 160.94 144.697C161.472 144.977 161.98 145.165 162.486 145.325C153.433 155.218 147.993 172.964 147.993 185.964C147.993 202.832 157.126 206.017 171.472 206.524C173.273 206.577 175.153 206.605 177.1 206.605C194.646 206.605 211.526 204.952 211.526 185.964C211.526 175.818 206.698 162.765 199.526 152.832" fill="white"/>
<path d="M181.688 201.742C180.277 200.368 178.225 200.066 176.338 200.213C175.217 200.301 174.109 200.521 173.005 200.726C171.902 200.929 170.804 201.142 169.706 201.376C165.525 202.264 161.361 203.436 157.528 205.361C155.784 206.237 154.109 207.262 152.566 208.46C151.036 209.648 149.58 211.016 148.417 212.571C147.314 214.05 146.472 216.05 147.552 217.777C147.805 218.183 148.125 218.516 148.486 218.792C148.981 220.214 150.205 221.213 151.64 221.683C153.372 222.247 155.232 222.099 156.961 221.601C160.898 220.465 163.98 217.636 167.284 215.361C169.037 214.153 170.874 213.161 172.908 212.509C174.89 211.873 176.954 211.438 178.818 210.48C180.457 209.638 181.944 208.381 182.592 206.611C183.202 204.94 182.998 203.023 181.688 201.742" fill="white"/>
<path d="M185.842 212.054C187.246 213.314 189.149 213.726 190.989 213.7C193.085 213.672 195.113 213.086 197.162 212.717C199.262 212.338 201.352 212.352 203.468 212.596C207.452 213.054 211.501 214.105 215.51 213.26C217.27 212.888 218.982 212.145 220.246 210.833C221.294 209.745 221.905 208.29 221.674 206.8C221.864 206.388 221.989 205.942 222.024 205.466C222.166 203.435 220.482 202.065 218.814 201.276C217.06 200.448 215.13 199.924 213.222 199.593C211.298 199.261 209.338 199.141 207.386 199.185C203.097 199.286 198.872 200.205 194.762 201.385C193.686 201.693 192.614 202.021 191.545 202.359C190.473 202.696 189.393 203.021 188.361 203.471C186.626 204.226 184.956 205.457 184.357 207.333C183.8 209.077 184.52 210.865 185.842 212.054" fill="white"/>
<path d="M197.162 212.717C198.15 212.538 199.137 212.454 200.124 212.433C201.185 211.671 202.196 210.838 203.144 209.918C204.945 208.173 206.47 206.187 207.749 204.03C208.145 203.365 208.604 202.63 209.022 201.859C209.674 200.652 208.786 199.156 207.414 199.185H207.386C203.097 199.286 198.872 200.205 194.762 201.385C193.686 201.693 192.614 202.02 191.545 202.359C190.474 202.695 189.393 203.021 188.361 203.471C186.626 204.226 184.956 205.457 184.357 207.333C183.8 209.077 184.52 210.865 185.842 212.054C187.245 213.314 189.149 213.726 190.989 213.7C193.085 213.672 195.113 213.086 197.162 212.717" fill="#411C39"/>
<path d="M134.88 119.6C135.76 120.732 137.56 120.625 138.954 120.174C142.233 119.153 144.974 116.964 147.049 114.333C147.49 113.796 147.892 113.245 148.252 112.682C149.456 110.865 150.394 108.932 151.21 106.937C151.91 105.262 152.528 103.561 153.128 101.861C153.53 102.368 153.933 102.854 154.373 103.34C157.921 107.465 162.073 111.129 166.678 114.201C167.533 113.06 168.616 112.058 169.857 111.258C171.044 110.502 172.385 109.912 173.828 109.548C169.597 102.96 165.164 96.4438 159.721 90.7238C158.605 89.5411 157.416 88.3864 155.99 87.5451C154.565 86.7038 152.854 86.2211 151.202 86.4598C149.554 86.7158 148.12 87.6611 147.018 88.8478C145.917 90.0318 145.13 91.4224 144.341 92.8144C139.998 100.482 135.602 108.358 134.49 116.997C134.378 117.882 134.316 118.873 134.88 119.6Z" fill="white"/>
<path d="M157.136 102.188C156.132 102.344 155.194 102.765 154.373 103.34C157.921 107.465 162.073 111.129 166.678 114.201C167.533 113.06 168.616 112.058 169.857 111.258C168.514 109.608 167.118 108 165.653 106.453C164.537 105.27 163.348 104.114 161.922 103.274C160.497 102.433 158.785 101.949 157.136 102.188" fill="#F798BD"/>
<path d="M147.049 114.333C147.49 113.796 147.892 113.245 148.252 112.682C149.456 110.865 150.394 108.932 151.21 106.937C150.885 107.461 150.58 108.002 150.273 108.542C149.197 110.456 148.104 112.386 147.049 114.333Z" fill="white"/>
<path d="M191.677 111.764C192.984 112.416 194.229 113.202 195.34 114.165C196.085 114.801 196.764 115.516 197.357 116.332C202.436 111.777 206.649 106.398 209.786 100.508C210.093 99.9851 210.362 99.4651 210.613 98.9491C211.364 100.149 212.136 101.348 212.922 102.524C214.361 104.677 215.922 106.741 217.785 108.56C218.542 109.302 219.373 110.004 220.254 110.642C222.674 112.441 225.498 113.725 228.541 114.038C230.005 114.201 231.805 113.929 232.397 112.668C232.786 111.845 232.525 110.888 232.197 110.045C229.21 101.818 223.14 94.9758 217.192 88.3584C216.13 87.1531 215.03 85.9531 213.71 85.0105C212.37 84.0705 210.738 83.4318 209.088 83.5064C207.401 83.5838 205.837 84.4158 204.632 85.5198C203.425 86.6265 202.537 87.9905 201.69 89.3691C197.412 96.4118 194.458 104.088 191.677 111.764" fill="white"/>
<path d="M195.34 114.165C196.085 114.801 196.764 115.516 197.357 116.332C202.436 111.777 206.649 106.398 209.786 100.508C208.918 100.176 208.012 99.9931 207.09 100.032C205.404 100.11 203.838 100.941 202.634 102.046C201.426 103.15 200.54 104.516 199.693 105.894C198.066 108.57 196.622 111.341 195.34 114.165" fill="#F798BD"/>
<path d="M181.373 124.106C179.769 129.852 177.976 129.737 175.769 122.598C175.769 122.598 175.034 130.313 179.144 130.35C179.144 130.35 182.054 130.5 181.373 124.106" fill="#411C39"/>
<path d="M191.761 124.477C193.185 130.271 194.981 130.213 197.41 123.145C197.41 123.145 197.904 130.88 193.794 130.789C193.794 130.789 190.881 130.847 191.761 124.477Z" fill="#411C39"/>
<path d="M185.28 130.924C185.586 130.692 185.984 130.542 186.361 130.457C186.981 130.316 187.625 130.333 188.26 130.35C188.701 130.362 189.15 130.376 189.57 130.513C189.989 130.649 190.384 130.93 190.553 131.338C190.833 132.013 190.186 132.983 189.784 133.488C189.29 134.111 188.513 134.793 187.701 134.905C186.837 135.025 185.941 134.549 185.422 133.874C185.024 133.352 184.809 132.709 184.746 132.059C184.697 131.559 184.929 131.188 185.28 130.924" fill="#F798BD"/>
<path d="M189.484 130.981C189.356 130.905 189.2 130.885 189.052 130.865C188.748 130.828 185.558 130.661 186.468 131.53C186.588 131.648 186.761 131.692 186.926 131.725C187.68 131.874 188.465 131.865 189.213 131.697C189.416 131.652 189.653 131.557 189.689 131.352C189.712 131.216 189.63 131.081 189.484 130.981Z" fill="white"/>
<path d="M194.798 133.689C194.646 133.404 194.249 133.316 193.977 133.474C193.688 133.644 193.609 134.009 193.761 134.294C194.029 134.802 193.909 135.448 193.556 135.937C193.17 136.472 192.532 136.792 191.913 136.973C190.557 137.371 188.826 137.238 187.966 135.983C187.868 135.841 187.725 135.745 187.569 135.708C187.364 135.601 187.109 135.6 186.897 135.811C185.801 136.901 184.284 137.742 182.689 137.485C181.936 137.362 181.244 137.017 180.766 136.425C180.356 135.916 180.116 135.205 180.206 134.594C180.253 134.274 180.126 133.95 179.788 133.856C179.505 133.78 179.097 133.953 179.049 134.276C178.82 135.817 179.585 137.344 180.936 138.124C182.376 138.956 184.134 138.854 185.61 138.184C186.244 137.897 186.806 137.477 187.329 137.016C188.264 138.016 189.632 138.486 191.006 138.357C192.473 138.22 194.16 137.585 194.812 136.152C195.174 135.359 195.212 134.471 194.798 133.689" fill="#411C39"/>
<path d="M200.277 159.778C199.09 157.957 197.452 156.441 195.47 155.548L195.434 155.532C193.048 154.46 190.417 153.973 187.81 154.217C185.194 154.473 182.673 155.387 180.469 156.811C178.264 158.236 176.377 160.16 175.049 162.425C173.528 165.03 172.918 167.965 172.845 170.949C172.749 174.309 173.222 177.647 173.357 180.983C173.417 182.688 173.393 184.404 173.149 186.097C172.918 187.753 172.456 189.373 172.005 190.981C171.129 194.013 170.24 197.094 170.678 200.272C170.97 202.525 171.834 204.656 173.089 206.532C174.733 206.58 176.45 206.605 178.228 206.605C194.253 206.605 209.67 205.094 209.67 187.753C209.67 179.247 205.956 168.502 200.277 159.778" fill="#F798BD"/>
<path d="M194.541 159.708C192.32 153.356 185.6 149.599 179.149 149.204C176.928 149.068 174.63 149.438 172.782 150.748C171.081 151.954 169.877 153.737 169.017 155.613C167.082 159.833 166.601 164.696 167.633 169.221C168.124 171.378 168.95 173.512 170.31 175.274C172.545 178.171 176.408 179.32 179.858 178.086C184.045 176.59 185.313 172.64 185.712 168.576C185.802 167.661 185.76 166.581 186.237 165.761C186.852 164.704 188.113 165.011 188.98 165.55C189.866 166.101 190.634 166.921 191.717 167.064C192.692 167.192 193.649 166.693 194.265 165.957C195.697 164.238 195.217 161.64 194.541 159.708" fill="white"/>
<path d="M185.166 160.499C185.326 159.924 185.38 159.272 185.085 158.712L184.913 158.459C184.752 158.257 184.538 158.099 184.3 157.992L184.233 157.964C184.406 157.244 184.433 156.471 184.258 155.737C184.126 155.152 183.872 154.471 183.313 154.165L183.073 154.071H183.06C182.846 154.017 182.633 154.017 182.418 154.084L182.353 153.952C182.46 153.832 182.526 153.712 182.58 153.577C182.752 153.125 182.66 152.565 182.433 151.964C181.553 149.672 179.1 148.338 176.66 148.672C165.646 150.178 161.886 145.059 161.886 145.059C149.126 149.737 149.326 166.577 149.326 166.577C136.74 193.099 121.327 203.218 107.366 218.045C97.153 228.885 101.085 246.725 114.993 252.059C115.38 252.204 115.592 252.272 115.592 252.272C140.365 260.524 165.58 172.938 165.58 172.938C173.925 169.59 180.258 172.737 184.3 166.765C185.126 165.537 184.02 163.992 183.752 163.659L183.698 163.59C183.86 163.338 184.006 163.084 184.166 162.818C184.58 162.084 184.94 161.297 185.166 160.499Z" fill="#F57C63"/>
<path d="M175.973 138.088C171.39 134.204 162.674 127.461 157.266 129.235C152.132 130.916 156.021 143.538 158.625 146.526C159.165 147.147 159.766 147.704 160.417 148.206C160.561 148.318 160.754 148.135 160.71 147.981C160.548 147.4 160.385 146.817 160.221 146.236C161.238 147.969 162.601 149.486 164.242 150.671C164.416 150.796 164.597 150.56 164.516 150.397C164.009 149.402 163.692 148.328 163.55 147.223C165.078 149.004 167.057 150.359 169.304 151.062C169.486 151.121 169.59 150.916 169.528 150.769C169.201 150.002 168.873 149.236 168.546 148.468C169.572 149.165 170.594 149.862 171.62 150.56C171.74 150.641 171.934 150.535 171.92 150.388C171.862 149.792 171.805 149.194 171.749 148.6C172.88 149.106 174.012 149.613 175.144 150.12C175.308 150.192 175.469 150.072 175.437 149.893C175.381 149.566 175.324 149.237 175.266 148.909C175.97 149.335 176.674 149.759 177.377 150.183C177.484 150.247 177.644 150.188 177.672 150.064C177.736 149.772 177.8 149.481 177.862 149.19C178.504 149.896 179.308 150.43 180.216 150.732C180.334 150.771 180.477 150.665 180.47 150.538C180.209 146.817 179.813 142.383 177.29 139.402C176.885 138.925 176.445 138.488 175.973 138.088" fill="white"/>
<path d="M183.06 154.071C182.686 154.204 182.3 154.338 181.925 154.459C176.58 156.204 170.9 156.924 165.286 156.552C164.886 156.524 164.886 155.899 165.286 155.924C166.846 156.03 168.418 156.059 169.98 155.992C174.273 155.818 178.526 155.005 182.58 153.577C182.526 153.712 182.46 153.832 182.353 153.952L182.418 154.083C182.633 154.017 182.846 154.017 183.06 154.071" fill="#411C39"/>
<path d="M184.913 158.459C184.446 158.63 183.966 158.792 183.486 158.952C178.138 160.697 172.46 161.404 166.846 161.03C166.446 161.005 166.446 160.392 166.846 160.417C168.418 160.512 169.98 160.537 171.538 160.471C175.9 160.297 180.205 159.459 184.3 157.992C184.538 158.099 184.752 158.257 184.913 158.459Z" fill="#411C39"/>
<path d="M183.698 163.59L183.752 163.659C179.538 165.338 175.085 166.35 170.566 166.672C170.166 166.697 170.073 166.084 170.472 166.045C172.046 165.938 173.592 165.75 175.138 165.471C178.233 164.924 181.258 164.03 184.166 162.818C184.006 163.084 183.86 163.338 183.698 163.59" fill="#411C39"/>
<path d="M255.005 246.897C253.442 247.147 251.85 247.136 250.286 246.957C230.566 244.687 217.289 225.393 196.114 215.378C196.114 215.378 177.646 220.436 166.417 216.733C165.233 216.345 164.157 215.697 163.193 214.92L154.272 207.724C154.272 207.724 153.456 205.702 155.317 205.274C155.626 205.194 156.005 205.165 156.472 205.194L156.034 204.548L154.632 202.457C154.242 201.88 154.302 201.102 154.79 200.605C155.517 199.878 156.852 199.33 158.941 201.272C159.11 201.432 159.28 201.59 159.449 201.78C159.449 201.78 159.52 201.411 159.697 200.954C160.176 199.748 161.42 197.868 164.288 200.017L169.185 204.586C170.21 205.542 171.574 206.061 172.969 206.041L184.884 205.85L187.522 203.093C187.522 203.093 178.582 203.69 174.381 201.361C173.097 200.654 172.838 198.904 173.814 197.797C174.262 197.28 174.91 197.001 175.566 197.001C175.805 197.001 176.054 197.041 176.293 197.121C178.433 197.797 182.734 198.844 187.522 198.147C187.522 198.147 196.498 196.348 202.028 204.274C202.028 204.274 234.252 208.605 252.325 215.683C260.972 219.069 266.378 228.009 264.734 237.147C263.904 241.764 261.301 245.86 255.005 246.897" fill="#F57C63"/>
<path d="M174.86 215.229C171.006 214.93 166.905 214.592 163.621 212.342C160.624 210.301 158.633 207.036 155.397 205.324L155.317 205.274C155.626 205.194 156.005 205.165 156.472 205.194L156.034 204.548C159.1 206.209 161.022 209.237 163.809 211.266C167.005 213.597 171.046 213.945 174.86 214.235C175.497 214.284 175.497 215.28 174.86 215.229Z" fill="#411C39"/>
<path d="M177.776 211.924C173.834 211.685 169.722 211.416 166.189 209.465C162.993 207.702 160.942 204.617 159.012 201.621L158.941 201.272C159.11 201.432 159.28 201.59 159.449 201.78C159.449 201.78 159.52 201.411 159.697 200.954L159.877 201.113C161.709 203.969 163.649 206.916 166.696 208.609C170.061 210.471 174.013 210.709 177.776 210.929C178.414 210.968 178.414 211.964 177.776 211.924" fill="#411C39"/>
<path d="M9.07288 257.969H350.3V256.636H9.07288V257.969Z" fill="#411C39"/>
<path d="M326.58 152.901C326.494 148.736 324.86 144.269 321.28 141.954C316.94 139.145 312.364 141.683 308.033 143.668C309.305 140.409 313.13 139.488 315.765 137.69C304.149 130.118 289.149 131.859 289.149 131.859C289.149 131.859 280.285 142.23 279.866 147.094C282.37 146.509 284.833 145.668 287.438 145.352C284.948 146.265 281.144 150.023 279.952 153.461C278.949 156.352 281.098 161.473 282.474 164.206C285.189 169.612 294.244 179.752 300.484 172.621C305.693 166.671 303.386 158.428 313.952 161.004C321.862 162.933 326.777 162.768 326.58 152.901" fill="#5BC69A"/>
<path d="M296.669 164.054C297.054 161.205 299.87 159.696 301.678 157.772C303.754 156.877 306.112 156.525 308.29 156.02L308.312 156.018C309.106 157.489 309.865 158.992 310.58 160.52C310.54 160.518 310.498 160.518 310.458 160.518C309.785 160.518 309.192 160.59 308.665 160.725C308.194 160.444 307.693 160.208 307.165 160.023C306.424 159.764 305.709 159.648 305.02 159.648C301.89 159.648 299.25 162.02 296.669 164.054V164.054ZM316.909 161.638C315.978 161.474 314.99 161.257 313.952 161.004C313.212 160.823 312.536 160.696 311.914 160.617C311.13 158.883 310.289 157.18 309.396 155.54C310.562 154.832 311.585 153.66 312.73 152.981C314.637 151.852 316.71 151.125 318.88 150.706C319.541 150.578 319.293 149.625 318.68 149.625C318.641 149.625 318.601 149.629 318.56 149.637C316.666 150.005 314.85 150.609 313.133 151.488C312.301 151.913 311.498 152.402 310.74 152.949C310.165 153.362 309.51 154.064 308.842 154.53C308.369 153.697 307.888 152.878 307.389 152.088C307.213 151.811 307.009 151.548 306.824 151.276C308.418 148.921 310.372 146.921 312.708 145.289C313.193 144.949 312.881 144.236 312.424 144.236C312.329 144.236 312.229 144.266 312.128 144.337C309.778 145.977 307.8 147.984 306.156 150.311C304.87 148.559 303.393 146.904 301.837 145.305C302.674 142.728 303.86 140.341 305.393 138.105C305.674 137.694 305.289 137.311 304.893 137.311C304.717 137.311 304.541 137.385 304.418 137.565C302.95 139.702 301.822 141.99 300.974 144.428C299.382 142.841 297.729 141.308 296.104 139.789C296.88 138.241 297.602 136.672 298.261 135.071C298.445 134.624 298.056 134.228 297.701 134.228C297.533 134.228 297.374 134.316 297.288 134.528C296.664 136.041 295.98 137.525 295.252 138.99C294.294 138.088 293.346 137.188 292.442 136.285C292.328 136.171 292.2 136.123 292.077 136.123C291.65 136.123 291.276 136.694 291.669 137.088C292.506 137.925 293.385 138.764 294.276 139.604C292.136 139.735 289.996 139.866 287.857 139.999C287.156 140.041 287.17 141.114 287.849 141.114C287.862 141.114 287.876 141.113 287.89 141.113C290.205 140.971 292.521 140.828 294.834 140.685C295.009 140.676 295.137 140.6 295.222 140.494C296.801 141.973 298.41 143.468 299.961 145.013C297.906 145.108 295.897 145.456 293.888 145.923C292.093 146.34 290.254 146.632 288.861 147.913C288.45 148.292 288.845 148.84 289.288 148.84C289.416 148.84 289.548 148.794 289.665 148.687C291.012 147.45 293.188 147.212 294.914 146.829C296.874 146.396 298.832 146.105 300.841 146.088L300.981 146.059C302.356 147.476 303.668 148.936 304.832 150.468C299.256 151.037 293.722 152.08 289.446 155.993C289.408 156.029 289.376 156.066 289.35 156.105C285.166 156.373 281.725 157.257 280.025 157.768C279.82 156.878 279.694 156.008 279.693 155.209C279.693 154.572 279.772 153.981 279.952 153.461C281.144 150.023 284.948 146.265 287.438 145.352C284.833 145.668 282.37 146.509 279.866 147.094C280.285 142.23 289.149 131.859 289.149 131.859C289.149 131.859 290.637 131.687 293.038 131.687C298.262 131.687 307.809 132.504 315.765 137.69C313.13 139.488 309.305 140.409 308.033 143.668C310.984 142.316 314.048 140.706 317.074 140.706C318.489 140.706 319.897 141.059 321.28 141.954C324.86 144.269 326.494 148.736 326.58 152.901C326.582 153.09 326.585 153.277 326.585 153.459C326.585 153.557 326.584 153.653 326.584 153.749C325.754 154.166 324.937 154.632 324.138 155.152C324.821 155.617 325.601 156.009 326.381 156.414C326.284 157.035 326.152 157.593 325.986 158.096C325.02 157.783 324.05 157.58 323.085 157.58C321.946 157.58 320.813 157.862 319.7 158.583C318.51 159.353 317.588 160.417 316.909 161.638V161.638ZM300.366 157.169C297.457 156.33 294.522 156.025 291.797 156.025C291.568 156.025 291.338 156.028 291.112 156.032C295.232 152.776 300.456 152 305.602 151.509C306.057 152.157 306.498 152.812 306.893 153.488C307.185 153.985 307.465 154.496 307.748 155.002C305.266 155.568 302.642 155.994 300.366 157.169" fill="#18AD74"/>
<path d="M319.134 213.7C319.604 199.436 320.014 184.795 315.817 170.986C314.254 165.848 312.05 160.414 309.396 155.54C310.562 154.832 311.585 153.66 312.73 152.981C314.637 151.852 316.71 151.125 318.88 150.706C319.584 150.569 319.258 149.502 318.56 149.637C316.666 150.005 314.85 150.609 313.133 151.488C312.301 151.913 311.498 152.402 310.74 152.949C310.165 153.362 309.51 154.064 308.842 154.53C308.369 153.697 307.888 152.878 307.389 152.088C307.213 151.811 307.009 151.548 306.824 151.276C308.418 148.921 310.372 146.921 312.708 145.289C313.294 144.878 312.717 143.924 312.128 144.337C309.778 145.977 307.8 147.983 306.156 150.311C304.87 148.559 303.393 146.904 301.837 145.305C302.674 142.728 303.86 140.341 305.393 138.105C305.8 137.514 304.82 136.977 304.418 137.565C302.95 139.702 301.822 141.99 300.974 144.428C299.382 142.841 297.729 141.307 296.104 139.789C296.88 138.241 297.602 136.672 298.261 135.071C298.532 134.413 297.56 133.865 297.288 134.528C296.664 136.041 295.98 137.525 295.252 138.99C294.294 138.088 293.346 137.188 292.442 136.285C291.933 135.776 291.161 136.58 291.669 137.088C292.506 137.925 293.385 138.764 294.276 139.604C292.136 139.735 289.996 139.866 287.857 139.999C287.141 140.042 287.172 141.157 287.89 141.113C290.205 140.971 292.521 140.828 294.834 140.685C295.009 140.676 295.137 140.6 295.222 140.494C296.801 141.973 298.41 143.468 299.961 145.013C297.906 145.107 295.897 145.456 293.888 145.923C292.093 146.34 290.254 146.632 288.861 147.913C288.332 148.401 289.138 149.171 289.665 148.687C291.012 147.45 293.188 147.212 294.914 146.829C296.874 146.395 298.832 146.105 300.841 146.088L300.981 146.059C302.356 147.476 303.668 148.936 304.832 150.468C299.256 151.037 293.722 152.08 289.446 155.993C288.914 156.478 289.721 157.248 290.248 156.766C294.486 152.889 300.089 152.035 305.602 151.509C306.057 152.157 306.498 152.812 306.893 153.488C307.185 153.985 307.465 154.495 307.748 155.002C305.045 155.618 302.174 156.071 299.766 157.501C297.689 158.737 296.086 160.571 294.689 162.511C294.269 163.092 295.249 163.626 295.664 163.053C297.082 161.086 298.764 159.245 300.945 158.118C303.188 156.959 305.852 156.585 308.29 156.02L308.312 156.018C311.225 161.406 313.649 167.247 315.264 173.086C318.912 186.283 318.466 200.185 318.021 213.735C317.997 214.452 319.112 214.414 319.134 213.7" fill="#5BC69A"/>
<path d="M315.434 167.397C315.502 164.042 316.818 160.448 319.7 158.583C323.194 156.323 326.876 158.365 330.362 159.962C329.34 157.341 326.26 156.599 324.138 155.152C333.489 149.057 345.564 150.457 345.564 150.457C345.564 150.457 352.698 158.805 353.034 162.721C351.02 162.249 349.037 161.573 346.941 161.32C348.946 162.054 352.008 165.078 352.969 167.847C353.774 170.173 352.044 174.296 350.937 176.496C348.75 180.847 341.464 189.009 336.44 183.269C332.246 178.478 334.104 171.844 325.598 173.917C319.23 175.471 315.276 175.338 315.434 167.397" fill="#5BC69A"/>
<path d="M321.426 216.336C321.049 204.853 320.718 193.069 324.097 181.953C325.356 177.817 327.129 173.444 329.266 169.518C328.328 168.949 327.504 168.006 326.582 167.461C325.048 166.552 323.378 165.966 321.633 165.628C321.066 165.518 321.326 164.66 321.89 164.769C323.414 165.064 324.876 165.55 326.258 166.257C326.928 166.601 327.574 166.994 328.185 167.435C328.646 167.766 329.174 168.332 329.712 168.708C330.092 168.036 330.48 167.377 330.882 166.741C331.024 166.517 331.188 166.306 331.337 166.086C330.053 164.192 328.48 162.581 326.6 161.268C326.129 160.938 326.592 160.171 327.068 160.501C328.958 161.823 330.552 163.437 331.874 165.311C332.909 163.9 334.098 162.568 335.352 161.283C334.677 159.206 333.722 157.285 332.488 155.485C332.161 155.009 332.949 154.577 333.273 155.05C334.456 156.772 335.362 158.613 336.045 160.574C337.326 159.297 338.657 158.064 339.966 156.841C339.341 155.596 338.76 154.33 338.229 153.042C338.012 152.514 338.794 152.073 339.014 152.606C339.516 153.824 340.065 155.018 340.65 156.197C341.422 155.472 342.186 154.747 342.913 154.02C343.322 153.611 343.944 154.259 343.536 154.666C342.861 155.341 342.153 156.014 341.437 156.69C343.16 156.797 344.882 156.904 346.605 157.009C347.18 157.045 347.156 157.942 346.577 157.905C344.713 157.793 342.85 157.678 340.986 157.564C340.848 157.554 340.745 157.493 340.676 157.408C339.405 158.599 338.11 159.801 336.862 161.047C338.514 161.123 340.132 161.401 341.749 161.778C343.193 162.114 344.673 162.349 345.796 163.381C346.221 163.773 345.573 164.393 345.148 164.004C344.065 163.008 342.313 162.816 340.924 162.508C339.346 162.159 337.77 161.925 336.152 161.911L336.038 161.888C334.933 163.029 333.877 164.202 332.94 165.437C337.428 165.896 341.882 166.736 345.325 169.884C345.752 170.274 345.102 170.896 344.678 170.508C341.266 167.387 336.757 166.697 332.32 166.274C331.954 166.796 331.598 167.324 331.281 167.866C331.046 168.269 330.821 168.68 330.593 169.086C332.768 169.583 335.08 169.947 337.017 171.099C338.69 172.093 339.978 173.569 341.105 175.13C341.442 175.599 340.653 176.029 340.32 175.568C339.178 173.984 337.824 172.502 336.069 171.594C334.264 170.662 332.12 170.361 330.157 169.906L330.138 169.905C327.794 174.242 325.842 178.942 324.542 183.644C321.608 194.265 321.966 205.457 322.324 216.362C322.342 216.94 321.445 216.911 321.426 216.336" fill="#5BC69A"/>
<path d="M321.905 216.781C321.676 216.781 321.436 216.63 321.426 216.336C321.31 212.792 321.198 209.22 321.198 205.648C321.198 197.644 321.761 189.638 324.097 181.953C325.356 177.817 327.129 173.444 329.266 169.518C328.328 168.949 327.504 168.006 326.582 167.461C325.048 166.552 323.378 165.966 321.633 165.628C321.412 165.585 321.317 165.429 321.316 165.261C321.316 165.023 321.504 164.76 321.793 164.76C321.824 164.76 321.857 164.762 321.89 164.769C323.414 165.064 324.876 165.55 326.258 166.257C326.928 166.601 327.574 166.994 328.185 167.435C328.646 167.766 329.174 168.332 329.712 168.708C330.092 168.036 330.48 167.377 330.882 166.741C331.024 166.517 331.188 166.306 331.337 166.086C330.053 164.192 328.48 162.581 326.6 161.268C326.461 161.171 326.404 161.036 326.404 160.901C326.402 160.659 326.592 160.42 326.829 160.42C326.905 160.42 326.986 160.444 327.068 160.501C328.958 161.823 330.552 163.437 331.874 165.311C332.909 163.9 334.098 162.568 335.352 161.283C334.677 159.206 333.722 157.285 332.488 155.485C332.433 155.405 332.409 155.326 332.41 155.253C332.412 155.023 332.649 154.845 332.89 154.845C333.032 154.845 333.174 154.905 333.273 155.05C334.456 156.772 335.362 158.613 336.045 160.574C337.326 159.297 338.657 158.064 339.966 156.841C339.341 155.596 338.76 154.33 338.229 153.042C338.202 152.978 338.19 152.914 338.192 152.854C338.193 152.578 338.446 152.365 338.681 152.365C338.816 152.365 338.944 152.436 339.014 152.606C339.516 153.824 340.065 155.018 340.65 156.197C341.422 155.472 342.186 154.747 342.913 154.02C343.005 153.928 343.108 153.889 343.206 153.889C343.448 153.889 343.669 154.117 343.669 154.362C343.669 154.466 343.63 154.572 343.536 154.666C342.861 155.341 342.153 156.014 341.437 156.69C343.16 156.797 344.882 156.904 346.605 157.009C346.886 157.026 347.025 157.25 347.024 157.471C347.022 157.692 346.884 157.906 346.61 157.906C346.6 157.906 346.588 157.906 346.577 157.905C344.713 157.793 342.85 157.678 340.986 157.564C340.848 157.554 340.745 157.493 340.676 157.408C339.405 158.599 338.11 159.801 336.862 161.047C338.514 161.123 340.132 161.401 341.749 161.778C343.193 162.114 344.673 162.349 345.796 163.381C345.893 163.472 345.934 163.573 345.934 163.673C345.934 163.909 345.702 164.126 345.452 164.126C345.349 164.126 345.242 164.09 345.148 164.004C344.065 163.008 342.313 162.816 340.924 162.508C339.346 162.159 337.77 161.925 336.152 161.911L336.038 161.888C334.933 163.029 333.877 164.202 332.94 165.437C337.428 165.896 341.882 166.736 345.325 169.884C345.424 169.973 345.465 170.076 345.465 170.176C345.465 170.411 345.232 170.63 344.981 170.63C344.878 170.63 344.773 170.593 344.678 170.508C341.266 167.387 336.757 166.697 332.32 166.274C331.954 166.796 331.598 167.324 331.281 167.866C331.046 168.269 330.821 168.68 330.593 169.086C332.768 169.583 335.08 169.947 337.017 171.099C338.69 172.093 339.978 173.569 341.105 175.13C341.162 175.211 341.186 175.288 341.188 175.361C341.188 175.588 340.949 175.765 340.704 175.765C340.564 175.765 340.421 175.706 340.32 175.568C339.178 173.984 337.824 172.502 336.069 171.594C334.264 170.662 332.12 170.361 330.157 169.906L330.138 169.905C329.5 171.088 328.889 172.299 328.313 173.528C327.029 176.269 325.917 179.109 325.034 181.965C324.861 182.525 324.697 183.085 324.542 183.644C322.577 190.76 322.088 198.13 322.088 205.501C322.088 209.132 322.206 212.762 322.324 216.362C322.324 216.369 322.324 216.376 322.324 216.383C322.324 216.65 322.118 216.781 321.905 216.781" fill="#18AD74"/>
<path d="M313.672 167.928C312.777 164.536 310.553 161.206 307.165 160.023C303.057 158.586 299.818 161.571 296.669 164.054C297.064 161.136 300.009 159.624 301.808 157.63C290.802 153.741 278.878 158.14 278.878 158.14C278.878 158.14 273.685 168.383 274.308 172.447C276.241 171.471 278.088 170.293 280.156 169.518C278.3 170.76 275.934 174.588 275.641 177.637C275.394 180.2 278.17 183.962 279.836 185.928C283.13 189.809 292.549 196.308 296.24 189.236C299.318 183.336 295.797 177.05 304.952 177.061C311.805 177.068 315.793 175.959 313.672 167.928" fill="#5BC69A"/>
<path d="M319.646 219.138C317.2 207.377 314.632 195.32 308.457 184.856C306.16 180.964 303.28 176.956 300.138 173.496C300.953 172.685 301.558 171.521 302.358 170.74C303.694 169.44 305.248 168.433 306.938 167.66C307.486 167.408 307.01 166.6 306.465 166.849C304.989 167.524 303.622 168.378 302.393 169.438C301.797 169.953 301.237 170.513 300.725 171.109C300.337 171.561 299.941 172.265 299.486 172.78C298.934 172.192 298.377 171.618 297.813 171.071C297.614 170.877 297.396 170.702 297.19 170.516C298.026 168.276 299.228 166.25 300.814 164.452C301.213 164.001 300.552 163.335 300.152 163.789C298.556 165.597 297.334 167.63 296.452 169.861C295.053 168.683 293.516 167.624 291.925 166.624C292.098 164.348 292.594 162.16 293.406 160.028C293.621 159.462 292.713 159.218 292.501 159.778C291.725 161.82 291.256 163.913 291.045 166.076C289.429 165.094 287.772 164.169 286.14 163.248C286.47 161.829 286.749 160.4 286.969 158.959C287.061 158.369 286.156 158.114 286.065 158.711C285.856 160.071 285.59 161.421 285.286 162.764C284.322 162.216 283.369 161.668 282.45 161.108C281.933 160.792 281.462 161.604 281.977 161.918C282.829 162.437 283.713 162.949 284.609 163.459C282.884 163.992 281.16 164.523 279.436 165.056C278.861 165.233 279.106 166.138 279.686 165.96C281.55 165.385 283.416 164.809 285.281 164.233C285.42 164.19 285.51 164.104 285.561 164C287.144 164.897 288.757 165.8 290.333 166.756C288.672 167.241 287.097 167.924 285.545 168.705C284.16 169.402 282.714 170.008 281.829 171.332C281.493 171.835 282.305 172.304 282.64 171.804C283.496 170.525 285.228 169.9 286.565 169.242C288.082 168.5 289.626 167.874 291.266 167.461L291.376 167.408C292.78 168.296 294.142 169.229 295.4 170.252C290.952 171.824 286.633 173.776 283.91 177.824C283.573 178.326 284.385 178.797 284.72 178.297C287.418 174.285 291.832 172.474 296.237 170.95C296.738 171.39 297.228 171.838 297.685 172.313C298.022 172.662 298.353 173.024 298.685 173.383C296.596 174.423 294.337 175.361 292.652 177.011C291.197 178.433 290.252 180.252 289.492 182.116C289.264 182.676 290.172 182.918 290.397 182.365C291.166 180.476 292.178 178.636 293.74 177.281C295.342 175.889 297.448 175.054 299.33 174.108L299.349 174.102C302.8 177.932 305.942 182.228 308.421 186.684C314.024 196.754 316.417 208.216 318.744 219.388C318.865 219.978 319.77 219.729 319.646 219.138" fill="#5BC69A"/>
<path d="M319.148 219.725C318.965 219.725 318.792 219.624 318.744 219.388C316.417 208.216 314.024 196.754 308.421 186.683C306.618 183.442 304.465 180.288 302.097 177.335C301.208 176.226 300.29 175.147 299.349 174.102L299.33 174.107C297.448 175.054 295.342 175.889 293.74 177.281C292.178 178.636 291.166 180.476 290.397 182.365C290.308 182.583 290.113 182.677 289.924 182.677C289.685 182.677 289.454 182.528 289.456 182.286C289.456 182.233 289.468 182.176 289.492 182.116C290.252 180.252 291.197 178.433 292.652 177.011C294.337 175.361 296.596 174.423 298.685 173.383C298.353 173.024 298.022 172.662 297.685 172.313C297.228 171.838 296.738 171.39 296.237 170.95C291.832 172.474 287.418 174.285 284.72 178.297C284.618 178.448 284.474 178.511 284.332 178.511C284.077 178.511 283.828 178.314 283.829 178.064C283.83 177.988 283.854 177.906 283.91 177.824C286.633 173.776 290.952 171.824 295.4 170.252C294.142 169.229 292.78 168.295 291.376 167.407L291.266 167.461C289.626 167.874 288.082 168.5 286.565 169.242C285.228 169.9 283.496 170.525 282.64 171.804C282.54 171.954 282.394 172.017 282.252 172.017C281.998 172.017 281.748 171.821 281.749 171.572C281.75 171.495 281.774 171.414 281.829 171.332C282.714 170.007 284.16 169.402 285.545 168.705C287.097 167.924 288.672 167.241 290.333 166.756C288.757 165.8 287.144 164.897 285.561 164C285.51 164.104 285.42 164.19 285.281 164.233C283.416 164.809 281.55 165.385 279.686 165.96C279.634 165.976 279.585 165.983 279.54 165.983C279.274 165.983 279.109 165.741 279.109 165.5C279.108 165.313 279.206 165.126 279.436 165.056C281.16 164.523 282.884 163.992 284.609 163.459C283.713 162.949 282.829 162.437 281.977 161.918C281.82 161.823 281.754 161.68 281.754 161.537C281.754 161.286 281.956 161.036 282.213 161.036C282.288 161.036 282.369 161.057 282.45 161.107C283.369 161.668 284.322 162.216 285.286 162.764C285.59 161.421 285.856 160.071 286.065 158.711C286.101 158.473 286.266 158.371 286.446 158.371C286.697 158.371 286.977 158.569 286.976 158.878C286.976 158.904 286.974 158.932 286.969 158.959C286.749 160.4 286.47 161.829 286.14 163.248C287.772 164.169 289.429 165.094 291.045 166.076C291.256 163.913 291.725 161.819 292.501 159.778C292.585 159.557 292.777 159.461 292.965 159.461C293.205 159.461 293.44 159.616 293.438 159.862C293.438 159.914 293.428 159.969 293.406 160.028C292.594 162.16 292.098 164.348 291.925 166.624C293.516 167.624 295.053 168.683 296.452 169.861C297.334 167.63 298.556 165.597 300.152 163.789C300.246 163.681 300.356 163.637 300.461 163.637C300.706 163.637 300.937 163.877 300.938 164.14C300.938 164.245 300.901 164.353 300.814 164.452C299.228 166.25 298.026 168.276 297.19 170.516C297.396 170.702 297.614 170.877 297.813 171.071C298.377 171.618 298.934 172.192 299.486 172.78C299.941 172.265 300.337 171.561 300.725 171.109C301.237 170.513 301.797 169.953 302.393 169.438C303.622 168.378 304.989 167.524 306.465 166.849C306.536 166.816 306.606 166.801 306.673 166.801C306.957 166.801 307.182 167.064 307.181 167.311C307.181 167.448 307.11 167.581 306.938 167.66C305.248 168.433 303.694 169.44 302.358 170.74C301.558 171.521 300.953 172.685 300.138 173.495C303.28 176.956 306.16 180.964 308.457 184.856C314.632 195.319 317.2 207.377 319.646 219.138C319.654 219.177 319.658 219.214 319.658 219.25C319.657 219.541 319.393 219.725 319.148 219.725" fill="#18AD74"/>
<path d="M324.038 186.396C324.598 184.271 325.992 182.185 328.113 181.444C330.686 180.545 332.714 182.413 334.688 183.968C334.44 182.141 332.594 181.193 331.469 179.947C338.361 177.511 345.828 180.265 345.828 180.265C345.828 180.265 349.081 186.681 348.69 189.225C347.48 188.613 346.322 187.876 345.028 187.392C346.192 188.169 347.672 190.565 347.856 192.476C348.01 194.08 346.272 196.437 345.229 197.668C343.166 200.099 337.266 204.168 334.956 199.738C333.028 196.044 335.233 192.108 329.5 192.114C325.206 192.12 322.71 191.424 324.038 186.396Z" fill="#5BC69A"/>
<path d="M324.038 186.396C324.598 184.271 325.992 182.185 328.113 181.444C330.686 180.545 332.714 182.413 334.688 183.968C334.44 182.141 332.594 181.193 331.469 179.947C338.361 177.511 345.828 180.265 345.828 180.265C345.828 180.265 349.081 186.681 348.69 189.225C347.48 188.613 346.322 187.876 345.028 187.392C346.192 188.169 347.672 190.565 347.856 192.476C348.01 194.08 346.272 196.437 345.229 197.668C343.166 200.099 337.266 204.168 334.956 199.738C333.028 196.044 335.233 192.108 329.5 192.114C325.206 192.12 322.71 191.424 324.038 186.396Z" fill="#5BC69A"/>
<path d="M338.064 201.712C336.821 201.712 335.701 201.168 334.956 199.738C333.029 196.047 335.228 192.114 329.513 192.114C329.509 192.114 329.505 192.114 329.5 192.114C329.484 192.114 329.468 192.114 329.45 192.114C328.652 192.114 327.916 192.089 327.256 192.016C326.769 191.961 326.322 191.881 325.922 191.764C324.509 191.35 323.682 190.484 323.681 188.742C323.681 188.09 323.796 187.316 324.038 186.396C324.598 184.271 325.992 182.185 328.113 181.444C328.577 181.281 329.024 181.209 329.456 181.209C331.416 181.209 333.07 182.694 334.688 183.968C334.44 182.141 332.594 181.193 331.469 179.947C333.581 179.2 335.749 178.94 337.737 178.94C342.237 178.94 345.828 180.265 345.828 180.265C345.828 180.265 348.722 185.974 348.722 188.757C348.722 188.924 348.712 189.081 348.69 189.225C347.48 188.613 346.322 187.876 345.028 187.392C346.192 188.169 347.672 190.565 347.856 192.476C347.862 192.545 347.865 192.616 347.865 192.687C347.862 194.281 346.228 196.489 345.229 197.668C343.832 199.314 340.674 201.712 338.064 201.712" fill="#18AD74"/>
<path d="M320.297 218.465C321.829 211.101 323.437 203.549 327.305 196.997C328.744 194.56 330.546 192.049 332.514 189.881C332.004 189.373 331.625 188.645 331.124 188.156C330.286 187.341 329.314 186.712 328.256 186.226C327.913 186.071 328.21 185.562 328.552 185.72C329.476 186.141 330.332 186.677 331.102 187.341C331.476 187.662 331.826 188.013 332.146 188.387C332.389 188.671 332.638 189.112 332.922 189.433C333.268 189.065 333.617 188.705 333.97 188.362C334.094 188.241 334.232 188.132 334.361 188.016C333.837 186.613 333.084 185.345 332.089 184.218C331.841 183.936 332.254 183.517 332.506 183.802C333.505 184.936 334.27 186.209 334.822 187.605C335.698 186.866 336.661 186.204 337.657 185.577C337.549 184.153 337.238 182.783 336.73 181.448C336.596 181.093 337.164 180.941 337.297 181.292C337.784 182.571 338.077 183.881 338.208 185.236C339.221 184.621 340.258 184.04 341.28 183.464C341.076 182.574 340.9 181.681 340.761 180.778C340.704 180.408 341.27 180.248 341.328 180.623C341.46 181.474 341.625 182.32 341.814 183.161C342.418 182.817 343.017 182.474 343.59 182.124C343.916 181.926 344.21 182.435 343.888 182.63C343.354 182.957 342.801 183.277 342.24 183.596C343.32 183.929 344.4 184.262 345.478 184.596C345.84 184.706 345.686 185.274 345.322 185.162C344.154 184.801 342.986 184.442 341.818 184.081L341.644 183.935C340.65 184.496 339.641 185.062 338.654 185.661C339.694 185.964 340.682 186.393 341.653 186.881C342.521 187.318 343.425 187.697 343.98 188.525C344.192 188.842 343.682 189.136 343.472 188.823C342.937 188.021 341.853 187.628 341.016 187.218C340.065 186.752 339.097 186.361 338.07 186.102L338.002 186.071C337.122 186.626 336.269 187.209 335.481 187.849C338.266 188.835 340.972 190.057 342.677 192.593C342.889 192.906 342.38 193.201 342.17 192.889C340.48 190.376 337.716 189.241 334.957 188.288C334.644 188.564 334.337 188.844 334.05 189.141C333.84 189.36 333.633 189.586 333.424 189.811C334.733 190.461 336.146 191.05 337.202 192.083C338.113 192.973 338.705 194.113 339.181 195.281C339.324 195.629 338.754 195.783 338.614 195.437C338.133 194.253 337.5 193.101 336.522 192.252C335.518 191.38 334.198 190.857 333.021 190.265L333.009 190.261C330.848 192.66 328.878 195.349 327.326 198.141C323.818 204.448 322.318 211.626 320.862 218.623C320.786 218.992 320.22 218.836 320.297 218.465" fill="#5BC69A"/>
<path d="M346.416 231.223C346.416 246.421 333.62 258.636 318.212 257.661C309.182 257.09 301.344 251.886 297.029 244.452C294.873 240.761 293.588 236.53 293.453 232.041C293.266 225.924 295.153 220.262 298.472 215.689C301.094 212.081 302.649 207.79 302.649 203.321V202.594H337.197V203.321C337.197 207.79 338.742 212.071 341.376 215.681C344.548 220.045 346.416 225.416 346.416 231.223" fill="#53A8C9"/>
<path d="M330.346 217.569C329.998 219.426 332.986 252.742 301.658 244.972C304.128 247.645 307.474 249.337 311.138 249.88C315.113 250.466 319.309 249.753 322.902 247.972C327.028 245.926 330.165 242.584 331.333 238.071C332.621 233.092 332.153 227.647 331.292 222.642C331 220.948 330.669 219.259 330.346 217.569Z" fill="#411C39"/>
<path d="M341.376 215.681C338.742 212.071 337.197 207.79 337.197 203.321V202.594H331.85C332.218 209.633 334.261 216.444 335.038 223.442C335.65 228.96 335.658 235.166 333.282 240.304C331.11 244.998 326.694 248.262 321.936 250.026C313.606 253.117 303.609 251.416 297.969 244.429C297.654 244.436 297.348 244.449 297.029 244.452C301.344 251.886 309.182 257.09 318.213 257.661C333.62 258.636 346.416 246.421 346.416 231.223C346.416 225.416 344.548 220.045 341.376 215.681" fill="#411C39"/>
</svg>
