<svg width="367" height="278" viewBox="0 0 367 278" fill="none" xmlns="http://www.w3.org/2000/svg">
<path d="M4.28996 253.772C8.94207 262.096 15.9489 269.864 24.2431 276.256H333.461C350.343 260.633 361.695 239.129 365.029 216.367C368.452 193.092 363.464 168.677 351.207 148.593C345.705 139.611 338.699 131.375 329.819 125.684C322.447 120.945 314.137 118.165 305.727 115.591C302.771 114.684 299.801 113.807 296.861 112.884C291.507 111.203 286.212 109.359 281.208 106.901C265.117 98.9866 253.121 85.528 241.097 71.968C238.171 68.6906 235.245 65.3853 232.247 62.168C227.404 56.9306 222.388 51.8973 216.96 47.3773C196.699 30.54 170.427 21.324 144.08 20.988C120.908 20.68 97.7962 27.132 77.7691 38.8053C75.0191 40.4 72.3421 42.0973 69.7233 43.8813C67.9541 45.096 66.1989 46.3387 64.5009 47.656C57.7717 52.7613 51.5697 58.568 46.3613 65.1947C38.0227 75.8 32.4645 88.3226 29.0555 101.605C28.1347 105.117 27.3889 108.687 26.7743 112.284C23.877 129.033 23.9514 146.443 25.7353 162.359C27.2415 175.801 28.5437 190.533 21.5659 202.763C16.6806 211.335 7.21548 216.469 2.84204 225.305C2.33006 226.359 1.89152 227.411 1.51131 228.493C-1.34181 236.817 -0.0110891 246.077 4.28996 253.772" fill="#5DC799"/>
<path d="M41.8135 335.2H43.1468V-2.88486e-05H41.8135V335.2Z" fill="white"/>
<path d="M69.5359 335.2H70.8692V-2.88486e-05H69.5359V335.2Z" fill="white"/>
<path d="M97.2573 335.2H98.5907V-2.88486e-05H97.2573V335.2Z" fill="white"/>
<path d="M124.979 335.2H126.312V-2.88486e-05H124.979V335.2Z" fill="white"/>
<path d="M152.7 335.2H154.033V-2.88486e-05H152.7V335.2Z" fill="white"/>
<path d="M180.421 335.2H181.755V-2.88486e-05H180.421V335.2Z" fill="white"/>
<path d="M208.143 335.2H209.476V-2.88486e-05H208.143V335.2Z" fill="white"/>
<path d="M235.864 335.2H237.197V-2.88486e-05H235.864V335.2Z" fill="white"/>
<path d="M263.585 335.2H264.919V-2.88486e-05H263.585V335.2Z" fill="white"/>
<path d="M291.307 335.2H292.64V-2.88486e-05H291.307V335.2Z" fill="white"/>
<path d="M319.028 335.2H320.361V-2.88486e-05H319.028V335.2Z" fill="white"/>
<path d="M346.749 335.2H348.083V-2.88486e-05H346.749V335.2Z" fill="white"/>
<path d="M247.081 118.264C245.405 118.444 243.661 118.303 242.133 117.588C240.608 116.875 239.325 115.536 238.929 113.897C238.375 111.601 239.579 109.272 239.76 106.917C240.003 103.751 238.296 100.627 235.788 98.6773C233.281 96.7279 230.072 95.8466 226.9 95.6666L212.653 97.7986C209.889 104.86 210.7 113.219 214.772 119.616C215.243 120.356 215.768 121.085 216.485 121.591C218.609 123.085 221.509 122.169 224.1 122.361C224.693 122.404 225.343 122.547 225.693 123.028C225.973 123.413 225.995 123.921 226.004 124.397C226.037 126.107 225.839 128.208 224.275 128.901C227.651 128.924 231.157 127.828 233.452 125.349C235.744 122.872 236.513 118.881 234.741 116.007C238.092 118.82 242.953 119.708 247.081 118.264Z" fill="#D76154"/>
<path d="M170.329 142.812L116.313 180.044L113.993 215.153L176.841 187.169C176.841 187.169 183.884 149.372 170.329 142.812Z" fill="#C7EDF2"/>
<path d="M143.277 191.992C136.925 194.263 130.707 196.921 124.769 200.128C121.998 201.624 119.424 203.281 116.88 205.129C116.119 205.681 115.343 206.233 114.548 206.756L113.993 215.153L176.841 187.169C176.841 187.169 177.16 185.449 177.531 182.696C165.957 185.188 154.432 188.004 143.277 191.992" fill="#471E39"/>
<path d="M244.24 153.616L251.78 178.384L276.361 183.873L319.336 191.584C328.245 192.437 335.876 185.221 335.477 176.277C336.184 151.315 336.907 126.244 335.645 109.693C335.343 105.631 334.831 95.4413 334.257 92.5359C330.821 92.1919 327.513 90.5359 324.396 90.3053C323.351 93.3879 321.176 104.976 320.231 109.031C315.991 127.175 313.117 152.131 314.439 158.111C294.391 148.537 270.912 135.599 259.961 134.951C258.311 134.784 243.775 152.029 244.24 153.616" fill="#C7EDF2"/>
<path d="M265.241 156.605L319.336 191.584L268.285 182.696L265.241 156.605Z" fill="#471E39"/>
<path d="M341.616 90.584H310.062V87.244H341.616V90.584Z" fill="#D76154"/>
<path d="M341.773 127.516H310.22V124.176H341.773V127.516Z" fill="#D76154"/>
<path d="M341.272 124.176H310.22C307.12 113.803 307.307 102.5 310.22 90.4267H341.272C344.444 102.724 344.444 113.973 341.272 124.176Z" fill="#FAB738"/>
<path d="M341.272 90.4267H337.552C338.453 92.356 339.049 94.4494 339.429 96.472C340.167 100.388 340.22 104.515 339.342 108.415C338.942 110.185 338.345 112.011 337.299 113.512C336.048 115.309 334.313 116.728 332.432 117.827C328.533 120.104 323.589 121.452 319.076 120.785C315.132 120.203 311.833 117.88 308.461 115.888C308.833 118.711 309.412 121.476 310.22 124.176H341.272C344.444 113.973 344.444 102.724 341.272 90.4267" fill="#471E39"/>
<path d="M336.029 108.163C336.359 107.963 336.66 107.708 336.911 107.393C337.436 106.736 337.733 105.908 337.751 105.083C337.847 104.407 337.749 103.7 337.408 103.044C336.612 101.512 334.793 100.819 333.16 101.319C331.589 101.797 330.561 103.228 330.487 104.851C330.475 105.103 330.499 105.345 330.536 105.583H321.045C321.071 105.416 321.093 105.249 321.097 105.083C321.195 104.407 321.096 103.7 320.756 103.044C319.957 101.512 318.14 100.819 316.507 101.319C314.937 101.797 313.907 103.228 313.833 104.851C313.768 106.277 314.535 107.523 315.737 108.192C314.612 108.843 313.895 110.041 313.833 111.379C313.76 112.987 314.74 114.369 316.217 114.949C317.635 115.505 319.299 115.121 320.257 113.921C320.783 113.264 321.08 112.436 321.097 111.609L321.109 111.443H330.489C330.445 113.023 331.413 114.377 332.871 114.949C334.287 115.505 335.952 115.121 336.911 113.921C337.436 113.264 337.733 112.436 337.751 111.609C337.847 110.935 337.749 110.227 337.408 109.572C337.089 108.956 336.601 108.484 336.029 108.163" fill="white"/>
<path d="M329.62 83.0133C329.62 83.0133 332.974 82.4506 333.829 85.44C333.88 85.4573 335.238 85.9067 336.725 87.3267C336.497 87.8853 336.29 88.4613 336.094 89.04C335.892 89.6066 335.682 90.1906 335.356 90.6973L335.261 90.84L335.09 91.072C334.933 91.2613 335.032 91.5813 335.224 91.7L335.34 91.7573L335.486 91.776L335.586 91.76C334.842 93.292 332.101 98.5573 328.953 99.8106C328.25 100.091 327.524 100.172 326.808 99.9587C326.289 100.165 324.752 100.655 323.434 99.988C322.625 99.5827 322.065 98.8267 321.76 97.7587C321.234 97.8093 320.373 97.7786 319.693 97.2146C318.972 96.6266 318.665 95.6253 318.774 94.2813V94.252C319.198 94.448 319.672 94.7053 320.21 95.052L318.993 92.272C318.993 92.272 318.901 92.3186 318.749 92.3746C317.617 92.852 313.064 94.3013 315.697 85.9626C315.697 85.9626 317.902 77.5813 324.052 81.5653C324.052 81.5653 327.422 80.0026 329.62 83.0133" fill="#F58061"/>
<path d="M320.281 96.4947C320.824 96.948 321.613 96.8493 321.887 96.804C322.661 92.932 323.657 89.1146 324.889 85.372C325.073 84.8 325.931 85.1733 325.745 85.7466C324.477 89.6013 323.464 93.528 322.692 97.5146L322.685 97.532C322.912 98.3146 323.297 98.8693 323.847 99.1533C325.017 99.744 326.565 99.0466 326.587 99.044L326.939 99.024L327.063 99.0547C328.131 95.2507 329.468 91.5333 331.111 87.9426C331.365 87.3933 332.213 87.764 331.969 88.308C330.371 91.796 329.056 95.416 328.013 99.104C330.825 98.652 333.879 93.2773 334.932 90.9733C335.008 90.796 335.175 90.6973 335.356 90.6973L335.261 90.84L335.091 91.072C334.933 91.2613 335.032 91.5813 335.224 91.7L335.34 91.7573L335.487 91.776L335.589 91.752L335.587 91.76C334.843 93.292 332.101 98.5573 328.953 99.8106C328.251 100.091 327.524 100.172 326.808 99.9587C326.289 100.165 324.752 100.655 323.435 99.988C322.625 99.5827 322.065 98.8267 321.76 97.7587C321.235 97.8093 320.373 97.7786 319.693 97.2146C318.972 96.6266 318.665 95.6253 318.775 94.2813V94.252L318.749 92.3746L318.751 92.1933L318.817 91.956C318.819 89.1387 319.28 86.356 320.217 83.6973C320.42 83.1306 321.277 83.5027 321.076 84.0613C320.117 86.76 319.663 89.6133 319.732 92.4733L319.683 92.6867L320.211 95.052C320.127 96.1093 319.823 96.1053 320.281 96.4947" fill="#471E39"/>
<path d="M266.231 209.131C263.679 223.092 262.657 237.292 263.176 251.464L263.555 261.725L264.1 276.668H171.935L171.5 262.987L171.037 248.1C170.869 243.068 170.211 238.063 168.935 233.185C156.683 186.451 170.323 142.815 170.323 142.815C174.108 141.692 179.644 140.052 185.097 138.427C194.167 135.735 202.969 133.1 202.969 133.1L221.851 130.773L244.012 133.197L259.965 134.951C259.965 140.276 271.783 178.671 271.783 178.671L266.231 209.131Z" fill="#C7EDF2"/>
<path d="M244.012 133.197C242.274 151.435 229.575 165.607 214.141 165.607C200.236 165.607 188.531 154.084 185.097 138.427C194.167 135.735 202.969 133.1 202.969 133.1L221.851 130.773L244.012 133.197" fill="white"/>
<path d="M264.101 276.665H253.196C253.031 270.585 252.731 264.508 252.572 258.428C252.452 253.829 252.416 249.225 252.587 244.628C252.755 240.132 253.195 235.651 253.579 231.169C253.969 226.608 254.357 222.047 254.676 217.48C254.996 212.911 255.155 208.332 255.488 203.764C256.137 194.867 257.173 185.997 258.808 177.224C260.14 170.087 262.869 163.417 265.241 156.605C268.391 167.656 271.781 178.675 271.781 178.675L266.224 209.137C263.676 223.097 262.655 237.292 263.176 251.472L264.101 276.665" fill="#471E39"/>
<path d="M219.509 142.797C218.347 143.596 217.113 144.283 215.895 144.745C208.591 147.521 200.335 144.325 199.423 137.344L199.381 137.161L199.396 136.909L199.34 136.419L199.296 135.997L199.003 133.223L198.82 132.003L196.984 120.86C196.913 120.005 207.176 117.313 207.176 117.313L209.628 115.252L212.333 112.995L215.459 110.388L220.099 106.52L220.463 106.253L220.645 108.216L223.575 122.963L223.589 123.004L224.345 126.523L225.131 130.531C226.028 134.891 223.813 139.672 219.509 142.797" fill="#F68270"/>
<path d="M212.895 130.237C209.712 132.788 205.591 135.521 199.296 135.997L199.003 133.223L198.82 132.003L196.984 120.86C196.913 120.005 207.176 117.313 207.176 117.313L209.628 115.252L212.333 112.995L215.459 110.388C216.44 115.323 218.585 125.64 212.895 130.237" fill="#471E39"/>
<path d="M230.648 92.2187C229.88 96.8267 226.809 100.164 223.573 100.161L223.555 100.275C223.375 101.437 223.131 102.572 222.821 103.703C221.471 108.719 219.029 113.388 215.576 117.236C215.015 117.859 214.424 118.461 213.808 119.053C213.312 119.545 212.792 120.004 212.255 120.448C211.771 120.861 211.281 121.233 210.776 121.623C210.34 121.943 209.929 122.22 209.539 122.469C208.399 123.213 207.128 123.785 205.761 124.195C196.923 126.912 187.579 123.049 182.544 115.597C181.707 114.356 180.989 113.015 180.412 111.597C179.693 109.875 179.071 108.125 178.483 106.331C178.389 106.039 178.305 105.743 178.221 105.448L178.139 105.183C178.089 105.032 178.049 104.9 178.004 104.759C176.523 99.6867 175.508 94.3173 174.791 88.764C173.403 83.444 175.317 76.648 176.975 72.2534C178.124 69.1827 179.757 66.2613 181.972 63.8013C195.073 49.22 212.356 57.3693 212.356 57.3693C224.072 60.1413 223.447 79.328 223.447 79.328C223.561 80.376 223.629 81.388 223.728 82.3693C224.381 82.1973 225.089 82.1094 225.789 82.2174C229.28 82.788 231.444 87.2734 230.648 92.2187" fill="#F68270"/>
<path d="M234.352 81.516C234.362 79.7067 234.153 77.9053 233.96 76.1067C233.664 73.3293 233.356 70.552 232.928 67.792C232.226 63.264 231.178 58.644 228.686 54.7813C225.589 49.9787 220.445 46.732 214.958 45.1293C209.473 43.5253 203.646 43.4454 197.956 43.9694C193.145 44.412 188.328 45.292 183.884 47.188C171.89 52.304 163.957 64.4 160.849 77.064C159.788 81.392 159.209 85.924 160.033 90.304C160.857 94.6827 163.234 98.9107 167.041 101.227C167.881 101.737 168.789 102.16 169.502 102.837C171.516 104.757 171.037 108.603 168.614 109.969C170.605 110.284 172.74 109.303 173.8 107.588C173.525 109.127 174.654 110.64 176.058 111.327C177.461 112.013 179.081 112.064 180.644 112.103C177.164 108.307 177.449 102.545 176.853 97.4293C176.698 96.0907 176.466 94.7627 176.161 93.4507C175.234 89.476 176.457 85.3787 179.345 82.496C181.836 80.012 183.952 77.156 185.574 74.0347C186.056 77.4893 185.304 81.1027 183.485 84.08C193.605 83.8067 203.388 77.8667 208.292 69.0093C206.881 73.4587 205.577 78.6947 208.308 82.48C209.053 83.5133 210.045 84.336 210.992 85.1893C212.929 86.936 214.782 88.9613 215.453 91.4813C216.121 94.0027 215.236 97.1013 212.877 98.212C215.442 97.6667 217.58 95.772 218.89 93.4987C220.201 91.2253 220.769 88.5987 221.062 85.992C221.504 86.6974 222.576 86.656 223.31 86.2627C224.044 85.872 224.634 85.228 225.408 84.9213C227.082 84.2547 229.032 85.456 229.829 87.0733C230.625 88.6893 230.572 90.5773 230.501 92.3787C233.176 89.4947 234.332 85.448 234.352 81.516" fill="#D76154"/>
<path d="M195.216 113.133C195.637 113.984 196.17 114.673 196.796 115.228C200.632 118.716 207.4 116.112 208.237 110.961C208.442 109.776 208.312 108.431 207.748 107C207.245 105.735 205.658 105.336 204.616 106.18C202.017 108.255 199.325 109.576 196.552 110.289C195.309 110.6 194.658 111.979 195.216 113.133" fill="#471E39"/>
<path d="M196.796 115.228C200.632 118.716 207.4 116.112 208.237 110.961C206.907 110.348 205.268 110.061 203.565 110.227C200.077 110.563 197.313 112.676 196.796 115.228Z" fill="#F8A2C8"/>
<path d="M223.755 87.6027C224.095 87.2387 224.623 87.1027 225.049 87.4267C225.415 87.704 225.567 88.3534 225.227 88.72C223.48 90.5907 223.165 93.2414 224.421 95.4787C224.665 95.9134 224.36 96.5094 223.936 96.692C223.437 96.9054 222.968 96.6427 222.724 96.2067C221.184 93.464 221.611 89.904 223.755 87.6027" fill="#471E39"/>
<path d="M187.787 106.349C187.827 102.092 188.187 97.8119 188.389 93.5599C188.437 92.5639 189.995 92.5439 189.947 93.5493L189.455 103.891C189.395 105.179 188.783 107.577 190.383 108.092C191.847 108.563 193.668 108.028 194.992 107.384C195.888 106.949 196.7 108.279 195.799 108.716C193.059 110.047 187.747 110.803 187.787 106.349Z" fill="#471E39"/>
<path d="M202.635 92.9306C202.925 94.4813 202.304 95.916 201.245 96.1373C200.188 96.3586 199.095 95.2813 198.804 93.732C198.512 92.1826 199.135 90.7467 200.192 90.524C201.251 90.304 202.344 91.38 202.635 92.9306" fill="#471E39"/>
<path d="M185.52 97.1359C185.811 98.6866 185.189 100.121 184.131 100.343C183.073 100.564 181.98 99.4879 181.688 97.9373C181.397 96.3879 182.02 94.9519 183.077 94.7306C184.136 94.5093 185.229 95.5853 185.52 97.1359Z" fill="#471E39"/>
<path d="M205.531 87.0453L205.543 87.0333L205.763 86.9386C204.067 84.4733 201.055 82.9253 198.056 83.0946C197.581 83.1213 197.092 83.1946 196.699 83.46C196.305 83.7253 196.04 84.2306 196.184 84.6826C196.343 85.1826 196.908 85.4239 197.423 85.5373C198.488 85.7693 199.591 85.7173 200.68 85.6946C201.771 85.672 202.884 85.6839 203.916 86.0306C204.523 86.2359 205.085 86.5906 205.531 87.0453" fill="#471E39"/>
<path d="M183.073 86.3719C182.659 86.2506 182.265 86.3213 181.904 86.428C179.519 87.1306 178.037 89.4573 178.112 92.1959C178.203 91.8066 178.331 91.4359 178.556 91.1306L178.6 91.0866C178.717 90.8866 178.853 90.7026 179.013 90.5453C179.605 89.9653 180.416 89.6533 181.225 89.3746C182.035 89.0973 182.867 88.8413 183.536 88.3519C183.859 88.1146 184.159 87.7546 184.035 87.2799C183.924 86.8533 183.489 86.4919 183.073 86.3719" fill="#471E39"/>
<path d="M103.317 133.872C101.967 140.533 101.376 147.529 103.232 154.068C104.094 157.104 105.756 160.26 108.723 161.336C110.478 161.971 112.499 161.751 114.129 160.84C115.759 159.931 116.988 158.367 117.59 156.6C118.256 154.648 118.108 152.464 117.296 150.572C123.045 146.927 128.775 143.028 132.69 137.495C133.613 136.191 134.44 134.768 134.702 133.193C134.964 131.617 134.572 129.859 133.377 128.8C132.269 127.819 130.666 127.588 129.193 127.751C127.722 127.913 126.312 128.419 124.865 128.74C120.658 129.675 116.266 129.024 112.059 128.089C110.244 127.687 108.262 127.249 106.594 128.072C104.529 129.092 103.774 131.613 103.317 133.872" fill="#D76154"/>
<path d="M103.317 133.872C101.967 140.533 101.376 147.529 103.232 154.068C104.094 157.104 105.756 160.26 108.723 161.336C110.478 161.971 112.499 161.751 114.129 160.84C115.759 159.931 116.988 158.367 117.59 156.6C118.256 154.648 118.108 152.464 117.296 150.572C123.045 146.927 128.775 143.028 132.69 137.495C133.613 136.191 134.44 134.768 134.702 133.193C134.964 131.617 134.572 129.859 133.377 128.8C132.269 127.819 130.666 127.588 129.193 127.751C127.722 127.913 126.312 128.419 124.865 128.74C120.658 129.675 116.266 129.024 112.059 128.089C110.244 127.687 108.262 127.249 106.594 128.072C104.529 129.092 103.774 131.613 103.317 133.872" fill="#471E39"/>
<path d="M126.47 220.405C126.47 220.405 149.036 264.284 130.748 319.815C142.017 323.495 152.878 327.737 156.797 332.095C158.792 334.312 156.902 337.844 153.933 337.576C147.492 336.993 132.937 335.585 118.006 333.497C115.746 333.181 113.917 331.495 113.421 329.267L94.1753 242.875L126.47 220.405" fill="#D76154"/>
<path d="M126.47 220.405C126.47 220.405 149.036 264.284 130.748 319.815C142.017 323.495 152.878 327.737 156.797 332.095C158.792 334.312 156.902 337.844 153.933 337.576C147.492 336.993 132.937 335.585 118.006 333.497C115.746 333.181 113.917 331.495 113.421 329.267L94.1753 242.875L126.47 220.405" fill="#D76154"/>
<path d="M102.096 251.683C109.01 244.432 117.39 238.273 126.778 233.545C128.319 232.769 130.113 232.009 131.883 232.503C134.299 233.175 135.275 235.717 135.757 237.881C139.835 256.156 136.62 274.619 133.397 292.636C130.977 306.172 128.522 319.827 122.84 332.431C121.621 335.14 120.096 337.949 117.213 339.375C113.028 341.447 107.202 339.756 103.707 336.523C100.21 333.287 98.5904 328.897 97.5216 324.629C94.5686 312.84 94.9488 300.736 97.0164 289.071C99.0842 277.407 102.804 266.107 106.516 254.84" fill="#471E39"/>
<path d="M77.0723 227.636C79.7457 226.668 82.1061 224.859 83.9681 222.684C86.1947 220.105 87.7755 217.036 89.1375 213.905C89.6791 219.917 88.4203 226.085 85.5489 231.4C92.1651 228.644 97.5843 223.132 100.226 216.464C101.058 222.467 101.265 228.561 100.839 234.604C102.941 233.189 104.751 231.348 106.165 229.248V229.237C108.557 225.701 109.868 221.436 109.701 217.172C112.177 222.153 112.936 227.968 111.822 233.419C116.92 229.008 119.364 221.748 117.98 215.153C120.561 219.959 124.648 223.932 129.495 226.439C128.58 224.432 127.571 222.415 126.468 220.407C126.229 219.46 126.051 218.535 125.938 217.609C123.962 202.163 138.243 189.493 159.784 173.559C163.487 170.813 165.764 166.528 165.889 161.92C166.013 156.823 164.059 150.54 162.676 146.776C162.009 144.976 159.951 144.144 158.224 144.976L138.139 153.911C134.768 155.544 130.92 155.897 127.311 154.899L121.86 153.401C116.712 151.987 111.261 151.727 106.061 152.964C89.9905 156.792 84.6129 171.916 84.3223 192.417C84.1556 204.533 81.7223 216.516 77.0723 227.636" fill="#D76154"/>
<path d="M129.495 226.439C129.316 226.347 129.14 226.253 128.964 226.157C127.049 225.112 125.26 223.837 123.645 222.372C121.367 220.305 119.434 217.861 117.98 215.153C118.237 216.377 118.362 217.624 118.362 218.871C118.363 220.477 118.158 222.084 117.763 223.644C117.716 223.035 117.678 222.425 117.65 221.813C117.356 215.327 118.231 208.661 121.183 202.876C126.432 192.589 137.324 186.547 147.98 182.096C148.435 181.907 148.889 181.719 149.347 181.532C134.963 193.017 125.748 203.197 125.756 214.788C125.757 215.719 125.816 216.659 125.938 217.609C126.051 218.535 126.228 219.46 126.468 220.407C127.571 222.415 128.58 224.432 129.495 226.439" fill="#CC5148"/>
<path d="M11.1998 389.48H82.8342C83.0738 378.204 51.0061 380.535 51.0061 380.535C83.9993 358.464 90.428 336.621 90.791 335.279C85.4984 356.989 84.3484 371.589 87.3926 387.217C87.7493 389.048 90.1624 389.716 92.028 389.716H116.036C116.733 383.049 99.4774 380.283 99.4774 380.283L106.394 351.291C109.236 339.38 113.713 327.939 119.485 317.141C135.64 286.92 143.233 256.695 129.495 226.439C124.648 223.932 120.561 219.959 117.98 215.153C119.364 221.748 116.92 229.008 111.822 233.419C112.936 227.968 112.176 222.153 109.701 217.172C109.962 223.975 106.488 230.797 100.839 234.604C101.265 228.561 101.058 222.467 100.226 216.464C97.5842 223.132 92.165 228.644 85.5489 231.4C88.4202 226.085 89.679 219.917 89.1374 213.905C87.7754 217.036 86.1946 220.105 83.9681 222.684C82.1061 224.859 79.7457 226.668 77.0722 227.636C75.4916 231.421 73.6504 235.124 71.5489 238.681L71.403 238.921C67.8353 244.953 63.7484 250.685 59.3274 256.124C14.5504 311.241 -1.98867 355.873 11.1998 389.48Z" fill="#D76154"/>
<path d="M107.569 261.928C109.327 269.116 112.583 275.825 115.162 282.752C117.752 289.679 119.666 297.117 118.574 304.428C128.216 297.896 135.487 287.952 138.804 276.792C139.313 278.269 139.824 279.747 140.333 281.233C142.351 272.881 142.675 264.133 141.269 255.657C142.184 257.311 143.1 258.953 144.015 260.597C145.637 251.288 142.58 241.272 136.027 234.459C137.775 235.884 139.521 237.319 141.259 238.755C137.712 230.028 134.352 221.832 125.938 217.609C126.051 218.535 126.229 219.46 126.468 220.407C127.571 222.415 128.58 224.432 129.495 226.439C124.648 223.932 120.561 219.959 117.98 215.153C119.364 221.748 116.92 229.008 111.822 233.419C112.936 227.968 112.177 222.153 109.701 217.172C109.868 221.436 108.557 225.7 106.165 229.237V229.248C105.468 241.177 105.686 254.253 107.569 261.928" fill="#D76154"/>
<path d="M107.569 261.928C109.327 269.116 112.583 275.825 115.162 282.752C117.752 289.679 119.666 297.117 118.574 304.428C128.216 297.896 135.487 287.952 138.804 276.792C139.313 278.269 139.824 279.747 140.333 281.233C142.351 272.881 142.675 264.133 141.269 255.657C142.184 257.311 143.1 258.953 144.015 260.597C145.637 251.288 142.58 241.272 136.027 234.459C137.775 235.884 139.521 237.319 141.259 238.755C137.712 230.028 134.352 221.832 125.938 217.609C126.051 218.535 126.229 219.46 126.468 220.407C127.571 222.415 128.58 224.432 129.495 226.439C124.648 223.932 120.561 219.959 117.98 215.153C119.364 221.748 116.92 229.008 111.822 233.419C112.936 227.968 112.177 222.153 109.701 217.172C109.868 221.436 108.557 225.7 106.165 229.237V229.248C105.468 241.177 105.686 254.253 107.569 261.928" fill="white"/>
<path d="M77.33 147.244C79.5582 154.785 82.7431 162.256 88.1822 167.935C90.7076 170.571 94.1155 172.897 97.7316 172.389C99.868 172.089 101.816 170.768 102.988 168.955C104.161 167.143 104.57 164.877 104.228 162.747C103.852 160.391 102.517 158.239 100.665 156.744C104.566 149.905 108.313 142.817 109.317 135.039C109.554 133.208 109.628 131.305 109.044 129.553C108.459 127.801 107.106 126.216 105.311 125.781C103.645 125.379 101.882 126.009 100.465 126.973C99.0488 127.937 97.8822 129.219 96.5774 130.329C92.7847 133.563 87.942 135.276 83.1363 136.6C81.0618 137.172 78.7988 137.796 77.5399 139.541C75.9816 141.703 76.5754 144.689 77.33 147.244" fill="#D76154"/>
<path d="M97.1645 172.445C97.2566 172.181 97.3134 171.908 97.3134 171.624C97.3134 171.167 97.1155 170.688 96.7831 170.396C96.6374 170.252 96.4603 170.157 96.2623 170.105C96.5957 169.783 96.9905 169.555 97.4175 169.357C97.7702 169.2 98.1347 169.076 98.4993 168.961C99.3107 168.712 100.143 168.473 100.819 167.963C101.494 167.453 101.984 166.6 101.797 165.768C101.792 165.745 101.785 165.724 101.779 165.701C102.246 166.939 102.495 168.249 102.544 169.573C101.356 171.064 99.617 172.124 97.7317 172.389C97.5421 172.416 97.353 172.435 97.1645 172.445V172.445ZM101.704 165.508C101.64 165.377 101.554 165.256 101.452 165.155H101.442C101.172 164.856 100.79 164.669 100.42 164.669C100.221 164.669 100.025 164.723 99.8509 164.843C100.184 164.613 100.506 164.385 100.808 164.125C100.86 164.08 100.911 164.035 100.962 163.988C101.022 164.091 101.081 164.195 101.137 164.299C101.351 164.692 101.54 165.096 101.704 165.508ZM83.9941 162.596C80.9795 157.925 78.9134 152.603 77.3301 147.244C76.9233 145.867 76.5629 144.364 76.5613 142.933C76.5603 141.709 76.8217 140.537 77.5399 139.541C78.7989 137.796 81.0618 137.172 83.1363 136.6C84.8858 136.117 86.6399 135.584 88.3467 134.944C87.2202 136.769 86.4639 138.823 86.1727 140.947C85.6191 144.989 86.7546 149.237 89.2519 152.465C90.0202 153.459 90.9046 154.352 91.8441 155.196C90.9665 155.557 90.1265 156.011 89.3457 156.543C87.1003 158.073 85.3217 160.209 83.9941 162.596V162.596ZM90.2717 159.695C92.0817 159.253 93.891 158.813 95.6931 158.372C96.1155 158.716 96.5337 159.063 96.9426 159.417L96.855 159.413C96.0779 159.376 95.3009 159.351 94.5259 159.351C93.9941 159.351 93.4634 159.363 92.9342 159.392H92.9134C92.0295 159.433 91.1451 159.528 90.2717 159.695Z" fill="#CC5148"/>
<path d="M128.695 177.108C129.404 174.863 131.101 173.055 133.273 172.164C133.533 172.057 133.844 172.28 133.913 172.527C133.995 172.825 133.811 173.06 133.551 173.167C133.231 173.297 132.927 173.464 132.632 173.645C134.904 175.717 137.896 176.944 140.98 176.967C144.129 176.991 147.105 175.811 149.488 173.776C151.716 171.872 151.087 171.459 153.235 169.473C155.509 167.373 158.301 166.065 160.795 164.272C163.473 162.344 166.239 158.925 164.651 155.445C164.375 154.84 165.271 154.311 165.548 154.92C166.917 157.92 165.62 161.196 163.421 163.412C160.952 165.903 157.611 167.195 154.915 169.388C152.421 171.416 152.928 172.105 150.535 174.239C148.104 176.407 145.152 177.78 141.879 177.983C138.193 178.212 134.548 176.828 131.845 174.339L131.787 174.256C130.821 175.084 130.079 176.176 129.697 177.384C129.496 178.02 128.492 177.749 128.695 177.108" fill="#471E39"/>
<path d="M153.471 149.148C154.129 149.861 155.067 150.411 155.889 150.913C156.777 151.456 157.704 151.931 158.661 152.34C159.599 152.741 160.563 153.083 161.548 153.348C162.387 153.576 163.372 153.872 164.217 153.519C164.432 153.428 164.609 153.304 164.756 153.157L164.951 152.877C165.219 152.467 165.339 151.957 165.337 151.436C165.332 150.38 165.143 149.292 164.916 148.264L164.915 148.26C164.789 147.309 164.615 146.367 164.341 145.445C164.051 144.464 163.697 143.379 162.917 142.667C162.135 141.955 161.089 141.784 160.068 141.921C158.232 142.169 156.457 143.185 155.095 144.408C153.872 145.505 151.992 147.541 153.471 149.148" fill="#471E39"/>
<path d="M121.874 156.276C126.256 162.033 124.833 163.684 116.313 160.589C116.313 160.589 123.234 166.949 126.281 163.003C126.281 163.003 128.554 160.299 121.874 156.276Z" fill="#471E39"/>
<path d="M80.3588 185.427C80.838 188.787 82.0228 192.104 84.1452 194.756C85.238 190.94 84.0307 182.941 87.4317 180.871C90.8223 178.801 94.5151 176.836 96.6479 173.465C97.0009 172.904 97.3135 172.289 97.3135 171.624C97.3135 171.167 97.1156 170.688 96.7832 170.396C96.6375 170.252 96.4604 170.157 96.2624 170.105C96.5957 169.783 96.9905 169.555 97.4176 169.357C97.7703 169.2 98.1348 169.076 98.4993 168.961C99.3108 168.712 100.143 168.473 100.819 167.963C101.494 167.453 101.984 166.6 101.797 165.768C101.744 165.54 101.619 165.321 101.453 165.155H101.442C101.027 164.697 100.35 164.5 99.8509 164.843C100.184 164.613 100.506 164.385 100.808 164.125C101.048 163.917 101.275 163.699 101.473 163.439C101.911 162.876 102.181 162.128 102.005 161.431C101.827 160.681 101.173 160.12 100.465 159.839C99.7468 159.569 98.9567 159.517 98.1979 159.476C97.8432 159.455 97.4801 159.444 97.126 159.424H97.0947L96.8551 159.413C95.5452 159.351 94.2337 159.319 92.9343 159.392H92.9135C92.0296 159.433 91.1452 159.528 90.2717 159.695C92.238 159.216 94.2025 158.737 96.1583 158.259C97.1572 158.008 98.1556 157.769 99.1547 157.52C100.028 157.301 101.11 156.823 101.037 155.919C100.985 155.211 100.205 154.805 99.5176 154.619C96.0853 153.651 92.29 154.535 89.3457 156.543C86.402 158.549 84.2599 161.597 82.8864 164.884C81.514 168.171 80.8588 171.719 80.4421 175.264C80.0468 178.635 79.8708 182.057 80.3588 185.427Z" fill="#F58061"/>
<path d="M83.1123 180.044C82.7571 180.044 82.3967 179.672 82.627 179.269C85.653 174.005 91.0514 170.252 97.053 169.295C97.0842 169.289 97.1139 169.288 97.1426 169.288C97.2478 169.288 97.3358 169.316 97.4175 169.357C96.9905 169.555 96.5957 169.783 96.2623 170.105C96.4603 170.157 96.6374 170.252 96.7831 170.396C91.2493 171.437 86.3394 174.9 83.5322 179.789C83.429 179.969 83.2713 180.044 83.1123 180.044" fill="#F46A4E"/>
<path d="M85.1295 171.171C84.8045 171.171 84.4978 170.924 84.6546 170.553C85.7779 167.88 88.0972 166.06 90.7702 165.051C92.9488 164.239 95.2779 164.032 97.6045 164.032C98.6779 164.032 99.7508 164.076 100.808 164.125C100.506 164.385 100.184 164.613 99.8508 164.843C100.025 164.723 100.221 164.669 100.42 164.669C100.79 164.669 101.172 164.856 101.442 165.155L101.223 165.185C100.033 165.128 98.8264 165.068 97.6196 165.068C95.5789 165.068 93.5404 165.239 91.592 165.872C89.0956 166.673 86.704 168.348 85.6633 170.823C85.5607 171.065 85.3415 171.171 85.1295 171.171Z" fill="#F46A4E"/>
<path d="M85.6207 163.957C85.2493 163.957 84.8837 163.587 85.1546 163.199C87.3675 160.043 91.0733 158.185 94.8639 158.185C95.2946 158.185 95.727 158.209 96.1582 158.259C94.2025 158.737 92.2379 159.216 90.2717 159.695C91.1451 159.528 92.0295 159.433 92.9134 159.392C90.1883 159.891 87.6607 161.441 86.0489 163.731C85.9374 163.891 85.7785 163.957 85.6207 163.957" fill="#F46A4E"/>
<path d="M353.655 275.589H12.429V276.923H353.655V275.589Z" fill="#471E39"/>
</svg>
