<svg width="420" height="250" viewBox="0 0 420 250" fill="none" xmlns="http://www.w3.org/2000/svg">
<path d="M416.248 126.909C415.409 153.296 407.182 182.522 391.302 202.589C375.329 222.776 354.436 237.722 332.489 248.602H74.169C58.9957 238.989 35.529 222.696 22.2357 191.282C21.2757 189.056 20.3824 186.734 19.5424 184.336C14.0877 168.722 11.1024 149.709 12.4624 126.469C12.5277 125.069 12.6344 123.669 12.7424 122.242C12.9277 119.909 13.2091 117.589 13.5691 115.296C19.7544 76.0291 51.0877 43.8024 84.1824 31.9224C107.129 23.6691 132.556 24.2158 155.209 33.4424C165.662 37.7091 177.421 43.2424 186.796 49.9224C195.808 56.3357 202.542 61.2157 213.914 60.0824C224.169 59.0557 233.769 54.0824 242.742 48.4691C257.088 39.4824 270.436 27.9091 285.489 20.4811C316.342 5.28241 353.902 7.94909 380.942 31.4278C402.421 50.0824 413.796 81.4024 415.956 111.669C416.314 116.802 416.421 121.909 416.248 126.909" fill="#F798BD"/>
<path d="M420.348 33.9025H322.2V114.762H420.348V113.429H323.533V35.2358H420.348V33.9025Z" fill="#F2EBE6"/>
<path d="M417.877 46.1278V104.517H335.881V44.1478H417.877V46.1278Z" fill="white"/>
<path d="M133.973 0.971785V120.961H36.8717V69.2851H35.5384V122.294H135.305V0.971785H133.973" fill="#F2EBE6"/>
<path d="M120.333 4.02777L48.061 51.5105V105.518H122.782V4.02777H120.333Z" fill="white"/>
<path d="M109.194 221.776C109.169 223.029 109.141 224.282 109.088 225.549C109.049 227.362 108.968 229.189 108.889 231.002C108.889 231.269 108.876 231.522 108.862 231.789C108.822 232.616 108.796 233.442 108.742 234.269C108.729 234.642 108.716 235.016 108.689 235.389C108.689 235.642 108.676 235.896 108.648 236.162C108.609 237.082 108.569 238.002 108.516 238.922C108.502 239.216 108.489 239.496 108.474 239.789C108.368 241.802 108.261 243.802 108.156 245.816C108.088 246.736 108.034 247.669 107.996 248.602H107.502C107.356 248.842 106.968 248.882 106.849 248.602H105.716C106.062 243.656 105.716 238.589 103.474 234.269C102.769 232.896 101.876 231.602 100.754 230.402C99.2758 228.829 97.5691 227.442 95.8077 226.109C95.0491 225.536 94.2891 224.962 93.5424 224.389C92.9557 223.936 92.3677 223.482 91.7957 223.016C91.1957 222.536 90.6091 222.042 90.0491 221.522C89.7424 221.242 89.4358 220.949 89.1558 220.656C87.4358 218.922 85.9957 216.962 85.1157 214.536C84.9811 214.162 84.8757 213.802 84.7824 213.429C84.6757 213.069 84.6091 212.709 84.5558 212.349C84.4358 211.656 84.3957 210.976 84.4091 210.309C84.4211 209.776 84.4624 209.242 84.5424 208.722C84.8077 206.869 85.4491 205.082 86.2491 203.309C87.8077 199.829 89.9957 196.442 91.0757 192.922C92.0491 189.776 92.4624 185.962 90.4357 183.122C88.5157 180.442 85.0877 179.816 82.0344 179.402C78.9811 178.989 75.7291 178.776 73.0224 177.149C70.2758 175.496 68.8078 172.642 68.4211 169.536C68.0091 166.242 68.6224 162.869 69.4891 159.696C70.4891 155.976 71.7291 152.002 71.1411 148.096C70.0224 140.576 61.8611 138.776 55.4744 140.162C47.9677 141.789 41.2477 146.989 33.3144 146.496C30.3144 146.309 27.2891 145.416 24.9277 143.509C23.8077 142.616 22.8491 141.469 22.2477 140.162C21.4211 138.416 21.3011 136.522 20.9811 134.642C20.3424 130.856 17.7157 128.202 14.1411 126.936C13.5824 126.736 13.0224 126.589 12.4624 126.469C8.76906 125.656 4.83572 126.216 1.12906 126.749C0.409058 126.856 -0.110929 126.109 0.409071 125.509C1.48907 124.282 2.62242 123.109 3.82242 122.016C6.76908 119.336 10.0624 117.094 13.5691 115.296C21.5277 111.176 30.6477 109.282 39.5824 109.576C53.0877 110.016 65.8224 115.669 76.1411 124.242C87.1024 133.349 95.1157 145.482 100.301 158.682C106.182 173.629 108.528 189.749 109.116 205.722C109.169 207.269 109.209 208.816 109.236 210.362C109.302 214.162 109.276 217.976 109.194 221.776" fill="#5BC69A"/>
<path d="M106.034 242.89C105.814 242.729 105.668 242.461 105.728 242.124C105.817 241.626 105.902 241.129 105.984 240.63C105.997 241.385 106.01 242.126 106.034 242.882C106.034 242.885 106.034 242.888 106.034 242.89ZM106.366 226.496C103.156 225.629 100.208 223.86 97.9451 221.417C97.4451 220.877 97.949 220.13 98.505 220.13C98.673 220.13 98.8464 220.2 98.9984 220.364C101.04 222.568 103.634 224.149 106.5 224.982C106.448 225.469 106.396 225.969 106.368 226.469C106.368 226.478 106.366 226.486 106.366 226.496V226.496ZM106.973 220.89C106.945 220.257 106.91 219.624 106.868 218.99C106.592 219.008 106.316 219.017 106.04 219.017C101.686 219.017 97.4717 216.829 95.101 213.1C94.7424 212.536 95.2584 212.001 95.777 212.001C96.0037 212.001 96.2317 212.104 96.3877 212.349C98.4264 215.556 102.174 217.561 105.968 217.561C106.236 217.561 106.504 217.552 106.77 217.532C106.582 215.164 106.326 212.8 106.002 210.446C105.502 210.489 105.004 210.509 104.505 210.509C98.6464 210.509 92.9664 207.642 89.4517 202.926C89.0477 202.384 89.569 201.856 90.1117 201.856C90.3384 201.856 90.5704 201.949 90.7384 202.174C93.965 206.502 99.2317 208.997 104.585 208.997C104.981 208.997 105.38 208.982 105.777 208.956C105.444 206.725 105.072 204.501 104.632 202.293C104.376 201.016 104.101 199.744 103.816 198.474C103.7 198.572 103.557 198.646 103.364 198.65C103.301 198.652 103.238 198.652 103.174 198.652C99.253 198.652 95.4397 196.236 93.837 192.64C93.6717 192.272 93.725 191.842 94.1037 191.621C94.213 191.557 94.3464 191.525 94.4824 191.525C94.7451 191.525 95.0157 191.646 95.1237 191.888C96.5264 195.037 99.7477 197.162 103.198 197.162C103.253 197.162 103.309 197.161 103.364 197.16L103.517 197.188C102.617 193.334 101.593 189.513 100.465 185.72C100.418 185.726 100.372 185.73 100.324 185.73C100.226 185.73 100.126 185.713 100.022 185.664C96.5224 184.017 93.3371 181.734 90.645 178.957C90.1304 178.426 90.637 177.68 91.2024 177.68C91.3704 177.68 91.5437 177.746 91.697 177.904C94.0864 180.368 96.8731 182.381 99.9264 183.932C98.6864 179.88 97.3424 175.857 95.9237 171.865C94.4771 172.216 92.9957 172.388 91.5171 172.388C87.6224 172.388 83.749 171.188 80.5624 168.885C79.9237 168.424 80.3237 167.46 80.9224 167.46C81.0464 167.46 81.1797 167.501 81.313 167.598C84.2944 169.753 87.8864 170.9 91.5157 170.9C92.8197 170.9 94.1277 170.752 95.4144 170.45C95.1011 169.578 94.7904 168.708 94.4717 167.84C93.7837 165.961 93.0784 164.076 92.3557 162.192L92.3224 162.206C90.3464 162.696 88.3277 162.937 86.3131 162.937C81.8624 162.937 77.4344 161.758 73.5597 159.472C72.8624 159.06 73.289 158.077 73.9384 158.077C74.057 158.077 74.1837 158.109 74.3117 158.185C77.957 160.337 82.1157 161.449 86.2997 161.449C88.1464 161.449 89.9997 161.232 91.8144 160.792C90.6197 157.737 89.3531 154.701 87.9211 151.754C87.8184 151.824 87.7011 151.877 87.5517 151.889C87.2411 151.912 86.9317 151.924 86.6224 151.924C81.7757 151.924 77.0597 149.128 74.7717 144.836C74.461 144.252 74.977 143.712 75.4744 143.712C75.6984 143.712 75.9184 143.821 76.0584 144.084C78.1277 147.969 82.3184 150.412 86.6877 150.412C86.8677 150.412 87.049 150.408 87.229 150.4C84.9797 145.97 82.3597 141.756 79.0384 138.014C77.989 136.833 76.8731 135.716 75.7211 134.64C75.6904 134.893 75.5304 135.121 75.197 135.186C71.7944 135.861 68.3931 136.536 64.9904 137.212C64.9344 137.222 64.8797 137.228 64.8264 137.228C64.0104 137.228 63.713 135.95 64.5944 135.774C67.985 135.102 71.3757 134.429 74.7664 133.757C70.5957 130.054 65.845 127.02 60.765 124.702L60.6264 124.812C54.2971 127.924 48.2144 131.513 42.4304 135.549C42.297 135.642 42.165 135.684 42.041 135.684C41.433 135.684 41.0304 134.716 41.6784 134.264C47.201 130.409 53.0024 126.976 59.0251 123.962C57.1451 123.177 55.2397 122.458 53.2957 121.866C51.1757 121.221 49.0211 120.725 46.8531 120.302C46.7731 120.373 46.6757 120.433 46.5477 120.465C40.041 122.164 33.9557 125.254 28.769 129.541C28.6144 129.669 28.445 129.722 28.281 129.722C27.669 129.722 27.133 128.969 27.7157 128.488C32.4424 124.581 37.857 121.609 43.6837 119.746C40.141 119.228 36.561 118.981 32.977 118.981C27.9024 118.981 22.8224 119.476 17.8397 120.394C17.7864 120.404 17.7357 120.408 17.685 120.408C16.8597 120.408 16.5544 119.121 17.4437 118.957C18.929 118.684 20.4197 118.444 21.917 118.241C25.561 117.75 29.249 117.493 32.937 117.493C37.1237 117.493 41.309 117.825 45.4304 118.521C40.7344 115.95 35.7824 113.893 30.6237 112.437C29.7757 112.198 30.0384 110.969 30.8024 110.969C30.8704 110.969 30.9437 110.98 31.0197 111.001C36.7784 112.628 42.321 114.961 47.5104 117.944C47.925 118.182 47.9464 118.625 47.7584 118.946C50.9224 119.594 54.0451 120.449 57.0864 121.573C58.4971 122.094 59.8824 122.68 61.2517 123.302L61.129 123.16C59.5064 120.265 56.881 117.964 53.769 116.792C53.3904 116.649 53.1344 116.293 53.249 115.876C53.3317 115.576 53.6464 115.318 53.965 115.318C54.033 115.318 54.0997 115.33 54.165 115.354C57.6424 116.665 60.5944 119.16 62.4157 122.409C62.7397 122.988 62.2251 123.513 61.7211 123.513C61.7104 123.513 61.6984 123.513 61.6877 123.512C66.4411 125.717 70.909 128.538 74.8944 131.925C74.4197 130.108 73.6997 128.368 72.7344 126.744C72.393 126.17 72.9091 125.636 73.4197 125.636C73.6464 125.636 73.8717 125.74 74.0224 125.992C75.3757 128.273 76.3064 130.8 76.733 133.42L76.7357 133.573C78.725 135.428 80.5877 137.42 82.261 139.582C84.4944 142.466 86.3864 145.574 88.0877 148.793C88.6091 146.177 88.1744 143.429 86.7957 141.109C86.4544 140.536 86.9691 140 87.4811 140C87.7064 140 87.9317 140.105 88.0824 140.357C89.8984 143.414 90.3104 147.218 89.1584 150.588L89.0944 150.698C90.6077 153.753 91.9384 156.91 93.1851 160.097C93.4757 156.862 93.7677 153.628 94.0584 150.393C94.1011 149.918 94.4957 149.68 94.869 149.68C95.241 149.68 95.5917 149.917 95.5491 150.393C95.2317 153.918 94.9144 157.445 94.5957 160.97C94.553 161.44 94.1664 161.677 93.797 161.682C94.781 164.265 95.713 166.857 96.6344 169.434C97.7877 167.1 98.493 164.556 98.665 161.956C98.6957 161.478 99.0851 161.238 99.4584 161.238C99.8304 161.238 100.186 161.477 100.154 161.956C99.9557 164.968 99.1397 167.89 97.7464 170.569C97.6091 170.832 97.3917 170.928 97.1704 170.929C98.4917 174.638 99.7491 178.376 100.925 182.138C101.389 179.946 101.629 177.714 101.63 175.465C101.63 174.985 102.002 174.745 102.374 174.745C102.748 174.745 103.12 174.985 103.12 175.465C103.118 178.652 102.665 181.83 101.774 184.889L101.773 184.893C103.904 191.998 105.696 199.202 106.913 206.521C107.384 209.35 107.753 212.196 108.026 215.046C108.025 215.054 108.024 215.061 108.022 215.069C107.597 216.992 107.252 218.941 106.973 220.89" fill="#18AD74"/>
<path d="M101.249 248.602H100.409C100.301 248.976 99.701 248.976 99.5277 248.602H99.489C98.5024 245.896 96.9144 243.469 94.329 241.856C90.2224 239.309 84.7424 238.709 81.7824 234.496L81.6357 234.269C78.729 229.802 81.701 224.629 81.889 219.856C81.9677 217.709 81.5824 215.229 79.8224 213.789C78.1691 212.429 75.9024 212.616 73.9024 212.869C71.9024 213.122 69.8224 213.536 67.8357 212.976C65.8224 212.402 64.421 210.842 63.6477 208.949C62.8224 206.936 62.6477 204.709 62.6477 202.562C62.6477 200.042 62.7544 197.336 61.729 194.976C59.7544 190.416 54.3024 190.669 50.5024 192.629C46.049 194.922 42.689 199.336 37.5944 200.362C35.689 200.749 33.6224 200.696 31.8077 199.909C30.9557 199.536 30.1557 198.976 29.5557 198.242C28.7291 197.282 28.3424 196.109 27.8224 194.976C26.7691 192.709 24.701 191.482 22.2357 191.282H22.1944C19.3144 191.069 16.5557 192.256 13.9677 193.362C13.5277 193.562 13.0757 193.162 13.301 192.709C13.769 191.749 14.289 190.816 14.861 189.922C16.1824 187.856 17.769 185.989 19.5424 184.336C23.9157 180.229 29.4757 177.389 35.3024 176.029C43.9024 174.016 52.8757 175.416 60.8357 179.082C69.289 182.976 76.3957 189.269 81.9024 196.709C83.4744 198.829 84.9157 201.042 86.249 203.309C90.1944 210.069 93.129 217.416 95.4357 224.882C95.5557 225.296 95.689 225.696 95.8077 226.109C96.6224 228.816 97.3557 231.536 98.0224 234.269C99.209 239.016 100.236 243.816 101.249 248.602" fill="#5BC69A"/>
<path d="M99.9931 248.882C99.8078 248.882 99.6144 248.789 99.5277 248.602L99.4624 248.402C99.3677 247.402 99.2611 246.389 99.1291 245.389C98.7957 243.029 98.3024 240.722 97.7011 238.429C97.5304 238.436 97.3597 238.44 97.1891 238.44C95.0264 238.44 92.8771 237.818 91.0491 236.669C90.6011 236.389 90.8677 235.752 91.2797 235.752C91.3584 235.752 91.4424 235.776 91.5277 235.829C93.2611 236.91 95.2624 237.47 97.2944 237.47C97.3411 237.47 97.3891 237.469 97.4357 237.469C97.1411 236.389 96.8224 235.322 96.4624 234.269C96.4091 234.056 96.3291 233.842 96.2611 233.629C95.3717 233.929 94.4451 234.077 93.5211 234.077C91.4544 234.078 89.4064 233.337 87.8491 231.909C87.4851 231.576 87.8184 231.081 88.2024 231.081C88.3117 231.081 88.4251 231.121 88.5291 231.216C89.8877 232.454 91.7277 233.122 93.5637 233.122C94.3757 233.122 95.1864 232.992 95.9557 232.722C95.4357 231.256 94.8757 229.816 94.2611 228.389C92.9584 228.858 91.5891 229.086 90.2224 229.086C87.4797 229.088 84.7451 228.169 82.5558 226.442C82.1624 226.134 82.5224 225.641 82.9277 225.641C83.0304 225.641 83.1371 225.673 83.2357 225.749C85.2077 227.305 87.6798 228.1 90.1584 228.1C91.4171 228.1 92.6771 227.894 93.8757 227.482C93.2891 226.136 92.6757 224.789 92.0224 223.469C91.9424 223.322 91.8757 223.162 91.7957 223.016C91.4891 222.416 91.1824 221.816 90.8611 221.202L90.6091 221.389C90.4211 221.442 90.2357 221.496 90.0491 221.522C89.6317 221.604 89.2091 221.644 88.7851 221.644C86.8037 221.644 84.8357 220.765 83.5824 219.216C83.4091 219.016 83.3824 218.734 83.5824 218.536C83.6677 218.442 83.8104 218.388 83.9491 218.388C84.0704 218.388 84.1877 218.429 84.2611 218.522C85.3704 219.88 87.0731 220.668 88.7931 220.668C88.9144 220.668 89.0344 220.664 89.1557 220.656C89.5557 220.629 89.9677 220.576 90.3557 220.456L90.4491 220.442C89.2357 218.162 87.9424 215.936 86.5811 213.736L86.3024 213.776C85.7957 213.682 85.2891 213.576 84.7824 213.429C82.8357 212.936 80.9811 212.162 79.2477 211.136C78.7984 210.854 79.0704 210.21 79.4957 210.21C79.5731 210.21 79.6571 210.233 79.7424 210.282C81.2477 211.189 82.8757 211.869 84.5557 212.349C85.0091 212.482 85.4744 212.602 85.9424 212.696C85.4357 211.896 84.9277 211.096 84.4091 210.309C83.4357 208.776 82.4211 207.269 81.3824 205.762C79.5651 206.753 77.5184 207.265 75.4677 207.265C74.0144 207.265 72.5597 207.008 71.1824 206.482C70.6691 206.292 70.8171 205.514 71.2744 205.514C71.3291 205.514 71.3864 205.525 71.4491 205.549C72.7437 206.042 74.1131 206.288 75.4811 206.288C77.3264 206.288 79.1691 205.842 80.8224 204.962C80.4758 204.456 80.1291 203.962 79.7824 203.469C79.0344 202.401 78.2611 201.336 77.4891 200.269L77.4744 200.282C75.0357 201.633 72.2891 202.328 69.5331 202.329C68.0704 202.329 66.6051 202.133 65.1824 201.734C64.6211 201.577 64.7971 200.781 65.2918 200.781C65.3371 200.781 65.3851 200.788 65.4357 200.802C66.7784 201.17 68.1584 201.353 69.5357 201.353C72.0957 201.353 74.6437 200.722 76.9157 199.482C75.6357 197.749 74.3291 196.056 72.9277 194.442L72.7157 194.589C71.8197 194.9 70.8784 195.049 69.9384 195.049C67.5304 195.049 65.1211 194.069 63.4624 192.296C63.1331 191.946 63.4611 191.454 63.8251 191.454C63.9331 191.454 64.0437 191.498 64.1424 191.602C65.6384 193.196 67.7597 194.061 69.8984 194.061C70.6944 194.061 71.4917 193.941 72.2611 193.696C70.0877 191.282 67.7291 189.069 64.9957 187.282C64.1424 186.709 63.2491 186.189 62.3424 185.709C62.3557 185.869 62.3024 186.042 62.1024 186.149C60.0624 187.149 58.0344 188.149 56.0091 189.149C55.9304 189.188 55.8531 189.205 55.7811 189.205C55.3317 189.205 55.0331 188.549 55.5157 188.309C57.5424 187.309 59.5557 186.309 61.5811 185.309C58.3291 183.682 54.8224 182.576 51.2224 181.976L51.1557 182.069C47.6891 185.109 44.4624 188.402 41.5024 191.922C41.4037 192.036 41.2891 192.084 41.1784 192.084C40.8251 192.084 40.5037 191.598 40.8077 191.242C43.6357 187.869 46.7157 184.722 49.9957 181.802C48.6757 181.629 47.3557 181.496 46.0344 181.456C45.6451 181.441 45.2571 181.434 44.8691 181.434C43.8104 181.434 42.7557 181.484 41.7011 181.562L41.5424 181.709C37.7291 183.882 34.4091 186.869 31.8611 190.442C31.7531 190.594 31.6024 190.657 31.4531 190.657C31.1051 190.657 30.7704 190.317 31.0224 189.962C33.3424 186.696 36.2491 183.909 39.6091 181.749C34.0091 182.402 28.5157 184.096 23.4211 186.522C23.3438 186.561 23.2664 186.578 23.1931 186.578C22.7438 186.578 22.4464 185.925 22.9277 185.696C23.8224 185.269 24.7291 184.856 25.6357 184.482C30.3557 182.496 35.3957 181.162 40.5024 180.669C37.1157 179.856 33.6344 179.389 30.1424 179.349C29.5197 179.336 29.5157 178.376 30.1291 178.376C30.1331 178.376 30.1371 178.376 30.1424 178.376C34.0491 178.429 37.9424 178.962 41.7157 179.962C42.0224 180.042 42.1157 180.309 42.0491 180.549C42.9544 180.492 43.8597 180.461 44.7637 180.461C45.9651 180.461 47.1664 180.514 48.3677 180.629C49.3557 180.722 50.3291 180.856 51.2891 181.016L51.1957 180.949C49.6757 179.389 47.6357 178.389 45.4744 178.176C45.2091 178.149 44.9811 177.962 44.9811 177.682C44.9957 177.453 45.2011 177.2 45.4397 177.2C45.4517 177.2 45.4637 177.201 45.4744 177.202C47.8891 177.442 50.1824 178.509 51.8757 180.256C52.1824 180.562 51.9277 181.002 51.6091 181.069C54.9691 181.656 58.2611 182.682 61.3558 184.136C60.7424 183.069 59.9957 182.096 59.1157 181.242C58.7651 180.901 59.1011 180.408 59.4757 180.408C59.5837 180.408 59.6957 180.45 59.7957 180.549C61.0344 181.749 62.0491 183.189 62.7691 184.776L62.7957 184.869C64.3677 185.696 65.8757 186.642 67.3024 187.722C69.1944 189.162 70.9157 190.802 72.5277 192.536C72.4211 190.802 71.6757 189.149 70.4091 187.909C70.0677 187.578 70.3984 187.088 70.7757 187.088C70.8864 187.088 70.9997 187.129 71.1024 187.229C72.7544 188.842 73.6624 191.176 73.5157 193.496L73.4891 193.576C74.9558 195.242 76.3291 197.002 77.6624 198.802C77.2891 196.722 76.9277 194.629 76.5691 192.536C76.5051 192.168 76.8144 191.929 77.0957 191.929C77.2837 191.929 77.4597 192.036 77.5024 192.282C77.9024 194.562 78.3024 196.842 78.7011 199.122C78.7544 199.416 78.5424 199.642 78.3144 199.709C79.3677 201.162 80.3957 202.642 81.4211 204.109C81.7424 202.442 81.7544 200.722 81.4357 199.056C81.3557 198.688 81.6637 198.45 81.9491 198.45C82.1397 198.45 82.3197 198.556 82.3677 198.802C82.7544 200.736 82.7291 202.709 82.3024 204.642C82.2611 204.829 82.1411 204.922 82.0091 204.962C82.8611 206.216 83.7157 207.456 84.5424 208.722C85.1291 209.602 85.7011 210.496 86.2757 211.389C86.1944 209.936 85.9677 208.482 85.5824 207.068C85.4864 206.701 85.7864 206.469 86.0771 206.469C86.2731 206.469 86.4637 206.574 86.5291 206.816C87.0224 208.696 87.2757 210.629 87.2757 212.562V212.989C89.5557 216.682 91.6757 220.469 93.5424 224.389C93.7544 224.842 93.9691 225.309 94.1824 225.762C95.2091 228.016 96.1291 230.322 96.9424 232.656L97.0344 232.762L97.0757 233.056C97.2091 233.456 97.3557 233.869 97.4744 234.269C98.9677 238.856 100.022 243.576 100.436 248.416L100.409 248.602C100.356 248.789 100.178 248.882 99.9931 248.882" fill="#18AD74"/>
<path d="M163.474 188.976C161.249 188.602 158.861 188.216 156.662 188.936C154.782 189.562 153.382 190.922 153.009 192.896C152.822 193.882 152.742 194.869 152.289 195.776C151.956 196.456 151.449 197.042 150.849 197.509C149.594 198.469 147.996 198.909 146.436 198.989C142.276 199.162 138.808 196.376 134.889 195.456C131.569 194.656 127.276 195.522 126.609 199.442C126.276 201.482 126.876 203.576 127.368 205.536C127.782 207.202 128.076 208.976 127.822 210.696C127.581 212.322 126.796 213.802 125.342 214.629C123.902 215.456 122.194 215.536 120.594 215.722C118.996 215.909 117.194 216.202 116.169 217.589C115.076 219.056 115.261 221.056 115.729 222.709C116.808 226.456 120.222 229.949 118.634 234.082L118.556 234.269C117.742 236.229 116.236 237.576 114.609 238.802C113.141 239.909 111.569 240.936 110.302 242.229C109.276 243.296 108.581 244.509 108.156 245.816C107.849 246.709 107.662 247.656 107.569 248.602H107.502C107.356 248.842 106.968 248.882 106.849 248.602H106.209C106.141 246.696 106.076 244.789 106.034 242.882C106.009 242.096 105.996 241.322 105.981 240.536C105.956 238.442 105.956 236.362 105.981 234.269C106.022 232.589 106.076 230.909 106.169 229.229C106.222 228.309 106.289 227.389 106.368 226.469C106.396 225.962 106.449 225.456 106.502 224.962C106.622 223.616 106.782 222.269 106.968 220.922C107.248 218.962 107.594 217.002 108.022 215.069C108.382 213.482 108.782 211.909 109.236 210.362C109.808 208.442 110.474 206.549 111.248 204.696C114.088 197.842 118.409 191.576 124.236 186.909C129.716 182.522 136.436 179.696 143.516 179.602C150.262 179.509 157.169 181.789 162.116 186.469C162.729 187.056 163.314 187.669 163.862 188.322C164.129 188.642 163.849 189.029 163.474 188.976" fill="#5BC69A"/>
<path d="M107.15 248.797C107.025 248.797 106.906 248.737 106.849 248.602L106.822 248.509C106.528 246.682 106.356 244.842 106.289 243.016C106.222 241.536 106.222 240.042 106.289 238.562C106.329 237.682 106.382 236.789 106.462 235.909L106.436 235.669L106.489 235.576C106.528 235.136 106.569 234.709 106.636 234.269C106.701 233.549 106.796 232.816 106.916 232.096V232.042C107.022 231.256 107.156 230.456 107.302 229.669C107.662 227.789 108.076 225.909 108.569 224.056C108.754 223.296 108.968 222.536 109.194 221.776C109.502 220.642 109.849 219.522 110.209 218.402C109.822 216.922 109.609 215.389 109.609 213.856V213.456C109.609 213.205 109.801 213.082 109.993 213.082C110.19 213.082 110.389 213.212 110.382 213.469C110.356 214.642 110.462 215.816 110.689 216.962C111.342 215.016 112.034 213.069 112.769 211.136C112.648 211.136 112.528 211.082 112.462 210.949C111.754 209.522 111.368 207.989 111.289 206.416C111.276 206.165 111.46 206.042 111.654 206.042C111.853 206.042 112.062 206.172 112.076 206.429C112.129 207.789 112.474 209.122 113.062 210.362C113.569 209.016 114.076 207.669 114.622 206.336C114.421 206.322 114.222 206.202 114.209 205.949C114.076 204.096 113.942 202.256 113.822 200.401C113.802 200.158 113.981 200.038 114.17 200.038C114.366 200.038 114.574 200.165 114.594 200.416C114.716 202.109 114.836 203.816 114.956 205.509C115.636 203.856 116.368 202.216 117.194 200.629L117.156 200.576C116.594 198.789 116.849 196.802 117.822 195.229C117.902 195.1 118.02 195.046 118.137 195.046C118.406 195.046 118.674 195.33 118.489 195.629C117.742 196.829 117.489 198.269 117.742 199.642C118.662 197.976 119.676 196.362 120.876 194.882C121.782 193.761 122.769 192.734 123.836 191.789V191.709C124.088 190.336 124.594 189.029 125.329 187.842C125.408 187.716 125.522 187.662 125.637 187.662C125.909 187.662 126.182 187.956 125.996 188.256C125.474 189.096 125.076 190.002 124.808 190.936C126.928 189.216 129.289 187.776 131.796 186.669C131.528 186.669 131.261 186.376 131.436 186.082C132.421 184.402 133.996 183.122 135.822 182.469C135.854 182.458 135.886 182.453 135.918 182.453C136.089 182.453 136.257 182.593 136.301 182.762C136.356 182.976 136.222 183.162 136.022 183.229C134.382 183.816 132.981 184.989 132.102 186.496L132.034 186.562C132.754 186.256 133.489 185.962 134.236 185.696C135.836 185.149 137.489 184.722 139.141 184.416C139.049 184.242 139.062 184.016 139.289 183.896C142.034 182.389 144.956 181.216 147.981 180.429C148.021 180.418 148.058 180.413 148.093 180.413C148.501 180.413 148.624 181.066 148.182 181.189C145.462 181.896 142.849 182.922 140.368 184.216C142.269 183.934 144.197 183.8 146.125 183.8C148.321 183.8 150.517 183.976 152.676 184.309C153.462 184.429 154.236 184.562 155.009 184.722C155.469 184.822 155.302 185.48 154.888 185.48C154.858 185.48 154.828 185.476 154.796 185.469C151.942 184.894 149.029 184.58 146.12 184.58C144.5 184.58 142.882 184.677 141.276 184.882C144.302 185.909 147.102 187.522 149.542 189.616C149.845 189.865 149.561 190.253 149.245 190.253C149.156 190.253 149.064 190.222 148.981 190.149C146.302 187.856 143.156 186.176 139.769 185.229L139.609 185.136C138.462 185.336 137.329 185.576 136.222 185.896C135.194 186.189 134.194 186.536 133.194 186.936C136.314 188.576 139.329 190.429 142.169 192.496C142.51 192.737 142.296 193.234 141.978 193.234C141.912 193.234 141.841 193.213 141.769 193.162C138.782 190.989 135.634 189.056 132.356 187.362L132.276 187.309C129.594 188.469 127.076 190.002 124.861 191.909C126.622 192.282 128.396 192.669 130.169 193.056C130.616 193.156 130.461 193.813 130.037 193.813C130.006 193.813 129.976 193.809 129.942 193.802C128.169 193.416 126.396 193.029 124.622 192.642C124.449 192.602 124.368 192.482 124.356 192.349C123.742 192.909 123.141 193.482 122.581 194.096C120.808 196.016 119.396 198.189 118.169 200.496C118.296 200.504 118.421 200.508 118.548 200.508C120.802 200.508 122.976 199.278 124.076 197.296C124.152 197.162 124.266 197.108 124.382 197.108C124.649 197.108 124.918 197.398 124.742 197.696C123.521 199.889 121.093 201.297 118.594 201.297C118.39 201.297 118.186 201.288 117.981 201.269L117.796 201.189C117.022 202.722 116.329 204.296 115.662 205.882C116.689 206.152 117.741 206.285 118.79 206.285C120.9 206.285 122.996 205.746 124.849 204.696C124.916 204.657 124.982 204.64 125.044 204.64C125.388 204.64 125.608 205.161 125.236 205.376C123.262 206.489 121.026 207.064 118.78 207.064C117.64 207.064 116.496 206.916 115.382 206.616H115.368C114.969 207.589 114.581 208.576 114.209 209.549C114.034 210.002 113.861 210.456 113.689 210.909C114.41 211.092 115.146 211.181 115.881 211.181C117.726 211.181 119.557 210.617 121.102 209.549C121.17 209.502 121.238 209.482 121.301 209.482C121.617 209.482 121.821 209.994 121.474 210.229C119.836 211.372 117.866 211.961 115.893 211.962C115.057 211.962 114.221 211.856 113.409 211.642C112.622 213.722 111.876 215.802 111.194 217.922C112.808 217.136 114.289 216.109 115.556 214.842C115.636 214.761 115.726 214.728 115.813 214.728C116.114 214.728 116.381 215.133 116.102 215.402C114.662 216.829 112.969 217.989 111.129 218.816L110.889 218.842C110.261 220.816 109.689 222.816 109.182 224.816L109.261 224.802C109.325 224.805 109.388 224.806 109.45 224.806C111.221 224.806 112.876 223.732 113.622 222.136C113.682 222.008 113.82 221.945 113.956 221.945C114.032 221.945 114.108 221.964 114.169 222.002C114.356 222.122 114.382 222.349 114.289 222.536C113.436 224.37 111.454 225.592 109.438 225.592C109.376 225.592 109.312 225.592 109.248 225.589L109.088 225.549L109.009 225.496C108.862 226.122 108.701 226.749 108.569 227.389L108.542 227.482C108.289 228.629 108.076 229.789 107.876 230.962C108.076 230.976 108.261 230.989 108.462 230.989C108.594 231.002 108.742 231.002 108.889 231.002C111.556 230.936 114.156 229.696 115.822 227.562C115.912 227.445 116.033 227.397 116.15 227.397C116.436 227.397 116.705 227.68 116.489 227.962C114.662 230.309 111.822 231.736 108.862 231.789C108.716 231.789 108.569 231.789 108.421 231.776C108.196 231.776 107.969 231.762 107.742 231.736C107.609 232.576 107.502 233.416 107.409 234.269C107.356 234.656 107.314 235.056 107.276 235.442C107.416 235.456 107.558 235.462 107.702 235.462C107.845 235.462 107.989 235.456 108.129 235.442C108.314 235.442 108.502 235.429 108.689 235.389C109.648 235.242 110.569 234.856 111.356 234.269C111.902 233.882 112.382 233.389 112.754 232.829C112.838 232.705 112.956 232.654 113.073 232.654C113.348 232.654 113.618 232.938 113.421 233.229C113.169 233.602 112.889 233.949 112.556 234.269C111.502 235.309 110.116 235.976 108.648 236.162C108.462 236.202 108.261 236.216 108.062 236.216C107.948 236.221 107.829 236.224 107.712 236.224C107.544 236.224 107.374 236.217 107.209 236.202C107.116 237.269 107.062 238.336 107.034 239.416C107.261 239.362 107.474 239.309 107.689 239.242C107.969 239.149 108.249 239.042 108.516 238.922C109.569 238.482 110.516 237.829 111.314 237.002C111.394 236.917 111.485 236.881 111.572 236.881C111.865 236.881 112.126 237.285 111.849 237.562C110.902 238.549 109.742 239.309 108.474 239.789C108.182 239.909 107.876 240.002 107.569 240.082C107.382 240.136 107.209 240.176 107.022 240.216C107.009 241.068 107.009 241.936 107.049 242.802C107.076 243.842 107.141 244.869 107.248 245.896C107.342 246.709 107.449 247.522 107.569 248.322L107.502 248.602C107.426 248.726 107.285 248.797 107.15 248.797" fill="#18AD74"/>
<path d="M121.236 234.269V248.602H107.502C107.356 248.842 106.969 248.882 106.849 248.602H100.409C100.302 248.976 99.701 248.976 99.5277 248.602H77.8357V234.269H121.236" fill="#F9B13E"/>
<path d="M121.236 234.269V248.602H115.076C114.981 244.882 114.808 241.429 114.609 238.802C114.436 236.522 114.236 234.882 114.062 234.269H121.236" fill="#411C39"/>
<path d="M172.825 76.3985C171.696 84.2465 169.336 92.1692 164.138 98.4665C161.393 101.79 157.938 104.564 155.088 107.812C152.238 111.06 149.945 115.024 150.17 119.198C150.396 123.373 153.88 127.577 158.406 127.701C157.593 126.17 157.553 124.306 158.301 122.746C158.764 125.529 161.273 127.724 164.089 128.802C166.906 129.88 170.021 130.038 173.065 130.181C172.124 129.085 171.552 127.721 171.448 126.325C173.018 127.9 175.201 128.941 177.501 129.21C179.092 129.397 180.72 129.226 182.3 129.484C183.878 129.74 185.51 130.578 185.958 132C186.406 133.422 184.93 135.213 183.41 134.741C188.873 135.225 194.525 132.658 197.442 128.366C197.782 130.277 200.024 131.308 202.024 131.888C205.95 133.028 210.062 133.622 214.18 133.646C212.353 132.342 213.168 129.108 215.43 128.682C215.785 130.774 217.833 132.348 220.034 132.945C222.236 133.544 224.584 133.357 226.869 133.166C225.54 132.097 225.353 130.025 226.472 128.765C227.78 130.212 228.494 132.106 228.442 133.99C233.452 132.546 237.04 127.698 236.678 122.864C237.402 125.006 240.013 126.213 242.444 126.212C244.874 126.21 247.176 125.269 249.392 124.346C246.788 124.57 244.596 122.296 244.044 119.936C243.493 117.576 244.101 115.137 244.418 112.74C245.361 105.637 243.696 98.3491 240.344 91.8972C236.99 85.4452 232.005 79.7945 226.304 74.9478" fill="#D26258"/>
<path d="M274.786 221.709L273.56 222.402L268.293 225.402L265.693 229.402L262.093 234.949C260.92 235.176 259.693 235.282 258.44 235.282H258.12C256.04 231.522 252.293 224.576 247.906 215.709C246.013 211.869 244 207.682 241.96 203.229C231.786 181.069 220.84 152.629 219.68 130.789L219.666 130.522H219.8L228.133 130.736C233.173 130.856 238.146 131.909 242.8 133.843L244.293 134.469C252.093 138.269 257.613 145.576 259.093 154.136C260.72 163.549 263.693 177.402 266.72 190.376C269.826 203.589 272.96 215.896 274.786 221.709" fill="#F57C63"/>
<path d="M273.56 222.402L268.293 225.402L265.693 229.402L262.093 234.949C260.92 235.176 259.693 235.282 258.44 235.282H258.12C256.04 231.522 252.293 224.576 247.906 215.709C250.64 213.736 254.346 212.536 258.44 212.536C266.186 212.536 272.573 216.829 273.56 222.402" fill="#411C39"/>
<path d="M266.724 190.377C265.364 191.64 263.91 192.806 262.416 193.862C256.268 198.24 249.285 201.422 241.958 203.234C231.79 181.074 220.841 152.632 219.676 130.789L219.798 130.528L228.128 130.735C233.177 130.857 238.142 131.913 242.794 133.848L244.29 134.465C252.097 138.266 257.613 145.58 259.094 154.141C260.713 163.553 263.692 177.399 266.724 190.377Z" fill="#53A8C9"/>
<path d="M253.417 190.46C253.906 185.218 252.873 179.973 250.773 175.166C248.78 170.606 245.994 166.195 242.68 162.477C239.818 159.271 236.381 156.484 232.381 154.836C229.514 153.656 226.474 153.15 223.424 153.225C227.734 170.094 235.025 188.124 241.958 203.234C244.93 202.498 247.842 201.526 250.669 200.352C252.094 197.225 253.096 193.918 253.417 190.46" fill="#411C39"/>
<path d="M190.834 130.542C189.749 152.206 178.952 180.457 168.812 202.602C164.586 211.864 160.457 220.069 157.218 226.27C156.738 227.192 156.277 228.069 155.837 228.898C153.548 233.218 147.468 233.497 144.802 229.4L142.194 225.406L140.924 223.446C138.912 220.338 138.24 216.542 139.061 212.932C139.958 208.989 140.837 205.361 141.481 202.766C142.057 200.462 142.441 198.98 142.496 198.802V198.788C143.264 195.618 144.033 192.244 144.774 188.786C147.394 176.738 149.768 163.636 151.416 154.141C152.897 145.58 158.385 138.266 166.205 134.465L167.688 133.848C172.353 131.913 177.318 130.857 182.368 130.734L190.834 130.542" fill="#F57C63"/>
<path d="M166.03 205.993C160.498 204.706 153.978 204.15 148.761 206.854C146.005 208.285 144.021 210.598 142.829 213.449C141.404 216.858 141.446 220.365 142.084 223.865L142.194 224.034L144.802 228.026C147.468 232.125 153.548 231.846 155.837 227.526C156.277 226.697 156.738 225.82 157.218 224.898C159.872 219.817 163.128 213.376 166.54 206.125C166.369 206.084 166.201 206.033 166.03 205.993Z" fill="#411C39"/>
<path d="M190.834 130.542C189.749 152.206 178.952 180.457 168.812 202.602C162.337 200.737 156.162 197.773 150.66 193.862C148.561 192.38 146.529 190.693 144.774 188.786C147.394 176.738 149.768 163.636 151.416 154.141C152.897 145.58 158.385 138.266 166.205 134.465L167.688 133.848C172.353 131.913 177.318 130.857 182.368 130.734L190.834 130.542" fill="#53A8C9"/>
<path d="M179.905 149.712C175.713 152.781 165.749 162.1 162.49 171.902C161.689 174.314 160.83 176.721 160.402 179.221C159.232 186.066 159.67 193.646 162.237 200.276C164.384 201.176 166.578 201.96 168.812 202.602C176.46 185.902 184.474 165.732 188.421 147.529C185.3 150.149 183.18 147.316 179.905 149.712" fill="#411C39"/>
<path d="M240.786 201.176C240.053 204.002 239.333 209.202 238.666 215.242C237.746 223.496 236.92 233.336 236.373 240.669C236.16 243.482 236.493 246.256 237.306 248.882H174.64C175.68 245.642 176 242.176 175.493 238.736L172.053 215.242L169.973 201.176C161.048 188.933 164.644 177.26 168.596 170.226C172.166 163.87 171.94 157.412 174.104 150.45C176.762 141.904 182.594 134.114 183.48 131.496C183.692 130.882 183.813 130.536 183.813 130.536H223.026L223.68 132.189L236.562 153.348C239.06 159.626 237.566 165.136 241.296 170.77C253.206 188.766 240.786 201.176 240.786 201.176" fill="#53A8C9"/>
<path d="M221.52 130.536C220.786 141.629 212.853 150.349 203.186 150.349C193.506 150.349 185.573 141.629 184.84 130.536H221.52Z" fill="#411C39"/>
<path d="M218.852 158.508C218.009 159.84 216.721 160.837 215.36 161.63C214.274 162.266 213.038 162.788 211.804 162.914C211.058 162.992 210.32 162.924 209.614 162.642L208.612 159.47C210.654 157.292 212.412 154.84 213.816 152.204C214.23 151.434 214.746 150.55 215.612 150.458C216.39 150.376 217.052 150.984 217.596 151.546C218.156 152.121 218.72 152.714 219.124 153.396C219.241 153.585 219.342 153.78 219.425 153.984C220.018 155.448 219.688 157.17 218.852 158.508" fill="#D26258"/>
<path d="M218.852 158.508C218.009 159.84 216.721 160.837 215.36 161.63C214.274 162.266 213.038 162.788 211.804 162.914L211.633 162.369C213.67 160.19 215.426 157.738 216.832 155.102C217.246 154.334 217.761 153.449 218.628 153.356C218.798 153.337 218.964 153.352 219.124 153.396C219.241 153.585 219.342 153.78 219.425 153.984C220.018 155.448 219.688 157.17 218.852 158.508" fill="#F798BD"/>
<path d="M197.712 167.632C197.648 168.702 196.914 169.641 195.974 170.181C195.82 170.273 195.654 170.35 195.489 170.42C194.326 170.886 193.018 170.848 191.778 170.644C190.1 170.366 188.456 169.782 187.05 168.814C186.136 168.182 185.328 167.384 184.72 166.46C184.385 165.969 184.117 165.444 183.913 164.884C183.713 164.34 183.592 163.702 183.893 163.206C184.209 162.696 184.865 162.53 185.46 162.452C189.181 161.99 192.848 163.43 196.321 164.841L197.712 167.632" fill="#D26258"/>
<path d="M195.974 170.181C195.82 170.273 195.654 170.35 195.489 170.42C194.326 170.886 193.018 170.848 191.778 170.644C190.1 170.366 188.456 169.782 187.05 168.814C186.136 168.182 185.328 167.384 184.72 166.46C188.354 166.09 191.933 167.496 195.324 168.877L195.974 170.181" fill="#F798BD"/>
<path d="M203.972 223.066C203.638 222.45 202.882 222.212 202.19 222.101C200.45 221.824 198.638 222.012 196.993 222.637L196.932 222.586C194.994 222.532 193.044 223.061 191.4 224.088C191.088 224.282 190.781 224.501 190.57 224.801C190.361 225.102 190.26 225.501 190.393 225.844C190.605 226.386 191.272 226.569 191.852 226.645C194.929 227.048 198.044 226.506 201.101 225.966C201.981 225.81 202.917 225.628 203.557 225.005C204.066 224.51 204.31 223.689 203.972 223.066" fill="#F57C63"/>
<path d="M228.328 223.066C228.661 222.45 229.417 222.212 230.109 222.101C231.849 221.824 233.66 222.012 235.306 222.637L235.368 222.586C237.305 222.532 239.256 223.061 240.901 224.088C241.212 224.282 241.52 224.501 241.729 224.801C241.94 225.102 242.04 225.501 241.908 225.844C241.694 226.386 241.028 226.569 240.449 226.645C237.37 227.048 234.256 226.506 231.198 225.966C230.318 225.81 229.382 225.628 228.742 225.005C228.233 224.51 227.988 223.689 228.328 223.066" fill="#F57C63"/>
<path d="M241.872 213.514C241.424 218.077 238.993 222.752 234.761 224.512C230.174 226.413 225.018 224.512 220.116 223.705C215.52 222.95 210.757 223.204 206.262 224.444C203.573 225.184 200.888 226.288 198.101 226.088C194.39 225.83 191.106 223.169 189.464 219.828C187.824 216.486 187.589 212.561 188.296 208.908C190.641 196.748 194.73 193.84 194.73 193.84C194.73 193.84 191.292 192.512 190.717 191.738C189.229 189.744 189.01 187.122 188.928 184.613C188.922 184.437 188.918 184.257 188.913 184.082C188.805 180.328 188.709 176.494 189.758 172.885C191.336 167.482 195.504 162.977 200.616 160.622C204.045 159.042 207.926 158.128 211.701 158.62C217.694 159.398 221.978 163.376 226.298 167.238L226.352 167.288C228.288 169.013 230.261 170.822 231.269 173.206C231.556 173.877 231.673 174.773 231.706 175.756C231.886 180.818 233.185 185.774 235.301 190.377C236.312 192.574 237.349 194.87 238.146 196.734C240.428 202.06 242.436 207.75 241.872 213.514" fill="#D26258"/>
<path d="M241.872 213.514C241.424 218.077 238.993 222.752 234.761 224.512C230.174 226.413 225.018 224.512 220.116 223.705C215.52 222.95 210.757 223.204 206.262 224.444C203.573 225.184 200.888 226.288 198.101 226.088C194.39 225.83 191.106 223.169 189.464 219.828C187.824 216.486 187.589 212.561 188.296 208.908C190.641 196.748 194.73 193.84 194.73 193.84C194.73 193.84 191.292 192.512 190.717 191.738C189.229 189.744 189.01 187.122 188.928 184.613C192.644 181.684 197.406 180.069 202.138 180.177C203.36 180.206 204.502 179.67 205.329 178.77C207.28 176.656 210.368 175.6 213.218 176.013C214.805 176.241 216.4 175.478 217.226 174.106C219.216 170.818 222.601 168.381 226.352 167.288C228.288 169.013 230.261 170.822 231.269 173.206C231.556 173.877 231.673 174.773 231.706 175.756C231.886 180.818 233.185 185.774 235.301 190.377C236.312 192.574 237.349 194.87 238.146 196.734C240.428 202.06 242.436 207.75 241.872 213.514" fill="#FEF2D5"/>
<path d="M214.352 176.786C214.06 176.786 213.9 177.012 213.865 177.272C213.754 178.096 213.153 178.866 212.388 179.182C211.602 179.505 210.626 179.376 209.957 178.849C209.621 178.584 209.161 178.749 209.128 179.193C209 180.802 207.197 181.66 205.838 180.852C205.298 180.53 204.808 181.372 205.348 181.692C206.305 182.262 207.54 182.304 208.52 181.752C209.217 181.357 209.712 180.704 209.95 179.957C210.833 180.386 211.864 180.457 212.797 180.056C213.94 179.566 214.677 178.487 214.838 177.272C214.873 177.012 214.589 176.786 214.352 176.786" fill="#411C39"/>
<path d="M210.368 175.809L210.366 175.804L210.354 175.765C210.21 175.258 209.83 174.866 209.266 174.813C208.888 174.777 208.494 174.881 208.137 174.993C207.756 175.112 207.386 175.268 207.038 175.46C206.749 175.62 206.45 175.816 206.292 176.114C206.132 176.416 206.14 176.766 206.268 177.077C206.405 177.41 206.656 177.664 206.941 177.874C207.232 178.088 207.553 178.286 207.88 178.438C208.22 178.598 208.594 178.702 208.969 178.606C209.257 178.532 209.501 178.341 209.685 178.112C209.877 177.868 210.017 177.589 210.14 177.304C210.286 176.968 210.433 176.616 210.444 176.244C210.449 176.085 210.42 175.941 210.368 175.809" fill="#F798BD"/>
<path d="M225.685 174.029C223.334 174.013 220.988 174.174 218.66 174.489C220.638 173.124 222.72 171.917 224.897 170.901C225.181 170.768 224.948 170.341 224.665 170.473C222.434 171.514 220.304 172.754 218.284 174.161C219.528 171.414 221.534 169.029 224.041 167.349C224.3 167.177 224.07 166.746 223.809 166.922C221.07 168.757 218.918 171.365 217.638 174.404L217.672 174.62C217.605 174.752 217.668 174.92 217.78 174.976L218.006 175.064C220.542 174.68 223.104 174.498 225.669 174.516C225.981 174.517 225.997 174.032 225.685 174.029" fill="#411C39"/>
<path d="M194.758 188.238C196.197 186.19 197.777 184.248 199.47 182.412C197.14 183.332 194.873 184.434 192.702 185.733C192.42 185.902 192.217 185.45 192.5 185.282C194.722 183.953 197.045 182.825 199.436 181.893C196.434 181.373 193.257 181.724 190.345 182.92C190.045 183.044 189.838 182.594 190.141 182.469C193.324 181.161 196.772 180.816 200.03 181.474L200.186 181.629C200.334 181.649 200.432 181.801 200.409 181.93L200.34 182.178C198.464 184.156 196.733 186.273 195.164 188.509C194.972 188.781 194.568 188.513 194.758 188.238" fill="#411C39"/>
<path d="M219.128 195.336C219.646 194.266 220.364 193.234 221.416 192.682C222.938 191.88 225.013 192.349 226.041 193.729C227.07 195.106 226.929 197.229 225.728 198.46C225.728 198.46 222.521 201.586 220.361 202.692C219.78 202.99 219.046 203.256 218.505 202.888C218.057 202.584 217.949 201.977 217.917 201.436C217.79 199.344 218.21 197.22 219.128 195.336" fill="#FEF2D5"/>
<path d="M219.473 195.993C218.452 197.413 217.82 199.072 217.61 200.808C217.574 201.117 218.061 201.114 218.097 200.808C218.297 199.158 218.925 197.585 219.894 196.238C220.077 195.985 219.654 195.741 219.473 195.993" fill="#411C39"/>
<path d="M227.222 195.778C226.053 198.869 223.36 201.288 220.172 202.142C219.869 202.222 219.997 202.692 220.301 202.61C223.662 201.71 226.461 199.158 227.692 195.908C227.802 195.614 227.332 195.488 227.222 195.778" fill="#411C39"/>
<path d="M216.9 201.314C217.446 200.736 218.246 200.282 219.017 200.481C219.808 200.684 220.289 201.496 220.509 202.284C220.758 203.174 220.781 204.126 220.588 205.03L220.61 205.241C220.646 205.608 220.68 205.985 220.566 206.334C220.453 206.685 220.152 207 219.785 207.013C219.497 207.023 219.222 206.777 219.189 206.509C219.085 206.77 218.737 206.945 218.456 206.841C218.17 206.737 218.002 206.437 217.978 206.129C217.914 206.402 217.645 206.633 217.36 206.606C217.054 206.578 216.821 206.266 216.837 205.968C216.732 206.185 216.385 206.288 216.153 206.153C215.868 205.989 215.753 205.64 215.696 205.316C215.448 203.893 215.908 202.364 216.9 201.314" fill="#F798BD"/>
<path d="M219.221 206.905C219.128 206.905 219.038 206.856 219.006 206.74C219.088 206.678 219.153 206.598 219.189 206.509C219.205 206.638 219.277 206.762 219.38 206.856C219.334 206.888 219.277 206.905 219.221 206.905" fill="#F792A4"/>
<path d="M219.38 206.856C219.277 206.762 219.205 206.638 219.189 206.509C219.153 206.598 219.088 206.678 219.006 206.74C219.006 206.738 219.005 206.736 219.005 206.733C218.765 205.77 218.761 204.765 218.992 203.801C219.021 203.68 219.114 203.626 219.21 203.626C219.354 203.626 219.505 203.745 219.462 203.928C219.25 204.808 219.254 205.724 219.473 206.601C219.501 206.714 219.454 206.804 219.38 206.856" fill="#F36197"/>
<path d="M218.061 206.592C217.956 206.592 217.845 206.524 217.822 206.414C217.898 206.334 217.953 206.236 217.978 206.129C217.992 206.292 218.044 206.45 218.132 206.581C218.128 206.581 218.125 206.582 218.122 206.584C218.102 206.589 218.082 206.592 218.061 206.592Z" fill="#F792A4"/>
<path d="M218.132 206.581C218.044 206.45 217.992 206.292 217.978 206.129C217.953 206.236 217.898 206.334 217.822 206.414C217.701 205.828 217.66 205.226 217.71 204.628C217.722 204.497 217.813 204.384 217.953 204.384C217.953 204.384 217.953 204.384 217.954 204.384C218.076 204.384 218.208 204.494 218.197 204.625C218.149 205.18 218.178 205.738 218.292 206.284C218.317 206.409 218.258 206.54 218.132 206.581Z" fill="#F36197"/>
<path d="M216.876 206.21C216.841 206.181 216.816 206.142 216.808 206.096C216.805 206.073 216.802 206.05 216.798 206.028C216.814 206.009 216.826 205.989 216.837 205.968C216.833 206.049 216.846 206.132 216.876 206.21Z" fill="#F792A4"/>
<path d="M217.048 206.272C216.988 206.272 216.924 206.249 216.876 206.21C216.846 206.132 216.833 206.049 216.837 205.968C216.826 205.989 216.814 206.009 216.798 206.028C216.697 205.261 216.777 204.481 217.065 203.758C217.105 203.656 217.192 203.578 217.3 203.578C217.32 203.578 217.341 203.581 217.362 203.588C217.478 203.618 217.582 203.764 217.534 203.885C217.273 204.542 217.173 205.262 217.277 205.964C217.297 206.093 217.246 206.225 217.108 206.264C217.089 206.269 217.069 206.272 217.048 206.272Z" fill="#F36197"/>
<path d="M209.357 195.336C208.837 194.266 208.118 193.234 207.068 192.682C205.545 191.88 203.472 192.349 202.442 193.729C201.414 195.106 201.554 197.229 202.754 198.46C202.754 198.46 205.964 201.586 208.122 202.692C208.704 202.99 209.437 203.256 209.978 202.888C210.426 202.584 210.534 201.977 210.568 201.436C210.693 199.344 210.273 197.22 209.357 195.336" fill="#FEF2D5"/>
<path d="M209.01 195.993C210.032 197.413 210.664 199.072 210.872 200.808C210.91 201.117 210.422 201.114 210.386 200.808C210.188 199.158 209.558 197.585 208.589 196.238C208.408 195.985 208.829 195.741 209.01 195.993Z" fill="#411C39"/>
<path d="M201.261 195.778C202.43 198.869 205.125 201.288 208.312 202.142C208.614 202.222 208.485 202.692 208.184 202.61C204.821 201.71 202.024 199.158 200.793 195.908C200.681 195.614 201.15 195.488 201.261 195.778" fill="#411C39"/>
<path d="M211.584 201.314C211.037 200.736 210.238 200.282 209.468 200.481C208.676 200.684 208.196 201.496 207.974 202.284C207.725 203.174 207.701 204.126 207.896 205.03L207.873 205.241C207.837 205.608 207.804 205.985 207.918 206.334C208.03 206.685 208.332 207 208.698 207.013C208.986 207.023 209.261 206.777 209.296 206.509C209.4 206.77 209.746 206.945 210.028 206.841C210.313 206.737 210.481 206.437 210.505 206.129C210.57 206.402 210.837 206.633 211.124 206.606C211.429 206.578 211.661 206.266 211.646 205.968C211.75 206.185 212.098 206.288 212.33 206.153C212.616 205.989 212.73 205.64 212.786 205.316C213.036 203.893 212.577 202.364 211.584 201.314" fill="#F798BD"/>
<path d="M209.262 206.905C209.206 206.905 209.149 206.888 209.104 206.856C209.206 206.762 209.278 206.638 209.296 206.509C209.332 206.598 209.396 206.678 209.477 206.741C209.445 206.856 209.356 206.905 209.262 206.905Z" fill="#F792A4"/>
<path d="M209.104 206.856C209.029 206.804 208.982 206.714 209.01 206.601C209.228 205.724 209.232 204.808 209.022 203.928C208.978 203.745 209.13 203.626 209.274 203.626C209.37 203.626 209.462 203.68 209.492 203.801C209.722 204.765 209.717 205.77 209.478 206.733C209.478 206.736 209.477 206.738 209.477 206.741C209.396 206.678 209.332 206.598 209.296 206.509C209.278 206.638 209.206 206.762 209.104 206.856" fill="#F36197"/>
<path d="M210.421 206.592C210.401 206.592 210.38 206.589 210.361 206.584C210.357 206.582 210.354 206.581 210.352 206.581C210.44 206.45 210.493 206.292 210.505 206.129C210.53 206.236 210.585 206.334 210.661 206.416C210.638 206.524 210.526 206.592 210.421 206.592" fill="#F792A4"/>
<path d="M210.352 206.581C210.226 206.541 210.166 206.409 210.193 206.284C210.305 205.738 210.333 205.18 210.286 204.625C210.274 204.494 210.408 204.384 210.53 204.384C210.67 204.384 210.761 204.497 210.772 204.628C210.824 205.226 210.782 205.828 210.661 206.414V206.416C210.585 206.334 210.53 206.236 210.505 206.129C210.493 206.292 210.44 206.45 210.352 206.581" fill="#F36197"/>
<path d="M211.606 206.21C211.636 206.133 211.65 206.049 211.646 205.968C211.657 205.989 211.67 206.009 211.685 206.029C211.682 206.05 211.678 206.073 211.676 206.096C211.669 206.142 211.642 206.181 211.606 206.21Z" fill="#F792A4"/>
<path d="M211.434 206.272C211.414 206.272 211.393 206.269 211.374 206.264C211.237 206.225 211.188 206.093 211.206 205.964C211.31 205.262 211.21 204.542 210.949 203.885C210.901 203.764 211.005 203.618 211.121 203.588C211.142 203.581 211.164 203.578 211.184 203.578C211.292 203.578 211.377 203.656 211.418 203.758C211.706 204.481 211.786 205.261 211.685 206.029C211.67 206.009 211.657 205.989 211.646 205.968C211.65 206.049 211.636 206.133 211.606 206.21C211.56 206.249 211.494 206.272 211.434 206.272Z" fill="#F36197"/>
<path d="M201.464 173.146C202.16 178.616 200.592 179.162 196.149 173.873C196.149 173.873 198.293 180.708 201.806 179.265C201.806 179.265 204.338 178.346 201.464 173.146" fill="#411C39"/>
<path d="M210.445 169.734C213.737 174.157 215.246 173.462 214.777 166.572C214.777 166.572 217.973 172.982 214.441 174.38C214.441 174.38 211.98 175.474 210.445 169.734" fill="#411C39"/>
<path d="M213.672 130.324L213.652 130.444C213.63 130.666 213.604 131.165 213.576 131.768C213.362 135.62 211.39 139.164 208.097 141.014C205.532 142.448 202.836 142.714 199.992 141.765C195.001 140.118 191.774 135.053 191.806 129.842L191.837 125.652L191.146 103.029L212.708 103.249L212.865 107.47L213.35 121.31L213.672 130.324Z" fill="#F57C63"/>
<path d="M213.672 131.974C211.225 132.032 208.736 132.336 206.296 132.061C200.356 131.393 195.23 127.664 193.548 121.818C192.28 117.413 192.57 112.612 193.45 108.16C193.652 107.136 193.877 106.105 194.19 105.108L212.865 109.121L213.35 122.961L213.672 131.974" fill="#411C39"/>
<path d="M232.217 96.2278C232.513 92.7038 232.818 89.1998 233.37 85.7078C234.161 80.7025 232.329 75.0918 230.341 70.3051C229.077 67.2571 227.366 64.3945 225.121 61.9825C219.14 55.5531 208.928 52.3918 200.376 53.9638C188.404 56.1665 184.869 67.0118 185.689 77.6251C179.408 72.6065 177.13 81.5331 177.13 81.5331C174.853 90.4598 183.648 92.3385 183.648 92.3385C184.338 101.488 189.052 108.001 189.052 108.001C193.433 114.206 197.646 118.042 201.369 120.386C208.782 125.054 218.198 123.758 224.128 117.697C229.005 112.709 231.338 106.333 231.942 99.4571C232.037 98.3798 232.126 97.3025 232.217 96.2278" fill="#F57C63"/>
<path d="M217.99 110.95C217.669 111.784 217.228 112.478 216.689 113.052C213.39 116.654 206.816 114.794 205.586 110.036C205.294 108.941 205.3 107.668 205.705 106.278C206.069 105.046 207.522 104.537 208.573 105.237C211.189 106.961 213.829 107.966 216.492 108.397C217.684 108.582 218.414 109.818 217.99 110.95" fill="#411C39"/>
<path d="M216.689 113.052C213.39 116.654 206.816 114.794 205.586 110.036C206.784 109.345 208.297 108.936 209.908 108.942C213.208 108.958 215.984 110.702 216.689 113.052" fill="#F798BD"/>
<path d="M240.674 79.3518C243.274 73.8691 243.598 67.3491 241.556 61.6358C239.514 55.9224 235.129 51.0851 229.642 48.4931C226.58 47.0451 223.233 46.2864 219.88 45.7944C209.57 44.2771 198.777 45.2438 189.254 49.4745C186.426 50.7305 183.7 52.2798 181.4 54.3518C174.758 60.3264 172.497 69.7984 172.076 78.7224C171.912 82.2118 171.989 85.7998 173.244 89.0611C175.285 94.3678 180.17 98.0851 185.297 100.549C185.018 98.2451 184.738 95.9411 184.46 93.6385C184.429 93.3851 184.392 93.1171 184.226 92.9238C183.988 92.6451 184.01 92.3945 183.648 92.3385C181.245 91.9691 179.361 89.8971 178.496 87.8304C177.601 85.6958 176.913 82.5571 177.838 80.3398C178.681 78.3238 180.512 77.1651 182.604 78.2798C184.214 79.1398 185.096 80.9451 185.52 82.7198C186.248 85.7718 185.926 88.9584 185.869 92.0958C185.845 93.4451 185.877 94.8331 186.394 96.0798C187.713 99.2611 192.454 100.326 195.008 98.0144C193.256 98.5238 191.805 96.2105 192.253 94.4425C192.702 92.6758 194.205 91.4185 195.433 90.0705C199.01 86.1451 200.501 80.9744 201.254 75.6224C202.301 75.7038 203.361 75.6838 204.409 75.6118C208.892 75.3051 213.316 74.1678 217.393 72.2758C216.374 74.6985 214.866 76.9144 212.988 78.7518C217.87 79.8958 223.172 79.1464 227.546 76.6931C227.272 79.0944 227.682 81.5704 228.716 83.7558C230.165 86.8171 232.822 89.3758 233.364 92.7198C233.754 95.1251 232.974 97.5465 232.736 99.9705C232.665 100.681 232.658 101.457 233.078 102.034C233.441 102.533 234.057 102.782 234.662 102.9C236.39 103.23 238.272 102.602 239.453 101.296C238.809 101.548 238.076 101.013 237.861 100.357C237.646 99.7011 237.806 98.9878 237.982 98.3211C238.953 94.6518 240.388 91.0838 240.868 87.3198C241.173 84.9331 241.025 82.3931 240.206 80.1571C240.389 79.9064 240.544 79.6278 240.674 79.3518" fill="#D26258"/>
<path d="M222.272 102.628C222.092 101.876 221.652 101.206 221.305 100.524C220.91 99.7464 220.598 98.9305 220.356 98.0971C219.865 96.4225 219.706 94.6984 219.824 92.9824C219.857 92.5118 219.364 92.1158 218.941 92.1105C218.441 92.1038 218.157 92.5131 218.126 92.9785C217.928 95.8585 218.544 98.7851 219.87 101.397C220.381 102.402 221.184 103.529 220.082 104.369C218.981 105.208 217.412 104.681 216.188 104.321C215.124 104.009 214.738 105.686 215.801 105.998C217.393 106.466 219.116 106.877 220.632 106.096C221.886 105.449 222.621 104.089 222.272 102.628" fill="#411C39"/>
<path d="M205.396 89.6278C205.468 89.4851 205.614 89.3452 205.769 89.2998C205.934 89.2505 206.125 89.2452 206.281 89.3318C206.44 89.4212 206.528 89.5425 206.608 89.7052C206.504 89.4905 206.618 89.7118 206.653 89.7665L206.72 89.8571L206.966 90.0692L207.224 90.1985C207.59 89.4425 208.2 88.9758 208.878 89.0358C209.957 89.1332 210.797 90.5118 210.758 92.1158C210.721 93.7211 209.816 94.9438 208.741 94.8465C207.664 94.7518 206.824 93.3732 206.861 91.7692L206.89 91.4598C206.768 91.4198 206.638 91.3998 206.528 91.3438C206.298 91.2278 206.076 91.0758 205.893 90.8945C205.664 90.6665 205.505 90.4265 205.362 90.1385C205.294 89.9958 205.329 89.7625 205.396 89.6278" fill="#411C39"/>
<path d="M225.673 91.6571C226.325 91.7158 226.888 92.2491 227.222 93.0131L227.306 92.9571L227.424 92.8238L227.494 92.6838L227.537 92.4718L227.528 92.6144L227.53 92.6118L227.568 92.3691L227.692 92.1438C227.797 92.0238 227.974 91.9278 228.136 91.9225C228.308 91.9171 228.493 91.9611 228.621 92.0851C228.736 92.1958 228.852 92.3638 228.842 92.5305C228.836 92.6665 228.832 92.8025 228.797 92.9358C228.764 93.0611 228.722 93.1851 228.669 93.3038C228.582 93.4958 228.453 93.6825 228.304 93.8331C228.085 94.0505 227.817 94.1958 227.532 94.2998C227.542 94.4438 227.554 94.5878 227.552 94.7358C227.513 96.3411 226.609 97.5638 225.533 97.4678C224.457 97.3718 223.616 95.9945 223.654 94.3891C223.694 92.7838 224.596 91.5611 225.673 91.6571" fill="#411C39"/>
<path d="M223.953 83.4971C224.356 83.3785 224.736 83.4505 225.081 83.5558C227.373 84.2571 228.765 86.5705 228.65 89.2905C228.569 88.9025 228.452 88.5345 228.241 88.2318L228.197 88.1878C228.086 87.9891 227.958 87.8065 227.805 87.6491C227.245 87.0731 226.468 86.7611 225.69 86.4851C224.913 86.2065 224.113 85.9518 223.474 85.4638C223.166 85.2291 222.884 84.8705 223.01 84.3998C223.124 83.9758 223.55 83.6171 223.953 83.4971" fill="#411C39"/>
<path d="M209.53 80.4878C209.232 80.1678 208.868 80.0278 208.52 79.9344C206.205 79.3184 203.97 80.5971 202.874 83.0358C203.117 82.7411 203.381 82.4811 203.7 82.3291L203.756 82.3144C203.938 82.1997 204.133 82.1091 204.336 82.0531C205.081 81.8491 205.897 81.9944 206.697 82.1678C207.5 82.3424 208.31 82.5464 209.084 82.4624C209.457 82.4224 209.861 82.2584 209.958 81.7798C210.045 81.3491 209.83 80.8064 209.53 80.4878Z" fill="#411C39"/>
<path d="M254.266 238.042C250.04 237.682 245.786 237.549 241.546 237.722L238.813 237.842C216 252.042 186.493 236.722 186.493 236.722C185.64 236.336 185.386 235.229 185.36 234.109C185.346 233.696 185.36 233.282 185.386 232.896C185.426 232.616 185.453 232.349 185.493 232.122C185.532 231.829 185.493 231.549 185.413 231.282C185.346 231.056 185.24 230.842 185.106 230.642C184.973 230.416 184.893 230.176 184.865 229.949C184.8 229.336 185.106 228.736 185.493 228.229C185.88 227.709 186.04 227.069 185.946 226.456C185.92 226.242 185.865 226.029 185.786 225.829C185.733 225.696 185.68 225.576 185.666 225.442L185.64 225.216C185.532 224.122 186.346 223.082 187.44 222.842C191.68 221.922 203.066 221.696 208.4 221.642C208.813 221.642 208.865 221.069 208.466 220.962C204.253 219.896 201.64 218.936 200.04 218.122C198.573 217.389 199.04 215.122 200.693 215.056C215.88 214.376 235.853 223.016 235.853 223.016C269.213 205.949 275.573 223.442 275.573 223.442C280.746 238.496 263.32 238.816 254.266 238.042" fill="#F57C63"/>
<path d="M185.638 225.214C192.968 226.666 200.474 227.077 207.932 226.446C208.672 226.384 208.678 227.541 207.938 227.602C200.585 228.233 193.182 227.834 185.945 226.45C185.92 226.242 185.861 226.036 185.78 225.828C185.733 225.701 185.686 225.573 185.662 225.446L185.638 225.214Z" fill="#411C39"/>
<path d="M184.865 229.95C192.036 231.877 199.5 232.576 206.933 232.002C207.673 231.953 207.68 233.109 206.94 233.16C199.714 233.72 192.424 233.077 185.416 231.289C185.346 231.057 185.241 230.838 185.113 230.642C184.972 230.412 184.89 230.181 184.865 229.95" fill="#411C39"/>
<path d="M206.213 237.656C199.12 237.589 192.066 236.389 185.36 234.109C185.346 233.696 185.36 233.282 185.386 232.896C192.106 235.216 199.173 236.442 206.306 236.496C207.053 236.509 206.96 237.669 206.213 237.656Z" fill="#411C39"/>
<path d="M177.426 202.789L200.53 193.584C200.53 193.584 210.554 186.021 218.193 183.201C218.193 183.201 223.982 179.745 227.164 177.25C228.638 176.094 230.861 176.948 231.114 178.804C231.424 181.066 226.154 188.998 219.441 193.086C218.704 194.59 248.701 192.816 244.716 199.888C244.716 199.888 251.549 200.293 245.861 204.794C245.861 204.794 246.246 209.542 235.738 210.402C235.738 210.402 236.348 213.764 221.928 213.712C217.39 213.696 201.744 212.564 200.425 211.529C200.425 211.529 171.32 233.124 152.578 236.845C150.732 237.21 148.896 237.126 147.185 236.665C142.093 235.292 138.7 230.462 138.661 225.19L138.594 216.268C138.594 216.268 143.026 210.029 163.894 206.958C168.589 206.266 173.16 204.866 177.426 202.789" fill="#F57C63"/>
<path d="M225.525 209.714C229.001 210.145 232.528 210.112 235.998 209.65C236.737 209.553 236.753 210.71 236.025 210.808C232.441 211.284 228.826 211.281 225.241 210.836C224.504 210.745 224.794 209.624 225.525 209.714Z" fill="#411C39"/>
<path d="M225.594 203.242C232.121 204.301 238.726 204.778 245.337 204.682C246.082 204.672 246.106 205.828 245.361 205.838C238.648 205.936 231.938 205.438 225.312 204.364C224.577 204.245 224.864 203.124 225.594 203.242" fill="#411C39"/>
<path d="M226.081 198.056C232.172 199.474 238.46 199.808 244.664 199.021C245.404 198.929 245.561 200.074 244.822 200.168C238.522 200.965 232.114 200.644 225.929 199.202C225.21 199.036 225.356 197.886 226.081 198.056Z" fill="#411C39"/>
<path d="M266.378 162.364V163.03H390.498V248.216H267.045V162.364H266.378V163.03V162.364H265.712V249.549H391.832V161.697H265.712V162.364H266.378Z" fill="#411C39"/>
<path d="M278.509 248.882V162.366H277.176V248.882H278.509Z" fill="#411C39"/>
<path d="M290.132 248.882V162.366H288.798V248.882H290.132Z" fill="#411C39"/>
<path d="M301.77 248.882V162.366H300.437V248.882H301.77Z" fill="#411C39"/>
<path d="M313.393 201.53V162.366H312.06V201.53H313.393Z" fill="#411C39"/>
<path d="M313.393 248.882V226.109H312.06V248.882H313.393Z" fill="#411C39"/>
<path d="M325.017 201.53V162.366H323.684V201.53H325.017Z" fill="#411C39"/>
<path d="M325.017 248.882V226.109H323.684V248.882H325.017Z" fill="#411C39"/>
<path d="M336.64 201.53V162.366H335.306V201.53H336.64Z" fill="#411C39"/>
<path d="M336.64 248.882V226.109H335.306V248.882H336.64Z" fill="#411C39"/>
<path d="M346.937 248.882H348.27V162.364H346.937V248.882Z" fill="#411C39"/>
<path d="M358.565 248.882H359.898V162.364H358.565V248.882Z" fill="#411C39"/>
<path d="M370.192 248.882H371.525V162.364H370.192V248.882Z" fill="#411C39"/>
<path d="M381.818 248.882H383.152V162.364H381.818V248.882Z" fill="#411C39"/>
<path d="M391.157 241.833H267.196V243.166H391.157V241.833Z" fill="#411C39"/>
<path d="M391.157 233.63H267.196V234.964H391.157V233.63Z" fill="#411C39"/>
<path d="M312.726 201.53H312.06V226.776H336.64V200.864H312.06V201.53H312.726V202.197H335.306V225.442H313.393V201.53H312.726V202.197V201.53Z" fill="#411C39"/>
<path d="M312.726 225.442H267.196V226.776H312.726V225.442" fill="#411C39"/>
<path d="M391.157 225.442H335.973V226.776H391.157V225.442Z" fill="#411C39"/>
<path d="M312.726 217.254H267.196V218.588H312.726V217.254" fill="#411C39"/>
<path d="M391.157 217.254H335.973V218.588H391.157V217.254Z" fill="#411C39"/>
<path d="M312.726 209.052H267.196V210.385H312.726V209.052" fill="#411C39"/>
<path d="M391.157 209.052H335.973V210.385H391.157V209.052Z" fill="#411C39"/>
<path d="M312.726 200.864H267.196V202.197H312.726V200.864" fill="#411C39"/>
<path d="M391.157 200.864H335.973V202.197H391.157V200.864Z" fill="#411C39"/>
<path d="M391.157 192.661H267.196V193.994H391.157V192.661Z" fill="#411C39"/>
<path d="M391.157 184.473H267.196V185.806H391.157V184.473Z" fill="#411C39"/>
<path d="M391.157 176.285H267.196V177.618H391.157V176.285Z" fill="#411C39"/>
<path d="M391.157 168.081H267.196V169.414H391.157V168.081Z" fill="#411C39"/>
<path d="M266.378 225.573H391.165V248.882H266.378V225.573Z" fill="#F03954"/>
<path d="M266.378 225.573V226.24H390.498V248.216H267.045V225.573H266.378V226.24V225.573H265.712V249.549H391.832V224.906H265.712V225.573H266.378Z" fill="#411C39"/>
<path d="M371.321 225.573H391.165V248.882H371.321V225.573Z" fill="#411C39"/>
<path d="M312.726 224.933V225.6H336.64V201.593H312.06V225.6H312.726V224.933H313.393V202.926H335.306V224.266H312.726V224.933H313.393H312.726Z" fill="#411C39"/>
<path d="M312.726 218.588H335.973V217.254H312.726V218.588Z" fill="#411C39"/>
<path d="M312.726 210.385H335.973V209.052H312.726V210.385Z" fill="#411C39"/>
<path d="M394.796 247.936H50.7544V249.269H394.796V247.936" fill="#411C39"/>
</svg>
