<svg width="645" height="332" viewBox="0 0 645 332" fill="none" xmlns="http://www.w3.org/2000/svg">
<path d="M0 304.286H644.329C644.329 304.286 492.838 332 335.706 332C178.571 332 0 304.286 0 304.286Z" fill="#B9E8EA"/>
<path d="M315.416 286.617H87.9023V271.404H315.416V286.617Z" fill="#F03954"/>
<path d="M104.003 303.311H87.9023V286.617H104.003V303.311Z" fill="#DB472E"/>
<path d="M315.417 303.311H299.311V286.617H315.417V303.311Z" fill="#DB472E"/>
<path d="M201.656 42.9972L101.768 124.7L105.939 129.472L201.53 52.9583L297.375 129.472L301.549 124.7L201.656 42.9972Z" fill="#689AD5"/>
<path d="M285.312 119.843V271.404H117.866V119.843L160.632 85.6475L162.12 84.4583L201.663 52.8352L241.143 84.4583L242.624 85.6475L285.033 119.619L285.312 119.843Z" fill="#C7D8FF"/>
<path d="M285.312 119.842V247.323C246.063 224.424 147.035 166.694 117.866 150.043V119.842L201.663 52.8351L285.033 119.619L285.312 119.842Z" fill="#94A1FF"/>
<path d="M242.624 85.6475H160.632L162.121 84.4583H241.143L242.624 85.6475Z" fill="#3C90D3"/>
<path d="M285.312 134.146V135.337H117.866V134.146H285.312Z" fill="#3C90D3"/>
<path d="M285.312 190.206V191.396H117.866V190.206H285.312Z" fill="#3C90D3"/>
<path d="M285.312 237.508V238.702H117.866V237.508H285.312Z" fill="#3C90D3"/>
<path d="M258.908 160.205V271.404H144.408V160.205C144.408 155.604 148.144 151.855 152.753 151.855H250.559C255.17 151.855 258.908 155.604 258.908 160.205Z" fill="#4F74CA"/>
<path d="M258.908 160.205V249.362L144.408 180.112V160.205C144.408 155.604 148.144 151.855 152.753 151.855H250.559C255.17 151.855 258.908 155.604 258.908 160.205Z" fill="#4069BC"/>
<path d="M55.603 1.69702C54.7607 1.69702 54.0718 2.38596 54.0718 3.23322V301.365C54.0718 302.215 54.7607 302.904 55.603 302.904H436.619C437.466 302.904 438.155 302.215 438.155 301.365V3.23322C438.155 2.38596 437.466 1.69702 436.619 1.69702H55.603ZM436.619 304.603H55.603C53.8179 304.603 52.3748 303.15 52.3748 301.365V3.23322C52.3748 1.44815 53.8179 -3.05176e-05 55.603 -3.05176e-05H436.619C438.401 -3.05176e-05 439.855 1.44815 439.855 3.23322V301.365C439.855 303.15 438.401 304.603 436.619 304.603Z" fill="#7C94A0"/>
<path d="M105.579 304.349C105.247 304.349 104.983 304.083 104.983 303.753V0.847168C104.983 0.517822 105.247 0.251312 105.579 0.251312C105.911 0.251312 106.178 0.517822 106.178 0.847168V303.753C106.178 304.083 105.911 304.349 105.579 304.349Z" fill="#7C94A0"/>
<path d="M161.879 304.349C161.552 304.349 161.281 304.083 161.281 303.753V0.847168C161.281 0.517822 161.552 0.251312 161.879 0.251312C162.208 0.251312 162.48 0.517822 162.48 0.847168V303.753C162.48 304.083 162.208 304.349 161.879 304.349Z" fill="#7C94A0"/>
<path d="M218.174 304.349C217.847 304.349 217.586 304.083 217.586 303.753V0.847168C217.586 0.517822 217.847 0.251312 218.174 0.251312C218.506 0.251312 218.772 0.517822 218.772 0.847168V303.753C218.772 304.083 218.506 304.349 218.174 304.349Z" fill="#7C94A0"/>
<path d="M274.479 304.349C274.147 304.349 273.875 304.083 273.875 303.753V0.847168C273.875 0.517822 274.147 0.251312 274.479 0.251312C274.803 0.251312 275.067 0.517822 275.067 0.847168V303.753C275.067 304.083 274.803 304.349 274.479 304.349Z" fill="#7C94A0"/>
<path d="M330.766 304.349C330.446 304.349 330.172 304.083 330.172 303.753V0.847168C330.172 0.517822 330.446 0.251312 330.766 0.251312C331.098 0.251312 331.372 0.517822 331.372 0.847168V303.753C331.372 304.083 331.098 304.349 330.766 304.349Z" fill="#7C94A0"/>
<path d="M387.065 304.349C386.733 304.349 386.474 304.083 386.474 303.753V0.847168C386.474 0.517822 386.733 0.251312 387.065 0.251312C387.397 0.251312 387.668 0.517822 387.668 0.847168V303.753C387.668 304.083 387.397 304.349 387.065 304.349Z" fill="#7C94A0"/>
<path d="M574.898 267.016C574.898 267.016 571.916 256.756 568.358 254.006L553.248 270.119C553.248 270.119 568.082 268.143 574.898 267.016Z" fill="#C69817"/>
<path d="M577.322 266.705C578.785 266.054 586.26 262.639 592.279 263.288C592.279 263.288 594.886 290.609 593.42 294.024C591.954 297.438 581.226 304.43 573.249 305.244C573.249 305.244 582.199 292.885 582.519 290.446C582.843 288.005 577.322 266.705 577.322 266.705Z" fill="#F9B13E"/>
<path d="M569.349 252.884L554.551 269.629L576.655 266.788L577.321 266.7C577.321 266.7 577.321 266.7 577.804 268.819C578.096 270.096 579.745 275.959 581.007 280.43C581.862 283.386 582.518 285.729 582.518 285.729C582.518 285.729 574.878 293.865 555.365 301.991C535.855 310.117 507.883 314.185 495.853 312.558C483.81 310.939 484.466 298.901 484.466 298.901C484.466 298.901 475.516 306.061 468.531 303.62C465.396 302.529 463.81 299.359 463.327 295.366C462.739 290.411 463.857 284.196 465.924 279.062C469.66 269.795 479.752 245.08 489.341 227.185C494.799 217.02 501.821 205.176 507.403 196.364C507.614 196.019 507.84 195.677 508.054 195.34L508.391 194.82C510.963 190.81 513.158 187.551 514.686 185.553C519.179 187.008 523.551 188.009 527.496 188.306L527.589 188.313L527.953 188.575C529.557 189.709 531.747 191.154 534.52 192.763H534.538C536.182 193.726 538.038 194.747 540.114 195.798L540.544 196.019C542.083 196.791 543.76 197.59 545.53 198.392L546.008 198.606C547.526 199.28 549.13 199.961 550.807 200.635C557.925 203.496 565.588 206.151 572.253 208.323L572.738 208.482C576.512 209.711 579.946 210.785 582.757 211.632C584.09 212.029 585.291 212.384 586.305 212.686L586.77 212.824C588.942 213.455 590.212 213.807 590.212 213.807C590.212 213.807 590.297 213.553 590.463 213.085C590.317 214.071 587.868 229.714 582.518 237.274C576.987 245.08 569.349 252.884 569.349 252.884Z" fill="#0EBBFF"/>
<path d="M569.349 252.884L554.551 269.629L576.655 266.788C569.759 269.619 561.651 273.287 553.249 277.84C530.322 290.283 517.256 293.941 517.256 293.941C517.256 293.941 533.254 280.525 553.249 258.574C570.73 239.401 580.004 222.825 582.757 211.632C587.313 212.997 590.212 213.807 590.212 213.807C590.212 213.807 590.297 213.553 590.463 213.085C590.317 214.071 587.869 229.714 582.518 237.274C576.987 245.08 569.349 252.884 569.349 252.884Z" fill="#6E8AFF"/>
<path d="M582.518 285.729C582.518 285.729 574.878 293.865 555.365 301.991C535.855 310.117 507.883 314.187 495.853 312.558C483.812 310.939 484.466 298.901 484.466 298.901C484.466 298.901 475.516 306.061 468.531 303.62C465.396 302.529 463.81 299.359 463.327 295.366C465.429 297.347 467.757 299.105 469.587 299.308C473.977 299.796 481.052 294.997 488.612 284.226C496.172 273.453 500.858 264.183 507.908 252.718C514.953 241.254 524.464 230.033 524.464 230.033C514.953 243.695 493.002 284.183 489.582 291.258C486.171 298.333 486.171 305.405 489.582 307.844C493.002 310.283 505.726 310.207 528.145 305.242C546.83 301.114 572.851 285.513 581.007 280.43C581.862 283.386 582.518 285.729 582.518 285.729Z" fill="#6E8AFF"/>
<path d="M520.298 144.358C518.231 150.151 511.38 166.9 506.742 171.084C501.701 175.637 495.028 178.729 477.311 175.803C459.581 172.876 443.164 165.394 442.505 164.906C442.326 164.768 442.739 164.047 443.44 163.091C445.19 160.68 448.687 156.778 448.687 156.778C466.244 162.955 490.601 159.071 490.601 159.071C495.72 153.618 502.503 135.684 503.393 133.303C505.998 134.151 509.809 135.086 513.849 135.028C513.849 135.028 514.015 136.406 514.644 138.131C515.428 140.325 516.957 143.078 519.83 144.175L520.298 144.358Z" fill="#F2B5AA"/>
<path d="M489.465 176.947C486.098 176.947 482.111 176.597 477.311 175.803C475.88 175.569 474.457 175.302 473.052 175.013C472.914 173.467 472.635 171.921 472.112 170.5C472.031 170.282 471.953 170.055 471.88 169.824C474.128 170.02 476.401 170.126 478.659 170.126C479.868 170.126 481.075 170.096 482.271 170.03C485.585 172.046 489.653 174.38 494.108 176.69C492.703 176.859 491.162 176.947 489.465 176.947ZM512.549 162.266C511.403 162.234 510.171 162.191 508.854 162.143C507.642 162.098 506.402 162.005 505.145 161.874C512.356 154.968 513.306 145.044 514.641 138.153C515.418 140.303 516.904 142.973 519.662 144.107L519.665 144.109C519.675 144.112 519.685 144.117 519.692 144.119C519.695 144.122 519.697 144.122 519.7 144.124C519.707 144.127 519.715 144.129 519.725 144.134C519.727 144.134 519.73 144.134 519.732 144.137C519.74 144.139 519.748 144.142 519.755 144.147C519.758 144.147 519.763 144.147 519.765 144.149C519.773 144.152 519.78 144.157 519.788 144.159C519.793 144.159 519.795 144.159 519.798 144.162C519.808 144.164 519.818 144.17 519.83 144.175L520.298 144.358C519.011 147.968 515.863 155.838 512.549 162.266Z" fill="#F39D96"/>
<path d="M596.914 169.052C596.914 187.101 592.082 208.371 590.476 213.037C590.31 213.535 590.212 213.807 590.212 213.807C590.212 213.807 568.746 207.835 550.807 200.635C543.735 197.806 538.151 194.905 533.975 192.449H533.96C527.554 188.655 524.464 185.882 524.464 185.882L524.524 185.63L524.962 183.609L530.749 156.954L532.235 150.113C532.235 150.113 525.389 146.369 520.298 144.358L519.83 144.174C514.711 142.221 513.849 135.028 513.849 135.028C512.808 135.051 511.792 134.988 510.799 134.895H510.779C507.918 134.608 505.321 133.927 503.393 133.303C501.276 132.609 499.953 131.976 499.953 131.976V131.244C499.953 131.244 507.76 95.631 512.149 87.5807C516.547 79.5328 522.633 76.722 525.723 76.1463L532.157 80.1387C532.157 80.1387 533.733 81.24 535.682 79.4172L536.147 78.9169C536.24 79.2563 536.353 79.6007 536.459 79.9402C536.811 81.0137 537.188 82.0671 537.64 83.0652C540.039 88.4707 546.03 98.4343 556.431 101.582C558.734 102.296 561.246 102.666 563.984 102.578C570.863 102.361 574.941 100.491 577.193 97.68C579.197 101.127 582.078 106.48 585.326 113.68C591.416 127.224 596.914 151.735 596.914 169.052Z" fill="#2F336C"/>
<path d="M359.11 211.117L356.03 217.985C356.03 217.985 342.77 216.653 336.178 212.537C330.456 208.96 323.346 198.745 326.921 183.33C327.451 181.02 328.223 178.591 329.284 176.047C337.377 156.562 346.974 150.42 346.974 150.42C343.351 155.076 341.118 162.495 340.372 170.312C339.607 178.34 340.414 186.792 342.926 193.083C347.869 205.467 359.11 211.117 359.11 211.117Z" fill="#CC7E17"/>
<path d="M436.664 131.815C435.902 135.043 435.08 139.109 434.316 143.234C434.057 144.657 433.798 146.085 433.562 147.486C433.104 150.156 432.692 152.74 432.36 155.013C432.36 155.013 425.046 158.96 423.402 158.656C421.758 158.359 420.549 147.865 422.055 145.374C422.19 145.15 422.396 144.874 422.638 144.539C425.172 141.283 433.051 133.603 436.664 131.815Z" fill="#BC6F13"/>
<path d="M514.43 218.76C513.887 221.457 503.727 220.253 489.944 216.512C485.73 215.358 482.193 214.076 479.307 212.844C472.948 210.134 469.76 207.68 469.564 207.529L469.559 207.519C468.81 212.014 456.378 229.244 435.696 236.14C416.606 242.508 399.432 241.714 396.898 241.553L396.581 241.538C396.581 241.538 394.922 255.026 386.087 264.314C385.77 264.646 385.451 264.96 385.131 265.274C381.36 268.917 376.787 271.607 372.769 273.513C367.306 276.09 362.856 277.206 362.856 277.206C362.856 277.206 361.654 284.399 363.153 288.294C364.659 292.191 372.749 305.828 373.048 307.781C373.345 309.72 369.742 311.07 364.206 309.875C358.655 308.679 355.814 304.183 352.968 298.338C350.117 292.498 346.974 281.402 348.319 277.055C349.664 272.711 357.463 260.713 357.463 260.713C354.765 255.026 353.41 236.14 354.765 224.449C356.03 213.477 360.593 206.601 369.707 201.952C370.3 201.646 370.916 201.359 371.547 201.07C381.886 196.424 392.38 196.577 397.169 196.125C400.583 195.813 410.092 189.681 416.458 184.65C419.06 182.593 421.142 180.718 422.054 179.489C425.2 175.292 430.889 168.7 431.593 161.042C431.731 159.574 432.003 157.477 432.36 155.013C433.383 148.072 435.138 138.271 436.664 131.815C437.021 130.286 437.386 128.936 437.705 127.865C438.07 126.646 438.409 125.781 438.693 125.386C440.448 122.947 448.83 119.287 454.301 118.047C454.874 117.924 455.422 117.816 455.928 117.741C458.821 117.328 462.907 117.876 466.185 118.425C468.845 118.87 470.975 119.315 471.508 119.244C472.053 119.181 474.824 118.281 477.849 117.311C481.509 116.127 485.527 114.829 486.346 114.746C486.346 114.746 487.098 118.955 487.053 122.696C487.053 123.37 487.018 124.026 486.947 124.64C486.495 128.685 484.101 131.988 480.202 135.136C476.302 138.281 471.661 142.176 473.308 142.176C474.957 142.176 482.007 139.775 484.101 139.181C486.198 138.578 486.947 140.977 484.853 144.051C482.751 147.129 475.402 151.77 472.705 153.236C470.012 154.699 470.012 164.808 472.111 170.5C472.976 172.846 473.172 175.544 473.167 177.99C473.155 181.487 472.715 184.482 473.155 185.183C473.557 185.819 478.605 190.893 484.494 196.125C489.648 200.703 495.453 205.404 499.36 207.368C504.989 210.189 510.095 213.148 512.682 215.604C513.939 216.799 514.611 217.877 514.43 218.76Z" fill="#CC7E17"/>
<path d="M533.809 146.126C533.809 146.126 533.211 152.474 531.179 156.464L530.749 156.954L532.235 150.113C532.235 150.113 525.389 146.369 520.298 144.358L519.83 144.175C514.711 142.221 513.849 135.028 513.849 135.028C512.808 135.051 511.792 134.988 510.799 134.895C510.799 134.895 511.295 120.68 512.594 116.441C512.594 116.441 513.246 127.976 516.175 134.895C519.101 141.811 522.515 141.977 525.927 143.116C529.346 144.25 533.809 146.126 533.809 146.126Z" fill="#252A5E"/>
<path d="M564.469 163.714C561.052 175.385 552.592 186.694 543.328 190.44C539.775 191.876 536.58 192.371 533.975 192.449H533.96C527.554 188.655 524.464 185.882 524.464 185.882L524.524 185.63C527.295 185.842 537.693 186.108 545.485 178.563C554.556 169.781 559.682 146.575 559.682 146.575H567.076C567.076 146.575 567.886 152.056 564.469 163.714Z" fill="#252A5E"/>
<path d="M544.715 56.1111C540.808 60.2595 537.394 57.5769 537.394 57.5769C536.567 59.5128 535.559 61.1721 534.478 62.6253L534.392 62.7435C532.76 64.8855 530.918 66.5273 529.112 67.7768C524.356 71.093 519.83 71.7266 519.83 71.7266C496.66 71.4802 497.389 41.969 500.32 30.0167C500.838 27.8771 501.54 26.1825 502.357 24.8349C503.179 23.4874 504.122 22.4918 505.15 21.7702C514.241 19.1379 521.419 21.1065 525.816 23.9198C528.446 25.6043 530.857 28.0832 532.589 30.6678C533.276 31.9752 534.146 33.1971 534.789 34.7282C535.043 35.3241 534.93 35.8897 535.134 36.3398C535.591 37.3228 536.089 38.2103 536.585 38.9922C538.681 42.3511 540.808 43.9225 540.808 43.9225C540.808 43.9225 543.25 41.7251 547.395 42.2129C551.546 42.7006 548.615 51.9678 544.715 56.1111Z" fill="#F2B5AA"/>
<path d="M534.47 62.6209L534.385 62.7383L534.47 62.6209Z" fill="#F2B5AA"/>
<path d="M536.459 79.9403C535.772 80.5965 534.807 81.2401 533.733 81.2401C532.939 81.2401 531.315 80.2621 529.424 78.907C526.136 76.5738 521.997 73.1194 519.83 71.7265C519.83 71.7265 528.456 70.5172 534.392 62.7434C534.312 63.1029 534.244 63.4524 534.224 63.8044C534.173 64.6818 534.166 65.7755 534.224 67.0125C534.372 70.6253 535.013 75.4928 536.459 79.9403Z" fill="#F2B5AA"/>
<path d="M577.193 97.6802C576.391 98.6733 575.358 99.5532 574.063 100.287C571.692 101.612 568.422 102.444 563.984 102.578C548.859 103.065 540.565 89.66 537.641 83.0654C537.188 82.0673 536.811 81.0138 536.459 79.9403C536.353 79.6009 536.24 79.2564 536.147 78.917C534.47 73.1998 534.033 67.0124 534.224 63.8044C534.244 63.4524 534.312 63.1029 534.392 62.7434L534.478 62.6252C535.559 61.1721 536.567 59.5127 537.394 57.5768C537.394 57.5768 539.753 59.4323 542.792 57.6774C543.418 57.3254 544.057 56.8175 544.715 56.1111C548.615 51.9677 551.546 42.7005 547.396 42.2128C544.127 41.8306 541.912 43.1078 541.128 43.666L540.808 43.9224C540.808 43.9224 538.211 41.9966 535.921 37.8708L535.677 37.4208C535.491 37.0688 535.305 36.7193 535.134 36.3397L534.953 35.7438C534.847 35.2838 534.676 34.796 534.443 34.2881L534.224 33.8004C533.696 32.6866 532.984 31.5276 532.27 30.4666C530.777 28.2089 528.987 26.2001 526.805 24.5985L526.407 24.3245L525.817 23.9197C522.872 22.0341 518.696 20.5332 513.512 20.5332L512.874 20.5407L512.371 20.5583C511.302 20.601 510.214 20.7066 509.072 20.8927L508.564 20.9807C507.463 21.1667 506.317 21.4282 505.15 21.7701L504.73 21.7224C503.622 21.1366 503.204 16.9429 506.905 13.6745C511.048 10.0164 517.633 5.13645 528.743 7.21063C539.836 9.2823 543.735 14.7631 543.735 14.7631C543.735 14.7631 545.57 13.9762 548.137 14.1698H548.205C549.915 14.3081 551.949 14.8662 553.985 16.3546C559.104 20.1309 563.614 29.0385 562.89 35.5075C562.765 36.581 562.579 37.7929 562.347 39.06C561.917 41.4133 561.327 43.9853 560.776 46.3008C559.828 50.2204 558.931 53.4209 558.86 53.6748C558.838 53.7527 558.815 54.0092 558.795 54.4065L558.78 54.5347V54.6528C558.772 54.8389 558.772 55.0526 558.772 55.2965V55.304V55.3191C558.807 57.8332 559.446 62.7987 562.971 67.4549C567.773 73.7956 577.528 75.626 579.104 84.6543C579.972 89.572 579.886 94.3036 577.193 97.6802Z" fill="#F9B13E"/>
<path d="M529.113 67.7767C535.305 59.3166 536.585 45.9412 536.585 38.9921C536.746 39.2536 536.909 39.5025 537.073 39.7388C538.999 42.5848 540.809 43.9224 540.809 43.9224L541.017 43.7564C541.503 43.3919 542.83 42.5295 544.839 42.2404C545.264 42.18 545.719 42.1449 546.204 42.1449C546.584 42.1449 546.981 42.165 547.396 42.2128C548.821 42.3812 549.412 43.5855 549.415 45.2649C549.417 48.4655 547.275 53.3907 544.716 56.1111C543.014 57.9212 541.405 58.4316 540.13 58.4316C538.506 58.4316 537.427 57.6019 537.394 57.5768C536.567 59.5127 535.559 61.172 534.478 62.6252L534.393 62.7434C533.503 63.9099 532.55 64.9282 531.577 65.8182C530.765 66.5574 529.935 67.206 529.113 67.7767ZM534.47 62.6202L534.385 62.7383L534.47 62.6202Z" fill="#F39D96"/>
<path d="M534.385 62.7383L534.47 62.6209L534.385 62.7383Z" fill="#F39D96"/>
<path d="M531.577 65.8182C532.55 64.9282 533.502 63.91 534.392 62.7434C533.502 63.91 532.552 64.9282 531.577 65.8182Z" fill="#F39D96"/>
<path d="M534.392 62.7434L534.478 62.6253C535.559 61.1721 536.567 59.5127 537.394 57.5768C536.567 59.5127 535.559 61.1721 534.478 62.6253L534.392 62.7434ZM544.715 56.1111C547.275 53.3908 549.417 48.4655 549.414 45.265C549.417 48.4655 547.275 53.3908 544.715 56.1111ZM540.808 43.9224C540.808 43.9224 540.879 43.8595 541.017 43.7565L540.808 43.9224ZM544.839 42.2404C545.263 42.1776 545.718 42.1424 546.204 42.1424C546.583 42.1424 546.981 42.165 547.395 42.2128C546.981 42.165 546.583 42.1449 546.204 42.1449C545.718 42.1449 545.263 42.1801 544.839 42.2404ZM537.072 39.7388C536.909 39.5025 536.745 39.2536 536.584 38.9921C536.745 39.2511 536.909 39.5 537.072 39.7388Z" fill="#E99372"/>
<path d="M534.224 63.8043C534.173 64.6818 534.166 65.7754 534.224 67.0124C532.476 71.7164 531.415 76.0282 529.424 78.9069C526.136 76.5738 521.997 73.1193 519.83 71.7265C519.83 71.7265 528.456 70.5172 534.392 62.7434C534.312 63.1029 534.244 63.4524 534.224 63.8043Z" fill="#F3938D"/>
<path d="M571.785 146.126C564.794 147.177 556.2 146.347 556.2 146.347C559.594 137.178 558.297 113.972 556.431 101.582C558.734 102.296 561.246 102.666 563.984 102.578C564.96 105.271 566.956 109.032 568.374 114.658C571.881 128.562 571.785 146.126 571.785 146.126Z" fill="#252A5E"/>
<path d="M534.521 192.763C526.533 194.782 515.28 196.218 507.403 196.364C510.402 191.649 512.972 187.805 514.686 185.553C519.214 187.016 523.617 188.029 527.589 188.313C529.231 189.485 531.534 191.026 534.521 192.763Z" fill="#6E8AFF"/>
<path d="M473.16 185.186C473.557 185.824 478.606 190.893 484.494 196.125C486.377 197.777 501.333 196.781 510.324 193.08C519.32 189.382 513.857 184.441 511.626 185.035C509.386 185.631 494.176 184.585 484.494 182.337C474.809 180.092 473.167 177.993 473.167 177.993C473.155 181.492 472.715 184.479 473.16 185.186Z" fill="#BC6F13"/>
<path d="M534.953 35.7439C534.563 34.1423 533.415 32.1813 532.271 30.4666C530.556 27.877 528.447 25.6042 525.817 23.9197C522.873 22.0341 518.699 20.5332 513.512 20.5332C510.951 20.5332 508.15 20.9002 505.15 21.7701L504.73 21.7224C508.643 18.2679 521.105 15.789 529.113 23.0574C534.521 27.9676 538.888 35.0575 541.128 43.666L540.809 43.9224C540.809 43.9224 537.565 41.5289 535.134 36.3397L534.953 35.7439Z" fill="#C17E25"/>
<path d="M574.063 100.287C571.692 101.612 568.421 102.444 563.984 102.578C548.859 103.065 540.564 89.66 537.64 83.0654C537.188 82.0673 536.811 81.0138 536.459 79.9403C536.353 79.6009 536.24 79.2564 536.147 78.917C534.47 73.2023 534.033 67.0124 534.224 63.8044C534.244 63.4524 534.312 63.1029 534.392 62.7434L534.478 62.6227C535.559 61.172 536.567 59.5127 537.394 57.5768C537.394 57.5768 539.755 59.4323 542.794 57.6774C542.772 59.2965 542.681 60.9458 542.52 62.6227C541.015 77.6675 550.598 101.301 574.063 100.287Z" fill="#C17E25"/>
<path d="M562.347 39.06C561.917 41.4132 561.327 43.9852 560.776 46.3008C559.828 50.2203 558.931 53.4208 558.86 53.6748C558.838 53.7628 558.807 54.067 558.78 54.5346V54.6528C558.772 54.8389 558.772 55.0501 558.772 55.2964C556.949 51.3241 557.467 43.1882 557.037 36.3396C556.55 28.5307 551.22 22.1296 548.454 19.6632C548.985 19.965 557.485 25.0485 560.323 33.5011C560.909 35.246 561.611 37.1467 562.347 39.06Z" fill="#C17E25"/>
<path d="M548.454 19.6633C546.415 16.5131 543.737 14.7632 543.737 14.7632C543.737 14.7632 545.57 13.9763 548.137 14.1699C550.015 16.503 548.454 19.6633 548.454 19.6633Z" fill="#C17E25"/>
<path d="M508.853 62.7435L522.925 58.8792C522.925 58.8792 523.322 64.5713 517.15 66.5223C510.97 68.4758 508.853 62.7435 508.853 62.7435Z" fill="white"/>
<path d="M372.762 273.513C372.594 275.107 374.545 285.747 381.74 293.84C388.933 301.933 394.331 303.13 397.476 301.332C400.627 299.535 393.278 291.291 391.03 284.849C389.212 279.622 386.203 269.076 385.134 265.272C381.363 268.915 376.787 271.607 372.762 273.513Z" fill="#BC6F13"/>
<path d="M346.974 150.42C343.351 155.076 341.119 162.495 340.372 170.312C338.607 172.738 336.847 175.471 335.734 177.99C334.004 181.89 329.921 183.114 326.921 183.33C327.452 181.02 328.224 178.591 329.285 176.047C337.378 156.562 346.974 150.42 346.974 150.42Z" fill="#894A06"/>
<path d="M433.562 147.486C433.104 150.156 432.692 152.74 432.36 155.013C432.36 155.013 425.046 158.96 423.402 158.656C421.758 158.359 420.549 147.865 422.055 145.374C422.19 145.15 422.396 144.874 422.638 144.539C426.723 145.112 430.623 146.05 433.562 147.486Z" fill="#894A06"/>
<path d="M514.43 218.76C513.887 221.457 503.727 220.253 489.944 216.512C485.731 215.358 482.193 214.076 479.31 212.844C483.792 209.339 491.337 205.389 499.36 209.389C504.393 211.899 509.185 214.076 512.682 215.604C513.94 216.799 514.611 217.877 514.43 218.76Z" fill="#894A06"/>
<path d="M418.23 212.537C409.916 219.056 401.151 221.304 391.932 215.117C384.664 210.234 377.257 204.876 369.707 201.952C370.3 201.646 370.916 201.359 371.547 201.07C381.885 196.424 392.38 196.577 397.169 196.125C400.583 195.813 410.092 189.681 416.458 184.65C419.819 193.347 424.081 207.961 418.23 212.537Z" fill="#894A06"/>
<path d="M562.272 146.126C560.816 150.759 553.495 181.005 536.419 187.345C533.895 188.283 530.89 188.55 527.589 188.313C523.617 188.029 519.214 187.016 514.686 185.553C497.53 180.012 478.573 168.027 474.46 164.906C474.46 164.906 464.785 165.231 461.703 163.609C458.605 161.98 461.213 161.656 462.344 161.814C463.262 161.947 459.038 160.818 456.665 159.275C456.079 158.895 455.616 158.495 455.357 158.078C454.15 156.114 460.629 158.347 461.582 158.691C460.629 158.299 454.171 155.667 453.557 154.008C452.936 152.27 462.661 155.627 463.141 155.793C462.739 155.607 456.147 152.67 455.679 151.41C455.191 150.106 466.093 153.52 466.093 153.52C466.093 153.52 469.831 154.008 469.172 152.71C468.531 151.41 465.271 148.484 466.244 147.343C467.224 146.201 478.928 155.473 478.928 155.473C478.928 155.473 495.687 161.656 508.854 162.143C522.025 162.631 526.407 162.309 528.27 161.248C532.534 158.807 534.817 138.739 535.202 139.051C541.432 144.152 548.899 145.799 554.418 146.241C559.026 146.601 562.272 146.126 562.272 146.126Z" fill="#F2B5AA"/>
<path d="M529.781 188.394C529.067 188.394 528.336 188.366 527.589 188.313C523.617 188.029 519.214 187.016 514.686 185.553C507.755 183.315 500.529 180.024 494.108 176.69C489.653 174.38 485.585 172.047 482.271 170.03C478.535 167.76 475.757 165.892 474.46 164.906C474.46 164.906 473.673 164.931 472.479 164.931C471.993 164.931 471.443 164.929 470.85 164.916C467.767 164.854 463.551 164.579 461.703 163.609C460.627 163.043 460.24 162.636 460.24 162.349C460.24 161.932 461.064 161.779 461.778 161.779C461.985 161.779 462.181 161.791 462.344 161.814C463.262 161.947 474.05 163.433 474.05 163.433C474.05 163.433 478.493 165.884 485.555 170.153C491.601 173.791 514.307 183.944 528.813 183.944C531.31 183.944 533.56 183.642 535.446 182.956C547.375 178.604 553.256 155.433 554.418 146.241C555.68 146.339 556.841 146.377 557.862 146.377C560.562 146.377 562.272 146.126 562.272 146.126C562.227 146.274 562.174 146.447 562.116 146.646C560.336 152.667 552.949 181.208 536.419 187.345C534.465 188.072 532.225 188.394 529.781 188.394Z" fill="#F39D96"/>
<path d="M455.322 132.464C463.87 139.702 467.312 146.91 465.886 153.233C464.473 159.556 462.294 163.735 458.022 164.866C458.022 164.866 450.15 160.833 446.558 157.686C442.962 154.541 445.212 132.464 445.212 132.464C445.212 132.464 447.453 127.787 449.479 128.461C451.505 129.135 455.322 132.464 455.322 132.464Z" fill="#BC6F13"/>
<path d="M469.56 207.519C468.81 212.014 456.378 229.244 435.696 236.14C416.606 242.508 399.432 241.714 396.898 241.553C396.89 237.56 398.522 232.741 406.771 231.418C418.012 229.621 430.291 230.971 442.698 221.304C455.098 211.637 463.561 198.905 469.56 207.519Z" fill="#FFDFB8"/>
<path d="M454.301 118.05C453.864 119.973 451.199 122.983 446.937 125.99C442.789 128.921 439.364 129.296 437.705 127.865C438.07 126.646 438.409 125.781 438.693 125.386C440.448 122.947 448.83 119.287 454.301 118.05Z" fill="#FFDFB8"/>
<path d="M487.053 122.696C482.517 123.227 478.731 119.729 477.849 117.311C481.512 116.127 485.527 114.829 486.346 114.746C486.346 114.746 487.098 118.955 487.053 122.696Z" fill="#000721"/>
<path d="M433.562 172.218C432.073 177.515 432.619 180.597 435.54 184.65C438.462 188.705 443.88 187.619 446.007 183.33C448.129 179.038 435.855 164.044 433.562 172.218Z" fill="#FFDFB8"/>
<path d="M514.379 12.1484C510.246 15.5451 509.261 18.9492 509.072 20.8927L508.564 20.9807C508.708 18.9593 509.673 15.3791 514.06 11.7789L514.412 11.8065L514.379 12.1484Z" fill="#000721"/>
<path d="M530.923 13.3402C530.314 18.1196 528.036 22.5119 526.804 24.5986L526.407 24.3246C527.612 22.2579 529.842 17.9663 530.445 13.2723L530.724 13.0661L530.923 13.3402Z" fill="#000721"/>
<path d="M534.442 34.2882L534.224 33.8005C536.263 31.0399 538.701 25.0864 538.256 18.3761L538.475 18.1121L538.727 18.3484C539.199 25.4006 536.625 31.4899 534.442 34.2882Z" fill="#000721"/>
<path d="M535.921 37.8708L535.677 37.4207C537.11 36.4654 539.28 33.8104 539.021 26.4841L539.245 26.2403L539.504 26.4716C539.775 34.1121 537.502 36.8727 535.921 37.8708Z" fill="#000721"/>
<path d="M521.313 10.8235C516.878 13.8505 513.869 17.3503 512.873 20.5407L512.37 20.5583C513.356 17.2119 516.446 13.5539 521.034 10.4238L521.376 10.4791L521.313 10.8235Z" fill="#000721"/>
<path d="M558.795 54.4065L558.78 54.5347V54.6529C558.772 54.8389 558.772 55.0501 558.772 55.2965V55.304V55.3191C556.751 52.3976 556.58 45.0287 556.431 39.0123C556.374 36.4277 556.311 33.9889 556.12 32.3648C555.446 26.9015 549.668 20.8726 546.89 17.9763C546.415 17.4785 546.023 17.0662 545.744 16.767L545.764 16.4125L546.121 16.4326C546.38 16.7368 546.772 17.1466 547.235 17.6318C550.045 20.5709 555.901 26.6778 556.597 32.297C556.799 33.9463 556.856 36.2894 556.917 38.9921C557.052 44.5635 557.208 51.2864 558.795 54.4065Z" fill="#000721"/>
<path d="M554.714 95.6312L554.631 95.6161C544.157 91.5658 539.624 76.8328 540.079 71.7039L540.346 71.4852L540.564 71.7492C540.114 76.7699 544.557 91.1962 554.802 95.161L554.94 95.4753L554.714 95.6312Z" fill="#000721"/>
<path d="M563.25 75.5078L563.157 75.4877C553.118 71.2538 553.583 62.1752 553.859 56.7472L553.88 56.3701L554.123 56.1387H554.131L554.362 56.3926L554.342 56.7723C554.073 62.0696 553.621 70.937 563.34 75.0402L563.476 75.3595L563.25 75.5078Z" fill="#000721"/>
<path d="M574.714 89.7782L574.672 89.7732L574.476 89.4866C575.26 85.3106 564.967 80.1188 560.577 77.9038C559.589 77.406 558.873 77.044 558.501 76.8127L558.415 76.4783L558.752 76.3953C559.112 76.6191 559.863 76.9937 560.799 77.4664C565.669 79.9252 575.801 85.0415 574.956 89.5771L574.714 89.7782Z" fill="#000721"/>
<path d="M541.128 53.0639L541.047 53.0488L540.904 52.7371C542.209 49.182 547.134 45.006 547.348 44.83L547.685 44.8602L547.659 45.2021C547.607 45.2423 542.621 49.4712 541.359 52.9081L541.128 53.0639Z" fill="#000721"/>
<path d="M518.332 71.7819C515.996 71.7819 513.671 71.2841 511.403 70.2759L511.282 69.9566L511.599 69.8334C517.331 72.3727 523.498 71.5782 528.967 67.5857C534.583 63.4902 537.14 57.5467 537.171 57.4839L537.487 57.3556L537.621 57.6724C537.593 57.7353 534.988 63.7994 529.253 67.9805C525.799 70.5022 522.063 71.7819 518.332 71.7819Z" fill="#000721"/>
<path d="M507.272 57.8207L507.058 57.7076V57.4486C509.261 53.9112 509.193 43.0198 508.557 41.1946L508.703 40.8828L509.014 41.0337C509.643 42.8338 509.723 53.2701 507.715 57.2802C508.944 57.1193 512.263 56.5611 514.065 55.1054L514.412 55.1431L514.372 55.4876C512.024 57.3757 507.483 57.8031 507.29 57.8207H507.272Z" fill="#000721"/>
<path d="M537.012 81.7781L536.786 81.6173C533.676 73.2602 534.078 64.5109 534.271 62.0269L534.284 61.9515L534.543 61.7277L534.769 61.9867L534.762 62.0671C534.563 64.5235 534.166 73.1823 537.241 81.4463L537.097 81.7606L537.012 81.7781Z" fill="#000721"/>
<path d="M535.202 139.295L535.179 139.292L534.961 139.033C535.207 135.762 539.645 111.619 540.816 106.673C541.995 101.733 544.271 95.6488 545.656 94.8217L545.995 94.9071L545.907 95.2415C544.786 95.9052 542.546 101.519 541.294 106.787C540.115 111.722 535.69 135.808 535.441 139.068L535.202 139.295Z" fill="#000721"/>
<path d="M564.052 102.892C560.509 102.892 556.849 102.196 553.9 100.911C546.493 97.6802 542.84 92.1214 542.805 92.0636L542.88 91.7267L543.214 91.7996C543.245 91.8549 546.83 97.298 554.098 100.463C557.96 102.148 563.099 102.799 567.501 102.165C572.698 101.419 576.542 98.9699 578.34 95.2817L578.667 95.166L578.78 95.4954C576.917 99.332 572.929 101.876 567.567 102.648C566.433 102.812 565.244 102.892 564.052 102.892Z" fill="#000721"/>
<path d="M559.808 146.681C557.96 146.681 555.889 146.603 553.593 146.415L553.375 146.148L553.634 145.925C564.615 146.837 570.483 145.143 571.524 144.806C571.411 142.988 570.476 128.348 569.292 120.046C568.025 111.259 563.833 102.844 563.793 102.761L563.899 102.435L564.231 102.54C564.268 102.628 568.495 111.113 569.767 119.976C571.034 128.816 572.017 144.801 572.022 144.962L571.869 145.205C571.821 145.223 567.856 146.681 559.808 146.681Z" fill="#000721"/>
<path d="M532.235 150.357L532.092 150.312C532.057 150.284 528.225 147.554 524.957 146.674C521.744 145.809 519.871 144.499 517.283 142.696L516.826 142.377C513.887 140.333 513.683 135.664 513.676 135.468C513.306 133.384 511.486 122.359 512.879 113.542L513.163 113.341L513.369 113.617C511.978 122.359 513.779 133.308 514.161 135.418C514.166 135.496 514.367 140.071 517.105 141.975L517.56 142.294C520.2 144.139 521.95 145.359 525.082 146.201C528.436 147.111 532.215 149.801 532.376 149.914L532.429 150.256L532.235 150.357Z" fill="#000721"/>
<path d="M512.403 135.325C510.168 135.325 505.751 135.02 501.62 132.934L501.514 132.604L501.844 132.496C507.521 135.37 513.756 134.794 513.821 134.789L514.088 135.005L513.869 135.272C513.849 135.274 513.306 135.325 512.403 135.325Z" fill="#000721"/>
<path d="M528.781 188.431C519.569 188.431 510.07 184.243 503.981 181.56C502.364 180.846 500.956 180.23 499.875 179.825C492.722 177.168 475.528 165.899 474.387 165.148C473.434 165.125 464.529 164.886 463.086 164.368L462.945 164.054L463.254 163.906C464.388 164.318 471.086 164.582 474.467 164.665L474.595 164.7C474.779 164.821 492.735 176.653 500.044 179.368C501.145 179.78 502.55 180.399 504.18 181.113C513.424 185.191 530.639 192.776 542.427 183.587C556.152 172.881 561.618 146.654 561.668 146.39L561.955 146.198L562.148 146.488C562.096 146.752 556.597 173.16 542.724 183.974C538.541 187.235 533.701 188.431 528.781 188.431Z" fill="#000721"/>
<path d="M514.842 162.629C500.697 162.629 483.988 157.417 483.254 157.188L483.093 156.881L483.4 156.723C484.159 156.962 502.254 162.598 516.652 162.108L516.904 162.344L516.667 162.596C516.069 162.616 515.453 162.629 514.842 162.629Z" fill="#000721"/>
<path d="M512.542 162.51L512.383 162.45L512.356 162.106C515.242 158.807 520.057 144.499 520.102 144.356L520.411 144.2L520.567 144.509C520.366 145.102 515.669 159.058 512.728 162.425L512.542 162.51Z" fill="#000721"/>
<path d="M535.202 182.224L535.146 182.221L532.182 181.61L531.999 181.321L532.283 181.133L535.252 181.741L535.44 182.03L535.202 182.224Z" fill="#000721"/>
<path d="M458.022 165.095L457.919 165.067C457.326 164.748 456.617 164.388 455.84 163.999C452.494 162.307 447.903 159.986 446.067 157.485C443.832 154.425 444.323 143.038 444.343 142.555L444.574 142.342L444.793 142.576C444.788 142.691 444.282 154.287 446.432 157.221C448.2 159.634 452.732 161.922 456.046 163.597C456.783 163.974 457.474 164.323 458.045 164.63C458.711 164.426 463.254 162.82 464.826 156.363L465.097 156.2L465.263 156.471C463.506 163.682 458.128 165.075 458.075 165.087L458.022 165.095Z" fill="#000721"/>
<path d="M436.141 134.339L436.099 134.334L435.923 134.07C437.552 125.922 438.334 125.278 439.629 124.202L440.139 123.762L440.456 123.78L440.438 124.097L439.915 124.549C438.698 125.557 437.957 126.168 436.365 134.158L436.141 134.339Z" fill="#000721"/>
<path d="M492.119 202.737L491.993 202.699C487.609 199.67 481.944 194.161 478.216 190.521C476.657 189.007 475.43 187.81 474.867 187.363C472.916 185.796 472.758 184.288 472.75 184.223C473.406 179.531 472.75 174.87 472.742 174.822L472.934 174.568L473.185 174.757C473.195 174.805 473.864 179.526 473.195 184.233C473.202 184.233 473.386 185.595 475.151 187.011C475.727 187.476 476.901 188.615 478.525 190.196C482.256 193.829 487.9 199.323 492.245 202.33L492.303 202.644L492.119 202.737Z" fill="#000721"/>
<path d="M449.959 229.384L449.771 229.284L449.834 228.972C466.684 217.784 469.329 207.579 469.351 207.474L469.492 207.318L469.698 207.34L471.476 208.56L471.538 208.874L471.224 208.932L469.698 207.888C469.115 209.689 465.442 219.147 450.085 229.344L449.959 229.384Z" fill="#000721"/>
<path d="M348.319 277.277L348.261 277.272L348.108 276.998C349.493 271.957 356.349 261.93 357.204 260.698C355.786 257.802 354.944 250.599 354.308 243.906C353.629 236.726 353.976 225.183 354.984 221.455L355.263 221.296L355.419 221.573C354.418 225.264 354.082 236.723 354.758 243.866C355.361 250.214 356.229 257.855 357.664 260.61L357.649 260.844C357.576 260.955 349.971 271.927 348.538 277.113L348.319 277.277Z" fill="#000721"/>
<path d="M362.537 285.692L362.311 285.483C362.218 284.354 362.416 280.925 362.55 278.657C362.59 278.041 362.623 277.526 362.635 277.196L362.821 276.988C362.982 276.957 378.836 273.943 389.082 260.261L389.401 260.216L389.436 260.53C379.671 273.573 364.858 277.02 363.075 277.392C363.06 277.717 363.032 278.164 363 278.68C362.882 280.799 362.668 284.347 362.756 285.45L362.55 285.692H362.537Z" fill="#000721"/>
<path d="M394.338 302.195C388.734 302.195 383.849 296.369 379.444 291.135L378.703 290.252C373.415 283.987 372.535 273.855 372.528 273.752L372.734 273.508L372.98 273.714C372.985 273.815 373.855 283.809 379.047 289.961L379.789 290.843C384.91 296.94 390.715 303.851 397.393 301.124L397.679 301.249L397.561 301.541C396.468 301.988 395.394 302.195 394.338 302.195Z" fill="#000721"/>
<path d="M395.419 247.155L395.367 247.147L395.193 246.881L396.36 241.488L396.606 241.312C396.712 241.322 407.968 242.34 423.251 239.207L423.523 239.383L423.342 239.65C409.099 242.564 398.336 241.898 396.759 241.777L395.638 246.976L395.419 247.155Z" fill="#000721"/>
<path d="M356.035 218.196H356.03C355.957 218.194 348.616 217.892 339.847 214.571C332.146 211.66 327.321 204.751 325.901 194.588C324.706 186.113 328.872 176.454 330.446 172.818L330.743 172.695L330.869 172.979L330.856 172.997C329.3 176.602 325.164 186.176 326.338 194.526C327.321 201.495 330.481 210.551 340.005 214.149C348.709 217.447 355.978 217.744 356.053 217.749L356.264 217.98L356.035 218.196Z" fill="#000721"/>
<path d="M431.357 162.945H431.332L431.133 162.696C431.915 155.732 433.421 147.006 433.863 144.496L434.125 144.318L434.303 144.579C433.863 147.083 432.36 155.798 431.583 162.747L431.357 162.945Z" fill="#000721"/>
<path d="M464.627 300.261L464.408 300.13C460.338 292.226 464.805 281.209 468.401 272.354L468.931 271.047C472.712 261.701 484.102 236.94 487.176 230.785L487.503 230.674L487.616 231.001C484.542 237.156 473.16 261.893 469.381 271.233L468.851 272.543C465.296 281.299 460.866 292.201 464.848 299.909L464.74 300.236L464.627 300.261Z" fill="#000721"/>
<path d="M484.627 301.636L484.381 301.42C484.227 299.821 484.222 298.939 484.222 298.901L484.24 298.808C484.303 298.657 490.427 283.814 497.796 271.982C505.15 260.168 526.395 224.293 526.606 223.934L526.938 223.848L527.031 224.183C526.812 224.542 505.568 260.422 498.206 272.238C491.071 283.705 485.09 298.019 484.713 298.944C484.713 299.152 484.74 300.002 484.871 301.37L484.652 301.636H484.627Z" fill="#000721"/>
<path d="M535.682 283.208L535.476 283.092L535.559 282.76C542.055 278.783 554.279 269.528 554.405 269.435C561.558 261.342 576.21 244.912 576.359 244.751L576.703 244.728L576.723 245.075C576.577 245.239 561.925 261.669 554.729 269.79C554.576 269.918 542.337 279.188 535.818 283.172L535.682 283.208Z" fill="#000721"/>
<path d="M539.179 307.638L538.945 307.464L539.104 307.16C570.103 297.609 581.113 286.833 582.239 285.669C581.425 283.273 577.658 268.947 577.143 266.966L575.443 267.152C569.985 267.753 555.476 269.355 554.702 269.817L554.37 269.82L554.362 269.463C554.661 269.128 558.196 268.563 575.388 266.667L577.291 266.461L577.558 266.637C577.598 266.808 582.033 283.68 582.75 285.644L582.704 285.888C582.601 286.003 572.062 297.518 539.245 307.628L539.179 307.638Z" fill="#000721"/>
<path d="M586.77 212.824C585 217.679 579.35 229.593 579.081 230.141L578.92 230.27L578.858 230.28L578.719 230.229C574.682 227.351 573.143 221.427 572.565 216.97C572.047 213.005 572.188 209.467 572.253 208.323L572.738 208.482C572.597 211.232 572.266 224.686 578.765 229.661C579.635 227.831 584.668 217.176 586.305 212.686L586.77 212.824Z" fill="#000721"/>
<path d="M517.256 293.699L517.044 293.579L517.105 293.267C517.263 293.131 533.522 279.912 550.279 263.761C567.013 247.622 578.546 230.076 578.659 229.9L578.998 229.83L579.064 230.169C578.951 230.342 567.396 247.936 550.619 264.115C536.489 277.732 522.714 289.267 518.628 292.646C523.833 290.577 541.925 283.487 556.039 279.072C572.628 273.888 578.737 272.309 578.797 272.294L579.096 272.47L578.925 272.766C578.865 272.781 572.756 274.358 556.187 279.54C539.617 284.719 517.567 293.591 517.346 293.679L517.256 293.699Z" fill="#000721"/>
<path d="M528.024 188.519L527.954 188.575C520.751 194.013 511.607 195.112 508.054 195.338L508.391 194.82C512.087 194.558 520.653 193.387 527.496 188.306L527.735 188.13L528.079 188.175L528.024 188.519Z" fill="#000721"/>
<path d="M546.008 198.606L535.373 209.347L535.202 209.417H535.167L534.996 209.301L532.922 205.892L532.927 205.623C536.595 200.527 539.009 197.251 540.115 195.798L540.545 196.019C539.22 197.767 535.823 202.43 533.414 205.777L535.252 208.784L545.53 198.393L546.008 198.606Z" fill="#000721"/>
<path d="M596.582 177.967H596.562L596.336 177.701C598.299 155.217 590.868 130.475 590.792 130.228L590.953 129.919L591.26 130.085C591.33 130.332 598.797 155.161 596.829 177.744L596.582 177.967Z" fill="#000721"/>
<path d="M519.83 38.9922C517.708 38.9821 518.608 36.4579 522.025 36.4881C525.437 36.5183 530.563 37.3354 531.136 41.1141C531.136 41.1141 526.824 39.0224 519.83 38.9922Z" fill="#D39235"/>
<path d="M507.634 39.3667C508.929 39.0902 508.617 36.3598 505.115 35.6257C501.615 34.8966 499.953 36.488 499.953 36.488C499.953 36.488 502.792 36.8451 504.73 37.8206C506.661 38.7986 506.495 39.6106 507.634 39.3667Z" fill="#D39235"/>
<path d="M521.135 45.9563C521.552 47.6081 521.359 49.0789 520.69 49.2499C520.029 49.4208 519.154 48.2216 518.727 46.5748C518.312 44.9255 518.508 43.4522 519.172 43.2838C519.838 43.1153 520.718 44.3146 521.135 45.9563Z" fill="#000721"/>
<path d="M505.932 44.7068C506.354 46.3561 506.155 47.8319 505.494 48.0029C504.823 48.1713 503.94 46.9721 503.521 45.3253C503.106 43.676 503.299 42.2002 503.966 42.0343C504.632 41.8658 505.504 43.06 505.932 44.7068Z" fill="#000721"/>
<path d="M466.88 127.146C466.417 127.931 464.421 127.611 462.435 126.432C460.438 125.255 459.196 123.661 459.662 122.88C460.124 122.093 462.115 122.412 464.112 123.589C466.105 124.77 467.347 126.362 466.88 127.146Z" fill="#000721"/>
</svg>
