<svg width="571" height="507" viewBox="0 0 571 507" fill="none" xmlns="http://www.w3.org/2000/svg">
<path d="M84.2151 486.575H486.452C538.083 435.04 570.028 363.791 570.028 285.079C570.028 127.845 442.565 0.382752 285.333 0.382752C128.101 0.382752 0.63855 127.845 0.63855 285.079C0.63855 363.791 32.5844 435.04 84.2151 486.575" fill="#FDE3DC"/>
<path d="M554.295 490.504C554.295 499.586 433.877 506.949 285.333 506.949C136.789 506.949 16.3719 499.586 16.3719 490.504C16.3719 481.421 136.789 474.059 285.333 474.059C433.877 474.059 554.295 481.421 554.295 490.504Z" fill="#4D1D3D"/>
<path d="M499.601 436.085C499.601 463.969 476.997 486.575 449.112 486.575C421.227 486.575 398.621 463.969 398.621 436.085C398.621 408.2 421.227 385.595 449.112 385.595C476.997 385.595 499.601 408.2 499.601 436.085Z" fill="#6A78BE"/>
<path d="M449.112 385.595C430.268 385.595 413.848 395.925 405.172 411.224C405.263 412.988 405.507 414.719 405.96 416.381C410.26 430.569 424.019 426.271 431.759 418.101C440.357 409.072 447.667 404.343 455.407 417.241C457.556 421.111 460.136 428.851 465.725 428.42C471.315 427.991 473.465 421.111 473.465 416.811C473.869 407.124 469.348 401.225 475.551 393.069C467.86 388.332 458.807 385.595 449.112 385.595" fill="#A5AADD"/>
<path d="M472.605 446.908C477.335 455.079 476.905 451.639 471.745 457.228C467.876 461.957 467.445 465.397 470.025 470.557C471.657 473.821 473.857 476.484 476.396 478.557C489.921 469.851 499.013 454.869 499.56 437.723C484.907 436.439 463.243 431.735 472.605 446.908Z" fill="#A5AADD"/>
<path d="M450.677 457.657C448.671 456.32 446.085 456.601 443.523 456.881C441.143 457.143 438.781 457.403 436.917 456.368C431.759 453.788 433.479 449.059 433.479 443.899C433.048 426.7 420.149 442.179 415.42 449.059C412.928 452.38 407.933 455.693 403.044 456.741C407.644 466.984 415.549 475.414 425.412 480.668C429.485 479.562 433.375 478.714 436.059 477.867C442.937 475.716 466.156 467.117 450.677 457.657" fill="#A5AADD"/>
<path d="M436.105 455.909C431.948 453.251 433.479 448.767 433.479 443.899C433.335 438.167 431.805 436.064 429.656 436.064C425.356 436.064 418.573 444.472 415.42 449.059C414.885 449.771 414.236 450.484 413.496 451.173C404.755 442.835 403.177 430.264 406.927 418.945C408.679 422.725 411.297 424.713 414.269 425.387C414.748 425.995 415.303 426.564 415.935 427.085C417.463 428.345 419.364 428.907 421.415 428.907C428.873 428.908 438.34 421.503 439.292 413.444C439.375 412.748 439.392 412.063 439.351 411.395C441.383 410.084 443.365 409.317 445.327 409.317C448.701 409.317 452.012 411.584 455.407 417.241C457.499 421.007 459.997 428.437 465.283 428.437C465.428 428.437 465.576 428.432 465.725 428.42C467.455 428.287 468.855 427.537 469.964 426.437C464.82 440.412 450.109 452.435 436.105 455.909" fill="#8D89C3"/>
<path d="M465.283 428.437C459.997 428.437 457.499 421.007 455.407 417.241C452.012 411.584 448.701 409.317 445.327 409.317C443.365 409.317 441.383 410.084 439.351 411.395C439.017 406.021 434.801 401.764 428.665 401.764C425.927 401.764 422.807 402.612 419.477 404.587C412.225 408.891 409.365 419.171 414.269 425.387C411.297 424.713 408.679 422.725 406.927 418.945C409.741 410.451 415.555 402.66 423.589 397.892C431.668 393.099 439.243 391.04 445.888 391.04C462.633 391.04 473.487 404.107 471.681 419.391C471.4 421.773 470.812 424.132 469.964 426.437C468.855 427.537 467.455 428.287 465.725 428.42C465.576 428.432 465.428 428.437 465.283 428.437" fill="#BDB5E1"/>
<path d="M428.292 456.92C423.313 456.919 418.7 455.559 414.989 452.499C414.471 452.069 413.972 451.628 413.496 451.173C414.236 450.484 414.885 449.771 415.42 449.059C418.573 444.472 425.356 436.064 429.656 436.064C431.805 436.064 433.335 438.167 433.479 443.899C433.479 448.767 431.948 453.251 436.105 455.909C433.452 456.568 430.824 456.92 428.292 456.92Z" fill="#BDB5E1"/>
<path d="M421.415 428.907C419.364 428.907 417.463 428.345 415.935 427.085C415.303 426.564 414.748 425.995 414.269 425.387C415.068 425.567 415.892 425.653 416.733 425.653C421.901 425.653 427.669 422.417 431.759 418.101C434.393 415.333 436.908 412.971 439.351 411.395C439.392 412.063 439.375 412.748 439.292 413.444C438.34 421.503 428.873 428.908 421.415 428.907" fill="#BEA1CB"/>
<path d="M416.733 425.653C415.892 425.653 415.068 425.567 414.269 425.387C409.365 419.171 412.225 408.891 419.477 404.587C422.807 402.612 425.927 401.764 428.665 401.764C434.801 401.764 439.017 406.021 439.351 411.395C436.908 412.971 434.393 415.333 431.759 418.101C427.669 422.417 421.901 425.653 416.733 425.653" fill="#DAC7E8"/>
<path d="M466.393 395.493C490.925 406.301 500.443 436.249 486.648 459.264C486.205 460.004 487.359 460.673 487.8 459.937C501.933 436.356 492.259 405.441 467.067 394.341C466.287 393.999 465.608 395.147 466.393 395.493" fill="#311A2B"/>
<path d="M426.357 473.879C413.749 466.112 405.883 452.865 405.032 438.072C404.983 437.217 403.649 437.212 403.699 438.072C404.577 453.343 412.663 467.008 425.684 475.031C426.419 475.483 427.087 474.329 426.357 473.879Z" fill="#311A2B"/>
<path d="M301.373 338.809C326.996 401.519 283.168 447.371 283.168 447.371C283.168 447.371 310.139 437.257 320.253 448.045C330.368 458.833 321.603 486.48 309.879 486.48C298.155 486.48 237.989 486.48 237.989 486.48C192.812 467.6 155.727 415.005 155.727 415.005L301.373 338.809Z" fill="#A33350"/>
<path d="M295.215 454.24C302.084 454.305 311.293 459.415 310.92 467.047C310.604 473.521 307.632 480.328 304.925 486.144C304.564 486.917 305.713 487.596 306.076 486.816C309.099 480.324 312.523 472.6 312.269 465.32C312.011 457.867 301.735 452.969 295.215 452.907C294.355 452.899 294.356 454.232 295.215 454.24Z" fill="#311A2B"/>
<path d="M128.749 366.935C128.749 366.935 112.004 360.693 83.1719 311.039C53.0745 259.207 62.5594 191.863 90.1214 157.112C123.159 115.456 157.188 113.773 161.427 115.613C167.876 118.415 122.193 127.532 100.371 174.107C76.9828 224.023 98.2213 292.981 146.807 325.228L128.749 366.935" fill="#E05F5C"/>
<path d="M125.951 384.925C125.951 384.925 108.149 383.373 67.1235 343.203C24.2973 301.268 15.4864 233.833 32.7869 192.992C52.9541 145.384 84.1016 133.961 90.0093 133.961C90.1773 133.961 90.324 133.971 90.4493 133.988C97.412 134.968 55.8131 155.933 47.1964 206.64C41.2645 241.548 55.1724 279.119 80.5693 306.333C81.4021 307.916 82.2683 309.483 83.1719 311.039C109.887 357.047 126.225 365.784 128.48 366.82L125.951 384.925Z" fill="#FBC7BF"/>
<path d="M128.48 366.82C126.225 365.784 109.887 357.047 83.1719 311.039C82.2683 309.483 81.4021 307.916 80.5693 306.333C88.7307 315.079 98.0813 322.757 108.339 328.932C116.361 344.257 123.351 355.056 129.065 362.632L128.48 366.82Z" fill="#E05F5C"/>
<path d="M146.076 379.729C146.076 379.729 140.227 377.097 130.052 363.925L146.807 325.228C116.296 304.977 96.5694 270.251 91.908 234.852C95.984 208.071 106.757 183.905 121.341 167.819C149.988 136.217 177.58 130.328 189.492 130.328C192.429 130.328 194.411 130.685 195.223 131.103C201.475 134.323 155.291 140.413 130.451 185.451C103.828 233.72 120.483 303.925 166.84 339.301L146.076 379.729" fill="#F9ACA5"/>
<path d="M130.052 363.925C129.728 363.505 129.399 363.073 129.065 362.632L132.237 339.915C123.855 337.172 115.855 333.456 108.339 328.932C107.013 326.4 105.657 323.74 104.277 320.955C90.6893 293.544 87.6573 262.776 91.908 234.852C96.5693 270.251 116.296 304.977 146.807 325.228L130.052 363.925" fill="#E05F5C"/>
<path d="M129.065 362.632C123.351 355.056 116.361 344.257 108.339 328.932C115.855 333.456 123.855 337.172 132.237 339.915L129.065 362.632" fill="#E05F5C"/>
<path d="M96.9973 126.903C86.4107 134.108 77.2797 144.061 69.6005 154.193C52.8369 176.313 43.8677 203.384 45.5183 231.199C45.5417 231.536 45.5645 231.875 45.5875 232.213C45.6459 233.067 46.9797 233.072 46.9208 232.213C45.0219 204.393 53.8213 177.672 70.3448 155.409C77.8912 145.241 87.1267 135.229 97.6693 128.055C98.376 127.573 97.7093 126.417 96.9973 126.903Z" fill="#311A2B"/>
<path d="M80.9969 129.752C74.0479 134.465 68.0052 140.844 62.6959 147.276C50.6823 161.829 42.6803 179.38 39.8016 198.039C39.6719 198.88 40.9568 199.241 41.0875 198.393C43.9771 179.66 52.036 162.275 64.0817 147.681C69.1609 141.528 75.0251 135.409 81.6697 130.903C82.3771 130.424 81.7104 129.268 80.9969 129.752" fill="#311A2B"/>
<path d="M146.64 134.723C139.101 141.107 132.705 149.14 127.091 157.205C114.764 174.912 106.825 195.605 105.556 217.223C105.505 218.081 106.839 218.076 106.889 217.223C108.149 195.759 116.116 175.493 128.243 157.879C133.737 149.895 140.147 141.963 147.583 135.665C148.24 135.109 147.292 134.171 146.64 134.723Z" fill="#311A2B"/>
<path d="M406.707 262.867C406.707 262.867 437.804 299.688 467.483 310.576C497.161 321.464 507.907 331.425 512.548 337.088C523.96 351.015 528.488 389.828 522.843 400.676C517.197 411.525 479.288 421.391 472.031 407.359C464.775 393.327 468.781 367.549 466.936 363.368C465.091 359.187 383.409 366.075 362.012 347.669C340.615 329.264 406.707 262.867 406.707 262.867Z" fill="#A33350"/>
<path d="M467.603 363.368C467.989 352.671 469.972 339.88 462.331 331.12C461.764 330.471 460.825 331.417 461.388 332.063C468.72 340.468 466.64 353.119 466.269 363.368C466.239 364.228 467.572 364.225 467.603 363.368Z" fill="#311A2B"/>
<path d="M492.072 375.493C492.512 380.496 492.443 385.573 492.093 390.577C491.552 398.332 490.231 408.451 483.649 413.573C482.971 414.101 483.921 415.039 484.592 414.517C490.972 409.551 492.464 400.227 493.245 392.695C493.833 387.02 493.905 381.181 493.405 375.493C493.331 374.644 491.997 374.636 492.072 375.493" fill="#311A2B"/>
<path d="M512.177 373.843C515.807 384.545 517.939 399.851 510.117 409.145C509.567 409.799 510.505 410.747 511.06 410.088C519.232 400.377 517.267 384.703 513.464 373.488C513.189 372.679 511.901 373.025 512.177 373.843Z" fill="#311A2B"/>
<path d="M397.929 191.571L285.851 213.148C285.851 213.148 272.725 245.437 222.157 260.349C139.928 284.596 83.9276 348.681 90.6707 423.528C90.6707 423.528 98.6507 467.117 172.935 495.003C172.935 495.003 233.099 495.003 244.823 495.003C256.547 495.003 265.312 467.356 255.197 456.568C245.084 445.78 218.112 455.893 218.112 455.893C218.112 455.893 222.617 451.176 227.893 442.708C243.94 437.465 268.477 431.464 301.407 429.065C345.667 425.84 385.416 407.14 403.621 332.968C421.828 258.795 397.929 191.571 397.929 191.571" fill="#E05F5C"/>
<path d="M219.256 463.484C223.293 464.005 228.197 465.917 231.824 468.397C240.953 474.64 240.597 485.463 236.887 494.825C236.571 495.625 237.86 495.969 238.173 495.18C242.001 485.519 242.217 474.792 233.412 467.92C229.448 464.827 224.247 462.795 219.256 462.151C218.405 462.041 218.416 463.376 219.256 463.484" fill="#311A2B"/>
<path d="M238.428 458.302C241.843 458.788 245.185 460.292 248.024 462.197C255.577 467.268 257.16 476.241 255.663 484.703C255.513 485.544 256.799 485.904 256.948 485.057C258.467 476.479 257.083 467.793 250.051 462.052C246.935 459.508 242.793 457.586 238.783 457.015C237.941 456.895 237.58 458.18 238.428 458.302" fill="#311A2B"/>
<path d="M275.813 348.091C275.813 348.091 290.003 428.495 351.488 492.129C351.488 492.129 398.784 492.129 416.843 492.129C434.901 492.129 429.24 467.205 421.324 458.771C413.407 450.336 395.773 453.961 395.773 453.961C395.773 453.961 376.872 418.236 375.497 357.551L275.813 348.091" fill="#E05F5C"/>
<path d="M393.017 465.316C405.972 467.068 411.161 480.592 410.657 492.129C410.62 492.989 411.953 492.986 411.991 492.129C412.519 480.061 406.915 465.861 393.371 464.031C392.531 463.916 392.168 465.202 393.017 465.316Z" fill="#311A2B"/>
<path d="M402.739 458.829C416.277 460.451 425.807 472.257 427.052 485.496C427.132 486.344 428.465 486.352 428.385 485.496C427.071 471.51 417.188 459.225 402.739 457.496C401.885 457.393 401.896 458.728 402.739 458.829Z" fill="#311A2B"/>
<path d="M374.979 354.493C375.063 388.923 382.284 422.295 395.131 454.139C395.448 454.925 396.739 454.581 396.417 453.784C383.613 422.047 376.396 388.813 376.312 354.493C376.311 353.633 374.977 353.633 374.979 354.493" fill="#311A2B"/>
<path d="M408.203 244.637C410.465 259.372 410.384 274.704 409.547 289.535C407.755 321.297 400.121 353.219 383.959 380.831C382.001 384.176 379.884 387.425 377.676 390.609C377.185 391.319 378.341 391.984 378.828 391.283C397.145 364.861 406.473 333.468 409.884 301.739C411.869 283.275 412.079 264.277 409.701 245.827C409.635 245.312 409.568 244.796 409.488 244.284C409.359 243.436 408.073 243.797 408.203 244.637" fill="#311A2B"/>
<path d="M280.611 369.768C287.472 391.277 295.467 413.433 307.184 432.803C307.628 433.537 308.781 432.867 308.336 432.129C296.672 412.849 288.728 390.828 281.896 369.413C281.636 368.597 280.349 368.947 280.611 369.768Z" fill="#311A2B"/>
<path d="M280.611 351.844C283.932 366.479 288.372 380.987 293.864 394.947C294.175 395.737 295.465 395.393 295.149 394.592C289.659 380.632 285.217 366.124 281.896 351.489C281.707 350.651 280.421 351.007 280.611 351.844Z" fill="#311A2B"/>
<path d="M187.009 364.571C197.973 361.345 209.583 354.896 215.387 344.576C220.547 335.548 219.256 320.069 207.003 318.133C214.097 304.589 235.38 282.017 219.901 265.893C218.381 264.373 216.819 263.283 215.224 262.513C150.141 283.869 102.796 330.589 92.3147 387.433C94.4627 392.104 97.2014 396.432 100.585 400.043C108.971 409.072 127.029 422.616 137.348 407.137C158.631 441.964 199.263 392.303 187.009 364.571" fill="#FAB9AA"/>
<path d="M253.333 348.091C253.333 348.091 252.583 335.333 242.292 333.333C232 331.333 224.667 347.653 224 354.493C224 354.493 211.667 353.333 206.667 365C201.667 376.667 214 375.493 214 375.493C214 375.493 206.333 387.333 214.667 393.333C223 399.333 229.404 388.333 229.404 388.333C229.404 388.333 231.249 395.615 242.292 391.641C253.333 387.667 253.333 371.667 253.333 371.667C253.333 371.667 262.667 366.333 262.333 357C262 347.667 258.333 345.848 253.333 348.091Z" fill="#FAB9AA"/>
<path d="M250.704 288.031C250.271 287.788 249.791 287.581 249.26 287.42C241.887 285.169 234.439 290.495 229.319 295.201C223.801 300.273 219.147 307.276 220.332 315.015C221.927 325.427 235.397 323.947 241.915 320.324C249.999 315.833 256.868 307.864 258.076 298.603C258.835 292.777 255.265 289.341 250.704 288.031Z" fill="#FAB9AA"/>
<path d="M254.761 268.228C253.903 264.697 249.984 262.631 246.561 263.572C244.761 264.067 243.38 265.245 242.557 266.743C242.224 267.136 241.932 267.569 241.695 268.049C241.281 268.553 240.884 269.068 240.577 269.635C239.431 271.749 239.341 274.256 240.577 276.365C242.061 278.899 245.249 280.285 248.105 279.428C250.561 278.692 252.716 277.407 254.064 275.163C255.34 273.041 255.328 270.555 254.761 268.228Z" fill="#FAB9AA"/>
<path d="M202.381 398.952C200.317 396.889 196.928 396.447 194.413 397.849C193.052 398.285 192.624 398.672 191.457 399.601C190.321 400.508 189.601 402.213 189.239 403.561C188.145 407.615 191.289 412.177 195.667 412C196.489 411.967 197.344 411.917 198.123 411.641C199.743 411.067 200.068 410.788 201.412 409.707C202.168 409.097 202.591 408.199 203.127 407.412C204.844 404.791 204.72 401.292 202.381 398.952Z" fill="#FAB9AA"/>
<path d="M228.468 443.044C233.501 436.361 236.645 428.272 239.269 420.399C242.769 409.895 245.117 398.963 246.565 387.995C249.345 366.935 249.924 342.731 239.808 323.373C236.129 316.335 230.541 310.377 223.3 306.992C212.847 302.104 200.173 302.985 189.16 305.103C170.877 308.616 152.497 316.908 137.012 327.232C136.3 327.707 136.967 328.863 137.684 328.384C143.66 324.4 150.083 321.012 156.536 317.885C169.875 311.424 184.292 306.295 199.141 305.04C210.869 304.048 222.999 305.944 231.667 314.425C238.851 321.456 242.479 331.433 244.549 341.057C248.563 359.717 247.072 379.667 243.56 398.276C240.745 413.185 236.617 430.023 227.317 442.371C226.8 443.059 227.959 443.721 228.468 443.044" fill="#311A2B"/>
<path d="M156.063 308.909C180.444 293.787 215.024 289.211 238.133 308.805C238.785 309.357 239.733 308.419 239.076 307.861C215.491 287.864 180.328 292.291 155.389 307.757C154.661 308.209 155.329 309.364 156.063 308.909" fill="#311A2B"/>
<path d="M475.732 234.769C475.732 234.769 491.64 229.017 507.119 234.769C522.597 240.523 517.008 256.861 507.119 256.861C497.229 256.861 491.64 237.187 475.732 234.769" fill="#A5AADD"/>
<path d="M472.26 242.264C472.26 242.264 483.797 244.691 490.861 253.777C497.924 262.864 488.619 270.497 482.757 266.869C476.897 263.243 480.801 249.532 472.26 242.264Z" fill="#A5AADD"/>
<path d="M495.333 236.111C503.461 236.239 513.501 239.961 512.579 249.667C512.497 250.523 513.832 250.515 513.912 249.667C514.907 239.204 504.183 234.917 495.333 234.777C494.473 234.764 494.475 236.097 495.333 236.111Z" fill="#6A78BE"/>
<path d="M483.784 251.216C487.836 253.149 489.865 257.593 489.711 261.915C489.679 262.775 491.012 262.772 491.044 261.915C491.215 257.163 488.915 252.192 484.456 250.065C483.685 249.697 483.008 250.847 483.784 251.216Z" fill="#6A78BE"/>
<path d="M380.42 248.149C379.147 247.433 377.888 246.136 376.987 244.425C376.643 243.775 375.836 243.525 375.185 243.869C374.533 244.213 374.284 245.02 374.628 245.671C375.747 247.783 377.313 249.455 379.109 250.472C379.751 250.833 380.564 250.607 380.927 249.965C381.288 249.324 381.061 248.511 380.42 248.149" fill="white"/>
<path d="M273.404 225.797C274.52 227.999 291.405 250.559 333.931 252.572C385.381 255.008 404.672 225.309 406.072 215.248C407.473 205.188 405.091 193.052 401.321 190.964C397.552 188.877 381.729 213.22 348.055 215.655C314.381 218.088 290.849 205.189 285.169 206.771C279.489 208.352 272.1 223.225 273.404 225.797" fill="#6A78BE"/>
<path d="M293.528 205.528C284.719 214.943 280.288 227.683 276.691 239.823C276.445 240.649 277.732 241 277.976 240.177C281.508 228.259 285.819 215.717 294.472 206.472C295.059 205.844 294.117 204.9 293.528 205.528" fill="#A5AADD"/>
<path d="M303.424 206.997C299.312 213.685 296.623 221.127 293.341 228.233C290.465 234.461 286.209 239.911 285.024 246.823C284.88 247.664 286.164 248.024 286.309 247.177C287.523 240.105 291.961 234.388 294.909 228.003C298.055 221.189 300.632 214.085 304.576 207.669C305.027 206.935 303.873 206.265 303.424 206.997Z" fill="#A5AADD"/>
<path d="M317.091 208.997C307.947 222.781 303.347 239.532 299.691 255.489C299.499 256.327 300.784 256.681 300.976 255.844C304.609 239.985 309.159 223.363 318.243 209.669C318.719 208.951 317.564 208.284 317.091 208.997Z" fill="#A5AADD"/>
<path d="M331.024 211.156C328.229 227.924 323.437 244.26 319.691 260.823C319.501 261.66 320.787 262.016 320.976 261.177C324.724 244.615 329.516 228.279 332.309 211.511C332.449 210.669 331.165 210.309 331.024 211.156Z" fill="#A5AADD"/>
<path d="M341 213.333C342.644 227.251 342.632 241.356 340.024 255.156C339.865 255.996 341.149 256.355 341.309 255.511C343.94 241.591 343.992 227.375 342.333 213.333C342.233 212.491 340.899 212.48 341 213.333" fill="#A5AADD"/>
<path d="M354.691 209.177C358.252 224.328 359.631 239.792 359.667 255.333C359.668 256.193 361.001 256.193 361 255.333C360.964 239.673 359.564 224.087 355.976 208.823C355.78 207.985 354.493 208.341 354.691 209.177" fill="#A5AADD"/>
<path d="M367.424 206.669C373.752 218.84 377.229 232.665 378 246.333C378.048 247.188 379.381 247.193 379.333 246.333C378.549 232.413 375.02 218.391 368.576 205.997C368.179 205.233 367.028 205.908 367.424 206.669" fill="#A5AADD"/>
<path d="M379.528 197.805C388.815 207.104 390.259 222.193 392.357 234.511C392.501 235.357 393.787 234.997 393.643 234.156C391.5 221.58 389.96 206.364 380.472 196.861C379.863 196.253 378.92 197.196 379.528 197.805" fill="#A5AADD"/>
<path d="M386.664 190.909C398.821 199.591 401.499 216.96 404.691 230.511C404.888 231.347 406.173 230.992 405.976 230.156C402.689 216.201 399.853 198.696 387.336 189.757C386.635 189.257 385.971 190.413 386.664 190.909" fill="#A5AADD"/>
<path d="M416.943 268.009C416.943 281.016 406.399 291.559 393.393 291.559C380.388 291.559 369.844 281.016 369.844 268.009C369.844 255.004 380.388 244.46 393.393 244.46C406.399 244.46 416.943 255.004 416.943 268.009Z" fill="#F8A53B"/>
<path d="M410.215 268.009C410.215 277.3 402.684 284.831 393.393 284.831C384.104 284.831 376.572 277.3 376.572 268.009C376.572 258.72 384.104 251.189 393.393 251.189C402.684 251.189 410.215 258.72 410.215 268.009Z" fill="#F46D42"/>
<path d="M398.843 229.391L364.48 300.279L368.079 302.023L402.441 231.135" fill="#FBC998"/>
<path d="M404.655 233.776L370.292 304.664L378.691 308.735L413.053 237.847" fill="#FBC998"/>
<path d="M378.493 233.873C378.883 233.728 379.283 233.659 379.703 233.657C380.793 233.653 382.055 234.155 383.224 235.157C384.391 236.155 385.441 237.631 386.111 239.429C386.596 240.729 386.821 242.032 386.821 243.229C386.823 244.603 386.523 245.829 386.017 246.753C385.508 247.683 384.831 248.301 383.993 248.616C383.303 248.873 382.952 249.641 383.209 250.332C383.467 251.021 384.235 251.372 384.925 251.115C386.44 250.552 387.609 249.416 388.36 248.028C389.116 246.635 389.487 244.983 389.488 243.229C389.488 241.7 389.203 240.088 388.609 238.496C387.787 236.297 386.501 234.455 384.957 233.132C383.416 231.815 381.595 230.995 379.703 230.991C378.981 230.991 378.256 231.115 377.561 231.375C376.871 231.632 376.52 232.4 376.777 233.089C377.035 233.78 377.803 234.131 378.493 233.873Z" fill="white"/>
<path d="M335.603 44.164C333.128 45.908 334.783 55.3094 322.884 62.9734C322.884 62.9734 370.42 78.764 388.541 76.9067C388.541 76.9067 376.241 17.4574 369.739 13.5094C363.237 9.56135 349.768 34.1774 335.603 44.164" fill="#A33350"/>
<path d="M226.237 106.203C230.693 117.301 248.287 148.199 251.539 150.289C254.789 152.379 297.559 79.1387 296.093 77.1614C294.628 75.1841 274.064 54.8454 270.812 55.7747C267.561 56.7041 256.415 66.9214 248.055 70.1721C239.695 73.4241 223.671 80.1574 223.207 83.4094C222.743 86.6601 222.324 96.4561 226.237 106.203" fill="#A33350"/>
<path d="M300.421 67.6174C268.375 82.2481 243.991 112.204 250.261 162.713C250.261 162.713 234.935 173.511 239.113 191.973C241.433 202.216 267.677 231.683 312.264 230.289C356.851 228.896 401.785 218.447 424.428 190.58C447.069 162.713 446.024 121.261 442.541 116.384C439.057 111.508 428.608 111.16 428.608 111.16C428.608 111.16 415.371 77.7201 380.885 65.5281C346.401 53.3361 316.963 60.0667 300.421 67.6174Z" fill="#E05F5C"/>
<path d="M303.208 159.569C292.325 159.035 280.88 164.124 275.461 173.771C275.04 174.521 276.192 175.193 276.613 174.443C281.809 165.193 292.787 160.391 303.208 160.903C304.067 160.945 304.063 159.612 303.208 159.569Z" fill="#311A2B"/>
<path d="M352.792 123.823C360.719 116.693 370.699 110.911 381.004 108.203C381.835 107.985 381.483 106.699 380.649 106.917C370.101 109.689 359.955 115.589 351.849 122.88C351.209 123.456 352.155 124.396 352.792 123.823" fill="#311A2B"/>
<path d="M351.633 115.927C356.104 110.347 362.992 106.567 369.916 105.184C370.759 105.016 370.401 103.731 369.561 103.899C362.436 105.32 355.289 109.243 350.691 114.984C350.159 115.648 351.095 116.599 351.633 115.927Z" fill="#311A2B"/>
<path d="M298.797 156.473C286.877 154.892 273.308 158.869 266.503 169.229C266.029 169.951 267.184 170.617 267.653 169.903C274.205 159.929 287.369 156.291 298.797 157.807C299.648 157.92 299.637 156.585 298.797 156.473" fill="#311A2B"/>
<path d="M340.869 149.857C342.741 156.161 339.668 162.635 334.005 164.316C328.341 165.997 322.233 162.251 320.363 155.947C318.491 149.643 321.564 143.169 327.227 141.488C332.891 139.807 338.999 143.555 340.869 149.857Z" fill="#311A2B"/>
<path d="M327.227 141.488C321.564 143.169 318.491 149.643 320.363 155.947C320.719 157.145 321.228 158.249 321.859 159.244L338.057 144.832C335.263 141.759 331.14 140.327 327.227 141.488" fill="#4D1D3D"/>
<path d="M328.825 152.903C328.825 154.707 327.363 156.169 325.557 156.169C323.753 156.169 322.291 154.707 322.291 152.903C322.291 151.097 323.753 149.635 325.557 149.635C327.363 149.635 328.825 151.097 328.825 152.903Z" fill="#FAC1B2"/>
<path d="M402.209 117.827C404.453 124.473 409.713 128.661 413.956 127.181C418.199 125.701 419.819 119.112 417.575 112.465C415.329 105.82 410.071 101.631 405.828 103.112C401.585 104.592 399.965 111.18 402.209 117.827Z" fill="#311A2B"/>
<path d="M417.275 111.664C414.891 105.491 409.896 101.692 405.828 103.112C402.703 104.201 401.008 108.064 401.224 112.679L417.275 111.664Z" fill="#4D1D3D"/>
<path d="M407.407 113.427C407.755 115.361 407.145 117.091 406.047 117.288C404.947 117.487 403.773 116.077 403.425 114.143C403.076 112.208 403.685 110.479 404.785 110.28C405.884 110.083 407.059 111.491 407.407 113.427Z" fill="#FAC1B2"/>
<path d="M462.975 196.157C449.501 176.823 432.905 169.284 418.848 167.453C415.487 167.891 411.588 168.712 407.037 170.473C394.463 175.341 384.168 182.201 375.645 188.448C379.739 189.999 398.296 197.777 411.003 215.664C425.355 235.867 423.264 248.407 446.952 247.363C470.639 246.317 477.153 216.504 462.975 196.157" fill="#EE265D"/>
<path d="M399.735 174.187C418.741 179.149 436.695 193.496 443.636 212.005C443.935 212.803 445.224 212.457 444.921 211.651C437.812 192.691 419.573 177.988 400.089 172.9C399.256 172.683 398.903 173.969 399.735 174.187Z" fill="#B81E56"/>
<path d="M433.976 155.021C433.976 156.192 433.028 157.14 431.857 157.14C430.687 157.14 429.737 156.192 429.737 155.021C429.737 153.851 430.687 152.903 431.857 152.903C433.028 152.903 433.976 153.851 433.976 155.021Z" fill="#C54556"/>
<path d="M426.333 142.672C426.333 143.843 425.385 144.792 424.215 144.792C423.044 144.792 422.096 143.843 422.096 142.672C422.096 141.501 423.044 140.553 424.215 140.553C425.385 140.553 426.333 141.501 426.333 142.672Z" fill="#C54556"/>
<path d="M439.399 135.195C439.399 136.365 438.451 137.313 437.28 137.313C436.109 137.313 435.161 136.365 435.161 135.195C435.161 134.024 436.109 133.075 437.28 133.075C438.451 133.075 439.399 134.024 439.399 135.195Z" fill="#C54556"/>
<path d="M341.419 184.384C341.419 185.553 340.469 186.503 339.299 186.503C338.128 186.503 337.18 185.553 337.18 184.384C337.18 183.213 338.128 182.264 339.299 182.264C340.469 182.264 341.419 183.213 341.419 184.384Z" fill="#C54556"/>
<path d="M359.867 182.264C359.867 183.435 358.919 184.384 357.748 184.384C356.577 184.384 355.628 183.435 355.628 182.264C355.628 181.093 356.577 180.145 357.748 180.145C358.919 180.145 359.867 181.093 359.867 182.264Z" fill="#C54556"/>
<path d="M352.321 196.097C352.321 197.267 351.372 198.216 350.201 198.216C349.031 198.216 348.083 197.267 348.083 196.097C348.083 194.927 349.031 193.977 350.201 193.977C351.372 193.977 352.321 194.927 352.321 196.097Z" fill="#C54556"/>
<path d="M378.971 121.261C366.256 126.835 352.148 137.633 352.323 143.207C352.496 148.78 359.812 156.095 369.391 157.14C378.971 158.185 374.616 155.224 381.408 153.133C388.201 151.044 385.588 156.965 387.852 158.011C390.116 159.056 398.651 161.237 401.264 159.711C403.876 158.185 405.617 152.785 405.792 151.567C405.965 150.347 403.876 146.127 405.792 144.58C407.708 143.032 408.927 144.039 409.275 140.052C409.624 136.065 408.404 122.307 405.444 118.127C402.483 113.947 393.308 114.976 378.971 121.261Z" fill="#4D1D3D"/>
<path d="M390.435 123.351C379.12 128.799 365.875 136.667 367.809 141.085C369.745 145.503 397.081 153.163 400.504 151.483C403.927 149.803 404.981 122.979 402.76 121.837C399.851 120.344 395.589 120.869 390.435 123.351Z" fill="#5F264F"/>
<path d="M400.112 160.384C402.007 163.761 403.019 167.751 402.896 171.609C402.843 173.329 405.509 173.324 405.563 171.609C405.7 167.287 404.533 162.816 402.415 159.037C401.573 157.539 399.269 158.883 400.112 160.384Z" fill="#311A2B"/>
<path d="M442.945 135.195C441.98 143.931 440.173 153.181 435.443 160.737C431.963 166.295 426.183 165.381 420.381 165.937C403.675 167.541 388.305 177.564 375.071 187.223C369.835 191.044 364.789 195.147 359.367 198.708C355.579 201.196 352.027 202.896 347.435 202.492C341.813 201.999 336.225 199.999 330.952 198.107C324.913 195.937 319.011 193.387 313.216 190.635C309.285 188.769 305.235 186.869 301.636 184.403C297.859 181.815 302.157 174.835 304.011 172.095C304.28 171.695 304.225 171.153 304.011 170.748C300.46 164.06 293.493 165.164 287.772 168.415C286.277 169.264 287.62 171.568 289.117 170.717C293.575 168.185 298.881 166.769 301.708 172.095C301.708 171.645 301.708 171.197 301.708 170.748C299.463 174.069 297.205 178.425 297.623 182.539C297.979 186.049 301.619 187.627 304.34 189.121C314.523 194.716 325.496 199.395 336.6 202.801C341.097 204.181 346.013 205.537 350.765 205.224C355.009 204.944 358.951 202.231 362.348 199.916C375.028 191.276 386.52 181.465 400.463 174.751C407.34 171.437 414.407 169.095 422.035 168.456C425.888 168.132 430.1 168.436 433.608 166.541C437.3 164.547 439.356 159.501 440.869 155.869C443.595 149.332 444.839 142.197 445.612 135.195C445.801 133.487 443.132 133.504 442.945 135.195" fill="#311A2B"/>
<path d="M292.136 144.58C295.879 144.305 326.319 111.823 325.996 108.561C325.673 105.3 313.203 86.056 309.067 88.532C304.931 91.008 284.073 131.549 284.719 135.516C285.364 139.483 288.588 144.84 292.136 144.58" fill="#C54556"/>
<path d="M313.944 91.5573C317.461 95.7387 320.855 100.121 323.629 104.833C324.873 106.945 325.829 108.596 324.64 110.851C323.447 113.113 321.715 115.116 320.073 117.059C311.927 126.687 302.465 135.795 292.64 143.708C291.969 144.248 292.92 145.185 293.583 144.651C304.145 136.143 314.531 126.276 322.955 115.636C324.217 114.041 325.572 112.327 326.321 110.415C327.049 108.557 326.272 107.013 325.413 105.309C322.735 99.996 318.707 95.1547 314.887 90.6147C314.333 89.956 313.395 90.904 313.944 91.5573" fill="#A33350"/>
<path d="M366.573 69.5054C363.795 71.1401 369.507 91.2227 375.645 92.2961C381.784 93.3694 413.064 86.5974 413.709 84.6627C414.353 82.7267 408.579 74.3427 406.477 73.0534C404.377 71.7627 372.056 66.2814 366.573 69.5054" fill="#C54556"/>
<path d="M365.208 74.0106C366.227 77.932 367.536 81.7973 369.141 85.516C370.683 89.0866 372.429 92.4426 376.557 92.8973C382.061 93.504 388.055 92.1293 393.417 91.06C400.352 89.6786 407.288 87.8693 413.887 85.3053C414.679 84.9973 414.335 83.7066 413.532 84.0186C402.863 88.1653 390.757 91.2253 379.285 91.6306C377.716 91.6866 375.813 91.7706 374.383 91.0173C372.344 89.9439 371.181 86.8133 370.292 84.8426C368.681 81.2706 367.479 77.4479 366.495 73.656C366.279 72.824 364.992 73.1773 365.208 74.0106Z" fill="#A33350"/>
<path d="M221.671 79.74C223.263 75.868 249.361 68.7307 256.653 61.0494C263.944 53.3667 270.992 51.8294 275.612 54.4174C280.232 57.0054 310.452 92.1187 307.711 101.928C304.971 111.739 231.375 95.72 227.763 98.2294C224.149 100.737 226.237 106.763 226.237 106.763C226.237 106.763 218.583 87.2547 221.671 79.74" fill="#FAB9AA"/>
<path d="M254.045 93.8654C261.6 95.6427 269.156 97.4201 276.712 99.1987C277.548 99.3947 277.903 98.1094 277.067 97.9134C269.511 96.1347 261.955 94.3574 254.4 92.5801C253.563 92.3827 253.208 93.6681 254.045 93.8654Z" fill="#E05F5C"/>
<path d="M263.379 91.1987C268.572 92.1521 273.428 94.2054 278.489 95.6427C279.319 95.8787 279.669 94.5921 278.844 94.3574C273.783 92.9187 268.927 90.8667 263.733 89.9134C262.892 89.7587 262.533 91.0427 263.379 91.1987Z" fill="#E05F5C"/>
<path d="M267.823 87.1987C272.247 88.58 276.365 90.6187 280.108 93.3533C280.804 93.8613 281.468 92.704 280.781 92.2027C276.948 89.4 272.704 87.3267 268.177 85.9134C267.355 85.656 267.005 86.9427 267.823 87.1987" fill="#E05F5C"/>
<path d="M273.885 82.2428C277.161 84.5894 280.388 87.0068 283.664 89.3534C284.364 89.8548 285.029 88.6988 284.336 88.2028C281.06 85.8548 277.835 83.4388 274.559 81.0908C273.859 80.5894 273.193 81.7468 273.885 82.2428" fill="#E05F5C"/>
<path d="M277.885 77.7973C280.989 80.056 283.739 82.744 286.64 85.2493C287.287 85.808 288.235 84.8693 287.583 84.3067C284.595 81.7253 281.756 78.9733 278.559 76.6467C277.863 76.14 277.197 77.2973 277.885 77.7973Z" fill="#E05F5C"/>
<path d="M281.885 75.1306C284.697 77.0706 286.916 79.728 289.307 82.1386C289.912 82.7493 290.855 81.8066 290.249 81.1946C287.772 78.6986 285.472 75.9893 282.559 73.98C281.849 73.4907 281.183 74.6466 281.885 75.1306Z" fill="#E05F5C"/>
<path d="M280.861 67.9161C285.919 72.1454 290.132 77.2014 294.091 82.4481C294.603 83.1254 295.76 82.4614 295.243 81.7748C291.216 76.4388 286.951 71.2761 281.805 66.9734C281.151 66.4254 280.201 67.3641 280.861 67.9161" fill="#E05F5C"/>
<path d="M335.603 44.724C335.959 42.6133 345.588 36.5959 349.768 28.4679C353.948 20.3399 360.389 3.61996 366.573 4.78129C372.759 5.94262 390.729 15.1733 402.76 24.724C414.791 34.2733 427.331 49.6 424.079 54.9413C420.828 60.2826 332.584 62.6053 335.603 44.724" fill="#FAB9AA"/>
<path d="M375.111 51.6668C384.325 52.6268 393.447 54.3054 402.667 55.2228C403.523 55.3068 403.513 53.9734 402.667 53.8894C393.447 52.9721 384.325 51.2934 375.111 50.3334C374.256 50.2441 374.265 51.5788 375.111 51.6668Z" fill="#E05F5C"/>
<path d="M383.379 48.976C388.585 49.9174 393.792 50.8307 398.933 52.088C399.769 52.2907 400.123 51.0054 399.288 50.8014C394.147 49.5454 388.939 48.632 383.733 47.6907C382.892 47.5387 382.533 48.824 383.379 48.976Z" fill="#E05F5C"/>
<path d="M389.156 44.9761C393.361 45.9708 397.371 47.6268 401.6 48.5321C402.439 48.7121 402.796 47.4268 401.955 47.2454C397.724 46.3401 393.716 44.6841 389.511 43.6907C388.675 43.4934 388.32 44.7788 389.156 44.9761Z" fill="#E05F5C"/>
<path d="M392.108 40.464C395.233 42.1813 398.635 43.12 402.045 44.088C402.873 44.3227 403.225 43.036 402.4 42.8013C399.1 41.8653 395.805 40.9747 392.781 39.3134C392.027 38.8987 391.355 40.0507 392.108 40.464Z" fill="#E05F5C"/>
<path d="M395.664 36.02C398.347 37.3253 401.264 38.1973 403.664 40.02C404.348 40.54 405.012 39.3813 404.336 38.8694C401.937 37.0454 399.019 36.1734 396.336 34.8694C395.567 34.4947 394.891 35.644 395.664 36.02Z" fill="#E05F5C"/>
<path d="M390.933 26.3093C397.175 27.8653 401.435 32.8333 406.195 36.8053C406.851 37.352 407.799 36.4133 407.139 35.8613C402.192 31.7347 397.771 26.6387 391.288 25.024C390.453 24.816 390.1 26.1013 390.933 26.3093" fill="#E05F5C"/>
</svg>
