<?xml version="1.0" encoding="UTF-8" standalone="no"?>
<svg
   xmlns:dc="http://purl.org/dc/elements/1.1/"
   xmlns:cc="http://creativecommons.org/ns#"
   xmlns:rdf="http://www.w3.org/1999/02/22-rdf-syntax-ns#"
   xmlns:svg="http://www.w3.org/2000/svg"
   xmlns="http://www.w3.org/2000/svg"
   xmlns:sodipodi="http://sodipodi.sourceforge.net/DTD/sodipodi-0.dtd"
   xmlns:inkscape="http://www.inkscape.org/namespaces/inkscape"
   version="1.1"
   id="svg2"
   xml:space="preserve"
   width="841.85333"
   height="377.30667"
   viewBox="0 0 841.85333 377.30667"
   sodipodi:docname="2101.i402.020_Computer_repair_404_flat_composition.eps"><metadata
     id="metadata8"><rdf:RDF><cc:Work
         rdf:about=""><dc:format>image/svg+xml</dc:format><dc:type
           rdf:resource="http://purl.org/dc/dcmitype/StillImage" /></cc:Work></rdf:RDF></metadata><defs
     id="defs6" /><sodipodi:namedview
     pagecolor="#ffffff"
     bordercolor="#666666"
     borderopacity="1"
     objecttolerance="10"
     gridtolerance="10"
     guidetolerance="10"
     inkscape:pageopacity="0"
     inkscape:pageshadow="2"
     inkscape:window-width="640"
     inkscape:window-height="480"
     id="namedview4" /><g
     id="g10"
     inkscape:groupmode="layer"
     inkscape:label="ink_ext_XXXXXX"
     transform="matrix(1.3333333,0,0,-1.3333333,0,377.30667)"><g
       id="g12"
       transform="scale(0.1)"><path
         d="M 6313.91,105.77 C 6313.91,47.3516 4900.49,0 3156.95,0 1413.41,0 0,47.3516 0,105.77 c 0,58.41 1413.41,105.781 3156.95,105.781 1743.54,0 3156.96,-47.371 3156.96,-105.781"
         style="fill:#96b9e3;fill-opacity:1;fill-rule:nonzero;stroke:none"
         id="path14" /><path
         d="M 965.355,591.738 C 781.078,599.711 638.012,755.59 646.059,939.871 654.047,1124.2 809.848,1267.13 994.223,1259.24 1178.34,1251.2 1321.56,1095.4 1313.4,911.039 1305.57,726.801 1149.68,583.84 965.355,591.738 Z M 1427.43,997 c -40.56,36.05 -62.04,97.5 -54.01,149.51 5.03,32.51 96.56,89.14 96.56,89.14 l -136.46,148.34 c 0,0 -64.07,-86.78 -96.81,-89.05 -50.08,-3.67 -106.72,22.08 -137.2,63.87 -19.37,26.61 5.69,131.25 5.69,131.25 l -201.602,8.7 c 0,0 15.742,-106.57 -5.606,-131.23 -29.765,-34.22 -82.773,-51.55 -126.062,-42.91 -32.246,6.43 -84.407,100.48 -84.407,100.48 L 533.051,1295.43 c 0,0 83.652,-67.75 84.512,-100.5 1.367,-55.06 -27.872,-115.82 -74.043,-148.71 -26.797,-19.12 -131.426,7.32 -131.426,7.32 l -11.25,-201.399 c 0,0 106.484,14.558 130.929,-7.192 40.528,-36.289 62.09,-97.687 53.973,-149.64 -5,-32.489 -96.562,-89.118 -96.562,-89.118 L 625.609,457.922 c 0,0 64.024,86.707 96.797,88.976 49.961,3.571 106.828,-22.187 137.324,-63.828 19.336,-26.699 -5.515,-131.261 -5.515,-131.261 l 201.435,-8.661 c 0,0 -16,106.493 5.48,131.184 29.81,34.148 82.95,51.617 126.28,42.957 32.08,-6.598 84.35,-100.59 84.35,-100.59 l 154.36,129.692 c 0,0 -83.54,67.789 -84.48,100.609 -1.28,55 27.92,115.68 74.13,148.691 26.83,18.957 131.38,-7.472 131.38,-7.472 l 11.14,201.383 c 0,0 -106.37,-14.422 -130.86,7.398"
         style="fill:#ccddfc;fill-opacity:1;fill-rule:nonzero;stroke:none"
         id="path16" /><path
         d="m 974.105,796.879 c -71.082,3.09 -126.21,63.133 -123.269,134.211 3.211,71.03 63.23,125.99 134.227,122.99 71.117,-3.06 126.157,-63.1 123.107,-134.189 -2.97,-71.102 -63.08,-126.059 -134.065,-123.012 z M 990.805,1176 C 849.926,1182.04 730.785,1072.84 724.75,931.879 718.656,791.039 827.914,672.02 968.656,665.871 c 140.954,-6.09 260.064,103.18 266.164,244.078 6.1,140.831 -103.15,259.921 -244.015,266.051"
         style="fill:#ccddfc;fill-opacity:1;fill-rule:nonzero;stroke:none"
         id="path18" /><path
         d="m 5537.7,363.699 c 0,-37.879 -32.24,-68.629 -72.17,-68.629 H 3878.15 c -39.99,0 -72.21,30.75 -72.21,68.629 v 943.881 c 0,37.89 32.22,68.58 72.21,68.58 h 1587.38 c 39.93,0 72.17,-30.69 72.17,-68.58 V 363.699"
         style="fill:#ccddfc;fill-opacity:1;fill-rule:nonzero;stroke:none"
         id="path20" /><path
         d="M 5465.53,1376.16 H 3878.15 c -39.99,0 -72.21,-30.69 -72.21,-68.58 V 1180.3 H 5537.7 v 127.28 c 0,37.89 -32.24,68.58 -72.17,68.58"
         style="fill:#264d86;fill-opacity:1;fill-rule:nonzero;stroke:none"
         id="path22" /><path
         d="m 5204.06,1306.35 c -16.93,0 -30.7,-12.9 -30.7,-28.72 0,-15.79 13.77,-28.66 30.7,-28.66 16.83,0 30.51,12.87 30.51,28.66 0,15.82 -13.68,28.72 -30.51,28.72 z m 0,-68.04 c -22.81,0 -41.32,17.65 -41.32,39.32 0,21.69 18.51,39.37 41.32,39.37 22.7,0 41.16,-17.68 41.16,-39.37 0,-21.67 -18.46,-39.32 -41.16,-39.32"
         style="fill:#ccddfc;fill-opacity:1;fill-rule:nonzero;stroke:none"
         id="path24" /><path
         d="m 5312.95,1306.35 c -16.78,0 -30.51,-12.9 -30.51,-28.72 0,-15.79 13.73,-28.66 30.51,-28.66 16.93,0 30.6,12.87 30.6,28.66 0,15.82 -13.67,28.72 -30.6,28.72 z m 0,-68.04 c -22.66,0 -41.21,17.65 -41.21,39.32 0,21.69 18.55,39.37 41.21,39.37 22.75,0 41.21,-17.68 41.21,-39.37 0,-21.67 -18.46,-39.32 -41.21,-39.32"
         style="fill:#ccddfc;fill-opacity:1;fill-rule:nonzero;stroke:none"
         id="path26" /><path
         d="m 5418.73,1306.35 c -16.87,0 -30.55,-12.9 -30.55,-28.72 0,-15.79 13.68,-28.66 30.55,-28.66 16.78,0 30.51,12.87 30.51,28.66 0,15.82 -13.73,28.72 -30.51,28.72 z m 0,-68.04 c -22.75,0 -41.17,17.65 -41.17,39.32 0,21.69 18.42,39.37 41.17,39.37 22.66,0 41.17,-17.68 41.17,-39.37 0,-21.67 -18.51,-39.32 -41.17,-39.32"
         style="fill:#ccddfc;fill-opacity:1;fill-rule:nonzero;stroke:none"
         id="path28" /><path
         d="m 3904.02,426.5 h 1519.8 v 693.99 H 3904.02 V 426.5"
         style="fill:#e1edff;fill-opacity:1;fill-rule:nonzero;stroke:none"
         id="path30" /><path
         d="m 1008.41,1239.71 c 0,-39.2 33.32,-71.03 74.69,-71.03 h 1642.85 c 41.42,0 74.74,31.83 74.74,71.03 v 976.9 c 0,39.21 -33.32,70.98 -74.74,70.98 H 1083.1 c -41.37,0 -74.69,-31.77 -74.69,-70.98 v -976.9"
         style="fill:#f5f5ff;fill-opacity:1;fill-rule:nonzero;stroke:none"
         id="path32" /><path
         d="m 1083.1,2287.59 h 1642.85 c 41.42,0 74.74,-31.77 74.74,-70.98 V 2084.88 H 1008.41 v 131.73 c 0,39.21 33.32,70.98 74.69,70.98"
         style="fill:#468df5;fill-opacity:1;fill-rule:nonzero;stroke:none"
         id="path34" /><path
         d="m 1322.1,2185.61 c 0,-16.35 14.17,-29.66 31.6,-29.66 17.52,0 31.79,13.31 31.79,29.66 0,16.39 -14.27,29.73 -31.79,29.73 -17.43,0 -31.6,-13.34 -31.6,-29.73 z m -11,0 c 0,22.46 19.1,40.73 42.6,40.73 23.59,0 42.75,-18.27 42.75,-40.73 0,-22.42 -19.16,-40.7 -42.75,-40.7 -23.5,0 -42.6,18.28 -42.6,40.7"
         style="fill:#ccddfc;fill-opacity:1;fill-rule:nonzero;stroke:none"
         id="path36" /><path
         d="m 1209.32,2185.61 c 0,-16.35 14.16,-29.66 31.69,-29.66 17.37,0 31.59,13.31 31.59,29.66 0,16.39 -14.22,29.73 -31.59,29.73 -17.53,0 -31.69,-13.34 -31.69,-29.73 z m -11.01,0 c 0,22.46 19.15,40.73 42.7,40.73 23.44,0 42.64,-18.27 42.64,-40.73 0,-22.42 -19.2,-40.7 -42.64,-40.7 -23.55,0 -42.7,18.28 -42.7,40.7"
         style="fill:#ccddfc;fill-opacity:1;fill-rule:nonzero;stroke:none"
         id="path38" /><path
         d="m 1099.93,2185.61 c 0,-16.35 14.17,-29.66 31.59,-29.66 17.43,0 31.59,13.31 31.59,29.66 0,16.39 -14.16,29.73 -31.59,29.73 -17.42,0 -31.59,-13.34 -31.59,-29.73 z m -11.01,0 c 0,22.46 19.1,40.73 42.6,40.73 23.55,0 42.6,-18.27 42.6,-40.73 0,-22.42 -19.05,-40.7 -42.6,-40.7 -23.5,0 -42.6,18.28 -42.6,40.7"
         style="fill:#ccddfc;fill-opacity:1;fill-rule:nonzero;stroke:none"
         id="path40" /><path
         d="M 2699.25,1304.71 H 1126.29 v 718.25 h 1572.96 v -718.25"
         style="fill:#ccddfc;fill-opacity:1;fill-rule:nonzero;stroke:none"
         id="path42" /><path
         d="m 5107.55,2135.71 3.17,-23.89 c -0.05,-0.1 15.83,2.04 31.48,5.04 15.67,2.71 31.77,7.02 31.77,7.02 l -6.71,23.19 c 0,0 -14.33,-3.73 -29.5,-6.48 -15.01,-2.81 -30.21,-4.88 -30.21,-4.88"
         style="fill:#ffb502;fill-opacity:1;fill-rule:nonzero;stroke:none"
         id="path44" /><path
         d="m 5016.46,2131.27 -0.79,-24.2 c 0,0 15.99,-0.98 32.04,-0.19 15.9,0.67 31.97,1.56 31.97,1.56 l -1.99,24.14 c 0,0 -15.29,-0.88 -30.62,-1.56 -15.32,-0.7 -30.61,0.25 -30.61,0.25"
         style="fill:#ffb502;fill-opacity:1;fill-rule:nonzero;stroke:none"
         id="path46" /><path
         d="m 4926.59,2142.98 -5.63,-23.56 c 0,0 15.79,-3.17 31.59,-6.39 15.8,-2.6 31.92,-3.91 31.92,-3.91 l 2.25,24.07 c 0,0 -15.24,1.28 -30.26,3.6 -15.02,3.07 -29.87,6.19 -29.87,6.19"
         style="fill:#ffb502;fill-opacity:1;fill-rule:nonzero;stroke:none"
         id="path48" /><path
         d="m 4843.19,2174.94 -12.2,-20.92 c 0,0 14.64,-7.02 29.26,-14.06 7.08,-3.93 14.76,-6.6 20.67,-8.3 5.77,-1.88 9.68,-3.16 9.68,-3.16 l 7.77,22.9 c 0.35,0.54 -14.81,3.4 -28.22,10.52 -13.46,6.47 -26.96,13.02 -26.96,13.02"
         style="fill:#ffb502;fill-opacity:1;fill-rule:nonzero;stroke:none"
         id="path50" /><path
         d="m 4772.99,2230.22 -17.68,-16.8 c 0,0 11.68,-11.07 23.5,-22.26 11.19,-12 26.11,-19.16 25.6,-19.83 l 14.07,19.75 c 0.52,0.53 -13.56,7.11 -23.88,18.35 -10.81,10.39 -21.61,20.79 -21.61,20.79"
         style="fill:#ffb502;fill-opacity:1;fill-rule:nonzero;stroke:none"
         id="path52" /><path
         d="m 4723.14,2304.21 -21.54,-10.95 c 0,0 7.31,-14.47 14.68,-28.9 9.56,-13.02 19.15,-26.1 19.15,-26.1 l 19.06,14.83 c 0,0 -8.9,12.08 -17.8,24.33 -6.78,13.4 -13.55,26.79 -13.55,26.79"
         style="fill:#ffb502;fill-opacity:1;fill-rule:nonzero;stroke:none"
         id="path54" /><path
         d="m 4690.32,2392.89 -20.92,-13.77 18.49,-57.48 22.23,9.48 -19.8,61.77"
         style="fill:#ffb502;fill-opacity:1;fill-rule:nonzero;stroke:none"
         id="path56" /><path
         d="m 4657.68,2483.43 -17.82,-19.51 c 0,0 5.95,-13.9 11.87,-27.75 5.24,-14.12 9.2,-28.79 9.2,-28.79 l 19.83,15.81 c 0,0 -4.26,15.67 -10.11,30.75 -6.47,14.75 -12.97,29.49 -12.97,29.49"
         style="fill:#ffb502;fill-opacity:1;fill-rule:nonzero;stroke:none"
         id="path58" /><path
         d="m 4607.09,2564.55 -13.51,-24.02 c 0,0 9.55,-11.62 18.06,-24.08 7.56,-13.09 15.12,-26.08 15.12,-26.08 l 16.58,21.06 c 0,0 -8.38,13.88 -16.63,27.67 -9.12,13.09 -19.62,25.45 -19.62,25.45"
         style="fill:#ffb502;fill-opacity:1;fill-rule:nonzero;stroke:none"
         id="path60" /><path
         d="m 4536.19,2628.12 -8.6,-27.18 c 0,0 12.41,-8.69 24.57,-17.52 11.38,-9.83 22.02,-20.71 22.02,-20.71 l 12.02,25.25 c 0,0 -11.54,11.25 -23.53,21.76 -13.29,9.22 -26.48,18.4 -26.48,18.4"
         style="fill:#ffb502;fill-opacity:1;fill-rule:nonzero;stroke:none"
         id="path62" /><path
         d="m 4447.01,2661.23 -2.69,-28.69 c 0.52,2.83 58.36,-15.23 57.34,-17.67 l 6.66,27.75 c 1.04,2.51 -60.64,21.46 -61.31,18.61"
         style="fill:#ffb502;fill-opacity:1;fill-rule:nonzero;stroke:none"
         id="path64" /><path
         d="m 4352.02,2657.02 3.13,-28.59 c 0,0 14.83,2.87 29.69,5.69 15.11,0.73 30.13,1.21 30.13,1.21 l 0.87,28.91 c 0,0 -16.24,-0.21 -32.22,-1.23 -15.85,-3.12 -31.6,-5.99 -31.6,-5.99"
         style="fill:#ffb502;fill-opacity:1;fill-rule:nonzero;stroke:none"
         id="path66" /><path
         d="m 4265.7,2616.78 8.81,-26.72 c -1.16,1.71 51.58,31.23 52.71,28.85 l -5.04,28.16 c -1.16,2.52 -57.69,-28.36 -56.48,-30.29"
         style="fill:#ffb502;fill-opacity:1;fill-rule:nonzero;stroke:none"
         id="path68" /><path
         d="m 4196.5,2551.13 13.77,-23.39 c 0,0 2.39,2.9 5.76,7.39 3.75,4.36 7.82,10.81 13.47,15.73 10.85,10.6 21.61,21.13 21.61,21.13 l -10.47,25.83 c 0,0 -11.57,-11.16 -23.22,-22.25 -6.16,-5.28 -10.68,-11.96 -14.59,-16.58 -3.77,-4.74 -6.33,-7.86 -6.33,-7.86"
         style="fill:#ffb502;fill-opacity:1;fill-rule:nonzero;stroke:none"
         id="path70" /><path
         d="m 4145.96,2469.81 17.8,-18.75 c 0,0 6.9,13.46 13.47,26.94 7.9,12.95 15.89,25.79 15.89,25.79 l -15.33,22.05 c 0,0 -8.55,-13.68 -17.16,-27.32 -7.28,-14.34 -14.67,-28.71 -14.67,-28.71"
         style="fill:#ffb502;fill-opacity:1;fill-rule:nonzero;stroke:none"
         id="path72" /><path
         d="m 4109.4,2380.57 21.02,-12.98 c 0,0 5.13,14.29 10.24,28.44 5.13,14.25 11.21,28.06 11.21,28.06 l -19.11,17.02 c 0,0 -6.64,-14.88 -12.24,-30.06 -5.56,-15.29 -11.12,-30.48 -11.12,-30.48"
         style="fill:#ffb502;fill-opacity:1;fill-rule:nonzero;stroke:none"
         id="path74" /><path
         d="m 4078.24,2289.96 22.61,-8.35 c 0,0 5.61,14.91 10.3,29.21 4.93,14.45 9.8,28.81 9.8,28.81 l -21.79,10.76 c 0,0 -5.2,-15.2 -10.47,-30.47 -5.08,-15.48 -10.45,-29.96 -10.45,-29.96"
         style="fill:#ffb502;fill-opacity:1;fill-rule:nonzero;stroke:none"
         id="path76" /><path
         d="m 4040.46,2207.54 20.49,-12.71 c 0,0 8.43,14 15.67,28.46 6.65,14.66 13.16,29.25 13.16,29.25 l -22.32,9.21 c 0,0 -6.25,-14.01 -12.41,-27.86 -6.87,-13.52 -14.59,-26.35 -14.59,-26.35"
         style="fill:#ffb502;fill-opacity:1;fill-rule:nonzero;stroke:none"
         id="path78" /><path
         d="m 3980.72,2144.2 13.5,-20.22 c 2.04,-2.62 51,42.54 48.42,44.63 l -19.03,15.1 c 2.17,-2.11 -41.08,-42.07 -42.89,-39.51"
         style="fill:#ffb502;fill-opacity:1;fill-rule:nonzero;stroke:none"
         id="path80" /><path
         d="m 3899.08,2113.46 4.1,-23.8 c 0,0 15.89,3.35 31.95,6.57 15.46,5.61 30.79,11.9 30.79,11.9 l -10.13,21.96 c 0,0 -13.62,-5.34 -27.39,-10.64 -14.72,-2.94 -29.32,-5.99 -29.32,-5.99"
         style="fill:#ffb502;fill-opacity:1;fill-rule:nonzero;stroke:none"
         id="path82" /><path
         d="m 3809.06,2110.52 -1.48,-24.15 c 0,0 15.89,-0.94 31.85,-1.9 16.07,0.86 32.22,1.69 32.22,1.69 l -1.82,24.1 c 0,0 -15.11,-0.88 -30.21,-1.65 -15.24,0.96 -30.56,1.91 -30.56,1.91"
         style="fill:#ffb502;fill-opacity:1;fill-rule:nonzero;stroke:none"
         id="path84" /><path
         d="m 4671.82,277.191 c 0,-58.031 -49.39,-105.05 -110.25,-105.05 H 2046.83 c -60.86,0 -110.28,47.019 -110.28,105.05 V 1794.15 c 0,58.1 49.42,105.2 110.28,105.2 h 2514.74 c 60.86,0 110.25,-47.1 110.25,-105.2 V 277.191"
         style="fill:#264d86;fill-opacity:1;fill-rule:nonzero;stroke:none"
         id="path86" /><path
         d="M 4531.53,260.219 H 2069.33 V 1710.87 h 2462.2 V 260.219"
         style="fill:#ccddfc;fill-opacity:1;fill-rule:nonzero;stroke:none"
         id="path88" /><path
         d="M 4932.8,83.8711 H 1646.82 V 260.219 H 4932.8 V 83.8711"
         style="fill:#264d86;fill-opacity:1;fill-rule:nonzero;stroke:none"
         id="path90" /><path
         d="m 999.813,2626.76 -2.543,17.55 c -0.254,1.08 -47.465,-9.18 -47.629,-10.28 l 5.375,-16.79 c -0.657,0.77 44.648,10.62 44.797,9.52"
         style="fill:#1b2044;fill-opacity:1;fill-rule:nonzero;stroke:none"
         id="path92" /><path
         d="m 1068.04,2629.43 1.53,17.58 c -0.05,0.99 -48.77,1.27 -48.72,-0.14 l 1.38,-17.54 c 0,1.27 45.97,0.94 45.81,0.1"
         style="fill:#1b2044;fill-opacity:1;fill-rule:nonzero;stroke:none"
         id="path94" /><path
         d="m 1132.93,2613.01 7.48,16.06 c 0.63,1.88 -46.76,16.75 -47.11,14.77 l -3.14,-17.32 c 0.51,1.69 43.54,-11.81 42.77,-13.51"
         style="fill:#1b2044;fill-opacity:1;fill-rule:nonzero;stroke:none"
         id="path96" /><path
         d="m 1184.2,2572.5 14.13,10.73 c 0.45,0.39 -8.05,9.53 -17.06,18.41 -8.32,9.47 -19.96,15.02 -19.51,15.49 l -9.84,-14.72 c -0.45,-0.45 9.97,-5.24 17.32,-13.7 7.87,-7.85 15.54,-15.78 14.96,-16.21"
         style="fill:#1b2044;fill-opacity:1;fill-rule:nonzero;stroke:none"
         id="path98" /><path
         d="m 1212.33,2511.63 16.82,5.65 c 2.24,-0.19 -16.44,45.94 -17.46,45.45 l -15.47,-8.46 c 0.83,0.47 17.84,-41.3 16.11,-42.64"
         style="fill:#1b2044;fill-opacity:1;fill-rule:nonzero;stroke:none"
         id="path100" /><path
         d="m 1229.72,2441.37 15.48,9.26 c 0,0 -1.16,2.6 -2.44,6.71 -0.96,4.1 -2.17,9.7 -3.45,15.25 -2.49,11.16 -5.06,22.36 -5.06,22.36 l -16.68,-6.22 c 0,0 2.82,-11.95 5.56,-23.8 1.36,-5.99 2.82,-11.96 3.9,-16.4 1.35,-4.41 2.69,-7.16 2.69,-7.16"
         style="fill:#1b2044;fill-opacity:1;fill-rule:nonzero;stroke:none"
         id="path102" /><path
         d="m 1266.68,2379.16 12.53,13.36 c 0.5,0.39 -8.83,7.48 -14.13,17.78 -6.2,9.65 -12.09,19.31 -11.65,19.56 l -14.69,-10.68 c -0.64,-0.35 5.87,-10.74 12.58,-21 5.76,-11.03 15.8,-18.61 15.36,-19.02"
         style="fill:#1b2044;fill-opacity:1;fill-rule:nonzero;stroke:none"
         id="path104" /><path
         d="m 1327.28,2339.98 8.44,16.23 c -0.13,-0.45 -10.61,4 -20.85,9.15 -10.49,4.53 -18.85,12.77 -19.04,12.27 l -11.38,-14.45 c 0.19,0.48 9.2,-8.32 20.38,-13.2 11.07,-5.59 22.32,-10.49 22.45,-10"
         style="fill:#1b2044;fill-opacity:1;fill-rule:nonzero;stroke:none"
         id="path106" /><path
         d="m 1398.81,2326.62 3.52,17.54 c 0,0 -11.31,0.93 -22.69,1.82 -11.19,1.97 -22.38,3.97 -22.38,3.97 l -7.03,-16.83 c 0,0 12.02,-2.3 24.11,-4.43 12.26,-1.07 24.47,-2.07 24.47,-2.07"
         style="fill:#1b2044;fill-opacity:1;fill-rule:nonzero;stroke:none"
         id="path108" /><path
         d="m 1471.77,2328.73 -1.35,17.63 c 0,0 -11.58,-1.27 -22.9,-1.79 -11.36,-0.84 -22.87,-0.77 -22.87,-0.77 l -1.79,-17.67 c 0,0 12.27,-0.05 24.54,0.79 12.4,0.5 24.37,1.81 24.37,1.81"
         style="fill:#1b2044;fill-opacity:1;fill-rule:nonzero;stroke:none"
         id="path110" /><path
         d="m 1542.16,2336.46 -1.81,17.61 -47.17,-5.48 2.04,-17.51 46.94,5.38"
         style="fill:#1b2044;fill-opacity:1;fill-rule:nonzero;stroke:none"
         id="path112" /><path
         d="m 1605.31,2328.87 8.5,15.52 c 0,0 -11.18,6.64 -23.9,9.46 -6.34,1.51 -12.8,2.56 -18.41,2.49 -4.6,-0.19 -7.6,-0.38 -7.6,-0.38 l 0.82,-17.68 c 0,0 2.82,0.22 7.16,0.41 3.26,0.1 8.43,-0.74 13.69,-1.95 10.47,-2.33 19.74,-7.87 19.74,-7.87"
         style="fill:#1b2044;fill-opacity:1;fill-rule:nonzero;stroke:none"
         id="path114" /><path
         d="m 1645.08,2280.39 16.55,6.23 c 0,0 -1.27,2.91 -3.06,7.22 -1.66,4.52 -4.66,10.14 -8.18,15.5 -6.6,11.07 -16.11,20.02 -16.11,20.02 L 1622,2316.5 c 0,0 7.94,-7.21 13.43,-16.61 6.2,-8.82 9.33,-19.76 9.65,-19.5"
         style="fill:#1b2044;fill-opacity:1;fill-rule:nonzero;stroke:none"
         id="path116" /><path
         d="m 1654.74,2214.35 17.64,-0.19 c 0,0 0.38,2.97 0,7.56 -0.25,4.58 -0.51,10.76 -0.77,16.89 0,6.07 -1.53,12.18 -2.11,16.78 -0.77,4.61 -1.22,7.67 -1.22,7.67 l -17.32,-3.58 c 0,0 0.46,-2.78 1.14,-6.94 0.52,-4.24 1.93,-9.61 1.93,-15.37 0.33,-5.68 0.58,-11.38 0.71,-15.66 0.37,-4.29 0,-7.16 0,-7.16"
         style="fill:#1b2044;fill-opacity:1;fill-rule:nonzero;stroke:none"
         id="path118" /><path
         d="M 4080.02,322.5 H 2554.65 V 2817.83 H 4080.02 V 322.5"
         style="fill:#f5f5ff;fill-opacity:1;fill-rule:nonzero;stroke:none"
         id="path120" /><path
         d="M 4080.02,2564.55 H 2554.65 v 253.28 h 1525.37 v -253.28"
         style="fill:#468df5;fill-opacity:1;fill-rule:nonzero;stroke:none"
         id="path122" /><path
         d="m 3881.92,2106.29 c 0,-70.02 -56.69,-126.7 -126.71,-126.7 h -890.62 c -69.9,0 -126.56,56.68 -126.56,126.7 v 0 c 0,69.8 56.66,126.49 126.56,126.49 h 890.62 c 70.02,0 126.71,-56.69 126.71,-126.49 v 0"
         style="fill:#ffffff;fill-opacity:1;fill-rule:nonzero;stroke:none"
         id="path124" /><path
         d="m 3881.92,1660.93 c 0,-69.94 -56.69,-126.67 -126.71,-126.67 h -890.62 c -69.9,0 -126.56,56.73 -126.56,126.67 v 0 c 0,69.91 56.66,126.6 126.56,126.6 h 890.62 c 70.02,0 126.71,-56.69 126.71,-126.6 v 0"
         style="fill:#ffffff;fill-opacity:1;fill-rule:nonzero;stroke:none"
         id="path126" /><path
         d="m 3637.36,1276.66 c 0,-60.33 -48.9,-109.08 -109.14,-109.08 h -436.65 c -60.23,0 -109.11,48.75 -109.11,109.08 v 0 c 0,60.37 48.88,109.17 109.11,109.17 h 436.65 c 60.24,0 109.14,-48.8 109.14,-109.17 v 0"
         style="fill:#ffb502;fill-opacity:1;fill-rule:nonzero;stroke:none"
         id="path128" /><path
         d="m 3881.92,2403.03 c 0,-26.51 -21.54,-48.03 -48.13,-48.03 H 2786.07 c -26.58,0 -48.04,21.52 -48.04,48.03 v 0 c 0,26.6 21.46,48.06 48.04,48.06 h 1047.72 c 26.59,0 48.13,-21.46 48.13,-48.06 v 0"
         style="fill:#ffb502;fill-opacity:1;fill-rule:nonzero;stroke:none"
         id="path130" /><path
         d="m 2842.77,2730.52 h -227.06 v 26.18 h 227.06 v -26.18"
         style="fill:#ffffff;fill-opacity:1;fill-rule:nonzero;stroke:none"
         id="path132" /><path
         d="m 2842.77,2678.15 h -227.06 v 26.16 h 227.06 v -26.16"
         style="fill:#ffffff;fill-opacity:1;fill-rule:nonzero;stroke:none"
         id="path134" /><path
         d="m 2842.77,2625.72 h -227.06 v 26.23 h 227.06 v -26.23"
         style="fill:#ffffff;fill-opacity:1;fill-rule:nonzero;stroke:none"
         id="path136" /><path
         d="m 2906.46,1613.9 c 0,-17.53 -14.27,-31.77 -31.81,-31.77 -17.6,0 -31.88,14.24 -31.88,31.77 0,17.62 14.28,31.86 31.88,31.86 17.54,0 31.81,-14.24 31.81,-31.86"
         style="fill:#ff2363;fill-opacity:1;fill-rule:nonzero;stroke:none"
         id="path138" /><path
         d="m 3004.76,1613.9 c 0,-17.53 -14.27,-31.77 -31.84,-31.77 -17.59,0 -31.86,14.24 -31.86,31.77 0,17.62 14.27,31.86 31.86,31.86 17.57,0 31.84,-14.24 31.84,-31.86"
         style="fill:#ff2363;fill-opacity:1;fill-rule:nonzero;stroke:none"
         id="path140" /><path
         d="m 3103.05,1613.9 c 0,-17.53 -14.24,-31.77 -31.77,-31.77 -17.65,0 -31.92,14.24 -31.92,31.77 0,17.62 14.27,31.86 31.92,31.86 17.53,0 31.77,-14.24 31.77,-31.86"
         style="fill:#ff2363;fill-opacity:1;fill-rule:nonzero;stroke:none"
         id="path142" /><path
         d="m 3201.39,1613.9 c 0,-17.53 -14.28,-31.77 -31.9,-31.77 -17.61,0 -31.92,14.24 -31.92,31.77 0,17.62 14.31,31.86 31.92,31.86 17.62,0 31.9,-14.24 31.9,-31.86"
         style="fill:#ff2363;fill-opacity:1;fill-rule:nonzero;stroke:none"
         id="path144" /><path
         d="m 3299.64,1613.9 c 0,-17.53 -14.23,-31.77 -31.85,-31.77 -17.61,0 -31.85,14.24 -31.85,31.77 0,17.62 14.24,31.86 31.85,31.86 17.62,0 31.85,-14.24 31.85,-31.86"
         style="fill:#ff2363;fill-opacity:1;fill-rule:nonzero;stroke:none"
         id="path146" /><path
         d="m 3397.89,1613.9 c 0,-17.53 -14.28,-31.77 -31.81,-31.77 -17.6,0 -31.84,14.24 -31.84,31.77 0,17.62 14.24,31.86 31.84,31.86 17.53,0 31.81,-14.24 31.81,-31.86"
         style="fill:#ff2363;fill-opacity:1;fill-rule:nonzero;stroke:none"
         id="path148" /><path
         d="m 4957.32,2088.1 c 0,151.95 -171.32,275.19 -382.55,275.19 -211.29,0 -406.64,-170.1 -406.64,-322.06 0,-149.1 188.99,-223.58 394.77,-228.1 -5.9,-84.88 -120.39,-125.14 -120.39,-125.14 230.24,-22.11 514.81,154.51 514.81,400.11"
         style="fill:#ffcf03;fill-opacity:1;fill-rule:nonzero;stroke:none"
         id="path150" /><path
         d="m 4467.36,2160.92 c 0,9.6 -0.31,17.79 -0.63,24.6 h 20.84 l 1.1,-10.56 h 0.47 c 3.15,4.89 11.01,12.3 23.83,12.3 15.8,0 27.6,-10.44 27.6,-33.14 v -45.76 h -24 v 42.77 c 0,9.94 -3.44,16.7 -12.09,16.7 -6.68,0 -10.63,-4.57 -12.19,-8.98 -0.64,-1.44 -0.95,-3.79 -0.95,-6 v -44.49 h -23.98 v 52.56"
         style="fill:#ffffff;fill-opacity:1;fill-rule:nonzero;stroke:none"
         id="path152" /><path
         d="m 4579.18,2147.02 c 0,-13.25 5.43,-23.21 15.73,-23.21 9.28,0 15.26,9.31 15.26,23.21 0,11.52 -4.42,23.19 -15.26,23.19 -11.57,0 -15.73,-11.85 -15.73,-23.19 z m 55.76,0.78 c 0,-28.23 -19.98,-41.19 -40.66,-41.19 -22.58,0 -39.95,14.85 -39.95,39.76 0,24.94 16.44,40.89 41.21,40.89 23.67,0 39.4,-16.27 39.4,-39.46"
         style="fill:#ffffff;fill-opacity:1;fill-rule:nonzero;stroke:none"
         id="path154" /><path
         d="m 4675.51,2207.6 v -22.08 h 17.21 v -17.69 h -17.21 v -27.92 c 0,-9.29 2.28,-13.55 9.51,-13.55 3,0 5.34,0.3 7.07,0.6 l 0.18,-18.12 c -3.16,-1.28 -8.81,-2.06 -15.66,-2.06 -7.7,0 -14.15,2.66 -18.02,6.62 -4.39,4.58 -6.59,11.99 -6.59,22.89 v 31.54 h -10.21 v 17.69 H 4652 v 16.72 l 23.51,5.36"
         style="fill:#ffffff;fill-opacity:1;fill-rule:nonzero;stroke:none"
         id="path156" /><path
         d="m 4380.98,1989.98 v 59.48 h -10.15 v 17.67 h 10.15 v 3 c 0,9.3 2.79,19.53 9.72,25.88 6.04,5.69 14.39,7.7 21.31,7.7 5.41,0 9.5,-0.59 12.8,-1.55 l -0.92,-18.47 c -2.05,0.61 -4.57,1.08 -7.72,1.08 -7.95,0 -11.23,-6.14 -11.23,-13.7 v -3.94 h 15.48 v -17.67 h -15.33 v -59.48 h -24.11"
         style="fill:#ffffff;fill-opacity:1;fill-rule:nonzero;stroke:none"
         id="path158" /><path
         d="m 4449.76,2028.63 c 0,-13.27 5.48,-23.2 15.79,-23.2 9.27,0 15.34,9.29 15.34,23.2 0,11.52 -4.48,23.19 -15.34,23.19 -11.55,0 -15.79,-11.86 -15.79,-23.19 z m 55.9,0.78 c 0,-28.23 -20.05,-41.2 -40.75,-41.2 -22.55,0 -39.93,14.84 -39.93,39.76 0,24.96 16.43,40.88 41.2,40.88 23.66,0 39.48,-16.23 39.48,-39.44"
         style="fill:#ffffff;fill-opacity:1;fill-rule:nonzero;stroke:none"
         id="path160" /><path
         d="m 4592.16,2014.72 c 0,-10.09 0.31,-18.29 0.62,-24.74 h -20.85 l -1.09,10.88 h -0.47 c -3.07,-4.73 -10.3,-12.65 -24.23,-12.65 -15.55,0 -27.12,9.78 -27.12,33.64 v 45.28 h 24.14 v -41.51 c 0,-11.21 3.71,-17.97 12.03,-17.97 6.62,0 10.4,4.58 11.96,8.36 0.63,1.43 0.79,3.3 0.79,5.22 v 45.9 h 24.22 v -52.41"
         style="fill:#ffffff;fill-opacity:1;fill-rule:nonzero;stroke:none"
         id="path162" /><path
         d="m 4610.25,2042.54 c 0,9.59 -0.32,17.81 -0.55,24.59 h 20.74 l 1.12,-10.56 h 0.46 c 3.23,4.89 11.1,12.28 23.91,12.28 15.72,0 27.61,-10.43 27.61,-33.13 v -45.74 h -24 v 42.76 c 0,9.94 -3.46,16.72 -12.1,16.72 -6.69,0 -10.62,-4.6 -12.19,-9 -0.63,-1.43 -0.94,-3.78 -0.94,-5.98 v -44.5 h -24.06 v 52.56"
         style="fill:#ffffff;fill-opacity:1;fill-rule:nonzero;stroke:none"
         id="path164" /><path
         d="m 4752.5,2034.48 c 0,1.24 -0.17,2.98 -0.31,4.23 -1.42,6.47 -6.61,11.84 -14.02,11.84 -10.91,0 -16.57,-9.76 -16.57,-21.92 0,-13.09 6.44,-21.29 16.43,-21.29 6.91,0 12.42,4.73 13.84,11.49 0.46,1.74 0.63,3.49 0.63,5.52 z m 23.97,67.52 v -89.01 c 0,-8.65 0.32,-17.83 0.64,-23.01 h -21.32 l -1.01,11.34 h -0.33 c -4.95,-8.69 -14.3,-13.11 -24.22,-13.11 -18.24,0 -32.94,15.62 -32.94,39.64 -0.15,26 16.12,41 34.53,41 9.42,0 16.9,-3.29 20.37,-8.67 h 0.31 V 2102 h 23.97"
         style="fill:#ffffff;fill-opacity:1;fill-rule:nonzero;stroke:none"
         id="path166" /><path
         d="m 5991.44,676.031 c -0.28,18.188 -15.26,32.828 -33.45,32.641 -18.24,-0.274 -32.89,-15.313 -32.62,-33.5 0.21,-18.184 15.24,-32.82 33.5,-32.531 18.17,0.199 32.76,15.148 32.57,33.39 z m -78.58,-1.011 c -0.39,25.128 19.86,45.82 45,46.121 25,0.371 45.8,-19.789 46.07,-44.93 0.34,-25.141 -19.86,-45.859 -44.94,-46.172 -25.13,-0.34 -45.79,19.871 -46.13,44.981"
         style="fill:#1b2044;fill-opacity:1;fill-rule:nonzero;stroke:none"
         id="path168" /><path
         d="m 5970.63,1191.2 8.5,-9.23 -39.06,-36.07 c -11.56,-10.73 -12.36,-29.05 -1.67,-40.69 l 28.7,-31.35 c 7.48,-8.19 11.29,-18.76 10.82,-29.82 -0.54,-11.03 -5.34,-21.23 -13.45,-28.71 l -26.12,-23.709 c -5.69,-5.289 -9.1,-12.441 -9.38,-20.223 -0.33,-7.796 2.48,-15.207 7.83,-20.898 l 25.88,-27.488 c 7.89,-8.422 11.9,-19.453 11.17,-30.93 -0.74,-11.453 -6.15,-22.141 -14.98,-29.371 l -17.8,-14.609 c -6.48,-5.411 -10.36,-13.262 -10.48,-21.622 -0.2,-8.511 3.34,-16.55 9.62,-22.199 l 37.3,-33.301 -8.35,-9.359 -37.31,33.328 c -9.02,8.051 -14.03,19.66 -13.83,31.762 0.32,12.059 5.82,23.379 15.1,30.988 l 17.79,14.711 c 6.15,5.078 9.9,12.371 10.43,20.43 0.54,8.039 -2.27,15.808 -7.76,21.629 l -25.87,27.5 c -7.7,8.062 -11.7,18.761 -11.24,29.902 0.47,11.199 5.23,21.418 13.44,29.039 l 26.09,23.68 c 5.67,5.25 9.02,12.33 9.35,19.99 0.33,7.72 -2.27,15.11 -7.49,20.79 l -28.68,31.42 c -15.31,16.72 -14.18,42.85 2.41,58.29 l 39.04,36.12"
         style="fill:#ffb502;fill-opacity:1;fill-rule:nonzero;stroke:none"
         id="path170" /><path
         d="m 4432.39,300.281 c 19.34,22.02 18.56,25.367 13.17,32.438 -4.59,6.133 -10.02,11.941 -16.09,17.761 l 42.63,25.961 c 8.65,-15.609 15.19,-29.73 18.36,-41.332 -3.17,-4.05 -28.27,-37.007 -58.07,-34.828"
         style="fill:#fbc6b4;fill-opacity:1;fill-rule:nonzero;stroke:none"
         id="path172" /><path
         d="m 4490.46,335.109 c 0.04,0.442 0.44,0.821 0.44,0.821 24.14,-36.032 -31.03,-57.43 -63.39,-62.121 -32.4,-4.637 4.88,26.472 4.88,26.472 29.8,-2.179 54.9,30.778 58.07,34.828"
         style="fill:#1b416d;fill-opacity:1;fill-rule:nonzero;stroke:none"
         id="path174" /><path
         d="m 4485.11,384.301 c 5.79,-20.762 -40.37,-53.969 -53.35,-42.969 -111.42,94.629 -230.59,300.656 -275.02,384.906 -2,3.742 -3.98,7.203 -5.78,10.422 -22.18,36.328 -34.92,28.809 -110.25,197.059 -24.5,54.301 -39.25,149.491 -39.25,149.491 l 74.79,30.9 172.05,72.35 c 59.69,-56.86 79.86,-221.28 92.83,-287.89 10.66,-56.308 23.09,-147.25 34.89,-191.082 41.59,-152.929 71.55,-184.039 109.09,-323.187"
         style="fill:#ffb502;fill-opacity:1;fill-rule:nonzero;stroke:none"
         id="path176" /><path
         d="m 3996.32,259.07 c 27,11.91 27.55,15.379 25.75,24.02 -1.73,7.25 -4.29,15.012 -7.15,22.73 l 49.46,5.828 c 1.25,-17.699 1.25,-33.187 -0.71,-45.308 -4.48,-2.27 -41.04,-21.699 -67.35,-7.27"
         style="fill:#fbc6b4;fill-opacity:1;fill-rule:nonzero;stroke:none"
         id="path178" /><path
         d="m 4063.67,266.34 c 0.4,0.398 0.86,0.73 0.86,0.73 6.93,-43.058 -52.13,-39.289 -83.47,-30.011 -31.52,9.32 15.26,22.011 15.26,22.011 26.31,-14.429 62.87,5 67.35,7.27"
         style="fill:#1b416d;fill-opacity:1;fill-rule:nonzero;stroke:none"
         id="path180" /><path
         d="m 4163.06,840.84 c -13.83,-55.738 -44.73,-113.141 -44.73,-191.301 0,-159.09 -14.94,-194.258 -38.61,-336.238 -2.69,-16.442 -37.55,-26.832 -56.31,-23.039 -2.86,0.617 -5.42,1.41 -7.2,2.82 -1.81,0.898 -2.91,2.047 -3.49,3.5 -61.45,132.387 -102.7,357.828 -108.2,452.738 -3.19,56.039 -1.73,49.071 0.31,248.809 0.56,59.761 26.58,152.291 26.58,152.291 l 248.17,-7.99 c 30.51,-76.81 -0.59,-235.801 -16.52,-301.59"
         style="fill:#ffcf03;fill-opacity:1;fill-rule:nonzero;stroke:none"
         id="path182" /><path
         d="m 4023.41,290.262 c -2.86,0.617 -5.42,1.41 -7.2,2.82 -37.54,104.75 -53.67,216.199 -67.51,312.59 -11.86,81.66 -25.07,174.558 -25.47,265.719 -0.23,99.839 15.89,187.839 47.96,261.739 0.59,1.5 2.29,2.05 3.79,1.5 1.42,-0.63 2.28,-2.36 1.64,-3.84 -31.77,-72.9 -47.85,-160.431 -47.53,-259.399 0.27,-90.942 13.49,-183.469 25.36,-265.231 14.14,-97.23 30.59,-210.359 68.96,-315.898"
         style="fill:#ffffff;fill-opacity:1;fill-rule:nonzero;stroke:none"
         id="path184" /><path
         d="m 3839.17,1742.06 c 0,0 -16.37,41.12 -51.66,52.15 -31.7,9.85 -10.76,-29.8 22.24,-70.92 l 29.42,18.77"
         style="fill:#fbc6b4;fill-opacity:1;fill-rule:nonzero;stroke:none"
         id="path186" /><path
         d="m 4197.59,1523.29 c 25.75,-14.36 27.13,-40.23 1.65,-71.13 -39.07,-47.42 -87.84,-18.95 -181.1,22.81 -105.99,47.45 -214.36,252.25 -214.36,252.25 0,0 5.27,26.73 31.69,22.49 0,0 81.93,-108.67 186.56,-156.86 51.39,-23.76 121.39,-39.29 175.56,-69.56"
         style="fill:#c40c53;fill-opacity:1;fill-rule:nonzero;stroke:none"
         id="path188" /><path
         d="m 4031.4,1549.83 c -48.01,-36.65 -88.91,-125.98 -108.02,-418.26 -4.16,-64.25 368.57,-79.73 369.99,-15.27 3.26,171.47 -26.04,241.93 -75.02,396.57 -13.49,41.98 -92,110.16 -186.95,36.96"
         style="fill:#ff2363;fill-opacity:1;fill-rule:nonzero;stroke:none"
         id="path190" /><path
         d="m 3694.65,1673.68 c 0,0 12.64,93.73 -8.98,68.48 -21.62,-25.16 -44.58,-29.24 -24.61,-78.16 l 33.59,9.68"
         style="fill:#fbc6b4;fill-opacity:1;fill-rule:nonzero;stroke:none"
         id="path192" /><path
         d="m 4058.67,1516.25 c 38.15,-53.17 13.49,-94.56 -19.75,-116.94 -50.94,-34.36 -141.84,-77.88 -248.67,-32.59 -107.01,45.22 -133.75,302.83 -133.75,302.83 0,0 12.66,24.11 36.76,12.5 0,0 56.08,-193.22 158.65,-211.32 49.61,-8.75 170.48,95.93 206.76,45.52"
         style="fill:#c40c53;fill-opacity:1;fill-rule:nonzero;stroke:none"
         id="path194" /><path
         d="m 4131.52,1623.89 c 0,0 17.56,-74.06 3.09,-91.39 -14.55,-17.44 -91.77,0.23 -88.08,27.87 4.8,36.78 14.62,67.94 14.62,67.94 l 70.37,-4.42"
         style="fill:#ee9d7f;fill-opacity:1;fill-rule:nonzero;stroke:none"
         id="path196" /><path
         d="m 4174.86,1700.25 c 0,-65.22 -36.49,-118.12 -81.45,-118.12 -20.23,0 -65.13,-5.53 -79.36,12.04 -17.5,21.67 -17.61,77.19 -7.54,111.73 23.19,79.67 56.97,105.92 101.95,105.92 44.98,0 66.4,-46.38 66.4,-111.57"
         style="fill:#fbc6b4;fill-opacity:1;fill-rule:nonzero;stroke:none"
         id="path198" /><path
         d="m 4097.8,1574.63 c 28.23,-1.53 75.57,8.29 101.76,66.33 23.91,53.08 10.13,141.55 -43.38,168.66 -31.73,16.13 -75.02,18.77 -109.8,2.2 -49.23,-23.42 -42.86,-53.3 -32.91,-58.25 20.71,-10.16 36.99,6.04 32.91,-22.26 -3.16,-21.85 -1.5,-69.99 18.79,-72.89 20.29,-2.91 37.51,-3.02 32.63,-32.39 -3.7,-22.27 -28.53,-49.94 0,-51.4"
         style="fill:#1b2044;fill-opacity:1;fill-rule:nonzero;stroke:none"
         id="path200" /><path
         d="m 3936.6,1110.92 c 0,0 290.48,-74.58 356.77,5.38 l 15.34,-56.37 c 0,0 -178.29,-67.75 -372.11,50.99"
         style="fill:#1b2044;fill-opacity:1;fill-rule:nonzero;stroke:none"
         id="path202" /><path
         d="m 5141.55,336.48 c 41.4,-78.558 117.64,-174.66 136.86,-231.449 3.04,-9.0505 2.79,-12.7615 -24.73,-28.6326 -27.59,-15.789 4.95,-26.3164 55.91,-13.5078 50.97,12.8008 -35.65,251.6604 -88.2,360.8284 -45.86,95.39 -127.85,3.992 -79.84,-87.239"
         style="fill:#fbc6b4;fill-opacity:1;fill-rule:nonzero;stroke:none"
         id="path204" /><path
         d="m 5325.78,92.5898 c 0,0 -40.27,-29.5898 -72.1,-16.1914 0,0 -48.65,-18.8164 -14.03,-25.1562 34.7,-6.2305 98.17,-3.7813 86.13,41.3476"
         style="fill:#1b416d;fill-opacity:1;fill-rule:nonzero;stroke:none"
         id="path206" /><path
         d="m 5370.45,678.93 c 0,0 -270.21,-14.2 -331.7,-74.168 -61.41,-60.012 209.91,-489.481 209.91,-489.481 0,0 68.83,22.059 68.99,74.219 0.71,195.512 -2.72,260.031 -2.72,260.031 l 275.47,61.84 -219.95,167.559"
         style="fill:#ffb502;fill-opacity:1;fill-rule:nonzero;stroke:none"
         id="path208" /><path
         d="m 5716.09,171.789 c 92.68,11.402 215.66,50.723 278.58,48.449 9.96,-0.359 13.63,-1.988 18.98,-34.968 5.18,-33.032 27.67,-4.84 34.05,50 6.29,54.871 -260.8,58.492 -387.68,47.41 -110.94,-9.61 -51.51,-124.25 56.07,-110.891"
         style="fill:#fbc6b4;fill-opacity:1;fill-rule:nonzero;stroke:none"
         id="path210" /><path
         d="m 6024.41,262.18 c 0,0 14.12,-50.508 -10.76,-76.91 0,0 0.39,-54.801 19.46,-23.18 19.06,31.871 40.36,95.191 -8.7,100.09"
         style="fill:#1b416d;fill-opacity:1;fill-rule:nonzero;stroke:none"
         id="path212" /><path
         d="m 5460.49,595.871 c 0,0 -82.64,-342.742 -46.51,-425.473 36.22,-82.7066 559.48,24.43 559.48,24.43 0,0 3.9,75.852 -47.39,95.391 -191.95,73.422 -258.55,65.082 -258.55,65.082 l 25.12,295.84 -232.15,-55.27"
         style="fill:#ffcf03;fill-opacity:1;fill-rule:nonzero;stroke:none"
         id="path214" /><path
         d="m 5312.29,589.852 c 67.16,21.296 73.14,87.808 73.14,88.367 l -8.85,0.711 c -0.24,-2.469 -5.66,-61.078 -67.07,-80.621 l 2.78,-8.457"
         style="fill:#ffffff;fill-opacity:1;fill-rule:nonzero;stroke:none"
         id="path216" /><path
         d="m 5664.8,464.23 2.72,8.508 c -61.56,19.532 -66.91,79.942 -66.99,80.66 l -8.93,-0.718 c 0.07,-0.711 6.06,-67.149 73.2,-88.45"
         style="fill:#ffffff;fill-opacity:1;fill-rule:nonzero;stroke:none"
         id="path218" /><path
         d="m 5602.53,971.07 c -6.07,13.391 -36.13,45.1 -76.33,34.65 -53.84,-13.919 -136.93,-90.88 -210.78,-70.298 -74.1,20.648 -86.62,70.898 -99.62,103.428 -12.84,32.54 -2.71,51.53 -12.28,69.62 -9.65,18.23 -30.7,5.83 -22.56,-51.36 3.9,-27.35 6.93,-164.68 90.43,-205.508 109.5,-53.551 365.83,40.109 331.14,119.468"
         style="fill:#fbc6b4;fill-opacity:1;fill-rule:nonzero;stroke:none"
         id="path220" /><path
         d="m 5597.09,999.461 c 0,0 35.02,-49.852 -37.71,-103.922 -72.66,-53.988 -111.73,-67.59 -111.73,-67.59 0,0 -47.86,35.051 -72.02,124.86 0,0 182.48,123.811 221.46,46.652"
         style="fill:#c40c53;fill-opacity:1;fill-rule:nonzero;stroke:none"
         id="path222" /><path
         d="m 5750.06,963.41 -0.07,0.281 c -24.89,24.129 -61.42,38.159 -89.41,49.239 -61.57,24.46 -167.64,44.51 -218.52,-61.09 -16.67,-34.84 -33.57,-87.879 -45.54,-143.508 -2.79,-12.113 -5.42,-24.402 -7.25,-36.801 -9.89,-54.801 -36.05,-86.222 -24.65,-118.801 28.87,-82.332 291.66,-228.851 343.17,-53.871 7.66,26.129 28.17,192.481 45.07,223.782 38.19,69.461 26,112.058 -2.8,140.769"
         style="fill:#ff2363;fill-opacity:1;fill-rule:nonzero;stroke:none"
         id="path224" /><path
         d="m 5667.52,1093.17 c 0,0 -33.02,-43.71 -4.31,-76.88 29.51,-34.06 -122.25,-77.731 -112.77,-50.009 11.96,35.729 35.33,53.599 26.32,99.499 l 90.76,27.39"
         style="fill:#ee9d7f;fill-opacity:1;fill-rule:nonzero;stroke:none"
         id="path226" /><path
         d="m 5609.63,1201.75 c -37.58,-22.85 -98.35,-145.07 -71.54,-180.51 11.71,-15.4 73.44,-13.77 122.57,35.32 20.26,19.94 48.41,59.81 34.06,108.75 -6.54,22.2 -41.63,63 -85.09,36.44"
         style="fill:#fbc6b4;fill-opacity:1;fill-rule:nonzero;stroke:none"
         id="path228" /><path
         d="m 5574.44,1192.93 c -10.28,-14.87 -9.08,-18.97 38.22,-36.68 47.29,-17.86 56.3,-16.26 48.88,-26.88 -21.77,-31.17 14.43,-31.74 -12.04,-68.78 -26.4,-37.09 19.78,-20.98 44.9,8.65 4.86,6.03 32.38,34.46 19.3,90.24 -15.16,65.09 -101.13,87.61 -139.26,33.45"
         style="fill:#1b2044;fill-opacity:1;fill-rule:nonzero;stroke:none"
         id="path230" /><path
         d="m 5720.23,417.352 87.49,93.429 -672.15,629.439 -87.48,-93.43 672.14,-629.438"
         style="fill:#1b2044;fill-opacity:1;fill-rule:nonzero;stroke:none"
         id="path232" /><path
         d="m 4884.36,1212.32 169.78,-158.98 75.29,80.35 -170.67,159.73 c 71.7,42.99 165.81,35.5 229.84,-24.43 77.45,-72.51 81.52,-194.04 8.94,-271.478 -72.49,-77.453 -194.04,-81.442 -271.48,-8.891 -62.84,58.849 -77.28,150.089 -41.7,223.699"
         style="fill:#1b2044;fill-opacity:1;fill-rule:nonzero;stroke:none"
         id="path234" /><path
         d="m 5754.53,953.129 c -11.4,8.051 -43.54,14.75 -70.99,-13.809 -36.84,-38.191 -66.03,-142.199 -136.36,-162.211 -70.59,-20.089 -105.84,14.43 -132.56,34.461 -26.71,20.051 -27.99,40.512 -44.82,50.469 -16.9,10.02 -27.75,-10.598 7.34,-52.988 16.83,-20.289 87.73,-130.52 176.01,-122.102 115.65,10.973 269.24,219.082 201.38,266.18"
         style="fill:#fbc6b4;fill-opacity:1;fill-rule:nonzero;stroke:none"
         id="path236" /><path
         d="m 5745.44,963.09 c 0,0 53.27,-23.211 21.13,-103.442 -32.21,-80.136 -57.19,-110.617 -57.19,-110.617 0,0 -56.45,4.641 -120.82,65.641 0,0 86.62,191.648 156.88,148.418"
         style="fill:#c40c53;fill-opacity:1;fill-rule:nonzero;stroke:none"
         id="path238" /><path
         d="m 1513.12,722.602 h 929.87 V 1784.47 H 1513.12 V 722.602"
         style="fill:#ffcf03;fill-opacity:1;fill-rule:nonzero;stroke:none"
         id="path240" /><path
         d="m 1513.12,1698.47 h 929.87 v 86 h -929.87 v -86"
         style="fill:#ffb502;fill-opacity:1;fill-rule:nonzero;stroke:none"
         id="path242" /><path
         d="m 2367.8,1738.34 c 0,-11 8,-19.94 17.83,-19.94 9.87,0 17.8,8.94 17.8,19.94 0,11 -7.93,19.93 -17.8,19.93 -9.83,0 -17.83,-8.93 -17.83,-19.93"
         style="fill:#ffffff;fill-opacity:1;fill-rule:nonzero;stroke:none"
         id="path244" /><path
         d="m 2314.34,1738.34 c 0,-11 7.96,-19.94 17.8,-19.94 9.87,0 17.83,8.94 17.83,19.94 0,11 -7.96,19.93 -17.83,19.93 -9.84,0 -17.8,-8.93 -17.8,-19.93"
         style="fill:#ffffff;fill-opacity:1;fill-rule:nonzero;stroke:none"
         id="path246" /><path
         d="m 2260.88,1738.34 c 0,-11 7.9,-19.94 17.76,-19.94 9.9,0 17.9,8.94 17.9,19.94 0,11 -8,19.93 -17.9,19.93 -9.86,0 -17.76,-8.93 -17.76,-19.93"
         style="fill:#ffffff;fill-opacity:1;fill-rule:nonzero;stroke:none"
         id="path248" /><path
         d="m 1619.87,1347.21 h 730.37 v 56.56 h -730.37 v -56.56"
         style="fill:#ffb502;fill-opacity:1;fill-rule:nonzero;stroke:none"
         id="path250" /><path
         d="m 1619.87,1424.17 h 730.37 v 162.51 h -730.37 v -162.51"
         style="fill:#ffb502;fill-opacity:1;fill-rule:nonzero;stroke:none"
         id="path252" /><path
         d="m 1619.87,1266.65 h 730.37 v 56.52 h -730.37 v -56.52"
         style="fill:#ffb502;fill-opacity:1;fill-rule:nonzero;stroke:none"
         id="path254" /><path
         d="m 1619.87,1186.08 h 730.37 v 56.56 h -730.37 v -56.56"
         style="fill:#ffb502;fill-opacity:1;fill-rule:nonzero;stroke:none"
         id="path256" /><path
         d="m 1619.87,998.34 h 730.37 v 157.58 H 1619.87 V 998.34"
         style="fill:#ffb502;fill-opacity:1;fill-rule:nonzero;stroke:none"
         id="path258" /><path
         d="m 1619.87,793.191 h 730.37 V 950.75 H 1619.87 V 793.191"
         style="fill:#ffb502;fill-opacity:1;fill-rule:nonzero;stroke:none"
         id="path260" /><path
         d="m 1976.98,460.68 h -171.52 v -110.7 h 191.61 v -86.449 h -297.48 v 466.301 h 287.88 V 643.309 H 1805.46 V 546.43 h 171.52 v -85.75"
         style="fill:#ff2363;fill-opacity:1;fill-rule:nonzero;stroke:none"
         id="path262" /><path
         d="m 2182.78,523 h 41.42 c 52.44,0 83.66,26.27 83.66,67.102 0,42.82 -29.03,64.308 -77.55,65.007 -25.43,0 -40.11,-2.089 -47.53,-3.488 z m -104.57,200.582 c 33.85,5.547 84.43,9.719 140.37,9.719 69.25,0 117.71,-10.403 150.73,-36.68 27.89,-22.121 43,-54.711 43,-97.492 0,-59.57 -42.13,-100.359 -82.29,-114.91 v -2.039 c 32.58,-13.18 50.47,-44.289 62.27,-87.16 14.51,-52.661 29.03,-113.508 38.04,-131.489 h -107.96 c -7.69,13.129 -18.6,51.16 -32.41,108.59 -12.49,58.129 -32.52,74.039 -75.53,74.777 h -31.65 V 263.531 h -104.57 v 460.051"
         style="fill:#ff2363;fill-opacity:1;fill-rule:nonzero;stroke:none"
         id="path264" /><path
         d="m 2602.11,523 h 41.54 c 52.56,0 83.77,26.27 83.77,67.102 0,42.82 -29.2,64.308 -77.55,65.007 -25.54,0 -40.06,-2.089 -47.76,-3.488 z m -104.44,200.582 c 33.94,5.547 84.37,9.719 140.42,9.719 69.19,0 117.65,-10.403 150.78,-36.68 27.66,-22.121 43,-54.711 43,-97.492 0,-59.57 -42.24,-100.359 -82.35,-114.91 v -2.039 c 32.53,-13.18 50.53,-44.289 62.26,-87.16 14.52,-52.661 29.09,-113.508 38.1,-131.489 h -108.06 c -7.58,13.129 -18.6,51.16 -32.52,108.59 -12.33,58.129 -32.42,74.039 -75.36,74.777 h -31.83 V 263.531 h -104.44 v 460.051"
         style="fill:#ff2363;fill-opacity:1;fill-rule:nonzero;stroke:none"
         id="path266" /><path
         d="m 3004.26,495.301 c 0,-91.352 42.96,-155.621 113.57,-155.621 71.17,0 111.88,67.789 111.88,158.351 0,83.739 -40,155.699 -112.75,155.699 -71.16,0 -112.7,-67.851 -112.7,-158.429 z m 336.99,6.25 c 0,-152.86 -92.71,-245.66 -229.09,-245.66 -138.4,0 -219.27,104.507 -219.27,237.281 0,139.75 89.27,244.269 226.96,244.269 143.2,0 221.4,-107.261 221.4,-235.89"
         style="fill:#ff2363;fill-opacity:1;fill-rule:nonzero;stroke:none"
         id="path268" /><path
         d="m 3524.18,523 h 41.43 c 52.55,0 83.66,26.27 83.66,67.102 0,42.82 -29.09,64.308 -77.61,65.007 -25.37,0 -40.06,-2.089 -47.48,-3.488 z m -104.45,200.582 c 33.83,5.547 84.37,9.719 140.19,9.719 69.32,0 117.78,-10.403 150.9,-36.68 27.72,-22.121 43.01,-54.711 43.01,-97.492 0,-59.57 -42.25,-100.359 -82.36,-114.91 v -2.039 c 32.53,-13.18 50.38,-44.289 62.28,-87.16 14.45,-52.661 28.97,-113.508 38.09,-131.489 h -108.06 c -7.59,13.129 -18.6,51.16 -32.36,108.59 -12.49,58.129 -32.57,74.039 -75.53,74.777 h -31.71 V 263.531 h -104.45 v 460.051"
         style="fill:#ff2363;fill-opacity:1;fill-rule:nonzero;stroke:none"
         id="path270" /><path
         d="m 1229.03,1469.14 c 9.76,12.65 50.07,38.6 90.07,17.07 53.53,-28.76 121.98,-132.05 205.81,-129.29 84.15,2.8 110.45,52.91 132.68,84.1 22.07,31.31 16.22,54.15 31.15,70.87 15,16.86 34.07,-1.72 10.61,-60.4 -11.15,-28.09 -49.99,-173.34 -149.36,-195.1 -130.06,-28.57 -378.5,137.37 -320.96,212.75"
         style="fill:#fbc6b4;fill-opacity:1;fill-rule:nonzero;stroke:none"
         id="path272" /><path
         d="m 1242.03,1497.93 c 0,0 -50,-43.87 13.15,-120.17 63.3,-76.34 101.37,-100.88 101.37,-100.88 0,0 59.91,24.93 108.84,114.07 0,0 -161.76,178.91 -223.36,106.98"
         style="fill:#eda503;fill-opacity:1;fill-rule:nonzero;stroke:none"
         id="path274" /><path
         d="m 1039.28,1345.27 c 37.16,-137.26 16.69,-233.71 0,-285.97 38.77,-12.46 15.69,-33.18 14.69,-35.84 -54.833,-113.679 285.66,-46.351 345.5,45.69 20.53,31.69 0.85,71.87 4.53,132.59 1.31,13.68 1.7,27.53 1.85,41.08 1.69,62.21 -2.54,122.98 -11.3,164.32 -26.7,125.4 -144.68,131.57 -216.44,121.57 -32.61,-4.54 -75.15,-10.08 -107.76,-29.28 l -0.22,-0.23 c -38.08,-23.03 -58.38,-51.87 -30.85,-153.93"
         style="fill:#ffb502;fill-opacity:1;fill-rule:nonzero;stroke:none"
         id="path276" /><path
         d="m 1172.04,1619.6 c 0,0 32.14,-50.55 -2.08,-84.28 -35.16,-34.5 126.52,-95.49 118.76,-64.43 -10,40.13 -33.93,61.55 -20.16,110.84 l -96.52,37.87"
         style="fill:#fbc6b4;fill-opacity:1;fill-rule:nonzero;stroke:none"
         id="path278" /><path
         d="m 1244.72,1732.94 c 38.92,-28.15 94.45,-166.78 62.3,-203.12 -14.31,-15.76 -81.45,-8.57 -130.75,49.15 -20.31,23.6 -47.46,69.53 -27.62,121.67 9.15,23.65 51,65.04 96.07,32.3"
         style="fill:#fbc6b4;fill-opacity:1;fill-rule:nonzero;stroke:none"
         id="path280" /><path
         d="m 1282.25,1720.18 c 9.93,-17.04 8.31,-21.42 -44.84,-36.65 -52.99,-15.22 -62.83,-12.81 -55.76,-24.96 21.15,-35.95 -18.46,-33.45 7.23,-76.1 25.54,-42.76 -23.46,-21.17 -48.15,13.34 -4.84,6.96 -32.39,40.42 -13.23,100.06 22.15,69.65 117.91,86.72 154.75,24.31"
         style="fill:#1b2044;fill-opacity:1;fill-rule:nonzero;stroke:none"
         id="path282" /><path
         d="m 951.371,536.332 c -34.07,-133.41 -74.066,-418.223 -8.539,-419.871 65.378,-1.461 101.988,18.34 64.228,28.918 -37.689,10.652 -39.232,14.762 -38.08,25.391 16.231,137.55 231.36,352.062 249.59,515.531 6.15,55.879 10.39,106.961 13.3,151.758 24.46,-119.789 6.46,-246.887 8.62,-288.887 6.84,-149.524 38.84,-432.133 110.53,-432.711 76.29,-0.473 113.75,20.621 64.99,30.68 -42.15,8.961 -40.38,10.89 -39.62,21.347 10.23,150.942 83.46,429.981 97.46,609.313 16.3,207.008 -492.791,-124.871 -522.479,-241.469"
         style="fill:#fbc6b4;fill-opacity:1;fill-rule:nonzero;stroke:none"
         id="path284" /><path
         d="m 1310.79,150.441 c 0,0 56.92,-22.562 92.06,0 0,0 64.14,-8.64 23.92,-24.211 -40.53,-15.66 -118.37,-28.5698 -115.98,24.211"
         style="fill:#15122c;fill-opacity:1;fill-rule:nonzero;stroke:none"
         id="path286" /><path
         d="m 914.988,145.379 c 0,0 56.992,-22.457 92.072,0 0,0 64.22,-8.77 23.76,-24.27 -40.375,-15.66 -118.215,-28.6481 -115.832,24.27"
         style="fill:#15122c;fill-opacity:1;fill-rule:nonzero;stroke:none"
         id="path288" /><path
         d="m 1423.24,1129.44 c -130.45,-87.02 -312.89,-78.14 -383.96,-64.38 -19.23,-155.201 -135.827,-737.478 -148.975,-817.388 57.293,-19.031 76.375,-23 92.91,-23 276.575,356.609 244.815,509.59 247.655,554.43 10.46,-51.832 -23.69,-305.582 36.08,-554.43 19.99,-12.91 80.6,-29.723 123.98,0 2.23,15.918 83.38,301.726 81.6,525.469 -1.23,152.519 -26.69,257.249 -49.29,379.299"
         style="fill:#1b2044;fill-opacity:1;fill-rule:nonzero;stroke:none"
         id="path290" /><path
         d="m 1048.44,933.59 c 81.14,25.762 88.22,105.95 88.29,106.71 l -10.77,0.81 c -0.15,-2.93 -6.77,-73.758 -80.83,-97.301 l 3.31,-10.219"
         style="fill:#ffffff;fill-opacity:1;fill-rule:nonzero;stroke:none"
         id="path292" /><path
         d="m 1428.08,953.582 3.31,10.309 c -74.3,23.449 -80.84,96.489 -80.84,97.259 l -10.84,-0.81 c 0.08,-0.88 7.23,-81.07 88.37,-106.758"
         style="fill:#ffffff;fill-opacity:1;fill-rule:nonzero;stroke:none"
         id="path294" /><path
         d="M 2220.36,1509.9 321.684,844.48 C 273.914,827.801 248.23,777.488 264.07,732.18 l 53.379,-152.239 2071.511,725.899 -53.38,152.3 c -15.84,45.33 -67.38,68.53 -115.22,51.76"
         style="fill:#264d86;fill-opacity:1;fill-rule:nonzero;stroke:none"
         id="path296" /><path
         d="m 663.563,832.801 c 7.222,-20.5 30.914,-31.02 52.761,-23.36 21.996,7.7 34.074,30.731 26.918,51.231 -7.23,20.539 -31.07,30.988 -52.992,23.348 -21.922,-7.7 -33.844,-30.661 -26.687,-51.219 z m -13.844,-4.891 c -9.922,28.219 6.148,59.57 35.679,69.961 29.543,10.328 61.688,-4.16 71.614,-32.359 9.843,-28.18 -6.153,-59.532 -35.84,-69.871 -29.539,-10.422 -61.606,4.109 -71.453,32.269"
         style="fill:#ccddfc;fill-opacity:1;fill-rule:nonzero;stroke:none"
         id="path298" /><path
         d="m 521.965,783.18 c 7.305,-20.539 30.84,-31.039 52.84,-23.348 21.84,7.617 33.84,30.688 26.605,51.188 -7.148,20.55 -30.914,31 -52.832,23.39 -21.844,-7.738 -33.769,-30.68 -26.613,-51.23 z m -13.844,-4.84 c -9.93,28.148 6.152,59.531 35.684,69.91 29.461,10.34 61.531,-4.219 71.527,-32.379 9.848,-28.199 -6.152,-59.531 -35.762,-69.891 -29.457,-10.332 -61.527,4.129 -71.449,32.36"
         style="fill:#ccddfc;fill-opacity:1;fill-rule:nonzero;stroke:none"
         id="path300" /><path
         d="m 384.594,734.961 c 7.16,-20.5 30.84,-30.961 52.765,-23.313 21.84,7.743 33.84,30.653 26.618,51.192 -7.235,20.5 -30.848,31.058 -52.844,23.34 -21.848,-7.66 -33.692,-30.621 -26.539,-51.219 z m -13.84,-4.813 c -9.852,28.192 6.148,59.602 35.535,69.852 29.609,10.379 61.606,-4.16 71.449,-32.32 9.84,-28.192 -6,-59.5 -35.535,-69.879 -29.535,-10.34 -61.601,4.199 -71.449,32.347"
         style="fill:#ccddfc;fill-opacity:1;fill-rule:nonzero;stroke:none"
         id="path302" /><path
         d="m 1092.66,1487.17 c 14.62,-4.68 41.53,-28.46 34.61,-71.26 -9.15,-57.26 -80.91,-151.21 -52.3,-225.9 28.84,-74.87 82.3,-82.99 117.3,-93.29 35.14,-10.2 53.83,2.19 73.59,-5.96 19.85,-8.27 9.08,-31.39 -51.14,-28.51 -28.84,1.39 -171.82,-8.99 -222.509,73.73 -66.371,108.37 14.619,379.5 100.449,351.19"
         style="fill:#fbc6b4;fill-opacity:1;fill-rule:nonzero;stroke:none"
         id="path304" /><path
         d="m 1091.81,1509.7 c 0,0 -39.76,7.46 -88.76,-73.57 -48.987,-80.74 -59.218,-122.71 -59.218,-122.71 0,0 41.227,-46.23 136.828,-62.57 0,0 107.76,211.52 11.15,258.85"
         style="fill:#eda503;fill-opacity:1;fill-rule:nonzero;stroke:none"
         id="path306" /><path
         d="m 1659.65,2554.61 c 0,152.01 171.35,275.19 382.64,275.19 211.25,0 406.62,-170.09 406.62,-322.06 0,-149.12 -189.05,-223.54 -394.83,-228.07 5.98,-84.92 120.39,-125.17 120.39,-125.17 -230.25,-22.09 -514.82,154.59 -514.82,400.11"
         style="fill:#ff2363;fill-opacity:1;fill-rule:nonzero;stroke:none"
         id="path308" /><path
         d="m 1872.07,2554.26 c 0,-13.21 5.52,-23.1 15.77,-23.1 9.29,0 15.3,9.27 15.3,23.1 0,11.56 -4.4,23.24 -15.3,23.24 -11.51,0 -15.77,-11.83 -15.77,-23.24 z m 55.84,0.78 c 0,-28.22 -20.02,-41.2 -40.69,-41.2 -22.57,0 -39.95,14.87 -39.95,39.84 0,24.95 16.43,40.84 41.21,40.84 23.66,0 39.43,-16.23 39.43,-39.48"
         style="fill:#ffffff;fill-opacity:1;fill-rule:nonzero;stroke:none"
         id="path310" /><path
         d="m 1962.54,2554.26 c 0,-13.21 5.52,-23.1 15.74,-23.1 9.36,0 15.33,9.27 15.33,23.1 0,11.56 -4.4,23.24 -15.33,23.24 -11.48,0 -15.74,-11.83 -15.74,-23.24 z m 55.84,0.78 c 0,-28.22 -20.06,-41.2 -40.73,-41.2 -22.57,0 -39.92,14.87 -39.92,39.84 0,24.95 16.41,40.84 41.18,40.84 23.7,0 39.47,-16.23 39.47,-39.48"
         style="fill:#ffffff;fill-opacity:1;fill-rule:nonzero;stroke:none"
         id="path312" /><path
         d="m 2056.04,2548.77 c 0,-1.91 0.16,-3.64 0.48,-5.06 1.61,-6.47 7.15,-11.34 14.07,-11.34 10.46,0 16.6,8.68 16.6,21.74 0,12.34 -5.55,21.63 -16.29,21.63 -6.76,0 -12.77,-5.05 -14.38,-12.16 -0.32,-1.21 -0.48,-2.79 -0.48,-4.25 z m -23.9,18.16 c 0,10.14 -0.35,18.78 -0.68,25.87 h 20.84 l 1.15,-10.71 h 0.27 c 5.66,8.19 14.55,12.43 25.71,12.43 16.87,0 32.05,-14.66 32.05,-39.28 0,-28.1 -17.81,-41.4 -35.06,-41.4 -9.29,0 -16.56,3.86 -20.03,8.89 h -0.35 v -38.37 h -23.9 v 82.57"
         style="fill:#ffffff;fill-opacity:1;fill-rule:nonzero;stroke:none"
         id="path314" /><path
         d="m 2125.21,2536.61 c 4.44,-2.68 13.56,-5.83 20.71,-5.83 7.24,0 10.27,2.49 10.27,6.46 0,3.97 -2.4,5.86 -11.4,8.84 -15.92,5.35 -22.07,14.04 -21.91,23.2 0,14.4 12.34,25.24 31.38,25.24 9.04,0 17.07,-2.04 21.78,-4.43 l -4.24,-16.51 c -3.51,1.83 -10.11,4.35 -16.72,4.35 -5.85,0 -9.16,-2.36 -9.16,-6.25 0,-3.66 2.99,-5.54 12.51,-8.84 14.62,-5.03 20.76,-12.47 20.92,-23.86 0,-14.35 -11.36,-24.98 -33.43,-24.98 -10.1,0 -19.1,2.29 -24.92,5.38 l 4.21,17.23"
         style="fill:#ffffff;fill-opacity:1;fill-rule:nonzero;stroke:none"
         id="path316" /><path
         d="m 4807.69,1571 492.07,852.34 c 24.2,41.85 84.61,41.85 108.8,0 L 5900.63,1571 c 24.24,-41.88 -6.03,-94.22 -54.38,-94.22 h -984.18 c -48.35,0 -78.62,52.34 -54.38,94.22 v 0"
         style="fill:#ff2363;fill-opacity:1;fill-rule:nonzero;stroke:none"
         id="path318" /><path
         d="m 4931.72,1631.55 380.39,658.8 c 18.68,32.37 65.42,32.37 84.1,0 l 380.39,-658.8 c 18.69,-32.38 -4.7,-72.83 -42.07,-72.83 h -760.74 c -37.41,0 -60.76,40.45 -42.07,72.83 v 0"
         style="fill:#ffffff;fill-opacity:1;fill-rule:nonzero;stroke:none"
         id="path320" /><path
         d="m 5320.63,1800.7 -12.84,251.78 h 88.37 l -12.22,-251.78 z m -18.39,-78.37 c 0,29.43 20.51,50.58 50.02,50.58 29.45,0 48.9,-21.15 49.46,-50.58 0,-28.93 -19.5,-50.58 -49.46,-50.58 -30.01,0 -50.02,21.65 -50.02,50.58"
         style="fill:#ff2363;fill-opacity:1;fill-rule:nonzero;stroke:none"
         id="path322" /></g></g></svg>
