<svg width="329" height="481" viewBox="0 0 329 481" fill="none" xmlns="http://www.w3.org/2000/svg">
<path d="M303.699 434.694H38.7655C6.34788 406.681 -7.69402 358.063 4.17052 316.894C15.2644 278.395 46.7968 245.071 44.8496 205.055C43.1687 170.498 16.2142 139.921 18.8118 105.422C20.1878 87.151 30.4874 69.7621 45.8493 59.7747C61.2107 49.7884 81.2826 47.4321 98.5399 53.5889C115.652 59.6939 129.019 73.1794 140.647 87.1372C152.277 101.097 162.997 116.138 177.419 127.189C191.84 138.239 211.17 144.846 228.392 139.057C241.942 134.5 252.745 122.867 266.865 120.637C284.622 117.831 301.777 131.744 308.081 148.58C314.386 165.415 312.15 184.197 308.196 201.734C304.242 219.27 298.629 236.667 298.396 254.643C298.131 275.239 304.945 295.205 312.067 314.531C319.188 333.858 326.783 353.398 328.186 373.947C329.59 394.496 319.408 421.373 303.699 434.694" fill="#F9B1BE"/>
<path d="M207.756 116.39C220.598 119.338 234.841 119.525 246.132 112.733C258.182 105.484 264.864 91.0036 264.631 76.942C264.398 62.8803 257.934 49.4086 248.683 38.8151C239.433 28.2226 227.54 20.2555 215.172 13.5607C204.57 7.81941 193.362 2.87361 181.465 0.910978C161.183 -2.43357 135.469 2.84243 132.764 26.6179C131.583 37.0014 133.672 47.9274 137.789 57.3792C145.937 76.09 159.833 92.2505 176.979 103.292C186.398 109.358 196.827 113.881 207.756 116.39" fill="#F9B1BE"/>
<path d="M17.3906 441.033C17.3906 444.536 20.229 447.374 23.7299 447.374H40.378C47.9259 447.374 55.1403 450.481 60.3251 455.966L61.2325 456.925C66.4173 462.41 73.6328 465.517 81.1797 465.517H102.079C109.025 465.517 115.713 468.15 120.794 472.885C125.874 477.62 132.561 480.253 139.508 480.253H203.688C210.633 480.253 217.32 477.62 222.402 472.885C227.483 468.15 234.171 465.517 241.117 465.517H262.016C269.563 465.517 276.777 462.41 281.963 456.925L282.871 455.966C288.056 450.481 295.27 447.374 302.818 447.374H319.466C322.967 447.374 325.805 444.536 325.805 441.033C325.805 437.532 322.967 434.694 319.466 434.694H23.7299C20.229 434.694 17.3906 437.532 17.3906 441.033Z" fill="#3B234C"/>
<path d="M143.53 142.695C133.454 143.667 123.014 139.385 116.521 131.617C110.029 123.85 107.667 112.816 110.412 103.071C106.518 99.8146 104.105 94.7025 104.077 89.6263C104.048 84.55 106.355 79.5083 110.213 76.21C106.586 68.6192 108.339 58.7068 113.364 51.9612C118.389 45.2143 127.284 41.5811 135.596 42.8799C138.772 36.4056 145.611 30.662 152.691 29.2916C159.771 27.9201 167.443 30.0478 172.806 34.8689C178.912 30.5419 187.474 29.2616 194.657 31.3605C201.839 33.457 207.943 38.9674 210.761 45.9001C219.049 44.8876 228.421 48.9895 233.098 55.9072C237.775 62.8237 238.211 72.3771 234.185 79.6919C241.161 84.2845 245.476 92.681 245.421 101.033C245.364 109.384 240.843 117.576 233.808 122.075C236.276 130.819 232.537 141.148 225.325 146.675C218.112 152.203 207.497 152.818 199.694 148.162C196.163 153.205 189.848 155.483 183.716 154.934C177.583 154.386 171.879 150.368 169.297 144.778C166.537 148.431 161.598 150.821 157.026 150.558C152.455 150.293 145.854 146.641 143.53 142.695" fill="#3B234C"/>
<path d="M115.834 54.1293C121.237 48.3649 129.921 45.9105 137.543 47.9943C139.536 41.2048 145.824 36.3329 152.724 34.7616C159.624 33.1904 167.288 35.6194 172.024 40.8758C177.642 37.6213 184.74 35.7787 191.174 36.6527C197.606 37.5255 206.214 41.2649 210.761 45.9001C207.942 38.9674 201.839 33.4571 194.657 31.3605C187.473 29.2617 178.912 30.542 172.806 34.869C167.443 30.0478 159.77 27.9201 152.691 29.2916C145.611 30.662 138.771 36.4056 135.595 42.88C127.284 41.5812 118.389 45.2144 113.363 51.9612C108.339 58.7068 106.585 68.6192 110.213 76.21C107.642 68.7382 110.43 59.8936 115.834 54.1293" fill="#573D6E"/>
<path d="M234.185 79.6919C241.256 93.7593 240.134 110.174 227.46 118.739C229.3 126.145 226.139 134.535 219.868 138.885C213.598 143.235 204.808 143.005 198.516 138.686C191.146 142.852 182.414 144.559 174.018 143.477C165.621 142.394 156.186 137.686 150.113 131.788C141.332 134.26 131.454 132.469 124.1 127.071C116.747 121.672 110.684 112.19 110.411 103.071C107.667 112.816 110.029 123.85 116.522 131.617C123.014 139.385 133.454 143.667 143.53 142.695C145.854 146.641 152.454 150.293 157.026 150.558C161.598 150.821 166.537 148.431 169.297 144.778C171.879 150.368 177.583 154.386 183.716 154.934C189.848 155.483 196.163 153.205 199.694 148.162C207.497 152.818 218.112 152.203 225.324 146.675C232.536 141.148 236.276 130.819 233.808 122.075C240.843 117.576 245.364 109.384 245.421 101.033C245.476 92.681 241.16 84.2845 234.185 79.6919" fill="#23172F"/>
<path d="M222.862 83.347C222.048 79.9401 220.11 76.4975 217.222 73.9865C216.535 73.3896 215.8 72.8574 215.036 72.3817C215.515 69.4493 215.25 65.9558 213.92 62.5605C212.414 58.6318 209.486 54.8532 205.538 52.4634C201.589 50.0759 196.883 49.2365 192.704 49.7261C188.501 50.1867 184.84 51.9762 182.413 54.1754C185.416 52.8524 189.023 51.99 192.824 52.0651C196.611 52.1239 200.571 53.1156 203.923 55.1348C207.266 57.1644 209.982 60.2123 211.793 63.5395C213.326 66.3299 214.207 69.3004 214.584 72.1173C212.252 70.7585 209.663 69.9446 207.168 69.7079C203.667 69.3524 200.377 70.1074 197.964 71.3923C200.665 70.9328 203.757 70.9109 206.856 71.6371C209.948 72.3494 213.03 73.8029 215.514 75.9537C217.99 78.1126 219.858 80.9619 220.994 83.9243C222.146 86.8913 222.556 89.9565 222.476 92.6949C223.413 90.1262 223.701 86.7632 222.862 83.347" fill="#573D6E"/>
<path d="M160.865 52.2197C157.456 51.2546 153.467 51.2442 149.812 52.506C146.158 53.7702 143.026 56.2396 140.941 59.1039C138.979 61.7627 137.939 64.7436 137.675 67.3701C135.344 67.5871 132.977 68.2498 130.834 69.4181C127.61 71.1787 125.056 73.9772 123.536 76.9834C121.99 79.992 121.485 83.1935 121.747 85.813C122.325 83.2396 123.413 80.4688 125.156 77.9405C126.885 75.4157 129.254 73.1448 132.037 71.6209C134.824 70.105 138.015 69.3408 141.075 69.253C144.143 69.1549 147.063 69.7391 149.54 70.6453C147.478 69.0083 144.514 67.7002 141.147 67.3723C140.086 67.2627 138.986 67.2627 137.878 67.3539C138.901 64.9664 140.405 62.5131 142.461 60.3716C144.68 58.043 147.526 56.093 150.674 54.9997C153.826 53.9168 157.267 53.6929 160.45 54.1547C163.645 54.6061 166.561 55.7455 168.955 57.1448C167.127 55.0667 164.295 53.1675 160.865 52.2197" fill="#573D6E"/>
<path d="M274.403 346.695L256.241 170.828H223.135C220.604 177.59 216.122 183.591 210.189 187.307C203.603 191.435 195.229 192.548 188.067 189.666C181.632 187.079 176.429 181.142 174.76 174.169H152.941C136.824 174.169 122.782 185.153 118.901 200.796L106.296 251.593L134.588 265.032L125.508 346.695H274.403" fill="#51AFC1"/>
<path d="M159.693 225.101C159.693 225.101 154.895 195.159 164.567 174.169H155.397C145.725 195.159 150.523 225.101 150.523 225.101H159.693Z" fill="#3D4F78"/>
<path d="M236.531 221.76C236.531 221.76 231.733 191.818 241.405 170.828H232.235C222.563 191.818 227.361 221.76 227.361 221.76H236.531Z" fill="#3D4F78"/>
<path d="M227.359 221.76H236.531C236.531 221.76 236.02 218.556 235.667 213.527C232.652 214.067 229.636 214.609 226.621 215.15C226.958 219.234 227.359 221.76 227.359 221.76Z" fill="#3B234C"/>
<path d="M149.688 217.271C150.039 222.07 150.523 225.101 150.523 225.101H159.693C159.693 225.101 159.251 222.329 158.906 217.896C155.823 217.89 152.744 217.675 149.688 217.271" fill="#3B234C"/>
<path d="M125.508 346.695L137.967 234.653C142.451 232.72 145.758 227.545 147.401 224.462C148.174 223.017 149.716 222.175 151.35 222.301C175.439 224.16 216.868 221.831 236.526 218.338C238.258 218.031 239.988 218.868 240.829 220.412C247.375 232.421 255.758 241.141 263.931 245.288L274.403 346.695H125.508Z" fill="#3D4F78"/>
<path d="M249.826 233.612C254.33 238.886 259.165 242.869 263.93 245.288L274.403 346.695L259.041 197.949L252.816 217.061C251.069 222.422 250.074 227.99 249.826 233.612Z" fill="#308299"/>
<path d="M131.026 297.063L125.508 346.695L131.026 297.063Z" fill="white"/>
<path d="M249.826 233.612C249.766 234.961 249.737 236.312 249.765 237.665L250.5 272.892L212.206 256.071L181.094 269.811L131.026 297.063L125.508 346.695H274.403L263.931 245.288C259.165 242.869 254.33 238.886 249.826 233.612" fill="#3B234C"/>
<path d="M158.68 231.861L151.883 231.427C150.809 231.358 149.994 230.432 150.062 229.357C150.131 228.284 151.057 227.469 152.132 227.537L158.929 227.971C160.003 228.039 160.818 228.966 160.749 230.04C160.681 231.114 159.755 231.929 158.68 231.861" fill="#6D749A"/>
<path d="M229.117 228.573L235.913 228.139C236.988 228.07 237.803 227.144 237.735 226.069C237.667 224.996 236.74 224.18 235.665 224.249L228.869 224.683C227.794 224.752 226.979 225.678 227.048 226.753C227.116 227.826 228.043 228.641 229.117 228.573" fill="#6D749A"/>
<path d="M134.587 265.032L141.777 200.378C137.13 204.207 133.958 209.534 132.807 215.445L124.12 260.061L134.587 265.032Z" fill="#308299"/>
<path d="M224.903 181.157C222.488 185.288 218.819 189.294 214.086 192.117C209.388 194.975 203.679 196.447 197.926 196.277C192.168 196.122 186.532 194.347 181.806 191.445C177.051 188.569 173.225 184.722 170.34 180.908C171.876 185.429 175.017 190.389 179.838 194.239C182.237 196.155 185.026 197.807 188.1 198.939C191.161 200.096 194.471 200.719 197.798 200.831C201.127 200.906 204.48 200.466 207.606 199.434C210.741 198.437 213.617 196.839 216.041 194.919C220.931 191.073 223.92 185.834 224.903 181.157" fill="#308299"/>
<path d="M216.625 204.009C214.054 204.682 211.127 205.352 207.987 205.789C204.852 206.232 201.51 206.444 198.172 206.359C194.834 206.265 191.509 205.874 188.402 205.263C185.29 204.659 182.403 203.834 179.871 203.024C182.017 204.583 184.773 206.046 187.917 207.094C191.055 208.149 194.569 208.787 198.104 208.884C201.64 208.976 205.183 208.528 208.374 207.643C211.57 206.765 214.399 205.451 216.625 204.009" fill="#308299"/>
<path d="M188.067 189.666C195.229 192.548 203.603 191.435 210.189 187.309C216.122 183.591 220.604 177.591 223.134 170.828H215.136L200.774 129.749L176.187 160.411L181.069 174.169H174.76C176.428 181.142 181.632 187.079 188.067 189.666Z" fill="#D25961"/>
<path d="M191.288 165.677C195.908 162.323 199.029 157.158 200.551 151.656C202.073 146.153 202.088 140.321 201.326 134.663C201.118 133.112 200.848 131.572 200.542 130.039L176.187 160.411L179.37 169.383C183.573 169.551 187.86 168.165 191.288 165.677Z" fill="#3B234C"/>
<path d="M315.12 289.567L304.89 261.811L266.624 271.364L315.12 289.567Z" fill="#BA3E59"/>
<path d="M304.89 261.811L306.667 266.633L285.302 278.376L266.624 271.364L304.89 261.811Z" fill="#3B234C"/>
<path d="M256.718 170.828H256.24L252.507 182.1C248.907 192.964 248.581 204.648 251.569 215.696L266.624 271.364L313.726 259.605L289.78 193.961C284.713 180.071 271.505 170.828 256.718 170.828" fill="#51AFC1"/>
<path d="M306.15 251.72C300.651 252.665 293.67 254.407 286.736 256.306C279.805 258.216 272.912 260.284 267.702 262.278C273.274 262.015 280.448 260.789 287.438 258.864C294.432 256.95 301.226 254.339 306.15 251.72" fill="#308299"/>
<path d="M177.817 191.004C173.736 190.36 169.412 191.42 166.092 193.878L167.999 209.938L183.998 206.018L177.817 191.004Z" fill="#EC4C61"/>
<path d="M175.817 202.689C172.916 203.389 170.037 201.458 169.616 198.504L168.731 192.311C167.802 192.744 166.916 193.268 166.092 193.878L167.999 209.938L183.998 206.018L182.189 201.623C179.937 201.856 177.919 202.181 175.817 202.689" fill="#B73065"/>
<path d="M198.07 224.197C198.07 224.197 215.264 252.702 223.774 281.929C225.246 286.987 222.203 292.252 217.085 293.505L190.985 299.896C186.046 301.105 181.056 298.11 179.815 293.178C175.806 277.249 169.182 246.934 167.759 231.147C163.729 229.789 161.198 224.675 161.213 220.421C161.23 216.169 163.557 212.138 166.812 209.402C170.067 206.665 174.169 205.104 178.325 204.206C183.216 203.149 188.637 203.036 192.888 205.674C198.248 209.002 201.007 218.614 198.07 224.197" fill="#FBC855"/>
<path d="M189.42 291.701C185.413 275.77 175.432 242.689 174.01 226.9C169.979 225.544 167.449 220.428 167.464 216.175C167.478 212.482 169.238 208.957 171.834 206.301C170.031 207.117 168.327 208.127 166.812 209.402C163.557 212.138 161.23 216.169 161.213 220.421C161.198 224.675 163.729 229.789 167.759 231.147C169.182 246.934 175.806 277.249 179.815 293.178C181.056 298.11 186.046 301.105 190.985 299.896L196.645 298.511C193.226 297.853 190.325 295.296 189.42 291.701Z" fill="#F7974C"/>
<path d="M235.851 258.884L218.2 236.929C214.531 232.366 208.581 230.218 202.872 231.523C193.823 233.59 185.258 237.725 178.111 243.662C176.519 244.985 174.917 246.507 174.768 248.714C174.702 249.673 175.038 250.656 175.755 251.296C177.126 252.519 178.82 251.925 180.295 251.336C187.497 248.457 194.7 245.579 201.903 242.7C193.826 246.355 185.653 250.068 178.761 255.643C177.302 256.824 175.845 258.167 175.56 260.136C175.423 261.077 175.67 262.075 176.33 262.759C177.778 264.258 179.958 263.518 181.711 262.747C184.666 261.451 187.619 260.153 190.573 258.855C196.414 256.29 202.253 253.726 208.094 251.161C200.997 254.785 193.9 258.409 186.805 262.033C185.235 262.834 183.631 263.662 182.44 264.958C181.247 266.256 180.535 268.141 181.094 269.81C181.758 271.796 184.027 272.876 186.12 272.835C188.213 272.794 190.178 271.88 192.07 270.985C198.317 268.028 204.563 265.07 210.81 262.113C206.498 264.6 202.186 267.088 197.874 269.575C196.635 270.29 195.358 271.038 194.521 272.198C193.686 273.358 193.412 275.054 194.272 276.197C194.969 277.125 196.242 277.468 197.396 277.347C198.551 277.228 199.623 276.718 200.669 276.217C204.958 274.159 209.248 272.102 213.537 270.046C215.212 272.466 217.639 274.001 220.516 274.623C223.393 275.246 226.37 275.137 229.312 275.026L280.745 313.281C289.132 319.519 300.519 319.859 309.262 314.133H309.263C314.453 310.736 317.58 304.95 317.58 298.745C317.58 290.771 312.443 283.705 304.857 281.247L235.851 258.884" fill="#D25961"/>
<path d="M311.381 312.165C303.625 314.77 295.098 313.614 288.314 309.039L231.639 270.816C228.786 271.377 225.868 271.942 222.987 271.542C220.107 271.143 217.298 269.268 216.066 266.633C211.275 268.964 206.483 271.294 201.691 273.625C200.192 274.353 198.636 275.097 196.97 275.151C195.823 275.188 194.617 274.797 193.787 274.044C193.682 274.809 193.809 275.583 194.272 276.197C194.969 277.125 196.241 277.468 197.396 277.347C198.55 277.228 199.623 276.718 200.669 276.217C204.958 274.159 209.248 272.102 213.537 270.046C215.212 272.466 217.639 274.001 220.516 274.623C223.393 275.246 226.37 275.137 229.312 275.026L280.745 313.281C289.131 319.519 300.519 319.859 309.262 314.133C310.242 313.493 311.149 312.765 311.974 311.966L311.381 312.165" fill="#BA3E59"/>
<path d="M264.141 176.994C261.807 178.478 259.363 180.668 257.279 183.449C255.19 186.222 253.468 189.57 252.382 193.12C251.304 196.671 250.863 200.411 251.05 203.878C251.226 207.348 252.033 210.529 253.141 213.063C252.883 210.301 252.766 207.177 253.026 203.9C253.277 200.623 253.899 197.2 254.902 193.888C255.917 190.579 257.311 187.393 258.931 184.534C260.545 181.669 262.385 179.142 264.141 176.994Z" fill="#308299"/>
<path d="M128.283 105.536C129.809 117.733 131.392 130.137 136.402 141.361C141.413 152.585 150.454 162.66 162.317 165.876C172.79 168.713 184.466 165.713 192.845 158.819C201.225 151.926 206.341 141.457 207.529 130.672C210.847 132.973 216.24 132.296 219.607 130.066C222.974 127.836 224.993 123.885 225.359 119.862C225.65 116.674 224.93 113.319 222.954 110.798C220.98 108.278 217.661 106.738 214.508 107.299C211.337 107.865 208.796 110.401 207.402 113.305C206.009 116.21 205.582 119.47 205.218 122.671C201.712 120.147 199.183 115.576 199.689 111.286C194.973 110.683 190.248 108.225 187.831 104.131C185.415 100.036 185.008 94.818 186.758 90.3987C182.605 92.6095 176.807 92.8577 172.316 91.4562C167.825 90.0546 163.945 86.7967 161.787 82.6151C159.836 86.1675 156.665 89.4474 152.812 90.7034C148.96 91.9607 144.633 91.6951 140.963 89.9773C141.143 93.5469 140.436 97.6569 138.063 100.328C135.688 103.001 131.849 105.294 128.283 105.536" fill="#D25961"/>
<path d="M216.34 112.759C213.21 114.739 211.152 118.313 211.01 122.014C210.965 123.188 211.159 124.486 212.041 125.263C212.84 125.967 214.061 126.06 215.049 125.664C216.038 125.268 216.811 124.45 217.354 123.535C217.891 122.633 218.236 121.589 218.163 120.541C218.09 119.495 217.556 118.453 216.652 117.921C215.748 117.388 214.478 117.467 213.747 118.221C213.95 116.382 215.015 114.05 216.34 112.759Z" fill="#BA3E59"/>
<path d="M183.247 112.551C176.883 111.842 170.521 111.132 164.157 110.422C165.079 108.64 166.761 106.83 168.586 105.995C170.41 105.16 172.517 104.957 174.468 105.427C178.008 106.279 180.913 109.756 183.247 112.551Z" fill="#3B234C"/>
<path d="M132.809 116.789C136.226 115.402 139.642 114.017 143.058 112.631C142.189 111.228 141.049 109.958 139.472 109.465C137.704 108.911 135.738 109.886 134.602 111.35C133.464 112.814 133.207 114.979 132.809 116.789Z" fill="#3B234C"/>
<path d="M173.011 125.765C173.011 127.966 171.673 129.749 170.023 129.749C168.373 129.749 167.035 127.966 167.035 125.765C167.035 123.566 168.373 121.782 170.023 121.782C171.673 121.782 173.011 123.566 173.011 125.765Z" fill="#3B234C"/>
<path d="M144.004 126.196C144.423 128.156 143.582 129.999 142.124 130.312C140.666 130.624 139.143 129.289 138.723 127.328C138.304 125.368 139.145 123.525 140.602 123.213C142.06 122.9 143.584 124.237 144.004 126.196Z" fill="#3B234C"/>
<path d="M161.569 137.147C158.412 137.456 155.236 137.587 152.063 137.54C152.715 139.417 154.831 140.902 156.818 140.838C158.804 140.775 161.037 139.061 161.569 137.147" fill="#BA3E59"/>
<path d="M178.352 145.316C170.977 148.304 163.258 150.44 155.397 151.667C158.05 153.239 160.879 154.852 163.897 155.478C166.916 156.103 170.231 155.819 172.803 154.119C175.565 152.294 177.252 148.439 178.352 145.316" fill="white"/>
<path d="M177.534 156.897C174.276 157.743 171.018 158.59 167.759 159.436C169.286 160.287 171.672 160.658 173.368 160.237C175.063 159.817 176.584 158.363 177.534 156.897Z" fill="#BA3E59"/>
<path d="M198.922 133.501C199.732 136.517 195.998 140.14 190.582 141.593C185.167 143.046 180.121 141.779 179.312 138.762C178.503 135.746 182.236 132.123 187.652 130.671C193.068 129.218 198.114 130.485 198.922 133.501Z" fill="#F46997"/>
<path d="M137.272 140.383C137.272 142.733 139.522 144.636 142.299 144.636C145.075 144.636 147.326 142.733 147.326 140.383C147.326 138.035 145.075 136.131 142.299 136.131C139.522 136.131 137.272 138.035 137.272 140.383Z" fill="#F46997"/>
<path d="M142.653 93.5804C146.014 95.416 150.608 96.0706 154.131 94.5663C157.653 93.0632 160.416 89.8861 161.417 86.1894C161.586 89.2141 163.626 92.2343 166.155 93.9037C168.683 95.5719 171.815 96.1815 174.838 95.9783C177.86 95.7751 180.788 94.8019 183.533 93.5204C182.191 97.7597 183.302 102.92 186.066 106.403C188.83 109.886 194.665 111.822 199.689 111.286C194.973 110.683 190.248 108.225 187.831 104.131C185.415 100.036 185.008 94.818 186.758 90.3986C182.606 92.6095 176.807 92.8577 172.317 91.4561C167.825 90.0546 163.945 86.7966 161.787 82.6151C159.836 86.1674 156.665 89.4473 152.812 90.7034C148.96 91.9607 144.633 91.6951 140.963 89.9772C141.143 93.5469 140.436 97.6569 138.063 100.328C135.688 103.001 131.849 105.294 128.283 105.536C128.423 106.645 128.562 107.754 128.704 108.865C132.613 108.865 136.962 107.419 139.55 104.49C142.138 101.56 143.311 97.4341 142.653 93.5804" fill="#BA3E59"/>
<path d="M267.157 451.143H69.3553C66.902 451.143 64.7904 449.409 64.3136 447.002L47.7173 363.273H288.795L272.2 447.002C271.723 449.409 269.61 451.143 267.157 451.143" fill="#3FA6D5"/>
<path d="M253.842 363.273H47.7173L50.1571 375.581H220.107C236.307 375.581 248.467 390.388 245.317 406.28L237.245 447.002C236.769 449.409 234.657 451.143 232.204 451.143H267.157C269.61 451.143 271.723 449.409 272.2 447.002L288.795 363.273H253.842" fill="#2B699C"/>
<path d="M71.6472 399.398L76.6738 424.756C77.8179 430.534 82.8861 434.694 88.774 434.694H96.4456C100.168 434.694 103.042 431.422 102.562 427.732L99.3179 402.777C98.519 396.631 93.2834 392.03 87.0838 392.03H77.6978C73.8095 392.03 70.891 395.584 71.6472 399.398Z" fill="#53C6D6"/>
<path d="M40.3621 346.695L35.5759 354.983H301.647L296.86 346.695H40.3621Z" fill="#3FA6D5"/>
<path d="M40.3621 363.273H296.86L301.647 354.983H35.5759L40.3621 363.273Z" fill="#3686BA"/>
<path d="M267.292 243.048C267.292 238.412 263.533 234.653 258.897 234.653C254.259 234.653 250.5 238.412 250.5 243.048C250.5 246.139 252.174 248.831 254.661 250.289C254.036 251.236 253.67 252.369 253.67 253.586C253.67 256.898 256.355 259.584 259.668 259.584C262.979 259.584 265.664 256.898 265.664 253.586C265.664 252.054 265.085 250.66 264.139 249.6C266.059 248.062 267.292 245.7 267.292 243.048" fill="#D9F2F1"/>
<path d="M78.3235 294.925C80.8899 292.463 82.4935 289.006 82.4935 285.17C82.4935 278.555 77.7451 273.056 71.4716 271.878C71.7314 271.273 71.8769 270.607 71.8769 269.906C71.8769 269.226 71.7383 268.579 71.4924 267.988C76.2224 267.685 79.9675 263.766 79.9675 258.959C79.9675 253.957 75.9129 249.903 70.9106 249.903C65.9082 249.903 61.8536 253.957 61.8536 258.959C61.8536 261.509 62.9111 263.809 64.6071 265.455C62.9792 266.284 61.8536 267.955 61.8536 269.906C61.8536 271.1 62.2877 272.182 62.9838 273.042C58.5114 275.25 55.4277 279.843 55.4277 285.17C55.4277 290.711 58.7642 295.47 63.5345 297.562C62.4747 299.183 61.8536 301.117 61.8536 303.198C61.8536 308.898 66.4739 313.518 72.1736 313.518C77.8733 313.518 82.4935 308.898 82.4935 303.198C82.4935 299.806 80.8495 296.807 78.3235 294.925" fill="#D9F2F1"/>
<path d="M58.2481 283.691C57.8787 287.911 60.2004 291.985 64.0471 293.772C65.3055 294.356 66.8167 294.125 67.5637 292.849C68.2137 291.738 67.9066 289.921 66.6413 289.333C64.2711 288.232 63.1593 286.305 63.3891 283.691C63.6777 280.396 58.5368 280.416 58.2481 283.691Z" fill="white"/>
<path d="M67.0581 308.502C70.3657 308.502 70.3714 303.361 67.0581 303.361C63.7505 303.361 63.7447 308.502 67.0581 308.502Z" fill="white"/>
<path d="M251.015 346.695C248.903 338.96 245.918 326.514 245.594 318.504C245.271 310.493 246.903 302.153 251.678 295.714C256.723 288.91 264.657 284.926 270.802 279.097C276.681 273.522 280.919 266.086 282.05 258.064C283.182 250.041 281.04 241.479 275.75 235.342C270.462 229.205 261.791 225.306 253.808 226.69C258.309 229.926 261.54 234.884 262.68 240.309C263.822 245.734 262.865 251.573 260.049 256.349C255.94 263.32 248.462 267.536 243.074 273.574C234.358 283.342 230.932 298.427 235.851 310.558C221.458 301.305 160.033 298.478 141.014 310.044L145.126 295.394C145.126 295.394 150.171 292.031 153.918 286.518C156.129 283.265 156.68 279.164 155.552 275.397C153.25 267.705 147.966 252.507 138.7 238.337C138.7 238.337 137.673 222.402 134.588 211.865C130.733 214.692 122.851 223.516 119.682 236.023C119.682 236.023 104.518 235.51 96.2934 237.309C96.2934 237.309 93.4661 218.033 87.0714 209.552C57.4842 249.903 68.4506 296.046 89.3538 346.695H251.015" fill="#D1A78C"/>
<path d="M274.246 275.375C278.307 270.392 281.154 264.414 282.05 258.064C283.182 250.041 281.04 241.479 275.75 235.342C270.461 229.205 261.791 225.306 253.808 226.69C258.309 229.926 261.54 234.884 262.68 240.309C263.822 245.734 262.865 251.573 260.049 256.349C256.433 262.483 250.211 266.484 245.097 271.471C249.81 274.288 255.143 276.074 260.609 276.606C265.179 277.049 269.824 276.613 274.246 275.375" fill="#93718F"/>
<path d="M190.476 333.403C199.985 337.685 211.942 335.824 219.7 328.854C225.641 323.516 228.854 315.41 228.58 307.454C213.449 302.808 184.686 300.963 163.095 303.774C165.553 307.171 168.011 310.568 170.469 313.964C175.987 321.589 181.895 329.538 190.476 333.403" fill="#93718F"/>
<path d="M108.042 236.082C103.957 236.243 99.5731 236.591 96.2932 237.309C96.2932 237.309 93.4659 218.033 87.0712 209.552C72.3018 229.694 67.6389 251.282 69.2713 274.152C78.3306 272.017 86.8206 267.459 93.5455 261.018C100.581 254.279 105.636 245.518 108.042 236.082" fill="#93718F"/>
<path d="M138.108 266.63C142.777 268.327 148.058 268.493 152.753 266.979C149.83 258.939 145.271 248.386 138.7 238.337C138.7 238.337 137.672 222.402 134.588 211.865C130.733 214.692 122.851 223.516 119.682 236.023C119.682 236.023 118.721 235.991 117.155 235.971C118.001 241.932 119.678 247.796 122.665 253.007C126.149 259.087 131.521 264.237 138.108 266.63" fill="#93718F"/>
<path d="M237.747 281.449C233.2 290.444 232.117 301.349 235.851 310.558C237.736 311.842 241.248 315.184 241.248 315.184C236.731 304.683 235.535 292.691 237.747 281.449Z" fill="#886456"/>
<path d="M157.647 304.614C150.8 305.847 144.981 307.63 141.013 310.044C138.314 319.295 132.918 327.777 132.918 327.777C144.4 323.986 154.15 310.959 157.647 304.614Z" fill="#886456"/>
<path d="M94.6226 300.02C116.166 316.73 136.934 304.993 143.788 300.161L145.126 295.394C137.929 300.148 105.546 303.618 94.6226 300.02" fill="#886456"/>
<path d="M125.508 236.452C128.688 236.407 132.197 236.94 134.8 237.45C134.483 230.475 133.457 223.534 131.771 216.758C127.429 225.654 125.508 236.452 125.508 236.452Z" fill="#3B234C"/>
<path d="M134.8 237.45C137.104 237.903 138.7 238.337 138.7 238.337C138.7 238.337 137.672 222.401 134.587 211.864C133.554 213.361 132.617 215.023 131.771 216.758C133.457 223.534 134.482 230.475 134.8 237.45" fill="#5C527A"/>
<path d="M82.9287 241.593C84.9145 240.624 87.751 239.654 90.5068 238.84C89.8984 231.012 88.132 223.278 85.2724 215.965C83.7819 222.151 82.0386 231.964 82.9287 241.593" fill="#3B234C"/>
<path d="M90.5069 238.84C92.6231 238.216 94.6931 237.681 96.2932 237.309C96.2932 237.309 93.4658 218.033 87.0711 209.552C87.0711 209.552 86.2226 212.024 85.2725 215.965C88.1321 223.278 89.8985 231.012 90.5069 238.84Z" fill="#5C527A"/>
<path d="M112.732 259.36C113.005 262.792 111.85 265.683 110.151 265.818C108.454 265.952 106.857 263.281 106.584 259.85C106.31 256.417 107.466 253.526 109.163 253.391C110.861 253.256 112.459 255.929 112.732 259.36Z" fill="#3B234C"/>
<path d="M136.452 258.669C136.209 261.716 137.236 264.286 138.745 264.405C140.253 264.525 141.673 262.15 141.916 259.103C142.157 256.054 141.131 253.484 139.622 253.365C138.114 253.245 136.694 255.62 136.452 258.669" fill="#3B234C"/>
<path d="M142.087 282.905C140.174 283.246 138.067 283.056 136.272 282.191C134.48 281.322 133.022 279.788 132.103 278.075C131.753 277.434 131.504 276.767 131.302 276.097C131.364 274.833 131.208 273.633 130.874 272.61C130.873 272.853 130.863 273.098 130.847 273.346C130.841 273.156 130.82 272.962 130.826 272.778C130.492 273.693 130.344 274.793 130.422 275.952C130.142 277.018 129.728 278.082 129.159 279.1C128.001 281.193 126.202 283.071 124.004 284.169C121.801 285.26 119.22 285.56 116.851 285.222C114.469 284.89 112.315 283.922 110.641 282.673C111.83 284.384 113.93 285.966 116.541 286.678C119.129 287.408 122.225 287.27 124.888 285.947C127.551 284.621 129.529 282.236 130.508 279.732C130.685 279.29 130.821 278.843 130.939 278.398L130.999 278.578C131.77 280.626 133.382 282.586 135.569 283.646C137.756 284.702 140.294 284.747 142.379 284.08C144.486 283.429 146.144 282.058 147.033 280.615C145.729 281.705 144.01 282.571 142.087 282.905" fill="#3B234C"/>
<path d="M135.368 270.883C131.678 269.805 127.598 270.123 124.12 271.759C126.147 273.712 128.36 274.981 131.12 275.529C132.872 274.669 134.35 272.547 135.368 270.883" fill="#3B234C"/>
<path d="M53.6985 285.17C61.0641 283.04 70.6856 280.397 80.4606 278.431C90.2276 276.428 100.118 275.11 107.731 274.199C100.072 273.908 89.9725 274.641 80.1016 276.666C70.2227 278.652 60.6381 281.915 53.6985 285.17" fill="#926F8E"/>
<path d="M55.2327 293.951C62.267 291.579 71.4001 288.4 80.6302 285.518C89.8522 282.615 99.1667 280.013 106.296 277.944C98.9323 278.873 89.3928 280.932 80.1084 283.855C70.8171 286.755 61.8086 290.512 55.2327 293.951" fill="#926F8E"/>
<path d="M63.4978 304.476C69.463 301.312 77.1496 297.019 84.8951 292.834C92.6324 288.638 100.428 284.548 106.338 281.28C99.9923 283.584 91.9132 287.222 84.14 291.44C76.3576 295.644 68.895 300.421 63.4978 304.476" fill="#926F8E"/>
<path d="M192.057 279.393C187.865 276.923 181.283 274.393 173.542 272.944C164.985 271.294 155.166 270.995 147.033 271.775C155.066 272.398 164.584 273.284 173.011 274.804C180.646 276.141 187.357 277.995 192.057 279.393Z" fill="#926F8E"/>
<path d="M189.42 287.025C185.544 284.74 179.58 282.192 172.63 280.233C164.942 278.04 156.083 276.576 148.567 276.097C155.799 277.849 164.38 279.821 172.002 281.898C178.899 283.753 185.048 285.705 189.42 287.025Z" fill="#926F8E"/>
<path d="M182.227 296.374C179.058 293.832 174.175 290.718 168.468 287.851C162.164 284.664 154.836 281.764 148.494 279.879C154.374 282.823 161.419 286.134 167.708 289.22C173.407 292.002 178.535 294.626 182.227 296.374" fill="#926F8E"/>
<path d="M155.974 340.672C155.057 340.672 154.162 340.766 153.291 340.93C152.759 338.164 150.328 336.073 147.406 336.073C145.601 336.073 143.986 336.876 142.887 338.138C140.984 336.228 138.355 335.046 135.446 335.046C133.714 335.046 132.082 335.473 130.64 336.217C128.828 331.323 124.131 327.827 118.607 327.827C116.523 327.827 114.562 328.334 112.822 329.215C109.312 320.967 101.135 315.184 91.6071 315.184C83.4529 315.184 76.2951 319.422 72.1979 325.81C71.4197 325.58 70.5977 325.451 69.7457 325.451C65.3506 325.451 61.7324 328.746 61.2071 332.998C60.8019 332.963 60.3932 332.937 59.9788 332.937C52.272 332.937 46.0094 339.052 45.7405 346.695H167.668C165.057 343.052 160.798 340.672 155.974 340.672" fill="#D9F2F1"/>
<path d="M281.08 336.17C279.591 336.17 278.167 336.442 276.84 336.914C276.851 336.707 276.871 336.502 276.871 336.294C276.871 330.549 272.214 325.892 266.47 325.892C262.652 325.892 259.324 327.955 257.515 331.021C254.745 326.608 249.85 323.665 244.256 323.665C237.513 323.665 231.784 327.934 229.577 333.91C229.099 333.826 228.609 333.774 228.105 333.774C224.238 333.774 220.977 336.349 219.929 339.876C216.913 337.272 212.991 335.687 208.693 335.687C201.377 335.687 195.143 340.257 192.648 346.695H293.561C292.536 340.721 287.346 336.17 281.08 336.17" fill="#D9F2F1"/>
<path d="M222.843 300.791C221.803 300.791 220.83 301.071 219.988 301.553C219.572 298.084 216.623 295.394 213.041 295.394C212.645 295.394 212.259 295.434 211.882 295.498L211.886 295.394C211.886 287.923 205.831 281.867 198.36 281.867C192.565 281.867 187.635 285.518 185.709 290.642C183.964 287.936 180.93 286.141 177.472 286.141C172.058 286.141 167.668 290.53 167.668 295.946C167.668 296.574 167.733 297.186 167.846 297.78C167.315 297.661 166.765 297.592 166.199 297.592C162.08 297.592 158.742 300.931 158.742 305.048C158.742 309.167 162.08 312.505 166.199 312.505C170.315 312.505 173.654 309.167 173.654 305.048L173.651 304.975C174.533 305.349 175.483 305.598 176.476 305.699C176.316 306.389 176.224 307.104 176.224 307.842C176.224 313.104 180.489 317.368 185.75 317.368C186.913 317.368 188.024 317.149 189.055 316.768C190.286 321.842 194.847 325.616 200.301 325.616C206.699 325.616 211.886 320.429 211.886 314.031C211.886 313.921 211.873 313.815 211.87 313.706C213.013 314.914 214.626 315.671 216.42 315.671C218.863 315.671 220.974 314.271 222.009 312.231C222.282 312.27 222.559 312.299 222.843 312.299C226.021 312.299 228.596 309.722 228.596 306.544C228.596 303.367 226.021 300.791 222.843 300.791" fill="#D9F2F1"/>
<path d="M128.48 231.363C128.706 230.538 128.837 229.675 128.837 228.779C128.837 226.044 127.709 223.576 125.898 221.802C124.137 220.079 121.73 219.012 119.07 219.012C117.455 219.012 115.934 219.411 114.592 220.106C112.349 216.037 108.021 213.279 103.047 213.279C98.3631 213.279 94.2612 215.729 91.9233 219.409C94.9192 227.953 96.2931 237.309 96.2931 237.309C96.6613 237.229 97.047 237.155 97.4406 237.083L97.6888 237.038C98.0779 236.97 98.4751 236.905 98.8837 236.846L99.0754 236.819C99.461 236.763 99.8535 236.711 100.254 236.663L100.438 236.641C100.876 236.589 101.322 236.542 101.773 236.497L102.001 236.475C102.936 236.385 103.891 236.31 104.849 236.247L105.028 236.236C105.519 236.205 106.008 236.176 106.498 236.151H106.5C107.015 236.125 107.526 236.102 108.035 236.082H108.042C109.466 236.026 110.851 235.992 112.143 235.975C112.26 235.972 112.372 235.971 112.485 235.97C114.222 237.562 116.528 238.545 119.07 238.545C119.715 238.545 120.344 238.479 120.955 238.36C121.504 241.131 123.945 243.22 126.878 243.22C130.111 243.22 132.744 240.677 132.902 237.483L132.918 237.18C132.918 234.401 131.037 232.066 128.48 231.363" fill="#D9F2F1"/>
<path d="M285.302 270.601C285.302 265.747 281.367 261.811 276.511 261.811C273.29 261.811 270.481 263.55 268.95 266.133C268.097 265.779 267.162 265.58 266.181 265.58C262.205 265.58 258.983 268.804 258.983 272.778C258.983 274.045 259.313 275.234 259.888 276.269C254.991 277.138 251.272 281.405 251.272 286.549C251.272 287.159 251.335 287.755 251.436 288.335C248.876 289.02 246.989 291.347 246.989 294.123C246.989 297.435 249.673 300.12 252.986 300.12C255.458 300.12 257.58 298.623 258.496 296.487C259.514 296.817 260.596 297.001 261.723 297.001C267.496 297.001 272.176 292.322 272.176 286.549L272.161 286.253C272.684 286.399 273.233 286.484 273.804 286.484C277.162 286.484 279.886 283.761 279.886 280.402C279.886 279.846 279.806 279.311 279.665 278.799C282.96 277.531 285.302 274.344 285.302 270.601Z" fill="#D9F2F1"/>
<path d="M96.2102 223.522C97.397 223.921 98.3656 223.599 99.2511 222.787C100.429 221.708 101.921 221.268 103.49 221.054C104.877 220.865 105.605 219.105 105.286 217.892C104.894 216.405 103.493 215.911 102.125 216.098C100.705 216.291 99.3261 216.704 98.025 217.3C97.1846 217.684 96.1525 217.921 95.372 218.408C93.399 219.642 94.0247 222.707 96.082 223.477L96.2102 223.522" fill="white"/>
<path d="M123.216 226.771C126.523 226.771 126.528 221.631 123.216 221.631C119.908 221.631 119.902 226.771 123.216 226.771Z" fill="white"/>
<path d="M129.577 239.558C132.884 239.558 132.889 234.417 129.577 234.417C126.268 234.417 126.264 239.558 129.577 239.558Z" fill="white"/>
<path d="M77.4864 337.421C78.3153 329.704 84.4734 323.955 92.1784 323.466C95.4641 323.26 95.4872 318.118 92.1784 318.327C81.4567 319.006 73.4884 326.78 72.3466 337.421C71.9945 340.706 77.1366 340.682 77.4864 337.421Z" fill="white"/>
<path d="M54.8345 342.948C55.9648 341.615 57.222 340.929 58.9434 340.656C60.3149 340.437 61.078 338.725 60.7386 337.495C60.3368 336.033 58.9526 335.48 57.5765 335.698C55.1232 336.091 52.8038 337.42 51.2002 339.314C50.3036 340.373 50.1612 341.91 51.2002 342.948C52.1192 343.869 53.934 344.013 54.8345 342.948" fill="white"/>
<path d="M114.294 337.223L114.482 336.909C114.277 337.157 114.235 337.209 114.356 337.065L114.479 336.929L114.741 336.673C114.941 336.451 114.255 336.961 114.73 336.686C114.836 336.625 114.941 336.563 115.047 336.502C115.383 336.304 114.968 336.479 114.934 336.539C115.012 336.399 115.666 336.352 115.823 336.33C116.413 336.25 117.074 335.635 117.359 335.149C117.681 334.598 117.818 333.786 117.619 333.169C117.143 331.698 115.891 331.177 114.457 331.373C112.539 331.634 110.798 332.969 109.855 334.628C109.191 335.797 109.54 337.491 110.778 338.145C111.997 338.789 113.584 338.472 114.294 337.223" fill="white"/>
<path d="M146.411 342.599C149.718 342.599 149.724 337.459 146.411 337.459C143.103 337.459 143.097 342.599 146.411 342.599Z" fill="white"/>
<path d="M161.164 302.233C160.375 304.133 161.046 306.613 162.577 307.95C163.588 308.836 165.23 309.02 166.211 307.95C167.101 306.981 167.292 305.261 166.211 304.317L165.954 304.073C166.164 304.369 166.193 304.401 166.038 304.17C165.908 303.922 165.918 303.967 166.068 304.305C166.026 304.195 165.993 304.08 165.966 303.966C165.911 303.682 165.918 303.734 165.985 304.123C165.98 304.004 165.983 303.887 165.992 303.769C165.931 304.159 165.933 304.213 165.996 303.932C166.03 303.818 166.07 303.707 166.12 303.599C166.637 302.354 165.564 300.72 164.325 300.438C162.826 300.096 161.717 300.9 161.164 302.233" fill="white"/>
<path d="M174.795 295.759C174.825 295.613 174.858 295.47 174.901 295.327C175.049 294.846 174.824 295.262 174.867 295.364L175.077 294.974L175.172 294.824C175.279 294.668 175.233 294.722 175.033 294.988C175.208 294.915 175.447 294.557 175.593 294.418C175.798 294.221 175.164 294.652 175.573 294.455C175.732 294.378 175.881 294.281 176.042 294.204C177.257 293.621 177.674 291.788 176.964 290.687C176.16 289.439 174.748 289.141 173.448 289.766C171.646 290.629 170.251 292.441 169.838 294.392C169.559 295.703 170.224 297.232 171.633 297.553C172.924 297.847 174.496 297.164 174.795 295.759" fill="white"/>
<path d="M190.54 296.041C191.145 291.532 195.227 288.902 199.549 289.207C202.851 289.44 202.837 284.298 199.549 284.067C192.126 283.543 186.359 288.879 185.4 296.041C184.962 299.31 190.107 299.276 190.54 296.041" fill="white"/>
<path d="M235.194 339.533C236.162 336.245 238.295 333.636 241.281 331.97C244.17 330.358 241.581 325.917 238.687 327.533C234.556 329.837 231.57 333.636 230.238 338.168C229.303 341.347 234.263 342.706 235.194 339.533" fill="white"/>
<path d="M247.031 331.118C250.339 331.118 250.343 325.977 247.031 325.977C243.723 325.977 243.718 331.118 247.031 331.118Z" fill="white"/>
<path d="M258.11 278.903C254.579 281.459 252.988 285.456 254.063 289.735C254.868 292.941 259.826 291.582 259.019 288.368C258.545 286.482 259.084 284.514 260.704 283.342C261.826 282.529 262.374 281.107 261.625 279.826C260.977 278.717 259.24 278.086 258.11 278.903Z" fill="white"/>
<path d="M263.545 274.769C266.851 274.769 266.857 269.629 263.545 269.629C260.236 269.629 260.231 274.769 263.545 274.769Z" fill="white"/>
<path d="M205.551 342.555C208.644 341.45 207.311 336.481 204.186 337.598C199.576 339.245 196.071 342.418 193.92 346.695H199.861C201.326 344.821 203.32 343.352 205.551 342.555Z" fill="white"/>
<path d="M224.903 217.863C220.806 217.863 217.483 214.542 217.483 210.443C217.483 206.346 220.806 203.024 224.903 203.024C225.337 203.024 225.762 203.062 226.177 203.133C226.121 209.105 226.502 214.247 226.846 217.607C226.227 217.774 225.575 217.863 224.903 217.863V217.863ZM222.444 205.149C220.662 205.149 219.219 206.593 219.219 208.376C219.219 210.157 220.662 211.601 222.444 211.601C224.226 211.601 225.67 210.157 225.67 208.376C225.67 206.593 224.226 205.149 222.444 205.149Z" fill="#B9E8E7"/>
<path d="M226.846 217.607C226.502 214.247 226.121 209.105 226.176 203.133C229.666 203.737 232.323 206.78 232.323 210.443C232.323 211.866 231.922 213.194 231.228 214.322C229.693 214.598 228.157 214.874 226.621 215.15C226.694 216.047 226.772 216.869 226.847 217.606C226.847 217.606 226.847 217.606 226.846 217.607" fill="#B6D9DC"/>
<path d="M226.847 217.606C226.772 216.869 226.694 216.047 226.621 215.15C228.157 214.874 229.693 214.598 231.228 214.322C230.251 215.913 228.692 217.106 226.847 217.606Z" fill="#B5CFD3"/>
<path d="M222.444 211.601C220.662 211.601 219.219 210.157 219.219 208.376C219.219 206.593 220.662 205.149 222.444 205.149C224.226 205.149 225.67 206.593 225.67 208.376C225.67 210.157 224.226 211.601 222.444 211.601Z" fill="#D6EFEF"/>
<path d="M259.496 189.65C258.494 189.65 257.557 189.371 256.759 188.886C257.345 187.541 257.988 186.237 258.675 184.993C259.481 184.636 260.043 183.829 260.043 182.892C260.043 182.82 260.04 182.75 260.034 182.68C260.683 181.645 261.355 180.659 262.033 179.726C263.671 180.624 264.781 182.364 264.781 184.365C264.781 187.283 262.415 189.65 259.496 189.65V189.65ZM254.949 187.059C254.48 186.271 254.211 185.349 254.211 184.365C254.211 181.445 256.578 179.079 259.496 179.079C260.047 179.079 260.577 179.163 261.076 179.318C260.447 179.876 259.826 180.48 259.22 181.13C258.821 180.795 258.307 180.593 257.745 180.593C256.475 180.593 255.446 181.622 255.446 182.892C255.446 183.644 255.809 184.312 256.368 184.731C255.866 185.475 255.393 186.253 254.949 187.059" fill="#B9E8E7"/>
<path d="M256.759 188.886C256.015 188.435 255.393 187.806 254.949 187.059C255.393 186.253 255.867 185.475 256.368 184.731C256.752 185.018 257.229 185.189 257.745 185.189C258.076 185.189 258.39 185.118 258.675 184.993C257.988 186.237 257.345 187.541 256.759 188.886V188.886ZM260.034 182.68C259.978 182.059 259.673 181.508 259.22 181.13C259.826 180.48 260.448 179.876 261.076 179.318C261.41 179.423 261.73 179.56 262.033 179.726C261.355 180.659 260.683 181.645 260.034 182.68" fill="#B1E5E2"/>
<path d="M258.675 184.993C258.759 184.839 258.845 184.686 258.931 184.534C259.288 183.899 259.658 183.282 260.034 182.68C260.04 182.749 260.043 182.82 260.043 182.891C260.043 183.829 259.481 184.636 258.675 184.993ZM256.367 184.731C255.809 184.311 255.446 183.644 255.446 182.891C255.446 181.622 256.475 180.593 257.745 180.593C258.307 180.593 258.821 180.795 259.22 181.13C258.549 181.848 257.898 182.622 257.279 183.449C256.967 183.864 256.663 184.292 256.367 184.731" fill="#D6EFEF"/>
<path d="M257.745 185.189C257.228 185.189 256.752 185.018 256.367 184.731C256.663 184.292 256.966 183.864 257.279 183.449C257.898 182.623 258.549 181.848 259.22 181.13C259.673 181.508 259.977 182.059 260.034 182.68C259.657 183.282 259.288 183.899 258.931 184.534C258.845 184.686 258.759 184.839 258.675 184.993C258.39 185.118 258.076 185.189 257.745 185.189" fill="#CCE5E4"/>
<path d="M246.52 210.264C244.654 210.264 243.14 208.752 243.14 206.885C243.14 205.018 244.654 203.506 246.52 203.506C248.146 203.506 249.505 204.656 249.827 206.188C249.849 206.418 249.873 206.647 249.899 206.876C249.899 206.879 249.899 206.883 249.899 206.885C249.899 208.752 248.386 210.264 246.52 210.264ZM245.4 204.473C244.588 204.473 243.93 205.131 243.93 205.943C243.93 206.755 244.588 207.413 245.4 207.413C246.211 207.413 246.869 206.755 246.869 205.943C246.869 205.131 246.211 204.473 245.4 204.473Z" fill="#B9E8E7"/>
<path d="M249.899 206.876C249.873 206.647 249.849 206.418 249.827 206.188C249.873 206.409 249.899 206.64 249.899 206.876Z" fill="#B9E8E7"/>
<path d="M245.4 207.413C244.588 207.413 243.93 206.755 243.93 205.943C243.93 205.132 244.588 204.474 245.4 204.474C246.211 204.474 246.869 205.132 246.869 205.943C246.869 206.755 246.211 207.413 245.4 207.413Z" fill="#D6EFEF"/>
<path d="M301.437 158.494C301.437 163.765 297.163 168.04 291.891 168.04C286.618 168.04 282.344 163.765 282.344 158.494C282.344 153.22 286.618 148.946 291.891 148.946C297.163 148.946 301.437 153.22 301.437 158.494Z" fill="#D9F2F1"/>
<path d="M292.878 155.832C292.878 158.124 291.019 159.983 288.727 159.983C286.435 159.983 284.576 158.124 284.576 155.832C284.576 153.54 286.435 151.68 288.727 151.68C291.019 151.68 292.878 153.54 292.878 155.832Z" fill="white"/>
<path d="M307.772 182.891C307.772 186.274 305.029 189.016 301.646 189.016C298.264 189.016 295.521 186.274 295.521 182.891C295.521 179.508 298.264 176.766 301.646 176.766C305.029 176.766 307.772 179.508 307.772 182.891Z" fill="#D9F2F1"/>
<path d="M302.28 181.184C302.28 182.655 301.088 183.847 299.617 183.847C298.145 183.847 296.953 182.655 296.953 181.184C296.953 179.712 298.145 178.521 299.617 178.521C301.088 178.521 302.28 179.712 302.28 181.184Z" fill="white"/>
<path d="M60.9 237.411C60.9 242.47 56.7982 246.572 51.7393 246.572C46.6794 246.572 42.5779 242.47 42.5779 237.411C42.5779 232.351 46.6794 228.249 51.7393 228.249C56.7982 228.249 60.9 232.351 60.9 237.411Z" fill="#D9F2F1"/>
<path d="M52.6867 234.857C52.6867 237.056 50.9031 238.84 48.7034 238.84C46.503 238.84 44.7195 237.056 44.7195 234.857C44.7195 232.657 46.503 230.873 48.7034 230.873C50.9031 230.873 52.6867 232.657 52.6867 234.857Z" fill="white"/>
<path d="M48.7035 256.751C48.7035 260.134 45.9607 262.877 42.578 262.877C39.1943 262.877 36.4519 260.134 36.4519 256.751C36.4519 253.368 39.1943 250.625 42.578 250.625C45.9607 250.625 48.7035 253.368 48.7035 256.751Z" fill="#D9F2F1"/>
<path d="M43.2116 255.043C43.2116 256.514 42.0188 257.708 40.5482 257.708C39.0767 257.708 37.8848 256.514 37.8848 255.043C37.8848 253.572 39.0767 252.38 40.5482 252.38C42.0188 252.38 43.2116 253.572 43.2116 255.043Z" fill="white"/>
<path d="M40.5481 281.28C40.5481 282.752 39.3553 283.944 37.8847 283.944C36.4132 283.944 35.2207 282.752 35.2207 281.28C35.2207 279.809 36.4132 278.617 37.8847 278.617C39.3553 278.617 40.5481 279.809 40.5481 281.28Z" fill="#D9F2F1"/>
<path d="M38.1603 280.538C38.1603 281.179 37.6417 281.697 37.0018 281.697C36.3619 281.697 35.8433 281.179 35.8433 280.538C35.8433 279.898 36.3619 279.38 37.0018 279.38C37.6417 279.38 38.1603 279.898 38.1603 280.538Z" fill="white"/>
<path d="M78.0456 180.908C78.0456 187.062 73.057 192.05 66.9024 192.05C60.749 192.05 55.7605 187.062 55.7605 180.908C55.7605 174.754 60.749 169.765 66.9024 169.765C73.057 169.765 78.0456 174.754 78.0456 180.908Z" fill="#D9F2F1"/>
<path d="M68.0558 177.801C68.0558 180.477 65.8865 182.647 63.2104 182.647C60.5343 182.647 58.365 180.477 58.365 177.801C58.365 175.125 60.5343 172.956 63.2104 172.956C65.8865 172.956 68.0558 175.125 68.0558 177.801Z" fill="white"/>
<path d="M91.0436 146.966C91.0436 150.349 88.3017 153.091 84.9179 153.091C81.5353 153.091 78.7922 150.349 78.7922 146.966C78.7922 143.582 81.5353 140.841 84.9179 140.841C88.3017 140.841 91.0436 143.582 91.0436 146.966Z" fill="#D9F2F1"/>
<path d="M85.5516 145.259C85.5516 146.729 84.359 147.922 82.8882 147.922C81.4174 147.922 80.2236 146.729 80.2236 145.259C80.2236 143.787 81.4174 142.595 82.8882 142.595C84.359 142.595 85.5516 143.787 85.5516 145.259Z" fill="white"/>
<path d="M100.219 174.169C100.219 176.851 98.0459 179.026 95.3629 179.026C92.681 179.026 90.5071 176.851 90.5071 174.169C90.5071 171.487 92.681 169.314 95.3629 169.314C98.0459 169.314 100.219 171.487 100.219 174.169Z" fill="#D9F2F1"/>
<path d="M95.865 172.816C95.865 173.982 94.9194 174.928 93.7534 174.928C92.5874 174.928 91.6418 173.982 91.6418 172.816C91.6418 171.65 92.5874 170.705 93.7534 170.705C94.9194 170.705 95.865 171.65 95.865 172.816Z" fill="white"/>
</svg>
